<?xml version="1.0" encoding="utf-8"?>
<!-- Generator: Adobe Illustrator 25.0.1, SVG Export Plug-In . SVG Version: 6.00 Build 0)  -->
<svg version="1.1" id="Layer_1" xmlns="http://www.w3.org/2000/svg" xmlns:xlink="http://www.w3.org/1999/xlink" x="0px" y="0px"
	 viewBox="0 0 600 400" enable-background="new 0 0 600 400" xml:space="preserve">
<g>
	<path fill="#38524F" d="M300.423,275.428c-0.749,0-1.496-0.01-2.24-0.031l0.043-1.487c3.001,0.088,6.064-0.007,9.052-0.282
		l0.137,1.481C305.109,275.319,302.757,275.428,300.423,275.428z M279.957,272.603c-2.954-0.835-5.889-1.866-8.722-3.062
		l0.578-1.371c2.777,1.173,5.654,2.182,8.548,3.002L279.957,272.603z M325.43,271.161l-0.494-1.402
		c2.828-0.996,5.631-2.187,8.334-3.537l0.665,1.331C331.177,268.93,328.317,270.144,325.43,271.161z M255.255,260.327
		c-2.451-1.849-4.814-3.871-7.021-6.005l1.033-1.069c2.165,2.092,4.479,4.072,6.883,5.886L255.255,260.327z M349.295,257.347
		l-0.969-1.127c2.283-1.962,4.47-4.085,6.5-6.309l1.097,1.002C353.853,253.182,351.623,255.346,349.295,257.347z M236.647,239.976
		c-1.623-2.608-3.1-5.341-4.389-8.124l1.348-0.624c1.264,2.728,2.71,5.407,4.301,7.961L236.647,239.976z M366.588,235.863
		l-1.31-0.703c1.43-2.66,2.704-5.428,3.789-8.229l1.386,0.537C369.345,230.326,368.046,233.149,366.588,235.863z M226.642,214.286
		c-0.565-3.01-0.95-6.095-1.142-9.165l1.484-0.092c0.187,3.009,0.563,6.033,1.118,8.985L226.642,214.286z M374.938,209.573
		l-1.475-0.18c0.364-2.976,0.55-6.018,0.55-9.04l-0.001-0.303h1.487l0.001,0.291C375.5,203.436,375.311,206.537,374.938,209.573z
		 M228.047,186.981l-1.461-0.269c0.555-3.024,1.304-6.04,2.227-8.966l1.418,0.447C229.325,181.061,228.591,184.016,228.047,186.981z
		 M371.74,182.121c-0.746-2.918-1.68-5.819-2.779-8.618l1.386-0.543c1.119,2.857,2.074,5.817,2.833,8.795L371.74,182.121z
		 M237.759,161.755l-1.265-0.78c1.612-2.614,3.406-5.154,5.327-7.551l1.16,0.931C241.096,156.702,239.339,159.194,237.759,161.755z
		 M360.344,157.619c-1.753-2.45-3.672-4.815-5.707-7.03l1.094-1.006c2.075,2.261,4.035,4.674,5.82,7.172L360.344,157.619z
		 M255.928,141.735l-0.899-1.183c2.446-1.858,5.029-3.584,7.681-5.127l0.748,1.284C260.857,138.222,258.325,139.912,255.928,141.735
		z M340.872,138.866c-2.515-1.659-5.16-3.177-7.855-4.51l0.659-1.332c2.752,1.362,5.447,2.909,8.016,4.601L340.872,138.866z
		 M280.082,129.611l-0.41-1.429c2.948-0.846,5.984-1.518,9.021-1.995l0.23,1.469C285.945,128.125,282.97,128.782,280.082,129.611z
		 M315.942,128.403c-2.942-0.63-5.954-1.084-8.953-1.35l0.131-1.481c3.061,0.271,6.134,0.734,9.134,1.377L315.942,128.403z"/>
</g>
<g>
	<path fill="#38524F" d="M319.008,201.839h-37.166c-0.821,0-1.487-0.666-1.487-1.487s0.666-1.487,1.487-1.487h37.166
		c0.822,0,1.487,0.666,1.487,1.487S319.83,201.839,319.008,201.839z"/>
</g>
<g>
	<path fill="#38524F" d="M300.423,220.422c-0.821,0-1.487-0.665-1.487-1.487V181.77c0-0.821,0.666-1.487,1.487-1.487
		s1.487,0.666,1.487,1.487v37.166C301.91,219.756,301.246,220.422,300.423,220.422z"/>
</g>
</svg>
