<?xml version="1.0" encoding="utf-8"?>
<!-- Generator: Adobe Illustrator 25.1.0, SVG Export Plug-In . SVG Version: 6.00 Build 0)  -->
<svg version="1.1" id="Layer_2_1_" xmlns="http://www.w3.org/2000/svg" xmlns:xlink="http://www.w3.org/1999/xlink" x="0px" y="0px"
	 width="300px" height="68.255px" viewBox="0 0 300 68.255" style="enable-background:new 0 0 300 68.255;" xml:space="preserve">
<g>
	<path d="M53.509,67.049H36.817v-3.153c-1.855,1.855-6.121,4.359-12.519,4.359C10.016,68.255,0,57.59,0,42.567
		C0,27.45,8.903,16.878,23.092,16.878c6.306,0,10.665,2.782,12.427,4.266V0h17.991V67.049z M27.08,32.273
		c-5.75,0-9.088,4.266-9.088,10.294c0,6.213,3.431,10.201,9.088,10.201c5.935,0,8.996-4.637,8.996-10.201
		C36.075,36.075,32.458,32.273,27.08,32.273z"/>
	<path d="M86.43,68.255c-15.487,0-27.265-10.85-27.265-25.688S70.943,16.878,86.43,16.878c15.487,0,27.265,10.85,27.265,25.688
		S101.917,68.255,86.43,68.255z M86.43,52.767c5.379,0,9.274-3.988,9.274-10.201s-3.895-10.294-9.274-10.294
		c-5.379,0-9.274,4.08-9.274,10.294C77.156,48.78,81.051,52.767,86.43,52.767z"/>
	<path d="M165.812,35.519v31.531h-17.991V38.208c0-3.71-2.226-5.471-5.193-5.471c-3.524,0-5.193,2.411-5.193,5.193v29.119h-17.991
		V18.084h17.527v4.637c1.762-2.504,6.213-5.842,12.241-5.842C160.804,16.878,165.812,24.204,165.812,35.519z"/>
	<path d="M173.137,49.615V18.084h17.991v28.841c0,3.71,2.226,5.471,5.193,5.471c3.524,0,5.193-2.411,5.193-5.193V18.084h17.991
		v48.965h-17.527v-4.637c-1.762,2.504-6.213,5.842-12.241,5.842C178.145,68.255,173.137,60.928,173.137,49.615z"/>
	<path d="M229.613,7.79h17.527v10.294h7.883v14.189h-7.883v16.044c0,3.431,3.617,3.895,6.399,3.895c0.649,0,1.762-0.093,1.762-0.093
		v15.116c0,0-2.04,0.556-6.491,0.556c-12.612,0-19.661-6.121-19.661-19.289V32.273h-4.637V18.084h5.1L229.613,7.79L229.613,7.79z"/>
	<path d="M269.026,50.635c2.875,1.948,6.492,3.431,10.479,3.431c2.411,0,3.339-0.835,3.339-1.762c0-4.08-22.072-2.319-22.072-19.568
		c0-9.645,8.717-15.858,20.031-15.858c9.088,0,15.023,4.08,18.455,8.068l-11.592,9.181c-1.762-1.577-4.08-3.153-7.234-3.153
		c-1.947,0-2.782,0.835-2.782,1.669c0,4.822,22.35,2.875,22.35,19.104c0,10.85-8.439,16.507-20.402,16.507
		c-9.181,0-17.249-4.08-20.402-7.79L269.026,50.635z"/>
</g>
</svg>
