<?xml version="1.0" encoding="utf-8"?>
<!-- Generator: Adobe Illustrator 25.2.1, SVG Export Plug-In . SVG Version: 6.00 Build 0)  -->
<svg version="1.1" xmlns="http://www.w3.org/2000/svg" xmlns:xlink="http://www.w3.org/1999/xlink" x="0px" y="0px" width="400px"
	 height="400px" viewBox="0 0 400 400" style="enable-background:new 0 0 400 400;" xml:space="preserve">
<g id="Layer_1">
	<circle style="fill:#95A3FA;" cx="200" cy="200" r="200"/>
</g>
<g id="Layer_3">
	<g>
		<g>
			<g>
				<path style="fill:#FFFFFF;" d="M162.476,223.107H180.2c1.172,9.814,9.741,16.553,20.874,16.553
					c12.598,0,21.24-8.789,21.24-21.24c0-12.671-8.716-21.606-21.094-21.606c-8.643,0-16.113,3.955-19.995,10.546h-17.139
					l5.493-60.205h64.746v15.454h-49.805l-2.71,30.908h0.439c4.395-6.812,13.037-11.06,23.511-11.06
					c20.215,0,34.79,14.868,34.79,35.449c0,21.973-16.187,37.061-39.624,37.061C179.102,254.968,163.281,241.857,162.476,223.107z"
					/>
			</g>
		</g>
	</g>
	<g>
		<g>
			<g>
				<path style="fill:#FFFFFF;" d="M135.417,153.303h-6.042v-11.924H118.23v-5.962h11.145v-11.736h6.042v11.736h11.172v5.962
					h-11.172V153.303z"/>
			</g>
		</g>
	</g>
	<g>
		<path style="fill:#FFFFFF;" d="M123.067,281.505c12.627,0,20.098,7.646,20.098,21.035s-7.441,21.24-20.098,21.24h-15.439v-42.275
			H123.067z M115.187,317.394h7.09c8.496,0,13.184-5.186,13.184-14.824c0-9.463-4.746-14.678-13.184-14.678h-7.09V317.394z"/>
		<path style="fill:#FFFFFF;" d="M147.12,308.253c0-10.02,5.977-16.172,15.029-16.172s15.029,6.123,15.029,16.172
			c0,10.078-5.918,16.143-15.029,16.143S147.12,318.331,147.12,308.253z M169.767,308.253c0-6.592-2.988-10.371-7.617-10.371
			c-4.6,0-7.617,3.779-7.617,10.371c0,6.621,2.988,10.371,7.617,10.371S169.767,314.874,169.767,308.253z"/>
		<path style="fill:#FFFFFF;" d="M181.866,292.726h7.002v5.332h0.146c1.67-3.691,4.98-5.918,9.756-5.918
			c6.855,0,10.752,4.395,10.752,11.572v20.068h-7.295v-18.604c0-4.395-2.051-6.855-6.211-6.855c-4.189,0-6.855,3.018-6.855,7.471
			v17.988h-7.295V292.726z"/>
		<path style="fill:#FFFFFF;" d="M242.892,323.78h-7.031v-5.391h-0.146c-1.641,3.779-4.775,5.947-9.492,5.947
			c-6.738,0-11.016-4.365-11.016-11.543v-20.068h7.295v18.604c0,4.453,2.168,6.855,6.27,6.855c4.219,0,6.826-2.988,6.826-7.5
			v-17.959h7.295V323.78z"/>
		<path style="fill:#FFFFFF;" d="M258.155,285.46v7.266h5.859v5.625h-5.859v16.143c0,2.549,1.172,3.721,3.75,3.721
			c0.674,0,1.611-0.059,2.08-0.146v5.566c-0.791,0.176-2.227,0.293-3.779,0.293c-6.709,0-9.346-2.373-9.346-8.408v-17.168h-4.453
			v-5.625h4.453v-7.266H258.155z"/>
		<path style="fill:#FFFFFF;" d="M280.978,292.081c7.295,0,12.246,3.926,12.422,9.668h-6.797c-0.234-2.666-2.373-4.307-5.771-4.307
			c-3.223,0-5.332,1.523-5.332,3.779c0,1.758,1.406,2.93,4.453,3.662l5.537,1.23c6.211,1.465,8.643,3.867,8.643,8.467
			c0,5.859-5.42,9.814-13.271,9.814c-7.793,0-12.744-3.867-13.242-9.756h7.178c0.439,2.842,2.637,4.424,6.328,4.424
			c3.545,0,5.742-1.436,5.742-3.75c0-1.816-1.143-2.783-4.16-3.545l-5.654-1.318c-5.742-1.348-8.643-4.336-8.643-8.818
			C268.409,295.948,273.419,292.081,280.978,292.081z"/>
	</g>
</g>
</svg>
