<?xml version="1.0" encoding="utf-8"?>
<!-- Generator: Adobe Illustrator 25.2.1, SVG Export Plug-In . SVG Version: 6.00 Build 0)  -->
<svg version="1.1" xmlns="http://www.w3.org/2000/svg" xmlns:xlink="http://www.w3.org/1999/xlink" x="0px" y="0px" width="400px"
	 height="400px" viewBox="0 0 400 400" style="enable-background:new 0 0 400 400;" xml:space="preserve">
<g id="Layer_1">
	<circle style="fill:#F2F2F2;" cx="200" cy="200" r="200"/>
</g>
<g id="Layer_5">
	<linearGradient id="SVGID_1_" gradientUnits="userSpaceOnUse" x1="32.0876" y1="200" x2="367.9124" y2="200">
		<stop  offset="4.073484e-07" style="stop-color:#FFE2BA"/>
		<stop  offset="0.35" style="stop-color:#FF5173"/>
		<stop  offset="0.7" style="stop-color:#BA7DFF"/>
		<stop  offset="0.9967" style="stop-color:#95A3FF"/>
	</linearGradient>
	<path style="fill:url(#SVGID_1_);" d="M91.987,236.853H73.301v-3.53c-2.076,2.076-6.852,4.879-14.015,4.879
		c-15.987,0-27.199-11.938-27.199-28.756c0-16.921,9.966-28.756,25.849-28.756c7.059,0,11.938,3.114,13.911,4.775v-23.669h20.139
		V236.853z M62.401,197.924c-6.436,0-10.174,4.775-10.174,11.523c0,6.955,3.841,11.419,10.174,11.419
		c6.644,0,10.07-5.191,10.07-11.419C72.47,202.18,68.422,197.924,62.401,197.924z M128.839,238.203
		c-17.337,0-30.521-12.146-30.521-28.756s13.184-28.756,30.521-28.756c17.337,0,30.521,12.146,30.521,28.756
		S146.175,238.203,128.839,238.203z M128.839,220.866c6.021,0,10.381-4.464,10.381-11.419c0-6.955-4.36-11.523-10.381-11.523
		c-6.021,0-10.381,4.568-10.381,11.523C118.458,216.402,122.818,220.866,128.839,220.866z M217.7,201.557v35.296h-20.139v-32.285
		c0-4.152-2.491-6.125-5.813-6.125c-3.945,0-5.814,2.699-5.814,5.814v32.597h-20.139v-54.813h19.62v5.191
		c1.972-2.803,6.955-6.54,13.703-6.54C212.094,180.691,217.7,188.892,217.7,201.557z M225.9,217.337v-35.296h20.139v32.285
		c0,4.152,2.492,6.125,5.814,6.125c3.945,0,5.814-2.699,5.814-5.813v-32.597h20.139v54.813h-19.62v-5.191
		c-1.972,2.803-6.955,6.54-13.703,6.54C231.506,238.203,225.9,230.002,225.9,217.337z M289.12,170.517h19.62v11.523h8.824v15.883
		h-8.824v17.959c0,3.841,4.049,4.36,7.163,4.36c0.727,0,1.972-0.104,1.972-0.104v16.921c0,0-2.284,0.623-7.267,0.623
		c-14.119,0-22.008-6.852-22.008-21.593v-18.167h-5.191v-15.883h5.71V170.517z M333.239,218.478
		c3.218,2.18,7.267,3.841,11.731,3.841c2.699,0,3.737-0.934,3.737-1.972c0-4.568-24.707-2.595-24.707-21.904
		c0-10.796,9.758-17.752,22.423-17.752c10.174,0,16.818,4.568,20.659,9.032L354.105,200c-1.972-1.765-4.568-3.53-8.097-3.53
		c-2.18,0-3.114,0.934-3.114,1.869c0,5.398,25.019,3.218,25.019,21.385c0,12.146-9.447,18.479-22.839,18.479
		c-10.277,0-19.309-4.568-22.839-8.72L333.239,218.478z"/>
</g>
</svg>
