<?xml version="1.0" encoding="utf-8"?>
<!-- Generator: Adobe Illustrator 25.1.0, SVG Export Plug-In . SVG Version: 6.00 Build 0)  -->
<svg version="1.1" xmlns="http://www.w3.org/2000/svg" xmlns:xlink="http://www.w3.org/1999/xlink" x="0px" y="0px"
	 width="1006.558px" height="263.393px" viewBox="0 0 1006.558 263.393" style="enable-background:new 0 0 1006.558 263.393;"
	 xml:space="preserve">
<g id="Layer_1" style="display:none;">
	<g style="display:inline;">
		<path d="M244.272,253.742c11.2,4.8,23.8,7.2,38.1,7.1c14.3-0.1,27-2.4,38.1-7.1c10.6-4.4,20.3-11.1,28.2-19.5
			c7.8-8.5,13.8-18.6,17.5-29.6c4.2-12.2,6.2-25,6.1-38c0.1-12.7-1.9-25.4-6-37.5c-3.8-11-9.7-21.1-17.6-29.6
			c-7.9-8.4-17.6-15.1-28.3-19.5c-11.2-4.7-23.9-7.1-38.1-7.1s-26.9,2.4-38,7.1c-10.6,4.4-20.3,11.1-28.2,19.5
			c-7.9,8.5-13.9,18.6-17.6,29.6c-4.1,12.1-6.1,24.8-6,37.6c-0.2,12.9,1.9,25.7,6,37.9c3.8,11,9.7,21.1,17.6,29.6
			C223.972,242.742,233.572,249.342,244.272,253.742z M234.772,144.042c1.8-7.2,4.8-14.1,9.1-20.2c4.1-5.9,9.5-10.8,15.8-14.3
			c6.4-3.7,14-5.5,22.7-5.5s16.3,1.8,22.7,5.5c6.2,3.5,11.6,8.4,15.8,14.3c4.3,6.1,7.4,13,9.1,20.2c3.9,14.9,3.9,30.6,0,45.6
			c-1.8,7.2-4.9,14-9.1,20.1c-4.1,6-9.5,10.9-15.8,14.5c-6.4,3.7-14,5.5-22.7,5.5s-16.3-1.8-22.7-5.5c-6.3-3.6-11.7-8.5-15.8-14.5
			c-4.2-6.1-7.3-12.9-9.1-20.1C230.872,174.742,230.872,159.042,234.772,144.042z"/>
		<path d="M96.372,161.642c17.5,0,31.7-2.4,42.7-7.4s19.5-11.2,25.5-18.8c5.8-7.2,9.9-15.6,12.2-24.6c2.1-8.1,3.2-16.4,3.3-24.7
			c-0.1-8.4-1.2-16.7-3.3-24.8c-2.2-9.1-6.4-17.5-12.2-24.8c-6-7.5-14.5-13.8-25.5-18.9s-25.3-7.6-42.7-7.6h-108.5v246h43v-94.4
			H96.372z M30.872,45.142h63.8c5.5,0,10.9,0.5,16.2,1.7c4.9,1.1,9.5,3.3,13.4,6.4c4.1,3.4,7.3,7.7,9.3,12.5c2.3,5.3,3.4,12,3.4,20
			c0,7.8-1.3,14.3-4,19.5c-2.4,4.9-5.9,9.1-10.3,12.4c-4.2,3.1-9,5.3-14,6.7c-4.8,1.4-9.8,2.1-14.8,2.1h-63L30.872,45.142
			L30.872,45.142z"/>
		<path d="M441.072,116.142c4.4-4.5,9.8-7.8,15.8-9.7c5.3-1.7,10.7-2.5,16.2-2.6c11,0,20.2,2.9,27.4,8.5c7.3,5.6,11.7,14,13.3,25
			h39.3c-0.9-11-3.7-20.6-8.3-28.6c-4.4-7.9-10.4-14.7-17.7-20c-7.5-5.4-15.9-9.4-24.8-11.9c-9.6-2.7-19.5-4-29.5-4
			c-14.7,0-27.5,2.4-38.4,7.4c-10.5,4.6-19.9,11.6-27.4,20.3c-7.5,9-13.1,19.3-16.5,30.5c-3.7,12.1-5.6,24.8-5.5,37.5
			c-0.1,12.4,1.8,24.7,5.7,36.5c3.5,10.7,9.2,20.7,16.7,29.1c7.5,8.3,16.7,14.9,27,19.3c10.7,4.7,23,7.1,37,7.1
			c23,0,41.4-6.2,55.3-18.4c13.9-12.2,22.7-30,26.4-53.2h-39.3c-1.9,12.9-6.5,22.9-14,30s-16.9,10.7-28.4,10.7
			c-8.5,0-15.7-1.7-21.7-5.3c-5.9-3.4-10.9-8.2-14.6-13.9c-3.9-6-6.7-12.6-8.3-19.6c-1.7-7.2-2.5-14.6-2.6-22.2
			c0-13.6,1.5-24.5,4.8-32.9S436.272,120.842,441.072,116.142z"/>
		<polygon points="574.772,10.042 574.772,255.842 613.972,255.842 613.972,192.142 637.372,169.442 691.772,255.942 
			739.772,255.842 665.072,143.242 733.272,77.842 685.072,77.842 614.072,149.842 614.072,10.042 		"/>
		<path d="M1013.872,107.142l0.2-29.2h-35.5v-53.4h-39.3v53.3h-29.6v29.5h29.7v105c0.1,6.6,0.9,13.1,2.2,19.6
			c1,5.3,3.5,10.3,7.2,14.3c3.5,3.8,8.4,6.6,14.7,8.6c6.3,1.9,14.7,2.9,25,2.9c4.2,0,8.5-0.2,12.7-0.7s8.4-0.9,12.8-1.4v-30.3
			c-2.7,0.7-5.5,1.1-8.3,1.2s-5.5,0.2-8.3,0.2c-3.5,0.1-7-0.4-10.3-1.6c-2.4-0.8-4.4-2.5-5.7-4.6c-1.3-2.3-2.2-4.9-2.4-7.6
			c-0.4-3.6-0.5-7.1-0.5-10.7v-95.1H1013.872z"/>
		<path d="M906.272,138.142c-3.1-12-8.5-23.3-16-33.2c-7.4-9.6-16.9-17.6-27.7-23.2c-11.1-5.9-23.7-8.8-37.7-8.8
			c-13.3,0-25.3,2.6-35.9,7.6c-10.3,4.9-19.5,11.9-27,20.5c-7.6,8.8-13.4,19-17.2,30c-4,11.6-6.1,23.7-6,36
			c-0.1,12.8,1.8,25.6,5.7,37.9c3.5,11,9.3,21.1,16.9,29.7c7.6,8.4,17,15,27.4,19.3c10.8,4.6,23.2,6.9,37.2,6.9
			c9.4,0,18.7-1.3,27.7-4c8.5-2.5,16.6-6.5,23.9-11.7c14.9-10.9,25.2-26.9,28.9-45h-37.2c-3.5,9.9-8.7,17.3-15.7,22.2
			s-16.2,7.4-27.7,7.4c-8.3,0-15.4-1.4-21.4-4.3c-5.7-2.7-10.8-6.6-14.8-11.5c-4-5-7-10.8-8.8-16.9c-1.9-6.5-2.9-13.2-2.9-20h130.8
			C910.472,164.142,909.572,150.942,906.272,138.142z M777.872,151.242c0.2-6.4,1.5-12.7,4-18.6c2.2-5.5,5.5-10.6,9.6-15
			c4.1-4.3,9-7.7,14.5-10c6-2.5,12.4-3.7,18.8-3.6c6.3-0.1,12.5,1.3,18.1,4c5.2,2.5,9.9,6,13.8,10.3c3.9,4.4,6.9,9.5,8.9,15
			c2.2,5.7,3.5,11.8,4,17.9H777.872z"/>
	</g>
</g>
<g id="Layer_2">
	<g>
		<path d="M17.536,263.393C8.067,263.393,0,255.327,0,245.857V35.072c0-9.82,8.067-17.887,17.536-17.887h50.855
			c18.588,0,36.125,3.858,52.608,10.873c15.783,7.014,29.812,17.185,41.035,30.162c11.223,12.626,19.641,27.356,24.901,43.84
			c5.261,16.834,7.015,34.371,4.91,52.609c-3.507,29.811-17.887,57.168-40.333,77.51c-22.446,19.99-51.907,31.214-82.069,31.214
			H17.536z M69.443,228.321c44.542,0,82.069-33.319,87.33-77.51c3.157-26.304-4.208-50.855-20.693-69.443
			c-16.834-18.588-41.034-29.11-67.689-29.11H35.072v176.063H69.443z"/>
		<path d="M211.837,175.011c0-48.751,39.632-88.032,88.032-88.032c48.75,0,88.032,39.281,88.032,88.032
			c0,48.399-39.281,88.031-88.032,88.031C251.469,263.042,211.837,223.411,211.837,175.011z M246.559,175.011
			c0,29.109,23.849,53.31,53.31,53.31s53.31-24.2,53.31-53.31c0-29.461-23.849-53.31-53.31-53.31S246.559,145.55,246.559,175.011z"
			/>
		<path d="M584.651,175.011v70.495c0,9.82-7.716,17.536-17.536,17.536c-9.47,0-17.186-7.716-17.186-17.536v-70.495
			c0-29.461-23.85-53.31-53.31-53.31c-29.461,0-53.31,23.849-53.31,53.31v70.495c0,9.82-7.716,17.536-17.536,17.536
			c-9.47,0-17.186-7.716-17.186-17.536v-70.495c0-48.751,39.632-88.032,88.032-88.032S584.651,126.26,584.651,175.011z"/>
		<path d="M746.682,104.516v88.031v0.352c-0.351,38.93-31.915,70.495-71.196,70.495c-38.931,0-70.495-31.565-70.847-70.495v-0.352
			v-88.031c0-9.47,7.716-17.186,17.186-17.186c9.82,0,17.536,7.716,17.536,17.186v87.681c0,19.99,16.134,36.475,36.125,36.475
			c20.342,0,36.475-16.484,36.475-36.475v-87.681c0-9.47,7.716-17.186,17.536-17.186C738.966,87.33,746.682,95.046,746.682,104.516z
			"/>
		<path d="M887.671,104.516c0,9.469-7.717,17.536-17.536,17.536h-24.901v123.805c0,9.47-7.717,17.536-17.537,17.536
			c-9.469,0-17.185-8.066-17.185-17.536V122.052h-25.253c-9.469,0-17.185-8.067-17.185-17.536c0-9.47,7.716-17.186,17.185-17.186
			h25.253V17.186c0-9.47,7.716-17.186,17.185-17.186c9.82,0,17.537,7.716,17.537,17.186V87.33h24.901
			C879.955,87.33,887.671,95.046,887.671,104.516z"/>
		<path d="M1006.558,210.434c0,29.11-23.498,52.959-52.608,52.959c-24.901,0-44.893-17.887-51.556-38.229
			c-3.157-9.119,4.208-18.589,13.327-20.692c9.47-1.754,16.133,4.91,20.692,13.678c4.91,9.119,9.119,10.521,17.536,10.521
			c9.82,0,17.887-8.066,17.887-18.237c0-9.82-8.066-17.888-17.887-17.888c-14.028,0-27.356-5.611-37.177-15.432
			c-10.171-9.82-15.432-23.146-15.432-37.176c0-29.11,23.499-52.609,52.608-52.609c24.551,0,46.997,16.835,50.505,36.475
			c1.753,9.47-3.858,18.939-13.328,20.692c-9.47,2.105-17.536-4.208-20.692-12.976c-2.104-5.612-8.066-9.47-16.484-9.47
			c-9.82,0-17.887,8.066-17.887,17.887c0,9.82,8.066,17.887,17.887,17.887c14.029,0,27.356,5.611,37.177,15.432
			C1001.297,183.428,1006.558,196.406,1006.558,210.434z"/>
	</g>
</g>
</svg>
