<?xml version="1.0" encoding="utf-8"?>
<!-- Generator: Adobe Illustrator 25.1.0, SVG Export Plug-In . SVG Version: 6.00 Build 0)  -->
<svg version="1.1" id="Layer_2" xmlns="http://www.w3.org/2000/svg" xmlns:xlink="http://www.w3.org/1999/xlink" x="0px" y="0px"
	 width="1026.201px" height="233.477px" viewBox="0 0 1026.201 233.477" style="enable-background:new 0 0 1026.201 233.477;"
	 xml:space="preserve">
<g>
	<path d="M183.038,229.353h-57.1v-10.786c-6.344,6.345-20.937,14.91-42.825,14.91C34.26,233.477,0,196.996,0,145.606
		c0-51.708,30.454-87.871,78.989-87.871c21.571,0,36.481,9.517,42.508,14.592V0h61.541V229.353z M92.63,110.394
		c-19.668,0-31.088,14.592-31.088,35.212c0,21.254,11.737,34.895,31.088,34.895c20.302,0,30.771-15.861,30.771-34.895
		C123.4,123.4,111.029,110.394,92.63,110.394z"/>
	<path d="M295.649,233.477c-52.976,0-93.264-37.115-93.264-87.871s40.287-87.871,93.264-87.871
		c52.976,0,93.264,37.115,93.264,87.871S348.625,233.477,295.649,233.477z M295.649,180.5c18.399,0,31.722-13.641,31.722-34.895
		c0-21.254-13.323-35.212-31.722-35.212c-18.399,0-31.723,13.958-31.723,35.212C263.926,166.86,277.249,180.5,295.649,180.5z"/>
	<path d="M567.188,121.497v107.856h-61.541v-98.657c0-12.689-7.613-18.716-17.764-18.716c-12.055,0-17.765,8.248-17.765,17.765
		v99.608h-61.541V61.859h59.955V77.72c6.027-8.565,21.254-19.985,41.874-19.985C550.057,57.735,567.188,82.795,567.188,121.497z"/>
	<path d="M592.244,169.715V61.859h61.542v98.657c0,12.689,7.614,18.716,17.765,18.716c12.054,0,17.765-8.248,17.765-17.765V61.859
		h61.542v167.494h-59.955v-15.861c-6.027,8.565-21.254,19.985-41.874,19.985C609.374,233.477,592.244,208.416,592.244,169.715z"/>
	<path d="M785.43,26.647h59.955v35.212h26.964v48.535h-26.964v54.88c0,11.737,12.372,13.323,21.888,13.323
		c2.221,0,6.027-0.317,6.027-0.317v51.708c0,0-6.979,1.903-22.205,1.903c-43.143,0-67.252-20.937-67.252-65.982v-55.514h-15.861
		V61.859h17.447V26.647z"/>
	<path d="M920.248,173.204c9.834,6.662,22.206,11.737,35.846,11.737c8.248,0,11.42-2.855,11.42-6.027
		c0-13.958-75.5-7.931-75.5-66.934c0-32.991,29.819-54.245,68.521-54.245c31.088,0,51.39,13.958,63.128,27.599l-39.653,31.405
		c-6.027-5.393-13.958-10.786-24.744-10.786c-6.661,0-9.517,2.855-9.517,5.71c0,16.496,76.451,9.834,76.451,65.348
		c0,37.115-28.867,56.466-69.79,56.466c-31.405,0-59.003-13.958-69.789-26.647L920.248,173.204z"/>
</g>
</svg>
