<?xml version="1.0" encoding="utf-8"?>
<!-- Generator: Adobe Illustrator 25.1.0, SVG Export Plug-In . SVG Version: 6.00 Build 0)  -->
<svg version="1.1" id="Layer_2_1_" xmlns="http://www.w3.org/2000/svg" xmlns:xlink="http://www.w3.org/1999/xlink" x="0px" y="0px"
	 width="600px" height="136.51px" viewBox="0 0 600 136.51" style="enable-background:new 0 0 600 136.51;" xml:space="preserve">
<g>
	<path d="M107.019,134.098H73.634v-6.306c-3.709,3.71-12.241,8.718-25.039,8.718C20.031,136.51,0,115.18,0,85.133
		C0,54.9,17.806,33.757,46.183,33.757c12.612,0,21.33,5.564,24.854,8.532V0h35.982V134.098z M54.159,64.545
		c-11.5,0-18.177,8.532-18.177,20.588c0,12.427,6.862,20.402,18.177,20.402c11.87,0,17.991-9.274,17.991-20.402
		C72.15,72.15,64.917,64.545,54.159,64.545z"/>
	<path d="M172.86,136.51c-30.974,0-54.53-21.7-54.53-51.377s23.555-51.377,54.53-51.377c30.974,0,54.53,21.7,54.53,51.377
		S203.835,136.51,172.86,136.51z M172.86,105.535c10.758,0,18.547-7.976,18.547-20.402s-7.79-20.588-18.547-20.588
		c-10.758,0-18.548,8.161-18.548,20.588C154.313,97.56,162.102,105.535,172.86,105.535z"/>
	<path d="M331.624,71.037v63.061h-35.982V76.416c0-7.419-4.451-10.943-10.386-10.943c-7.048,0-10.387,4.822-10.387,10.387v58.239
		h-35.982V36.168h35.055v9.274c3.524-5.008,12.427-11.685,24.483-11.685C321.608,33.757,331.624,48.409,331.624,71.037z"/>
	<path d="M346.274,99.229V36.168h35.982v57.683c0,7.419,4.452,10.943,10.387,10.943c7.048,0,10.387-4.822,10.387-10.387V36.168
		h35.982v97.931h-35.055v-9.274c-3.524,5.008-12.427,11.685-24.483,11.685C356.29,136.51,346.274,121.857,346.274,99.229z"/>
	<path d="M459.226,15.58h35.055v20.588h15.765v28.378h-15.765v32.087c0,6.862,7.234,7.79,12.797,7.79
		c1.299,0,3.524-0.185,3.524-0.185v30.233c0,0-4.08,1.113-12.983,1.113c-25.225,0-39.321-12.241-39.321-38.578V64.546h-9.274V36.168
		h10.201L459.226,15.58L459.226,15.58z"/>
	<path d="M538.052,101.269c5.75,3.895,12.983,6.862,20.958,6.862c4.822,0,6.677-1.669,6.677-3.524
		c0-8.161-44.143-4.637-44.143-39.135c0-19.289,17.435-31.716,40.063-31.716c18.177,0,30.047,8.161,36.91,16.137l-23.184,18.362
		c-3.524-3.153-8.161-6.306-14.467-6.306c-3.895,0-5.564,1.669-5.564,3.339c0,9.645,44.7,5.75,44.7,38.208
		c0,21.7-16.878,33.015-40.805,33.015c-18.362,0-34.498-8.161-40.804-15.58L538.052,101.269z"/>
</g>
</svg>
