<?xml version="1.0" encoding="utf-8"?>
<!-- Generator: Adobe Illustrator 25.0.1, SVG Export Plug-In . SVG Version: 6.00 Build 0)  -->
<svg version="1.1" id="Lag_1" xmlns="http://www.w3.org/2000/svg" xmlns:xlink="http://www.w3.org/1999/xlink" x="0px" y="0px"
	 viewBox="0 0 26.322 25" enable-background="new 0 0 26.322 25" xml:space="preserve">
<g>
	<path fill="#2E2E2E" d="M7.944,17.985c-1.451-1.379-2.355-3.328-2.355-5.487c0-4.182,3.39-7.571,7.572-7.571
		c0.73,0,1.435,0.103,2.104,0.296c0.336,0.097,0.821,0.022,1.091-0.445c0.27-0.467,1.757-3.087,2.005-3.531
		C18.702,0.633,18.345,0,17.567,0h-5.073C5.594,0,0,5.598,0,12.498c0,2.819,0.934,5.42,2.509,7.511
		c-0.517,0.904-1.943,3.437-2.391,4.219C-0.12,24.642,0.001,25,0.52,25h3.803c0.456,0,0.657-0.207,0.868-0.574
		c0.236-0.432,2.281-4.034,2.9-5.103C8.291,18.979,8.514,18.527,7.944,17.985"/>
	<path fill="#2E2E2E" d="M18.379,7.015c1.45,1.379,2.355,3.328,2.355,5.487c0,4.182-3.39,7.572-7.572,7.572
		c-0.729,0-1.435-0.103-2.104-0.296c-0.336-0.097-0.821-0.022-1.091,0.445c-0.27,0.467-1.757,3.087-2.005,3.531
		C7.62,24.367,7.977,25,8.755,25h5.073c6.9,0,12.494-5.598,12.494-12.498c0-2.819-0.934-5.42-2.509-7.511
		c0.517-0.904,1.943-3.437,2.391-4.218C26.442,0.358,26.321,0,25.803,0H22c-0.456,0-0.657,0.207-0.868,0.574
		c-0.236,0.431-2.281,4.034-2.9,5.103C18.032,6.021,17.808,6.473,18.379,7.015"/>
	<path fill="#2E2E2E" d="M13.879,8.208c0,0.397-0.322,0.719-0.719,0.719c-0.397,0-0.719-0.322-0.719-0.719
		c0-0.397,0.322-0.719,0.719-0.719C13.557,7.489,13.879,7.811,13.879,8.208"/>
	<rect x="8.929" y="15.396" fill="#2E2E2E" width="8.466" height="1.028"/>
	<path fill="#2E2E2E" d="M7.632,13.43c0.294,0.43,0.534,0.67,0.811,0.966l0.493,0.532h8.47l0.484-0.532
		c0.277-0.296,0.566-0.6,0.811-0.966c1.158-1.726-0.214-3.546-1.799-3.425c-0.029,0.002-0.058,0.003-0.087,0.004
		c-0.049-0.08-0.104-0.162-0.166-0.245c-0.507-0.676-1.356-0.976-2.215-0.784c-0.517,0.116-0.956,0.389-1.268,0.767
		c-0.312-0.378-0.751-0.651-1.267-0.767c-0.859-0.192-1.708,0.108-2.215,0.784C9.622,9.848,9.567,9.929,9.518,10.01
		c-0.029-0.002-0.087-0.004-0.087-0.004C7.987,9.851,6.404,11.635,7.632,13.43 M12.629,10.934c-0.968-0.077-1.586-0.36-2.096-0.595
		c-0.002-0.001-0.004-0.002-0.005-0.002c0.27-0.33,0.696-0.467,1.15-0.365c0.383,0.086,0.832,0.374,0.948,0.927
		C12.627,10.908,12.628,10.921,12.629,10.934 M15.806,10.337c-0.002,0.001-0.003,0.002-0.005,0.002
		c-0.51,0.235-1.128,0.518-2.096,0.595c0.001-0.013,0.002-0.026,0.003-0.035c0.116-0.552,0.565-0.841,0.949-0.927
		C15.11,9.87,15.536,10.007,15.806,10.337 M15.397,13.913c0.431-0.456,0.942-1.077,1.071-1.24c0.12-0.151,0.72-0.797,0.685-1.637
		c0.73,0.095,0.963,0.698,0.963,1.01c0,0.221-0.073,0.544-0.256,0.814c-0.202,0.298-0.449,0.562-0.711,0.841
		c0,0-0.098,0.107-0.194,0.211H15.397z M13.679,11.955c1.132-0.075,1.894-0.394,2.432-0.64c-0.058,0.226-0.294,0.546-0.387,0.661
		c-0.351,0.432-1.303,1.495-1.73,1.937h-0.315C13.679,13.913,13.676,12.37,13.679,11.955 M12.339,13.913
		c-0.427-0.443-1.476-1.617-1.661-1.85c-0.185-0.233-0.399-0.523-0.457-0.749c0.538,0.246,1.301,0.565,2.432,0.64
		c0.003,0.415,0,1.959,0,1.959H12.339z M8.217,12.047c0-0.45,0.364-0.932,0.963-1.01c-0.031,0.741,0.353,1.211,0.635,1.572
		c0.268,0.343,0.689,0.848,1.12,1.304H9.378c-0.096-0.105-0.194-0.211-0.194-0.211c-0.262-0.28-0.509-0.543-0.711-0.841
		C8.29,12.591,8.217,12.272,8.217,12.047"/>
</g>
</svg>
