<?xml version="1.0" encoding="utf-8"?>
<!-- Generator: Adobe Illustrator 21.0.0, SVG Export Plug-In . SVG Version: 6.00 Build 0)  -->
<svg version="1.1" id="friskbagt_brød" xmlns="http://www.w3.org/2000/svg" xmlns:xlink="http://www.w3.org/1999/xlink" x="0px"
	 y="0px" width="75px" height="75px" viewBox="0 0 75 75" enable-background="new 0 0 75 75" xml:space="preserve">
<g>
	<g>
		<path fill="#D15F50" d="M70.045,50.557l-0.818-0.364c1.636-4,2.364-8.273,2.364-12.636c0-8.182-3-16.091-8.364-22.364l0.727-0.636
			C69.5,20.921,72.5,29.012,72.5,37.466C72.5,42.012,71.682,46.375,70.045,50.557z"/>
	</g>
	<g>
		<path fill="#D15F50" d="M4.864,50.194c-1.545-4-2.364-8.273-2.364-12.636c0-8.273,2.909-16.273,8.273-22.545l0.727,0.545
			c-5.273,6.182-8.091,14-8.091,22c0,4.273,0.727,8.364,2.273,12.364L4.864,50.194z"/>
	</g>
	<g>
		<circle fill="#D15F50" cx="37.5" cy="59.012" r="1.545"/>
	</g>
	<g>
		<path fill="#D15F50" d="M14.82,11.24l0.875,1.051l-0.525,0.438l-2.133-2.561l0.525-0.438l0.899,1.081L15.436,10l-0.899-1.08
			l0.525-0.438l2.133,2.561l-0.525,0.438l-0.875-1.051L14.82,11.24z"/>
		<path fill="#D15F50" d="M17.045,5.745c0.109-0.071,0.23-0.091,0.362-0.06c0.112,0.026,0.201,0.091,0.268,0.193
			c0.076,0.117,0.094,0.241,0.054,0.372c-0.034,0.111-0.101,0.198-0.197,0.261c-0.115,0.074-0.238,0.096-0.369,0.063
			c-0.111-0.026-0.202-0.092-0.27-0.197c-0.074-0.115-0.092-0.237-0.052-0.368C16.874,5.899,16.942,5.812,17.045,5.745z
			 M17.159,5.944c-0.058,0.037-0.091,0.091-0.101,0.16c-0.007,0.056,0.004,0.105,0.033,0.15c0.034,0.054,0.085,0.086,0.15,0.098
			c0.057,0.012,0.111,0.001,0.164-0.033c0.061-0.039,0.096-0.093,0.105-0.161c0.007-0.057-0.005-0.107-0.034-0.152
			c-0.033-0.052-0.083-0.084-0.15-0.098C17.271,5.896,17.215,5.908,17.159,5.944z M19.67,8.656l-1.079,0.696l0.146,0.591
			l-0.609,0.394l-0.839-3.425l0.719-0.464l2.763,2.184l-0.632,0.407L19.67,8.656z M19.214,8.282l-1.136-0.909l0.356,1.412
			L19.214,8.282z"/>
		<path fill="#D15F50" d="M21.462,5.892l0.918,1.896l-0.615,0.298l-1.451-3l0.604-0.292l2.165,1.264l-0.906-1.873l0.615-0.298
			l1.451,3l-0.6,0.291L21.462,5.892z"/>
		<path fill="#D15F50" d="M25.646,6.322L24.58,3.164l0.896-0.302c0.356-0.12,0.66-0.162,0.911-0.127
			c0.31,0.043,0.579,0.177,0.808,0.402c0.192,0.188,0.337,0.426,0.435,0.714c0.123,0.364,0.145,0.712,0.066,1.044
			c-0.125,0.532-0.497,0.902-1.117,1.111L25.646,6.322z M25.405,3.471l0.707,2.096l0.125-0.042c0.234-0.079,0.407-0.173,0.519-0.28
			c0.154-0.148,0.249-0.334,0.284-0.558c0.029-0.188,0.009-0.385-0.061-0.59c-0.055-0.164-0.134-0.307-0.235-0.428
			c-0.103-0.122-0.217-0.212-0.345-0.269c-0.227-0.101-0.479-0.104-0.756-0.01L25.405,3.471z"/>
		<path fill="#D15F50" d="M30.202,3.855l0.218-2.331l0.694-0.149l-0.33,3.479l-0.708,0.152l-1.692-3.045l0.69-0.148L30.202,3.855z"
			/>
		<path fill="#D15F50" d="M35.059,2.861l0.075,0.832l1.138-0.104l0.051,0.557l-1.818,0.165l-0.061-0.666L33.306,3.75l-0.294,0.698
			l-0.728,0.066l1.499-3.483l2.237-0.204l0.051,0.557l-1.139,0.104l0.075,0.816l1.138-0.104l0.051,0.557L35.059,2.861z
			 M34.395,3.111l-0.146-1.601l-0.71,1.678L34.395,3.111z"/>
		<path fill="#D15F50" d="M38.441,2.864l-0.052,1.324l-0.683-0.026l0.129-3.33l1.025,0.04c0.452,0.018,0.778,0.132,0.979,0.343
			c0.182,0.191,0.267,0.442,0.254,0.753c-0.013,0.317-0.122,0.565-0.331,0.744c-0.129,0.111-0.295,0.188-0.498,0.23l0.867,1.313
			l-0.829-0.032L38.441,2.864z M38.457,2.464l0.312,0.012c0.177,0.007,0.319-0.024,0.427-0.096c0.129-0.088,0.196-0.222,0.203-0.402
			c0.006-0.153-0.035-0.277-0.122-0.374c-0.093-0.103-0.229-0.157-0.411-0.165l-0.369-0.014L38.457,2.464z"/>
		<path fill="#D15F50" d="M42.324,3.023l-0.22,1.468l-0.677-0.101l0.494-3.296l0.676,0.102l-0.215,1.432l1.151-1.292l0.782,0.117
			l-1.305,1.429l0.812,1.867l-0.793-0.118L42.324,3.023z"/>
		<path fill="#D15F50" d="M45.039,4.016l0.646,0.168c-0.022,0.083-0.028,0.149-0.019,0.199c0.016,0.08,0.059,0.151,0.127,0.215
			c0.063,0.057,0.139,0.097,0.225,0.119c0.127,0.033,0.244,0.023,0.348-0.028c0.088-0.045,0.143-0.113,0.168-0.206
			c0.026-0.104,0.004-0.201-0.066-0.29c-0.051-0.063-0.166-0.156-0.346-0.279c-0.288-0.194-0.486-0.372-0.596-0.535
			c-0.14-0.206-0.174-0.447-0.102-0.723c0.078-0.306,0.246-0.521,0.502-0.645c0.238-0.116,0.511-0.134,0.816-0.055
			c0.207,0.054,0.38,0.143,0.52,0.267c0.141,0.123,0.238,0.273,0.291,0.448c0.051,0.163,0.059,0.348,0.023,0.554L46.904,3.05
			c0.047-0.271-0.059-0.441-0.316-0.509c-0.134-0.034-0.245-0.023-0.334,0.032c-0.076,0.048-0.125,0.114-0.148,0.201
			c-0.033,0.132,0.006,0.253,0.119,0.361c0.057,0.053,0.168,0.138,0.337,0.254c0.213,0.146,0.362,0.268,0.45,0.364
			c0.232,0.252,0.307,0.539,0.223,0.86c-0.088,0.34-0.287,0.565-0.6,0.677c-0.229,0.081-0.484,0.086-0.765,0.013
			c-0.222-0.058-0.405-0.149-0.55-0.274c-0.144-0.124-0.241-0.276-0.293-0.454C44.98,4.406,44.984,4.22,45.039,4.016z"/>
		<path fill="#D15F50" d="M50.449,4.98c0.146,0.096,0.248,0.197,0.305,0.306c0.099,0.192,0.104,0.408,0.013,0.647
			c-0.056,0.146-0.134,0.269-0.237,0.367c-0.102,0.099-0.217,0.162-0.344,0.19c-0.121,0.027-0.24,0.029-0.359,0.005
			c-0.123-0.025-0.254-0.064-0.395-0.117l-1.148-0.435l1.18-3.117l1.006,0.381c0.371,0.14,0.611,0.3,0.725,0.48
			c0.145,0.227,0.161,0.484,0.052,0.773c-0.081,0.214-0.214,0.365-0.399,0.455C50.742,4.966,50.609,4.987,50.449,4.98z
			 M49.421,4.868l-0.32,0.848l0.312,0.118c0.142,0.054,0.248,0.082,0.319,0.087c0.197,0.008,0.334-0.087,0.408-0.287
			c0.064-0.169,0.051-0.311-0.042-0.426c-0.065-0.08-0.198-0.158-0.401-0.235L49.421,4.868z M49.918,3.556l-0.316,0.835l0.256,0.097
			c0.201,0.076,0.358,0.095,0.473,0.054c0.115-0.04,0.197-0.128,0.248-0.263c0.031-0.079,0.041-0.157,0.03-0.233
			s-0.039-0.14-0.086-0.19c-0.069-0.073-0.196-0.145-0.381-0.215L49.918,3.556z"/>
		<path fill="#D15F50" d="M53.568,7.637l-1.143-0.588L51.986,7.47l-0.645-0.332l2.551-2.435l0.76,0.392l-0.516,3.483l-0.668-0.345
			L53.568,7.637z M53.664,7.055l0.222-1.438L52.84,6.63L53.664,7.055z"/>
		<path fill="#D15F50" d="M57.431,8.492l1.376,0.942c-0.035,0.053-0.065,0.1-0.092,0.139c-0.148,0.216-0.312,0.385-0.49,0.506
			c-0.178,0.122-0.384,0.205-0.617,0.25c-0.477,0.093-0.912,0.003-1.307-0.268c-0.199-0.137-0.363-0.305-0.491-0.504
			s-0.21-0.414-0.248-0.646c-0.069-0.434,0.031-0.849,0.302-1.243c0.281-0.409,0.652-0.659,1.114-0.749
			c0.448-0.086,0.872,0.009,1.273,0.284c0.282,0.193,0.491,0.448,0.628,0.765c0.07,0.162,0.111,0.338,0.127,0.527L58.35,8.538
			c-0.013-0.141-0.037-0.256-0.072-0.345c-0.073-0.187-0.196-0.339-0.369-0.458c-0.145-0.099-0.297-0.156-0.461-0.175
			c-0.163-0.019-0.324,0.005-0.482,0.07c-0.219,0.091-0.396,0.235-0.531,0.433c-0.195,0.284-0.254,0.583-0.176,0.896
			c0.062,0.257,0.201,0.458,0.416,0.605c0.117,0.08,0.247,0.133,0.391,0.159c0.143,0.026,0.279,0.021,0.411-0.016
			c0.13-0.034,0.265-0.112,0.404-0.231l-0.765-0.524L57.431,8.492z"/>
		<path fill="#D15F50" d="M61.348,10.399l-1.812,2.099l-0.518-0.446l1.812-2.1l-0.601-0.519l0.366-0.423l1.718,1.484l-0.366,0.423
			L61.348,10.399z"/>
	</g>
	<g>
		<path fill="#D15F50" d="M8.355,58.812l-0.741-1.05L7.03,57.934l-0.418-0.593l3.387-0.979l0.493,0.698L8.424,59.91l-0.434-0.614
			L8.355,58.812z M8.709,58.341l0.861-1.172l-1.396,0.414L8.709,58.341z"/>
		<path fill="#D15F50" d="M11.949,59.782l-0.616,0.541l0.774,0.881l-0.42,0.369l-0.773-0.881l-1.047,0.921L9.415,61.1l2.502-2.2
			l1.226,1.394l-0.42,0.369L11.949,59.782z"/>
		<path fill="#D15F50" d="M13.708,65.441l2.075-2.608l0.739,0.589c0.294,0.233,0.494,0.466,0.601,0.695
			c0.132,0.284,0.165,0.583,0.1,0.897c-0.053,0.264-0.175,0.514-0.364,0.752c-0.239,0.301-0.52,0.509-0.841,0.623
			c-0.514,0.184-1.027,0.071-1.54-0.336L13.708,65.441z M15.973,63.692l-1.377,1.731l0.104,0.082
			c0.193,0.153,0.366,0.248,0.517,0.283c0.208,0.049,0.416,0.027,0.622-0.064c0.174-0.077,0.329-0.201,0.463-0.37
			c0.107-0.135,0.185-0.278,0.231-0.431c0.047-0.151,0.06-0.297,0.039-0.435c-0.039-0.244-0.172-0.458-0.401-0.641L15.973,63.692z"
			/>
		<path fill="#D15F50" d="M19.18,66.033l-0.439,0.693l0.988,0.626l-0.299,0.473l-0.988-0.627l-0.447,0.706l0.988,0.626l-0.299,0.472
			l-1.565-0.992l1.784-2.814l1.565,0.992l-0.299,0.472L19.18,66.033z"/>
		<path fill="#D15F50" d="M24.753,70.124c0.144,0.1,0.242,0.204,0.296,0.314c0.094,0.195,0.092,0.411-0.005,0.647
			c-0.059,0.145-0.142,0.265-0.247,0.36c-0.105,0.096-0.222,0.155-0.35,0.181c-0.121,0.023-0.241,0.022-0.359-0.006
			c-0.122-0.028-0.252-0.071-0.391-0.129l-1.136-0.467l1.268-3.082l0.996,0.409c0.366,0.15,0.603,0.317,0.71,0.501
			c0.137,0.23,0.147,0.489,0.03,0.775c-0.087,0.21-0.224,0.358-0.412,0.442C25.047,70.118,24.914,70.136,24.753,70.124z
			 M23.729,69.982l-0.344,0.838l0.309,0.127c0.14,0.058,0.246,0.09,0.317,0.097c0.197,0.014,0.335-0.078,0.417-0.275
			c0.069-0.167,0.059-0.31-0.03-0.427c-0.063-0.082-0.194-0.164-0.395-0.247L23.729,69.982z M24.263,68.685l-0.34,0.826l0.253,0.104
			c0.199,0.082,0.355,0.104,0.471,0.067s0.201-0.122,0.256-0.256c0.032-0.079,0.044-0.156,0.036-0.232s-0.035-0.141-0.081-0.192
			c-0.067-0.076-0.192-0.15-0.375-0.226L24.263,68.685z"/>
		<path fill="#D15F50" d="M27.664,69.957l-0.232,0.787l1.122,0.33l-0.158,0.537l-1.122-0.331l-0.236,0.801l1.122,0.331L28,72.948
			l-1.777-0.524l0.943-3.196l1.777,0.524l-0.158,0.536L27.664,69.957z"/>
		<path fill="#D15F50" d="M29.722,73.374l0.591-3.279l0.93,0.168c0.37,0.066,0.656,0.176,0.858,0.328
			c0.251,0.188,0.422,0.435,0.514,0.742c0.078,0.258,0.09,0.536,0.036,0.835c-0.068,0.379-0.217,0.694-0.446,0.947
			c-0.366,0.405-0.871,0.55-1.515,0.434L29.722,73.374z M30.888,70.762l-0.393,2.177l0.13,0.023c0.244,0.044,0.44,0.045,0.589,0.004
			c0.207-0.055,0.379-0.172,0.518-0.351c0.116-0.15,0.194-0.333,0.232-0.546c0.03-0.17,0.03-0.333,0-0.488
			c-0.031-0.156-0.088-0.29-0.172-0.401c-0.149-0.197-0.369-0.321-0.657-0.374L30.888,70.762z"/>
		<path fill="#D15F50" d="M33.92,73.046l0.665,0.045c-0.006,0.086,0,0.152,0.019,0.199c0.031,0.076,0.086,0.139,0.166,0.188
			c0.072,0.044,0.153,0.069,0.242,0.075c0.131,0.009,0.244-0.021,0.336-0.093c0.078-0.06,0.119-0.138,0.126-0.233
			c0.007-0.107-0.033-0.198-0.119-0.272c-0.062-0.053-0.192-0.123-0.392-0.21c-0.319-0.137-0.547-0.275-0.684-0.415
			c-0.176-0.177-0.254-0.407-0.235-0.691c0.021-0.314,0.146-0.557,0.374-0.726c0.213-0.159,0.477-0.228,0.792-0.206
			c0.213,0.014,0.399,0.069,0.561,0.165c0.161,0.096,0.284,0.225,0.369,0.387c0.079,0.15,0.121,0.33,0.125,0.539l-0.692-0.046
			c-0.004-0.276-0.14-0.424-0.406-0.441c-0.138-0.009-0.246,0.021-0.322,0.094c-0.066,0.061-0.103,0.136-0.108,0.225
			c-0.009,0.137,0.052,0.248,0.183,0.333c0.066,0.042,0.192,0.104,0.379,0.188c0.236,0.104,0.406,0.195,0.51,0.273
			c0.275,0.205,0.401,0.473,0.379,0.804c-0.023,0.351-0.178,0.609-0.463,0.776c-0.21,0.123-0.46,0.175-0.75,0.155
			c-0.229-0.016-0.426-0.071-0.59-0.167c-0.165-0.096-0.289-0.227-0.373-0.393C33.936,73.441,33.905,73.257,33.92,73.046z"/>
		<path fill="#D15F50" d="M38.882,71.38l0.083,2.772l-0.683,0.021L38.198,71.4l-0.793,0.024l-0.017-0.559l2.27-0.068l0.017,0.559
			L38.882,71.38z"/>
		<path fill="#D15F50" d="M41.499,71.174l0.102,0.813l1.161-0.145l0.068,0.555l-1.16,0.145l0.104,0.829l1.16-0.146l0.069,0.555
			l-1.839,0.229l-0.412-3.307l1.839-0.229l0.069,0.555L41.499,71.174z"/>
		<path fill="#D15F50" d="M47.549,71.407l0.392,1.266l-0.652,0.202l-0.985-3.184l0.979-0.303c0.433-0.134,0.778-0.134,1.037-0.001
			c0.235,0.119,0.398,0.328,0.49,0.625c0.094,0.303,0.072,0.574-0.065,0.812c-0.084,0.146-0.215,0.274-0.394,0.382l1.256,0.951
			l-0.793,0.245L47.549,71.407z M47.431,71.024l0.299-0.093c0.169-0.052,0.293-0.13,0.37-0.231c0.092-0.126,0.111-0.275,0.059-0.447
			c-0.046-0.146-0.125-0.251-0.24-0.312c-0.121-0.066-0.269-0.072-0.442-0.019l-0.353,0.108L47.431,71.024z"/>
		<path fill="#D15F50" d="M50.52,66.995c0.119-0.053,0.241-0.053,0.367-0.002c0.106,0.044,0.185,0.121,0.233,0.232
			c0.057,0.129,0.056,0.254-0.005,0.376c-0.051,0.104-0.13,0.181-0.235,0.228c-0.125,0.055-0.25,0.057-0.374,0.005
			c-0.106-0.044-0.186-0.123-0.236-0.237c-0.055-0.125-0.053-0.249,0.007-0.371C50.327,67.121,50.407,67.045,50.52,66.995z
			 M50.601,67.21c-0.062,0.027-0.104,0.075-0.123,0.143c-0.016,0.054-0.013,0.104,0.009,0.154c0.025,0.058,0.07,0.098,0.133,0.119
			c0.054,0.021,0.109,0.019,0.168-0.007c0.065-0.029,0.108-0.076,0.129-0.143c0.015-0.055,0.012-0.106-0.01-0.156
			c-0.025-0.056-0.069-0.096-0.134-0.119C50.72,67.18,50.662,67.184,50.601,67.21z M52.657,70.281L51.483,70.8l0.052,0.607
			L50.872,71.7l-0.294-3.514l0.782-0.346l2.388,2.588l-0.688,0.304L52.657,70.281z M52.266,69.841l-0.98-1.075l0.132,1.45
			L52.266,69.841z"/>
		<path fill="#D15F50" d="M55.33,68.295l-0.515-2.285l0.614-0.356l0.763,3.411l-0.627,0.364l-2.551-2.372l0.61-0.354L55.33,68.295z"
			/>
		<path fill="#D15F50" d="M59.429,66.185l-1.032,0.764l0.183,0.58l-0.583,0.432l-1.053-3.365l0.688-0.508l2.895,2.005l-0.604,0.446
			L59.429,66.185z M58.95,65.841l-1.19-0.836l0.444,1.387L58.95,65.841z"/>
		<path fill="#D15F50" d="M61.303,63.641l0.904,0.969l-0.5,0.467l-2.274-2.436l0.75-0.7c0.331-0.309,0.642-0.46,0.933-0.453
			c0.264,0.006,0.501,0.122,0.714,0.349c0.216,0.232,0.314,0.485,0.295,0.76c-0.012,0.169-0.074,0.341-0.187,0.516l1.544,0.309
			l-0.607,0.566L61.303,63.641z M61.029,63.348l0.229-0.213c0.129-0.121,0.207-0.244,0.231-0.37
			c0.028-0.153-0.019-0.296-0.143-0.429c-0.104-0.111-0.222-0.17-0.352-0.176c-0.138-0.007-0.273,0.052-0.406,0.176l-0.27,0.252
			L61.029,63.348z"/>
		<path fill="#D15F50" d="M62.905,59.949l0.618,0.539l0.769-0.881l0.421,0.367l-0.769,0.881l0.63,0.549l0.769-0.882l0.421,0.368
			l-1.217,1.396l-2.513-2.189l1.218-1.396l0.421,0.367L62.905,59.949z"/>
		<path fill="#D15F50" d="M66.15,58.212l1.084,0.765l-0.395,0.559l-2.723-1.921l0.591-0.838c0.261-0.37,0.534-0.581,0.821-0.635
			c0.259-0.048,0.516,0.018,0.77,0.197c0.259,0.183,0.407,0.41,0.443,0.684c0.023,0.167-0.003,0.349-0.078,0.542l1.575-0.013
			l-0.479,0.679L66.15,58.212z M65.823,57.981l0.181-0.256c0.103-0.145,0.152-0.281,0.151-0.409
			c-0.003-0.156-0.079-0.286-0.227-0.391c-0.125-0.088-0.252-0.121-0.38-0.101c-0.137,0.021-0.258,0.106-0.362,0.256l-0.213,0.301
			L65.823,57.981z"/>
	</g>
	<g>
		<path fill="#D15F50" d="M33.027,17.828l-0.245,1.16c0,0,1.096-0.587,2.867-0.944c1.772-0.36,2.478-1.001,2.478-1.001
			s0.063,0.338-0.389,1.081c0,0,1.511-0.246,2.411-0.439c0.901-0.193,1.865-0.792,1.865-0.792l-0.583,1.025
			c0,0,1.22-0.204,2.518-0.161c1.299,0.043,2.071-0.769,2.071-0.769l-0.741,1.178c0,0,2.602-0.029,3.74-0.422l-0.421,0.717
			c0,0,1.297-0.154,2.769-0.004l-0.432,0.497c0,0,2.449-0.09,2.819,0.863c0.369,0.951-2.196,1.034-3.316,0.885
			c0,0,0.32,0.381-0.539,0.768c-0.86,0.385-2.581-0.08-2.581-0.08s0.17,0.813-1.261,0.855c-1.43,0.042-2.564-0.466-2.564-0.466
			s-0.241,0.907-1.618,0.715c-1.377-0.194-2.284-0.729-2.284-0.729s-0.201,0.607-1.137,0.59c-0.936-0.017-2.032-0.569-2.032-0.569
			s-0.387,0.73-2.437,0.154c-2.048-0.576-3.038-0.653-5.482-0.384c-2.444,0.269-4.427,1.113-4.427,1.113l-1.34-0.433
			c0,0,0.061-0.153,2.526-0.826C27.73,20.737,31.369,19.98,33.027,17.828z M28.926,20.544c0,0,5.437-0.987,10.34-1.225
			c4.904-0.236,7.344-0.054,10.217,0.18c2.872,0.235,4.082,0.498,4.082,0.498s0.171-0.481-0.819-0.756
			c-0.991-0.275-2.61,0.046-2.61,0.046c0.643-0.236,0.784-0.592,0.784-0.592c-2.153-0.264-2.755,0.066-3.211,0.377
			c-0.458,0.31-0.651,0.154-0.651,0.154c-0.16-0.241,0.205-0.567,0.821-0.539c0.617,0.029,0.845-0.647,0.845-0.647
			c-0.846,0.352-2.154,0.384-2.968,0.356c-0.814-0.028-0.965,0.108-0.965,0.108c-0.902,0.84-1.663,0.579-1.19,0.178
			c0.473-0.403,1.108-0.269,1.108-0.269c0.379-0.164,0.743-0.785,0.743-0.785s-0.728,0.497-2.118,0.438
			c-1.389-0.06-2.101,0.05-2.101,0.05c-0.489,0.69-0.98,0.889-1.184,0.71c-0.205-0.179,0.246-0.571,0.747-0.647
			c0.502-0.077,0.78-0.829,0.78-0.829s-1.222,0.654-2.489,0.78c-1.268,0.127-1.683,0.334-1.683,0.334
			c-0.871,1.108-1.624,0.731-1.236,0.295c0.388-0.434,1.164-0.461,1.164-0.461c0.439-0.318,0.587-0.887,0.587-0.887
			c-0.582,0.476-1.746,0.84-3.202,1.147c-1.456,0.305-2.529,0.981-2.529,0.981l0.285-0.87
			C31.019,19.822,28.926,20.544,28.926,20.544z M23.404,22.145l0.855,0.32c0,0,2.596-1.25,5.659-1.449
			c3.064-0.2,5.642,1.567,6.435,0.704c0,0-1.428-0.409-1.271-1.054c0.157-0.644,1.267-0.224,1.313,0.698c0,0,2.516,1.134,3.12,0.352
			c0,0-1.708-0.695-1.37-1.25c0.336-0.553,1.159-0.051,1.644,1.005c0,0,3.082,1.141,3.624,0.316c0,0-2.276-0.843-2.018-1.349
			c0.26-0.506,1.967,0.092,2.296,1.145c0,0,3.557,0.781,3.48-0.114c0,0-1.578-0.526-1.407-1.009c0.17-0.482,1.094-0.135,1.486,0.707
			c0,0,3.237,0.752,3.12-0.491c0,0-1.485-0.215-1.554-0.537c-0.069-0.322,0.622-0.481,1.36,0.283c0,0,1.122,0.189,2.149,0.126
			c1.027-0.066,1.213-0.154,1.232-0.492c0,0-2.062-0.34-5.066-0.509c-3.002-0.169-4.679-0.233-8.144-0.107
			c-3.465,0.125-8.823,0.793-11.503,1.286C26.165,21.217,23.404,22.145,23.404,22.145z M36.183,19.024
			c0.068,0.156,0.332,0.06,0.332,0.06c0.416-0.171,0.752-0.658,0.752-0.658C36.602,18.505,36.116,18.867,36.183,19.024z
			 M40.227,18.784c0.304-0.002,0.715-0.517,0.715-0.517C40.299,18.341,39.923,18.786,40.227,18.784z M43.747,18.95
			c0.327,0.008,0.853-0.443,0.853-0.443C43.728,18.51,43.42,18.943,43.747,18.95z M47.244,19.128
			c0.23,0.071,0.676-0.321,0.676-0.321C47.341,18.752,47.013,19.056,47.244,19.128z M49.058,20.227
			c0.244,0.148,0.861,0.14,0.861,0.14C49.174,19.736,48.812,20.078,49.058,20.227z M46.32,20.397
			c-0.328-0.117-0.585,0.091-0.303,0.345c0.281,0.253,0.997,0.369,0.997,0.369S46.649,20.514,46.32,20.397z M41.977,20.368
			c-0.52-0.076-0.683,0.189-0.051,0.536c0.631,0.347,1.607,0.61,1.607,0.61C43.101,20.975,42.496,20.445,41.977,20.368z
			 M38.855,20.502c-0.5-0.288-0.701,0.008-0.566,0.254c0.135,0.247,1.366,0.696,1.366,0.696S39.354,20.79,38.855,20.502z
			 M35.777,20.556c-0.422-0.258-0.681,0.137-0.551,0.363c0.13,0.226,1.026,0.412,1.026,0.412S36.198,20.813,35.777,20.556z"/>
	</g>
	<g>
		<path fill="#D15F50" d="M8.608,31.27v1.537h2.195v1.047H8.608v2.612H7.328v-6.244h3.476v1.048H8.608z"/>
		<path fill="#D15F50" d="M14.859,33.983v2.483h-1.281v-6.244H15.5c0.848,0,1.467,0.191,1.857,0.572
			c0.354,0.345,0.53,0.808,0.53,1.391c0,0.595-0.189,1.067-0.567,1.418c-0.232,0.217-0.537,0.372-0.915,0.467l1.72,2.396H16.57
			L14.859,33.983z M14.859,33.232h0.585c0.332,0,0.596-0.069,0.791-0.21c0.235-0.174,0.353-0.43,0.353-0.769
			c0-0.286-0.085-0.517-0.256-0.69c-0.18-0.187-0.44-0.279-0.782-0.279h-0.69V33.232z"/>
		<path fill="#D15F50" d="M22.204,30.222v6.244h-1.281v-6.244H22.204z"/>
		<path fill="#D15F50" d="M25.02,34.641h1.248c0,0.162,0.02,0.285,0.061,0.37c0.066,0.138,0.178,0.247,0.334,0.33
			c0.139,0.073,0.293,0.109,0.461,0.109c0.248,0,0.453-0.071,0.617-0.215c0.139-0.122,0.207-0.272,0.207-0.453
			c0-0.201-0.086-0.365-0.256-0.494c-0.123-0.091-0.377-0.205-0.76-0.343c-0.613-0.217-1.057-0.446-1.332-0.69
			c-0.35-0.309-0.525-0.729-0.525-1.263c0-0.592,0.203-1.06,0.608-1.404c0.378-0.323,0.862-0.484,1.454-0.484
			c0.4,0,0.756,0.079,1.068,0.237c0.312,0.159,0.559,0.385,0.738,0.677c0.168,0.271,0.27,0.603,0.303,0.993h-1.299
			c-0.043-0.516-0.314-0.773-0.814-0.773c-0.26,0-0.457,0.072-0.59,0.215c-0.117,0.122-0.174,0.268-0.174,0.435
			c0,0.257,0.127,0.456,0.383,0.6c0.129,0.07,0.373,0.171,0.732,0.302c0.455,0.165,0.783,0.314,0.988,0.448
			c0.539,0.348,0.811,0.833,0.811,1.455c0,0.658-0.258,1.161-0.77,1.509c-0.379,0.257-0.838,0.385-1.381,0.385
			c-0.43,0-0.805-0.079-1.125-0.238c-0.32-0.158-0.569-0.387-0.746-0.686C25.097,35.377,25.016,35.038,25.02,34.641z"/>
		<path fill="#D15F50" d="M33.42,33.685v2.781h-1.28v-6.244h1.28v2.713l1.775-2.713h1.481l-2.021,3.01l2.021,3.234h-1.5
			L33.42,33.685z"/>
		<path fill="#D15F50" d="M42.444,33.342c0.32,0.07,0.565,0.182,0.736,0.334c0.302,0.271,0.453,0.646,0.453,1.125
			c0,0.293-0.058,0.56-0.172,0.801c-0.114,0.24-0.273,0.428-0.479,0.562c-0.191,0.128-0.4,0.21-0.626,0.247
			c-0.232,0.036-0.488,0.055-0.769,0.055h-2.301v-6.244h2.017c0.741,0,1.271,0.121,1.588,0.361c0.402,0.303,0.604,0.743,0.604,1.322
			c0,0.427-0.133,0.78-0.397,1.062C42.949,33.123,42.73,33.248,42.444,33.342z M40.568,31.197v1.674h0.513
			c0.402,0,0.69-0.073,0.864-0.219c0.174-0.146,0.261-0.355,0.261-0.627c0-0.159-0.034-0.302-0.103-0.428
			c-0.068-0.127-0.161-0.219-0.277-0.277c-0.17-0.082-0.44-0.123-0.81-0.123H40.568z M40.568,33.827v1.697h0.627
			c0.283,0,0.489-0.02,0.617-0.06c0.351-0.115,0.526-0.373,0.526-0.772c0-0.339-0.119-0.578-0.356-0.719
			c-0.168-0.098-0.455-0.146-0.86-0.146H40.568z"/>
		<path fill="#D15F50" d="M49.953,35.387h-2.405l-0.371,1.079h-1.358l2.159-6.244h1.601l2.132,6.244h-1.409L49.953,35.387z
			 M49.615,34.334l-0.864-2.584l-0.874,2.584H49.615z"/>
		<path fill="#D15F50" d="M57.073,32.962h3.125c0.003,0.119,0.004,0.223,0.004,0.312c0,0.49-0.073,0.925-0.219,1.301
			c-0.146,0.377-0.377,0.724-0.691,1.041c-0.637,0.646-1.404,0.97-2.301,0.97c-0.454,0-0.886-0.086-1.294-0.259
			c-0.409-0.172-0.765-0.417-1.066-0.734c-0.567-0.598-0.851-1.345-0.851-2.241c0-0.93,0.31-1.709,0.929-2.337
			c0.601-0.607,1.356-0.91,2.269-0.91c0.641,0,1.233,0.172,1.779,0.517c0.28,0.177,0.532,0.404,0.755,0.682l-0.97,0.759
			c-0.168-0.204-0.326-0.356-0.476-0.457c-0.312-0.211-0.663-0.315-1.057-0.315c-0.326,0-0.625,0.072-0.896,0.217
			c-0.271,0.146-0.496,0.352-0.673,0.62c-0.24,0.372-0.361,0.782-0.361,1.23c0,0.646,0.226,1.171,0.677,1.573
			c0.369,0.329,0.798,0.494,1.286,0.494c0.265,0,0.521-0.056,0.771-0.167c0.248-0.111,0.455-0.265,0.62-0.46
			c0.164-0.191,0.291-0.454,0.379-0.786h-1.738V32.962z"/>
		<path fill="#D15F50" d="M64.939,31.27v5.196h-1.281V31.27h-1.486v-1.048h4.254v1.048H64.939z"/>
		<path fill="#D15F50" d="M25.579,44.584c0.32,0.07,0.565,0.182,0.736,0.334c0.302,0.271,0.453,0.646,0.453,1.125
			c0,0.293-0.058,0.559-0.172,0.801c-0.114,0.24-0.273,0.428-0.479,0.562c-0.191,0.127-0.4,0.209-0.626,0.246
			c-0.231,0.037-0.488,0.055-0.769,0.055h-2.301v-6.244h2.017c0.741,0,1.27,0.121,1.587,0.361c0.402,0.303,0.604,0.744,0.604,1.322
			c0,0.428-0.133,0.781-0.397,1.062C26.083,44.363,25.865,44.488,25.579,44.584z M23.703,42.438v1.674h0.512
			c0.402,0,0.69-0.072,0.864-0.219s0.261-0.355,0.261-0.627c0-0.158-0.034-0.301-0.103-0.428c-0.069-0.127-0.161-0.219-0.276-0.277
			c-0.171-0.082-0.441-0.123-0.81-0.123H23.703z M23.703,45.068v1.697h0.626c0.284,0,0.489-0.02,0.618-0.061
			c0.35-0.115,0.525-0.373,0.525-0.771c0-0.34-0.119-0.578-0.357-0.719c-0.167-0.098-0.454-0.146-0.859-0.146H23.703z"/>
		<path fill="#D15F50" d="M30.937,45.225v2.482h-1.28v-6.244h1.921c0.848,0,1.467,0.191,1.857,0.572
			c0.354,0.346,0.53,0.809,0.53,1.391c0,0.596-0.189,1.068-0.567,1.418c-0.231,0.217-0.536,0.373-0.914,0.467l1.72,2.396h-1.556
			L30.937,45.225z M30.937,44.473h0.586c0.332,0,0.596-0.068,0.791-0.209c0.235-0.174,0.353-0.43,0.353-0.77
			c0-0.285-0.086-0.516-0.256-0.689c-0.181-0.188-0.441-0.279-0.782-0.279h-0.691V44.473z"/>
		<path fill="#D15F50" d="M37.738,47.004l-0.668,0.645l-0.315-0.344l0.658-0.635c-0.229-0.297-0.393-0.564-0.493-0.807
			c-0.153-0.367-0.229-0.775-0.229-1.221c0-1.053,0.361-1.893,1.084-2.52c0.602-0.52,1.307-0.777,2.119-0.777
			c0.491,0,0.97,0.107,1.437,0.324c0.262,0.121,0.509,0.289,0.741,0.502l0.677-0.658l0.315,0.357l-0.654,0.635
			c0.247,0.348,0.418,0.654,0.513,0.916c0.144,0.377,0.215,0.766,0.215,1.162c0,0.654-0.179,1.252-0.535,1.793
			c-0.326,0.502-0.763,0.881-1.309,1.135c-0.445,0.209-0.928,0.314-1.449,0.314C39.047,47.826,38.344,47.553,37.738,47.004z
			 M41.155,43.023c-0.366-0.33-0.773-0.494-1.222-0.494c-0.604,0-1.098,0.234-1.482,0.705c-0.306,0.371-0.458,0.824-0.458,1.357
			c0,0.473,0.113,0.875,0.339,1.209L41.155,43.023z M38.635,46.166c0.363,0.316,0.776,0.477,1.239,0.477
			c0.549,0,1.021-0.201,1.414-0.605c0.365-0.375,0.549-0.861,0.549-1.459c0-0.441-0.121-0.842-0.361-1.197L38.635,46.166z"/>
		<path fill="#D15F50" d="M46.011,47.707v-6.244h1.771c0.704,0,1.269,0.107,1.692,0.32c0.524,0.264,0.922,0.662,1.193,1.199
			c0.229,0.447,0.343,0.957,0.343,1.527c0,0.721-0.169,1.352-0.507,1.895c-0.54,0.869-1.423,1.303-2.649,1.303H46.011z
			 M47.291,42.502v4.145h0.247c0.464,0,0.826-0.062,1.089-0.188c0.363-0.172,0.642-0.443,0.837-0.818
			c0.165-0.318,0.247-0.68,0.247-1.084c0-0.324-0.054-0.625-0.162-0.902s-0.259-0.504-0.45-0.682
			c-0.342-0.314-0.787-0.471-1.336-0.471H47.291z"/>
	</g>
</g>
</svg>
