<?xml version="1.0" encoding="utf-8"?>
<!-- Generator: Adobe Illustrator 21.0.0, SVG Export Plug-In . SVG Version: 6.00 Build 0)  -->
<svg version="1.1" xmlns="http://www.w3.org/2000/svg" xmlns:xlink="http://www.w3.org/1999/xlink" x="0px" y="0px" width="130px"
	 height="130px" viewBox="0 0 130 130" enable-background="new 0 0 130 130" xml:space="preserve">
<g id="Layer_2">
	<circle opacity="0.9" fill="#F4F8F9" cx="65" cy="65" r="65"/>
</g>
<g id="friskbagt_brød">
	<g>
		<g>
			<path fill="#D15F50" d="M117.359,86.006l-1.316-0.585c2.632-6.435,3.804-13.31,3.804-20.329c0-13.163-4.826-25.888-13.456-35.98
				l1.17-1.023c8.922,10.238,13.749,23.255,13.749,36.856C121.308,72.259,119.992,79.278,117.359,86.006z"/>
		</g>
		<g>
			<path fill="#D15F50" d="M12.495,85.423c-2.486-6.436-3.804-13.31-3.804-20.329c0-13.31,4.68-26.18,13.31-36.271l1.17,0.877
				c-8.483,9.945-13.017,22.523-13.017,35.394c0,6.875,1.17,13.456,3.657,19.892L12.495,85.423z"/>
		</g>
		<g>
			<circle fill="#D15F50" cx="65" cy="99.609" r="2.486"/>
		</g>
		<g>
			<path fill="#D15F50" d="M28.512,22.753l1.407,1.691l-0.845,0.705l-3.431-4.121l0.845-0.705l1.447,1.739l1.569-1.305l-1.447-1.738
				l0.845-0.705l3.431,4.121l-0.845,0.705l-1.407-1.691L28.512,22.753z"/>
			<path fill="#D15F50" d="M32.092,13.912c0.175-0.114,0.37-0.146,0.582-0.097c0.18,0.042,0.323,0.146,0.431,0.311
				c0.122,0.188,0.151,0.388,0.087,0.599c-0.055,0.179-0.163,0.319-0.317,0.42c-0.185,0.119-0.383,0.154-0.594,0.101
				c-0.179-0.042-0.325-0.148-0.434-0.317c-0.119-0.185-0.148-0.382-0.083-0.592C31.816,14.16,31.926,14.02,32.092,13.912z
				 M32.275,14.232c-0.094,0.06-0.146,0.146-0.163,0.257c-0.011,0.09,0.006,0.169,0.053,0.242c0.055,0.087,0.137,0.138,0.242,0.157
				c0.092,0.02,0.179,0.002,0.264-0.053c0.098-0.063,0.154-0.149,0.169-0.259c0.011-0.092-0.008-0.172-0.055-0.245
				c-0.053-0.083-0.134-0.135-0.242-0.157C32.455,14.155,32.366,14.174,32.275,14.232z M36.315,18.595l-1.736,1.119l0.235,0.951
				L33.834,21.3l-1.35-5.51l1.156-0.747l4.445,3.514l-1.017,0.655L36.315,18.595z M35.581,17.994l-1.827-1.462l0.573,2.272
				L35.581,17.994z"/>
			<path fill="#D15F50" d="M39.198,14.148l1.477,3.051l-0.99,0.479l-2.334-4.826l0.972-0.47l3.483,2.034l-1.458-3.013l0.99-0.479
				l2.334,4.826l-0.965,0.468L39.198,14.148z"/>
			<path fill="#D15F50" d="M45.929,14.841l-1.715-5.08l1.441-0.486c0.573-0.193,1.062-0.26,1.466-0.205
				c0.499,0.069,0.931,0.285,1.3,0.647c0.309,0.302,0.542,0.685,0.7,1.149c0.198,0.585,0.234,1.145,0.106,1.68
				c-0.201,0.856-0.799,1.451-1.797,1.787L45.929,14.841z M45.541,10.254l1.138,3.372l0.201-0.068
				c0.377-0.127,0.655-0.278,0.835-0.451c0.248-0.238,0.4-0.537,0.457-0.898c0.046-0.302,0.014-0.619-0.098-0.95
				c-0.088-0.264-0.216-0.494-0.378-0.688c-0.166-0.197-0.349-0.341-0.555-0.433c-0.365-0.163-0.771-0.168-1.216-0.016
				L45.541,10.254z"/>
			<path fill="#D15F50" d="M53.259,10.872l0.351-3.75l1.116-0.24l-0.531,5.597l-1.139,0.245l-2.722-4.899l1.11-0.238L53.259,10.872z
				"/>
			<path fill="#D15F50" d="M61.073,9.273l0.12,1.339l1.831-0.168l0.082,0.896l-2.925,0.265l-0.098-1.071l-1.831,0.169l-0.472,1.123
				l-1.171,0.106l2.412-5.603L62.619,6l0.082,0.896l-1.832,0.168l0.12,1.313l1.831-0.168l0.082,0.896L61.073,9.273z M60.005,9.675
				L59.77,7.099l-1.142,2.7L60.005,9.675z"/>
			<path fill="#D15F50" d="M66.514,9.277l-0.083,2.13l-1.099-0.042l0.208-5.357l1.649,0.065c0.727,0.029,1.252,0.212,1.575,0.551
				c0.293,0.308,0.43,0.711,0.408,1.211c-0.021,0.51-0.197,0.909-0.533,1.197c-0.208,0.179-0.474,0.302-0.801,0.37l1.395,2.112
				l-1.333-0.051L66.514,9.277z M66.54,8.634l0.502,0.02c0.285,0.011,0.513-0.039,0.687-0.154c0.208-0.142,0.315-0.357,0.326-0.647
				c0.009-0.246-0.057-0.445-0.197-0.602c-0.149-0.166-0.368-0.253-0.662-0.265l-0.594-0.023L66.54,8.634z"/>
			<path fill="#D15F50" d="M72.761,9.533l-0.354,2.362l-1.089-0.162l0.795-5.303L73.2,6.594l-0.346,2.304l1.852-2.078l1.258,0.188
				l-2.1,2.299l1.307,3.003l-1.275-0.19L72.761,9.533z"/>
			<path fill="#D15F50" d="M77.129,11.131l1.039,0.271c-0.035,0.134-0.045,0.24-0.031,0.32c0.026,0.129,0.095,0.243,0.205,0.346
				c0.101,0.092,0.223,0.156,0.362,0.191c0.205,0.053,0.393,0.037,0.56-0.045c0.142-0.072,0.23-0.182,0.271-0.331
				c0.042-0.168,0.006-0.323-0.106-0.466c-0.082-0.101-0.267-0.251-0.557-0.449c-0.463-0.312-0.782-0.599-0.959-0.861
				c-0.225-0.331-0.28-0.719-0.164-1.163c0.126-0.492,0.396-0.838,0.808-1.038c0.383-0.186,0.822-0.216,1.313-0.088
				c0.333,0.087,0.611,0.23,0.836,0.43c0.227,0.198,0.383,0.439,0.468,0.721c0.082,0.262,0.095,0.56,0.037,0.891L80.13,9.577
				c0.076-0.436-0.095-0.71-0.508-0.819c-0.216-0.055-0.394-0.037-0.537,0.051c-0.122,0.077-0.201,0.183-0.238,0.323
				c-0.053,0.212,0.009,0.407,0.191,0.581c0.092,0.085,0.271,0.222,0.542,0.408c0.343,0.235,0.582,0.431,0.724,0.585
				c0.373,0.405,0.494,0.867,0.359,1.384c-0.142,0.547-0.462,0.909-0.965,1.09c-0.368,0.131-0.779,0.138-1.23,0.021
				c-0.357-0.094-0.651-0.24-0.885-0.441c-0.232-0.2-0.388-0.444-0.471-0.73C77.034,11.758,77.04,11.459,77.129,11.131z"/>
			<path fill="#D15F50" d="M85.833,12.681c0.235,0.154,0.399,0.317,0.491,0.492c0.159,0.309,0.168,0.656,0.021,1.041
				c-0.09,0.235-0.216,0.433-0.382,0.591c-0.164,0.159-0.349,0.26-0.554,0.306c-0.194,0.043-0.386,0.046-0.577,0.008
				c-0.198-0.04-0.408-0.103-0.636-0.188l-1.847-0.7l1.898-5.015l1.618,0.613c0.597,0.225,0.983,0.483,1.167,0.773
				c0.234,0.365,0.259,0.779,0.083,1.244c-0.131,0.345-0.345,0.587-0.642,0.732C86.304,12.659,86.09,12.693,85.833,12.681z
				 M84.179,12.501l-0.514,1.364l0.502,0.19c0.228,0.087,0.399,0.132,0.513,0.14c0.317,0.013,0.537-0.14,0.656-0.462
				c0.103-0.272,0.082-0.5-0.068-0.685c-0.105-0.129-0.319-0.254-0.645-0.378L84.179,12.501z M84.979,10.39l-0.508,1.344
				l0.412,0.156c0.323,0.122,0.576,0.153,0.761,0.087c0.185-0.065,0.317-0.206,0.399-0.423c0.05-0.127,0.066-0.253,0.048-0.375
				c-0.018-0.122-0.063-0.225-0.138-0.306c-0.111-0.117-0.315-0.234-0.613-0.346L84.979,10.39z"/>
			<path fill="#D15F50" d="M90.85,16.956l-1.839-0.946l-0.706,0.677l-1.038-0.534l4.104-3.918l1.222,0.631l-0.83,5.603l-1.075-0.555
				L90.85,16.956z M91.005,16.02l0.357-2.314l-1.683,1.63L91.005,16.02z"/>
			<path fill="#D15F50" d="M97.065,18.332l2.214,1.515c-0.057,0.085-0.105,0.161-0.148,0.223c-0.238,0.348-0.502,0.619-0.788,0.814
				c-0.286,0.197-0.618,0.33-0.993,0.402c-0.768,0.149-1.467,0.005-2.103-0.431c-0.32-0.22-0.584-0.491-0.79-0.811
				s-0.337-0.666-0.399-1.039c-0.111-0.699,0.05-1.366,0.486-2c0.452-0.658,1.049-1.06,1.792-1.205
				c0.721-0.138,1.403,0.014,2.048,0.457c0.454,0.311,0.79,0.721,1.01,1.231c0.112,0.26,0.179,0.544,0.205,0.848l-1.056,0.069
				c-0.021-0.227-0.06-0.412-0.116-0.555c-0.117-0.301-0.315-0.545-0.594-0.737c-0.234-0.159-0.478-0.251-0.742-0.282
				c-0.262-0.031-0.522,0.008-0.776,0.112c-0.352,0.146-0.637,0.378-0.854,0.697c-0.314,0.457-0.408,0.938-0.283,1.441
				c0.1,0.414,0.323,0.737,0.669,0.973c0.188,0.129,0.397,0.214,0.629,0.256c0.23,0.042,0.449,0.034,0.662-0.026
				c0.209-0.055,0.426-0.18,0.65-0.371l-1.23-0.843L97.065,18.332z"/>
			<path fill="#D15F50" d="M103.367,21.4l-2.915,3.377l-0.833-0.717l2.915-3.379l-0.967-0.835l0.589-0.68l2.764,2.388l-0.589,0.68
				L103.367,21.4z"/>
		</g>
		<g>
			<path fill="#D15F50" d="M18.111,99.287l-1.192-1.689l-0.939,0.277l-0.673-0.954l5.449-1.575l0.793,1.123l-3.327,4.585
				l-0.699-0.988L18.111,99.287z M18.681,98.529l1.385-1.886L17.82,97.31L18.681,98.529z"/>
			<path fill="#D15F50" d="M23.893,100.848l-0.991,0.87l1.245,1.418l-0.676,0.594l-1.244-1.418l-1.684,1.482l-0.727-0.825
				l4.025-3.539l1.972,2.243l-0.676,0.594L23.893,100.848z"/>
			<path fill="#D15F50" d="M26.723,109.952l3.339-4.196l1.189,0.948c0.473,0.375,0.795,0.75,0.967,1.118
				c0.212,0.457,0.265,0.938,0.161,1.443c-0.085,0.425-0.282,0.827-0.585,1.21c-0.385,0.485-0.836,0.819-1.353,1.002
				c-0.827,0.296-1.652,0.114-2.477-0.54L26.723,109.952z M30.367,107.138l-2.215,2.785l0.168,0.132
				c0.311,0.246,0.589,0.399,0.832,0.455c0.334,0.079,0.669,0.043,1.001-0.103c0.28-0.124,0.529-0.323,0.745-0.596
				c0.172-0.217,0.297-0.448,0.371-0.693c0.076-0.243,0.097-0.478,0.063-0.7c-0.063-0.393-0.277-0.737-0.645-1.031L30.367,107.138z"
				/>
			<path fill="#D15F50" d="M35.526,110.904l-0.706,1.115l1.59,1.007l-0.481,0.761l-1.59-1.009l-0.719,1.136l1.59,1.007l-0.481,0.759
				l-2.518-1.596l2.87-4.527l2.518,1.596l-0.481,0.759L35.526,110.904z"/>
			<path fill="#D15F50" d="M44.493,117.486c0.231,0.161,0.389,0.328,0.476,0.505c0.151,0.314,0.148,0.662-0.008,1.041
				c-0.095,0.234-0.228,0.426-0.397,0.579c-0.169,0.154-0.357,0.249-0.563,0.291c-0.194,0.037-0.388,0.035-0.577-0.009
				c-0.197-0.045-0.405-0.114-0.629-0.208l-1.827-0.751l2.04-4.958l1.602,0.658c0.589,0.242,0.97,0.51,1.142,0.806
				c0.22,0.37,0.237,0.787,0.048,1.247c-0.14,0.337-0.36,0.576-0.663,0.711C44.966,117.476,44.752,117.505,44.493,117.486z
				 M42.845,117.257l-0.554,1.348l0.497,0.205c0.225,0.094,0.396,0.145,0.51,0.156c0.317,0.023,0.539-0.126,0.671-0.442
				c0.111-0.269,0.095-0.499-0.048-0.687c-0.101-0.132-0.312-0.264-0.636-0.397L42.845,117.257z M43.705,115.17l-0.547,1.329
				l0.407,0.168c0.32,0.132,0.571,0.168,0.758,0.108c0.186-0.06,0.323-0.197,0.412-0.412c0.051-0.127,0.071-0.251,0.058-0.373
				c-0.013-0.122-0.057-0.227-0.131-0.309c-0.108-0.122-0.309-0.242-0.603-0.363L43.705,115.17z"/>
			<path fill="#D15F50" d="M49.176,117.217l-0.373,1.266l1.805,0.531l-0.254,0.864l-1.805-0.533l-0.38,1.289l1.805,0.533
				l-0.257,0.862l-2.859-0.843l1.517-5.142l2.859,0.843l-0.254,0.862L49.176,117.217z"/>
			<path fill="#D15F50" d="M52.487,122.715l0.951-5.275l1.496,0.271c0.596,0.106,1.056,0.283,1.381,0.528
				c0.404,0.302,0.679,0.7,0.827,1.193c0.126,0.415,0.145,0.862,0.058,1.344c-0.109,0.61-0.349,1.116-0.717,1.524
				c-0.589,0.651-1.401,0.885-2.437,0.699L52.487,122.715z M54.362,118.512l-0.632,3.502l0.209,0.037
				c0.393,0.071,0.708,0.072,0.948,0.006c0.333-0.088,0.61-0.277,0.833-0.565c0.186-0.242,0.312-0.536,0.373-0.879
				c0.048-0.274,0.048-0.536,0-0.785c-0.05-0.251-0.142-0.466-0.277-0.645c-0.24-0.317-0.594-0.516-1.057-0.602L54.362,118.512z"/>
			<path fill="#D15F50" d="M59.24,122.187l1.07,0.072c-0.009,0.138,0,0.245,0.031,0.32c0.05,0.122,0.138,0.223,0.267,0.302
				c0.116,0.071,0.246,0.111,0.389,0.12c0.211,0.014,0.393-0.034,0.54-0.149c0.126-0.097,0.191-0.222,0.203-0.375
				c0.011-0.172-0.053-0.319-0.191-0.437c-0.1-0.085-0.309-0.198-0.631-0.337c-0.513-0.22-0.88-0.442-1.101-0.668
				c-0.283-0.285-0.408-0.655-0.378-1.112c0.034-0.505,0.235-0.896,0.602-1.168c0.343-0.256,0.768-0.367,1.274-0.331
				c0.343,0.023,0.642,0.111,0.902,0.265c0.259,0.154,0.457,0.362,0.594,0.622c0.127,0.242,0.194,0.531,0.201,0.867l-1.113-0.074
				c-0.006-0.444-0.225-0.682-0.653-0.71c-0.222-0.014-0.396,0.034-0.518,0.151c-0.106,0.098-0.166,0.219-0.174,0.362
				c-0.014,0.22,0.083,0.399,0.294,0.536c0.106,0.068,0.309,0.168,0.61,0.302c0.38,0.168,0.653,0.314,0.82,0.439
				c0.442,0.33,0.645,0.761,0.61,1.293c-0.037,0.565-0.286,0.979-0.745,1.248c-0.337,0.198-0.74,0.282-1.207,0.249
				c-0.368-0.026-0.685-0.114-0.95-0.269c-0.265-0.154-0.465-0.365-0.6-0.632C59.266,122.822,59.216,122.527,59.24,122.187z"/>
			<path fill="#D15F50" d="M67.224,119.507l0.134,4.46L66.258,124l-0.135-4.461l-1.276,0.039l-0.028-0.899l3.652-0.109l0.028,0.899
				L67.224,119.507z"/>
			<path fill="#D15F50" d="M71.434,119.175l0.164,1.308l1.868-0.234l0.109,0.893l-1.866,0.234l0.168,1.333l1.866-0.235l0.111,0.893
				l-2.959,0.368l-0.663-5.32l2.959-0.368l0.111,0.893L71.434,119.175z"/>
			<path fill="#D15F50" d="M81.167,119.55l0.631,2.037l-1.049,0.325l-1.584-5.123l1.575-0.488c0.697-0.216,1.252-0.216,1.669-0.002
				c0.378,0.191,0.64,0.528,0.788,1.005c0.151,0.488,0.116,0.924-0.105,1.307c-0.135,0.235-0.346,0.441-0.634,0.614l2.021,1.53
				l-1.276,0.394L81.167,119.55z M80.977,118.934l0.481-0.149c0.272-0.083,0.471-0.209,0.596-0.371
				c0.148-0.203,0.179-0.442,0.095-0.719c-0.074-0.235-0.201-0.404-0.386-0.502c-0.194-0.106-0.433-0.116-0.711-0.031l-0.568,0.174
				L80.977,118.934z"/>
			<path fill="#D15F50" d="M85.947,112.452c0.191-0.085,0.388-0.085,0.591-0.003c0.171,0.071,0.297,0.194,0.375,0.373
				c0.092,0.208,0.09,0.408-0.008,0.605c-0.082,0.168-0.209,0.291-0.378,0.367c-0.201,0.088-0.402,0.092-0.602,0.008
				c-0.171-0.071-0.299-0.198-0.38-0.382c-0.088-0.201-0.085-0.4,0.011-0.597C85.636,112.655,85.765,112.533,85.947,112.452z
				 M86.077,112.798c-0.1,0.043-0.168,0.12-0.198,0.23c-0.026,0.087-0.021,0.168,0.014,0.248c0.04,0.094,0.112,0.157,0.214,0.191
				c0.087,0.034,0.175,0.031,0.271-0.011c0.105-0.046,0.174-0.122,0.208-0.23c0.024-0.088,0.02-0.171-0.016-0.251
				c-0.04-0.09-0.111-0.154-0.216-0.191C86.269,112.75,86.175,112.756,86.077,112.798z M89.385,117.738l-1.889,0.835l0.083,0.976
				l-1.067,0.471l-0.473-5.653l1.258-0.557l3.842,4.164l-1.107,0.489L89.385,117.738z M88.756,117.031l-1.576-1.729l0.212,2.332
				L88.756,117.031z"/>
			<path fill="#D15F50" d="M93.685,114.543l-0.828-3.676l0.988-0.573l1.227,5.488l-1.009,0.585l-4.104-3.816l0.982-0.57
				L93.685,114.543z"/>
			<path fill="#D15F50" d="M100.28,111.149l-1.661,1.229l0.294,0.933l-0.938,0.695l-1.694-5.414l1.107-0.817l4.658,3.225
				l-0.972,0.717L100.28,111.149z M99.509,110.595l-1.915-1.345l0.714,2.232L99.509,110.595z"/>
			<path fill="#D15F50" d="M103.295,107.056l1.455,1.559l-0.805,0.751l-3.659-3.919l1.207-1.127c0.533-0.497,1.033-0.74,1.501-0.728
				c0.425,0.009,0.806,0.197,1.149,0.562c0.348,0.373,0.505,0.78,0.474,1.222c-0.02,0.272-0.119,0.548-0.301,0.83l2.484,0.497
				l-0.976,0.911L103.295,107.056z M102.854,106.585l0.368-0.343c0.208-0.194,0.333-0.393,0.371-0.596
				c0.045-0.246-0.031-0.476-0.23-0.69c-0.168-0.179-0.357-0.274-0.566-0.283c-0.222-0.011-0.439,0.083-0.653,0.283l-0.434,0.405
				L102.854,106.585z"/>
			<path fill="#D15F50" d="M105.872,101.116l0.994,0.867l1.237-1.418l0.677,0.591l-1.237,1.418l1.013,0.883l1.237-1.419l0.677,0.592
				l-1.958,2.246l-4.043-3.522l1.96-2.246l0.677,0.591L105.872,101.116z"/>
			<path fill="#D15F50" d="M111.093,98.322l1.744,1.23l-0.636,0.899l-4.381-3.091l0.951-1.348c0.42-0.596,0.859-0.935,1.321-1.022
				c0.417-0.077,0.83,0.029,1.239,0.317c0.417,0.294,0.655,0.659,0.713,1.101c0.037,0.269-0.005,0.562-0.126,0.872l2.534-0.021
				l-0.771,1.093L111.093,98.322z M110.566,97.95l0.291-0.412c0.166-0.234,0.245-0.452,0.243-0.658
				c-0.005-0.251-0.127-0.46-0.365-0.629c-0.201-0.142-0.405-0.194-0.611-0.163c-0.22,0.034-0.415,0.171-0.582,0.412l-0.343,0.485
				L110.566,97.95z"/>
		</g>
		<g>
			<path fill="#D15F50" d="M57.804,33.352l-0.394,1.866c0,0,1.763-0.944,4.612-1.519c2.851-0.579,3.987-1.61,3.987-1.61
				s0.101,0.544-0.626,1.739c0,0,2.431-0.396,3.879-0.706c1.45-0.311,3-1.274,3-1.274l-0.938,1.649c0,0,1.963-0.328,4.051-0.259
				c2.09,0.069,3.332-1.237,3.332-1.237l-1.192,1.895c0,0,4.186-0.046,6.017-0.679l-0.677,1.153c0,0,2.086-0.248,4.455-0.006
				l-0.695,0.799c0,0,3.94-0.145,4.535,1.388c0.594,1.53-3.533,1.664-5.335,1.424c0,0,0.514,0.613-0.867,1.236
				c-1.384,0.619-4.152-0.129-4.152-0.129s0.274,1.308-2.029,1.376c-2.3,0.068-4.125-0.75-4.125-0.75s-0.388,1.459-2.603,1.15
				c-2.215-0.312-3.675-1.173-3.675-1.173s-0.323,0.976-1.829,0.95c-1.506-0.027-3.269-0.916-3.269-0.916s-0.622,1.174-3.921,0.248
				c-3.295-0.927-4.888-1.05-8.819-0.618c-3.932,0.433-7.122,1.79-7.122,1.79l-2.155-0.697c0,0,0.098-0.246,4.064-1.329
				C49.282,38.031,55.136,36.814,57.804,33.352z M51.206,37.721c0,0,8.747-1.588,16.635-1.971c7.889-0.38,11.815-0.087,16.437,0.289
				c4.621,0.378,6.567,0.801,6.567,0.801s0.275-0.774-1.318-1.216c-1.595-0.442-4.199,0.074-4.199,0.074
				c1.034-0.38,1.261-0.953,1.261-0.953c-3.464-0.425-4.432,0.106-5.166,0.607c-0.737,0.499-1.047,0.248-1.047,0.248
				c-0.257-0.388,0.33-0.913,1.321-0.867c0.993,0.046,1.359-1.041,1.359-1.041c-1.361,0.566-3.465,0.618-4.775,0.573
				c-1.31-0.045-1.553,0.174-1.553,0.174c-1.451,1.351-2.675,0.931-1.915,0.286c0.761-0.648,1.783-0.433,1.783-0.433
				c0.61-0.264,1.196-1.263,1.196-1.263s-1.171,0.799-3.408,0.705c-2.235-0.097-3.38,0.08-3.38,0.08
				c-0.787,1.11-1.576,1.43-1.905,1.142c-0.33-0.288,0.396-0.919,1.202-1.041c0.808-0.124,1.255-1.333,1.255-1.333
				s-1.966,1.052-4.004,1.255c-2.04,0.205-2.708,0.537-2.708,0.537c-1.401,1.783-2.613,1.176-1.989,0.474
				c0.624-0.699,1.873-0.742,1.873-0.742c0.706-0.511,0.944-1.427,0.944-1.427c-0.936,0.765-2.809,1.351-5.151,1.846
				c-2.343,0.491-4.069,1.578-4.069,1.578l0.459-1.399C54.573,36.56,51.206,37.721,51.206,37.721z M42.322,40.296l1.376,0.514
				c0,0,4.176-2.011,9.104-2.331c4.929-0.322,9.077,2.521,10.353,1.133c0,0-2.297-0.658-2.045-1.696
				c0.253-1.036,2.038-0.36,2.112,1.123c0,0,4.047,1.824,5.02,0.566c0,0-2.748-1.118-2.204-2.011c0.54-0.89,1.864-0.082,2.645,1.617
				c0,0,4.958,1.835,5.83,0.508c0,0-3.662-1.356-3.247-2.17c0.419-0.814,3.165,0.148,3.694,1.842c0,0,5.722,1.256,5.599-0.183
				c0,0-2.539-0.846-2.263-1.624c0.274-0.776,1.76-0.217,2.391,1.138c0,0,5.208,1.21,5.02-0.79c0,0-2.389-0.346-2.5-0.864
				c-0.111-0.518,1.001-0.774,2.188,0.455c0,0,1.805,0.304,3.457,0.203c1.652-0.106,1.952-0.248,1.982-0.791
				c0,0-3.317-0.547-8.15-0.819c-4.829-0.272-7.528-0.375-13.102-0.172c-5.574,0.201-14.195,1.276-18.506,2.069
				C46.764,38.804,42.322,40.296,42.322,40.296z M62.881,35.276c0.109,0.251,0.534,0.097,0.534,0.097
				c0.669-0.275,1.21-1.059,1.21-1.059C63.555,34.44,62.773,35.023,62.881,35.276z M69.388,34.89c0.489-0.003,1.15-0.832,1.15-0.832
				C69.503,34.177,68.898,34.893,69.388,34.89z M75.05,35.156c0.526,0.013,1.372-0.713,1.372-0.713
				C75.019,34.449,74.525,35.145,75.05,35.156z M80.676,35.443c0.37,0.114,1.087-0.516,1.087-0.516
				C80.832,34.838,80.305,35.327,80.676,35.443z M83.595,37.211c0.393,0.238,1.385,0.225,1.385,0.225
				C83.781,36.421,83.199,36.971,83.595,37.211z M79.189,37.485c-0.528-0.188-0.941,0.146-0.488,0.555
				c0.452,0.407,1.604,0.594,1.604,0.594S79.719,37.673,79.189,37.485z M72.202,37.438c-0.836-0.122-1.099,0.304-0.082,0.862
				c1.015,0.559,2.585,0.982,2.585,0.982C74.011,38.415,73.038,37.562,72.202,37.438z M67.18,37.653
				c-0.805-0.463-1.128,0.013-0.911,0.408c0.217,0.397,2.198,1.119,2.198,1.119S67.983,38.116,67.18,37.653z M62.228,37.74
				c-0.679-0.415-1.096,0.22-0.887,0.584s1.65,0.663,1.65,0.663S62.905,38.153,62.228,37.74z"/>
		</g>
		<g>
			<path fill="#D15F50" d="M18.518,54.977v2.472h3.531v1.684h-3.531v4.202h-2.059V53.29h5.592v1.686L18.518,54.977L18.518,54.977z"
				/>
			<path fill="#D15F50" d="M28.575,59.342v3.995h-2.061V53.29h3.092c1.364,0,2.36,0.308,2.988,0.92
				c0.57,0.555,0.853,1.3,0.853,2.238c0,0.957-0.304,1.717-0.913,2.281c-0.373,0.349-0.864,0.599-1.472,0.751l2.767,3.855h-2.502
				L28.575,59.342z M28.575,58.133h0.941c0.534,0,0.959-0.111,1.273-0.337c0.378-0.28,0.568-0.691,0.568-1.237
				c0-0.46-0.137-0.832-0.412-1.11c-0.289-0.301-0.708-0.449-1.258-0.449h-1.11v3.134H28.575z"/>
			<path fill="#D15F50" d="M40.392,53.291v10.046h-2.061V53.291H40.392z"/>
			<path fill="#D15F50" d="M44.922,60.4h2.008c0,0.26,0.032,0.459,0.098,0.596c0.106,0.222,0.286,0.397,0.537,0.531
				c0.223,0.117,0.471,0.175,0.742,0.175c0.399,0,0.728-0.114,0.993-0.346c0.223-0.197,0.333-0.437,0.333-0.728
				c0-0.323-0.138-0.587-0.412-0.795c-0.198-0.146-0.607-0.33-1.222-0.551c-0.986-0.349-1.701-0.717-2.143-1.11
				c-0.563-0.497-0.845-1.173-0.845-2.032c0-0.953,0.326-1.705,0.978-2.259c0.608-0.52,1.387-0.779,2.34-0.779
				c0.643,0,1.216,0.127,1.718,0.382c0.502,0.256,0.899,0.619,1.187,1.09c0.271,0.436,0.434,0.97,0.488,1.598h-2.09
				c-0.069-0.83-0.505-1.244-1.31-1.244c-0.419,0-0.736,0.116-0.95,0.346c-0.188,0.197-0.28,0.431-0.28,0.7
				c0,0.414,0.205,0.734,0.616,0.965c0.208,0.112,0.6,0.275,1.178,0.486c0.732,0.265,1.259,0.505,1.59,0.721
				c0.867,0.56,1.305,1.34,1.305,2.341c0,1.059-0.415,1.868-1.239,2.428c-0.61,0.414-1.348,0.619-2.222,0.619
				c-0.691,0-1.295-0.127-1.81-0.383c-0.514-0.254-0.916-0.622-1.2-1.104C45.046,61.584,44.916,61.039,44.922,60.4z"/>
			<path fill="#D15F50" d="M58.436,58.862v4.474h-2.059V53.29h2.059v4.364l2.856-4.364h2.383l-3.251,4.843l3.251,5.203h-2.413
				L58.436,58.862z"/>
			<path fill="#D15F50" d="M72.954,58.31c0.514,0.112,0.909,0.293,1.184,0.537c0.486,0.436,0.728,1.039,0.728,1.81
				c0,0.471-0.094,0.901-0.277,1.289c-0.183,0.386-0.439,0.688-0.771,0.904c-0.308,0.206-0.643,0.337-1.007,0.397
				c-0.373,0.058-0.785,0.088-1.237,0.088h-3.702V53.29h3.245c1.192,0,2.045,0.194,2.555,0.581c0.647,0.488,0.972,1.196,0.972,2.127
				c0,0.687-0.214,1.255-0.639,1.709C73.766,57.959,73.414,58.159,72.954,58.31z M69.936,54.86v2.694h0.825
				c0.647,0,1.11-0.117,1.39-0.352c0.28-0.235,0.42-0.571,0.42-1.009c0-0.256-0.055-0.486-0.166-0.688
				c-0.109-0.205-0.259-0.352-0.445-0.445c-0.274-0.132-0.708-0.198-1.304-0.198C70.657,54.86,69.936,54.86,69.936,54.86z
				 M69.936,59.091v2.731h1.008c0.455,0,0.787-0.032,0.993-0.097c0.565-0.185,0.846-0.6,0.846-1.242c0-0.545-0.191-0.93-0.573-1.156
				c-0.271-0.157-0.732-0.235-1.384-0.235C70.827,59.091,69.936,59.091,69.936,59.091z"/>
			<path fill="#D15F50" d="M85.034,61.601h-3.869l-0.597,1.736h-2.185l3.473-10.046h2.576l3.43,10.046h-2.266L85.034,61.601z
				 M84.491,59.906l-1.39-4.158l-1.406,4.158H84.491z"/>
			<path fill="#D15F50" d="M96.489,57.699h5.028c0.005,0.191,0.006,0.359,0.006,0.502c0,0.788-0.117,1.488-0.352,2.093
				c-0.235,0.607-0.607,1.165-1.112,1.675c-1.025,1.039-2.259,1.561-3.702,1.561c-0.73,0-1.425-0.138-2.082-0.417
				c-0.658-0.277-1.23-0.671-1.715-1.181c-0.913-0.962-1.369-2.164-1.369-3.605c0-1.496,0.499-2.749,1.495-3.759
				c0.967-0.976,2.181-1.464,3.65-1.464c1.031,0,1.984,0.277,2.862,0.832c0.451,0.285,0.856,0.65,1.215,1.097l-1.561,1.221
				c-0.271-0.328-0.525-0.573-0.765-0.736c-0.502-0.34-1.067-0.507-1.701-0.507c-0.525,0-1.005,0.116-1.441,0.349
				c-0.436,0.235-0.798,0.566-1.082,0.997c-0.386,0.599-0.581,1.258-0.581,1.978c0,1.039,0.363,1.884,1.09,2.531
				c0.594,0.529,1.284,0.795,2.069,0.795c0.426,0,0.838-0.09,1.241-0.269c0.399-0.179,0.732-0.426,0.997-0.74
				c0.264-0.308,0.468-0.73,0.61-1.264h-2.796v-1.689C96.492,57.699,96.489,57.699,96.489,57.699z"/>
			<path fill="#D15F50" d="M109.144,54.977v8.359h-2.061v-8.359h-2.391v-1.686h6.844v1.686H109.144z"/>
			<path fill="#D15F50" d="M45.821,76.396c0.514,0.112,0.909,0.293,1.184,0.537c0.486,0.436,0.728,1.039,0.728,1.81
				c0,0.471-0.094,0.899-0.277,1.289c-0.183,0.386-0.439,0.688-0.771,0.904c-0.308,0.205-0.643,0.336-1.007,0.396
				c-0.371,0.06-0.785,0.088-1.237,0.088H40.74V71.374h3.245c1.192,0,2.043,0.194,2.554,0.581c0.647,0.488,0.972,1.197,0.972,2.127
				c0,0.688-0.214,1.256-0.639,1.709C46.633,76.042,46.282,76.242,45.821,76.396z M42.803,72.945v2.694h0.824
				c0.647,0,1.11-0.116,1.39-0.352c0.28-0.237,0.42-0.571,0.42-1.008c0-0.254-0.055-0.485-0.166-0.688
				c-0.111-0.205-0.259-0.352-0.444-0.445c-0.275-0.132-0.71-0.198-1.304-0.198C43.524,72.945,42.803,72.945,42.803,72.945z
				 M42.803,77.175v2.731h1.007c0.457,0,0.787-0.032,0.994-0.098c0.563-0.185,0.845-0.6,0.845-1.241c0-0.547-0.191-0.93-0.574-1.156
				c-0.269-0.157-0.73-0.235-1.382-0.235C43.693,77.175,42.803,77.175,42.803,77.175z"/>
			<path fill="#D15F50" d="M54.442,77.428v3.993h-2.059V71.375h3.091c1.364,0,2.36,0.308,2.988,0.92
				c0.57,0.557,0.853,1.301,0.853,2.238c0,0.959-0.304,1.718-0.913,2.281c-0.371,0.349-0.862,0.6-1.47,0.751l2.767,3.855h-2.503
				L54.442,77.428z M54.442,76.218h0.942c0.534,0,0.959-0.109,1.273-0.336c0.378-0.28,0.568-0.691,0.568-1.239
				c0-0.459-0.138-0.83-0.412-1.108c-0.291-0.302-0.71-0.449-1.258-0.449h-1.112v3.133C54.443,76.218,54.442,76.218,54.442,76.218z"
				/>
			<path fill="#D15F50" d="M65.383,80.29l-1.075,1.038l-0.507-0.554l1.059-1.022c-0.368-0.478-0.632-0.907-0.793-1.298
				c-0.246-0.591-0.368-1.247-0.368-1.964c0-1.694,0.581-3.045,1.744-4.054c0.968-0.836,2.103-1.25,3.409-1.25
				c0.79,0,1.561,0.172,2.312,0.522c0.422,0.194,0.819,0.465,1.192,0.808l1.09-1.059l0.507,0.574l-1.052,1.022
				c0.397,0.56,0.673,1.052,0.825,1.473c0.231,0.607,0.346,1.233,0.346,1.869c0,1.052-0.288,2.014-0.861,2.885
				c-0.525,0.808-1.227,1.418-2.106,1.826c-0.716,0.336-1.493,0.505-2.331,0.505C67.489,81.613,66.358,81.173,65.383,80.29z
				 M70.88,73.885c-0.589-0.531-1.244-0.795-1.966-0.795c-0.972,0-1.767,0.377-2.384,1.134c-0.492,0.597-0.737,1.326-0.737,2.183
				c0,0.761,0.182,1.407,0.545,1.945L70.88,73.885z M66.826,78.942c0.584,0.508,1.248,0.768,1.993,0.768
				c0.883,0,1.643-0.323,2.275-0.973c0.587-0.603,0.883-1.385,0.883-2.347c0-0.71-0.194-1.355-0.581-1.926L66.826,78.942z"/>
			<path fill="#D15F50" d="M78.692,81.421V71.375h2.849c1.133,0,2.041,0.172,2.722,0.514c0.843,0.425,1.484,1.065,1.919,1.929
				c0.368,0.719,0.551,1.54,0.551,2.457c0,1.16-0.272,2.175-0.816,3.048c-0.868,1.398-2.289,2.096-4.261,2.096
				C81.658,81.421,78.692,81.421,78.692,81.421z M80.752,73.048v6.669h0.397c0.747,0,1.329-0.1,1.752-0.302
				c0.584-0.277,1.033-0.713,1.347-1.316c0.265-0.511,0.397-1.094,0.397-1.744c0-0.522-0.087-1.005-0.26-1.451
				c-0.174-0.445-0.417-0.811-0.724-1.097c-0.55-0.505-1.266-0.758-2.149-0.758H80.752z"/>
		</g>
	</g>
</g>
</svg>
