<?xml version="1.0" encoding="utf-8"?>
<!-- Generator: Adobe Illustrator 25.2.1, SVG Export Plug-In . SVG Version: 6.00 Build 0)  -->
<svg version="1.1" id="_x36_83d3690-e1ab-45db-97b8-9484a1649262"
	 xmlns="http://www.w3.org/2000/svg" xmlns:xlink="http://www.w3.org/1999/xlink" x="0px" y="0px" width="839.2px"
	 height="727.08px" viewBox="0 0 839.2 727.08" style="enable-background:new 0 0 839.2 727.08;" xml:space="preserve">
<g style="opacity:0.5;">
	<rect x="124.18" y="129.51" style="fill:#47E6B1;" width="3.33" height="18.87"/>
	<rect x="116.41" y="137.28" style="fill:#47E6B1;" width="18.87" height="3.33"/>
</g>
<g style="opacity:0.5;">
	<rect x="242.55" y="540.19" style="fill:#47E6B1;" width="3.33" height="18.87"/>
	<rect x="234.77" y="547.96" style="fill:#47E6B1;" width="18.87" height="3.33"/>
</g>
<g style="opacity:0.5;">
	<rect x="76.86" y="321" style="fill:#47E6B1;" width="3.33" height="18.87"/>
	<rect x="69.09" y="328.77" style="fill:#47E6B1;" width="18.87" height="3.33"/>
</g>
<g style="opacity:0.5;">
	<rect x="659.86" style="fill:#47E6B1;" width="3.33" height="18.87"/>
	<rect x="652.09" y="7.77" style="fill:#47E6B1;" width="18.87" height="3.33"/>
</g>
<g style="opacity:0.5;">
	<rect x="97.97" y="46.93" style="fill:#47E6B1;" width="3.33" height="18.87"/>
	<rect x="90.19" y="54.7" style="fill:#47E6B1;" width="18.87" height="3.33"/>
</g>
<path style="opacity:0.5;fill:#4D8AF0;enable-background:new    ;" d="M165.1,472.85c-1.898-0.829-2.875-2.949-2.27-4.93
	c0.047-0.146,0.077-0.297,0.09-0.45l0,0c0.162-1.093-0.593-2.11-1.685-2.271c-0.784-0.116-1.562,0.241-1.985,0.911l0,0
	c-0.092,0.124-0.169,0.258-0.23,0.4c-0.829,1.898-2.949,2.875-4.93,2.27c-0.146-0.047-0.297-0.077-0.45-0.09l0,0
	c-1.093-0.162-2.11,0.593-2.271,1.686c-0.116,0.784,0.241,1.562,0.911,1.984l0,0c0.124,0.092,0.258,0.169,0.4,0.23
	c1.898,0.829,2.875,2.949,2.27,4.93c-0.047,0.146-0.077,0.297-0.09,0.45l0,0c-0.162,1.093,0.593,2.11,1.685,2.271
	c0.784,0.116,1.562-0.241,1.985-0.911l0,0c0.092-0.124,0.169-0.258,0.23-0.4c0.829-1.898,2.949-2.875,4.93-2.27
	c0.146,0.047,0.297,0.077,0.45,0.09l0,0c1.093,0.162,2.11-0.593,2.271-1.686c0.116-0.784-0.241-1.562-0.911-1.984l0,0
	C165.376,472.988,165.242,472.911,165.1,472.85z"/>
<path style="opacity:0.5;fill:#4D8AF0;enable-background:new    ;" d="M148.6,652.2c-1.898-0.829-2.875-2.949-2.27-4.93
	c0.047-0.146,0.077-0.297,0.09-0.45l0,0c0.162-1.093-0.593-2.11-1.685-2.271c-0.784-0.116-1.562,0.241-1.985,0.911l0,0
	c-0.092,0.124-0.169,0.258-0.23,0.4c-0.825,1.898-2.939,2.877-4.92,2.28c-0.146-0.047-0.297-0.077-0.45-0.09l0,0
	c-1.093-0.162-2.11,0.593-2.271,1.686c-0.116,0.784,0.241,1.562,0.911,1.984l0,0c0.124,0.092,0.258,0.169,0.4,0.23
	c1.898,0.829,2.875,2.949,2.27,4.93c-0.047,0.146-0.077,0.297-0.09,0.45l0,0c-0.162,1.093,0.593,2.11,1.685,2.271
	c0.784,0.116,1.562-0.241,1.985-0.911l0,0c0.092-0.124,0.169-0.258,0.23-0.4c0.829-1.898,2.949-2.875,4.93-2.27
	c0.146,0.047,0.297,0.077,0.45,0.09l0,0c1.093,0.162,2.11-0.593,2.271-1.686c0.116-0.784-0.241-1.562-0.911-1.984l0,0
	C148.883,652.344,148.746,652.263,148.6,652.2z"/>
<path style="opacity:0.5;fill:#4D8AF0;enable-background:new    ;" d="M755.6,255.2c-1.898-0.829-2.875-2.949-2.27-4.93
	c0.047-0.146,0.077-0.297,0.09-0.45l0,0c0.162-1.093-0.593-2.11-1.686-2.271c-0.784-0.116-1.562,0.241-1.984,0.911l0,0
	c-0.092,0.124-0.169,0.258-0.23,0.4c-0.825,1.898-2.939,2.877-4.92,2.28c-0.146-0.047-0.297-0.077-0.45-0.09l0,0
	c-1.093-0.162-2.11,0.593-2.271,1.685c-0.116,0.784,0.241,1.562,0.911,1.985l0,0c0.124,0.092,0.258,0.169,0.4,0.23
	c1.898,0.829,2.875,2.949,2.27,4.93c-0.047,0.146-0.077,0.297-0.09,0.45l0,0c-0.162,1.093,0.593,2.11,1.686,2.271
	c0.784,0.116,1.562-0.241,1.984-0.911l0,0c0.092-0.124,0.169-0.258,0.23-0.4c0.829-1.898,2.949-2.875,4.93-2.27
	c0.146,0.047,0.297,0.077,0.45,0.09l0,0c1.093,0.162,2.11-0.593,2.271-1.685c0.116-0.784-0.241-1.562-0.911-1.985l0,0
	C755.883,255.344,755.746,255.263,755.6,255.2z"/>
<path style="opacity:0.5;fill:#4D8AF0;enable-background:new    ;" d="M728.13,444.54c-1.898-0.829-2.875-2.949-2.27-4.93
	c0.047-0.146,0.077-0.297,0.09-0.45l0,0c0.162-1.093-0.593-2.11-1.686-2.271c-0.784-0.116-1.562,0.241-1.984,0.911l0,0
	c-0.092,0.124-0.169,0.258-0.23,0.4c-0.829,1.898-2.949,2.875-4.93,2.27c-0.146-0.047-0.297-0.077-0.45-0.09l0,0
	c-1.093-0.162-2.109,0.593-2.271,1.686c-0.116,0.784,0.241,1.562,0.911,1.984l0,0c0.124,0.092,0.258,0.169,0.4,0.23
	c1.899,0.829,2.875,2.949,2.27,4.93c-0.047,0.146-0.077,0.297-0.09,0.45l0,0c-0.162,1.093,0.593,2.11,1.686,2.271
	c0.784,0.116,1.562-0.241,1.984-0.911l0,0c0.092-0.124,0.169-0.258,0.23-0.4c0.829-1.898,2.949-2.875,4.93-2.27
	c0.146,0.047,0.297,0.077,0.45,0.09l0,0c1.093,0.162,2.11-0.593,2.271-1.686c0.116-0.784-0.241-1.562-0.911-1.984l0,0
	C728.406,444.678,728.272,444.601,728.13,444.54z"/>
<path style="opacity:0.5;fill:#4D8AF0;enable-background:new    ;" d="M748.6,67.21c-1.898-0.829-2.875-2.949-2.27-4.93
	c0.047-0.146,0.077-0.297,0.09-0.45l0,0c0.162-1.093-0.593-2.11-1.686-2.271c-0.784-0.116-1.562,0.241-1.984,0.911l0,0
	c-0.092,0.124-0.169,0.258-0.23,0.4c-0.829,1.898-2.949,2.875-4.93,2.27c-0.146-0.047-0.297-0.077-0.45-0.09l0,0
	c-1.093-0.162-2.109,0.593-2.271,1.686c-0.116,0.784,0.241,1.562,0.911,1.984l0,0c0.124,0.092,0.258,0.169,0.4,0.23
	c1.899,0.829,2.875,2.949,2.27,4.93c-0.047,0.146-0.077,0.297-0.09,0.45l0,0c-0.162,1.093,0.593,2.11,1.685,2.271
	c0.784,0.116,1.562-0.241,1.984-0.911l0,0c0.092-0.124,0.169-0.258,0.23-0.4c0.829-1.898,2.949-2.875,4.93-2.27
	c0.146,0.047,0.297,0.077,0.45,0.09l0,0c1.093,0.162,2.11-0.593,2.271-1.686c0.116-0.784-0.241-1.562-0.911-1.984l0,0
	C748.876,67.348,748.742,67.271,748.6,67.21z"/>
<path style="opacity:0.5;fill:#4D8AF0;enable-background:new    ;" d="M812.82,559.26c-1.898-0.829-2.875-2.949-2.27-4.93
	c0.047-0.146,0.077-0.297,0.09-0.45l0,0c0.162-1.093-0.593-2.11-1.686-2.271c-0.784-0.116-1.562,0.241-1.984,0.911l0,0
	c-0.092,0.124-0.169,0.258-0.23,0.4c-0.829,1.898-2.949,2.875-4.93,2.27c-0.146-0.047-0.297-0.077-0.45-0.09l0,0
	c-1.093-0.162-2.109,0.593-2.271,1.686c-0.116,0.784,0.241,1.562,0.911,1.984l0,0c0.124,0.092,0.258,0.169,0.4,0.23
	c1.899,0.829,2.875,2.949,2.27,4.93c-0.047,0.146-0.077,0.297-0.09,0.45l0,0c-0.162,1.093,0.593,2.11,1.686,2.271
	c0.784,0.116,1.562-0.241,1.984-0.911l0,0c0.092-0.124,0.169-0.258,0.23-0.4c0.829-1.898,2.949-2.875,4.93-2.27
	c0.146,0.047,0.297,0.077,0.45,0.09l0,0c1.093,0.162,2.11-0.593,2.271-1.686c0.116-0.784-0.241-1.562-0.911-1.984l0,0
	C813.096,559.398,812.962,559.321,812.82,559.26z"/>
<circle style="opacity:0.5;fill:#F55F44;enable-background:new    ;" cx="6.66" cy="257.78" r="6.66"/>
<circle style="opacity:0.5;fill:#F55F44;enable-background:new    ;" cx="749.83" cy="146.09" r="6.66"/>
<circle style="opacity:0.5;fill:#F55F44;enable-background:new    ;" cx="446.92" cy="395.96" r="7.5"/>
<circle style="opacity:0.5;fill:#F55F44;enable-background:new    ;" cx="446.92" cy="395.96" r="7.5"/>
<circle style="opacity:0.5;fill:#F55F44;enable-background:new    ;" cx="832.55" cy="346.34" r="6.66"/>
<circle style="opacity:0.5;fill:#47E6B1;enable-background:new    ;" cx="294.17" cy="47.27" r="7.5"/>
<circle style="opacity:0.5;fill:#F55F44;enable-background:new    ;" cx="721.49" cy="621.41" r="6.66"/>
<linearGradient id="SVGID_1_" gradientUnits="userSpaceOnUse" x1="484.8852" y1="151.7292" x2="600.8148" y2="151.7292" gradientTransform="matrix(1 0 0 -1 -180.4 643.54)">
	<stop  offset="0" style="stop-color:#808080;stop-opacity:0.25"/>
	<stop  offset="0.54" style="stop-color:#808080;stop-opacity:0.12"/>
	<stop  offset="1" style="stop-color:#808080;stop-opacity:0.1"/>
</linearGradient>
<path style="fill:none;stroke:url(#SVGID_1_);stroke-width:2;stroke-miterlimit:10;" d="M306.7,381.54
	c-3.94,12.79,2,27.91,13.53,34.64c4.84,2.82,10.41,4.24,15.1,7.3c10.19,6.64,14.21,19.35,17.52,31.05
	c3.8,13.45,7.61,27.67,4.13,41.2c-2.22,8.63-7.27,16.26-10.14,24.7c-2.4,7.069-3.236,14.576-2.45,22c0.42,3.94,1.4,8,4.1,10.94
	c3.9,4.2,10.18,4.83,15.82,5.84c24.188,4.574,44.715,20.468,55.2,42.74"/>
<path style="fill:none;stroke:#535461;stroke-width:2;stroke-miterlimit:10;" d="M307.91,381.54c-3.94,12.79,2,27.91,13.53,34.64
	c4.84,2.82,10.41,4.24,15.1,7.3c10.19,6.64,14.21,19.35,17.52,31.05c3.8,13.45,7.61,27.67,4.13,41.2
	c-2.22,8.63-7.27,16.26-10.14,24.7c-2.4,7.069-3.236,14.576-2.45,22c0.42,3.94,1.4,8,4.1,10.94c3.9,4.2,10.18,4.83,15.82,5.84
	c24.188,4.574,44.715,20.468,55.2,42.74"/>
<linearGradient id="SVGID_2_" gradientUnits="userSpaceOnUse" x1="615.7535" y1="199.2821" x2="651.4984" y2="199.2821" gradientTransform="matrix(1 0 0 -1 -180.4 643.54)">
	<stop  offset="0" style="stop-color:#808080;stop-opacity:0.25"/>
	<stop  offset="0.54" style="stop-color:#808080;stop-opacity:0.12"/>
	<stop  offset="1" style="stop-color:#808080;stop-opacity:0.1"/>
</linearGradient>
<path style="fill:none;stroke:url(#SVGID_2_);stroke-width:2;stroke-miterlimit:10;" d="M457.05,285.94
	c-9.72,13.55-19.81,28.12-20.64,44.78c-1.27,25.59,19.2,46.52,28.34,70.46c8.004,21.308,6.99,44.956-2.81,65.5
	c-4.46,9.22-10.82,18.38-10,28.59c0.47,6.23,3.59,11.9,6.1,17.63c12.495,29.126,10.351,62.464-5.77,89.75"/>
<path style="fill:none;stroke:#535461;stroke-width:2;stroke-miterlimit:10;" d="M458.25,285.94c-9.71,13.6-19.8,28.13-20.65,44.78
	c-1.27,25.59,19.2,46.52,28.34,70.46c8.004,21.308,6.99,44.956-2.81,65.5c-4.46,9.22-10.82,18.38-10,28.59
	c0.47,6.23,3.59,11.9,6.1,17.63c12.495,29.126,10.351,62.464-5.77,89.75"/>
<linearGradient id="SVGID_3_" gradientUnits="userSpaceOnUse" x1="745.48" y1="134.4305" x2="780.02" y2="134.4305" gradientTransform="matrix(1 0 0 -1 -180.4 643.54)">
	<stop  offset="0" style="stop-color:#808080;stop-opacity:0.25"/>
	<stop  offset="0.54" style="stop-color:#808080;stop-opacity:0.12"/>
	<stop  offset="1" style="stop-color:#808080;stop-opacity:0.1"/>
</linearGradient>
<path style="fill:none;stroke:url(#SVGID_3_);stroke-width:2;stroke-miterlimit:10;" d="M593.43,407.82l4.7,38.31
	c0.62,5.09,1.15,10.64-1.58,15c-2.59,4.11-7.45,6.07-11.23,9.11c-12.41,10-11.28,29.11-7,44.45c4.28,15.34,10.44,31.82,4.49,46.58
	c-2.46,6.09-6.8,11.22-10,16.94c-5.49,9.775-7.665,21.065-6.2,32.18"/>
<path style="fill:none;stroke:#535461;stroke-width:2;stroke-miterlimit:10;" d="M594.6,407.82l4.7,38.31
	c0.62,5.09,1.15,10.64-1.58,15c-2.59,4.11-7.45,6.07-11.23,9.11c-12.41,10-11.28,29.11-7,44.45c4.28,15.34,10.44,31.82,4.49,46.58
	c-2.46,6.09-6.8,11.22-10,16.94c-5.49,9.775-7.665,21.065-6.2,32.18"/>
<g style="opacity:0.7;">
	
		<linearGradient id="SVGID_4_" gradientUnits="userSpaceOnUse" x1="634.3051" y1="220.15" x2="634.3051" y2="634.1429" gradientTransform="matrix(1 0 0 -1 -180.4 643.54)">
		<stop  offset="0" style="stop-color:#808080;stop-opacity:0.25"/>
		<stop  offset="0.54" style="stop-color:#808080;stop-opacity:0.12"/>
		<stop  offset="1" style="stop-color:#808080;stop-opacity:0.1"/>
	</linearGradient>
	<path style="fill:url(#SVGID_4_);" d="M715.3,250.36c-0.028-62.74-50.912-113.577-113.651-113.549
		c-11.902,0.005-23.729,1.881-35.049,5.559c0.938-6.381,1.423-12.82,1.45-19.27C568.146,60.399,517.394,9.493,454.693,9.397
		C395.017,9.306,345.458,55.431,341.27,114.96c-59.659-19.418-123.764,13.203-143.182,72.862
		c-3.693,11.347-5.576,23.205-5.578,35.138c0,57,42,138,96.65,152.35l8.51,4.86L293.05,396h27.36l-5.94-15.85l8.47-4.84
		c42.26-11.09,76.91-62,90.48-110.83c7.429,4.945,15.608,8.659,24.22,11l8.51,4.86l-4.55,15.79h27.36l-5.94-15.85l8.47-4.84
		c6.277-1.689,12.323-4.144,18-7.31c7.31,54.78,46.2,121.66,95.41,134.57l8.51,4.86l-4.62,15.83h27.36l-5.96-15.85l8.47-4.84
		C673.35,388.35,715.3,307.32,715.3,250.36z"/>
</g>
<polygon style="fill:#F55F44;" points="324.76,390.14 298.28,390.14 302.92,374.26 318.8,374.26 "/>
<path style="fill:#F55F44;" d="M420.72,222.7c0,60.68-49.19,149.57-109.86,149.57S201,283.37,201,222.7
	c0-60.677,49.188-109.865,109.865-109.865S420.73,162.023,420.73,222.7H420.72z"/>
<polygon style="fill:#535461;" points="318.8,374.92 302.92,374.92 293.65,369.63 328.07,369.63 "/>
<path style="opacity:0.1;fill:#FFFFFF;enable-background:new    ;" d="M271.15,137.32c0,0-46.33,25.15-52.95,75.45"/>
<polygon style="fill:#4D8AF0;" points="468.43,293.56 441.95,293.56 446.59,277.68 462.47,277.68 "/>
<path style="fill:#6C63FF;" d="M564.39,126.12c0,60.68-49.19,149.57-109.86,149.57s-109.86-88.9-109.86-149.57
	c0-60.677,49.188-109.865,109.865-109.865S564.4,65.443,564.4,126.12L564.39,126.12z"/>
<polygon style="fill:#535461;" points="462.47,278.34 446.59,278.34 437.32,273.04 471.74,273.04 "/>
<path style="opacity:0.1;fill:#FFFFFF;enable-background:new    ;" d="M414.82,40.74c0,0-46.33,25.15-52.95,75.45"/>
<polygon style="fill:#3AD29F;" points="610.89,416.71 584.41,416.71 589.05,400.82 604.93,400.82 "/>
<path style="fill:#3AD29F;" d="M706.85,249.26c0,60.68-49.19,149.57-109.86,149.57c-60.67,0-109.87-88.89-109.87-149.57
	c0-60.677,49.188-109.865,109.865-109.865S706.85,188.583,706.85,249.26z"/>
<polygon style="fill:#535461;" points="604.93,401.48 589.05,401.48 579.78,396.19 614.2,396.19 "/>
<path style="opacity:0.1;fill:#FFFFFF;enable-background:new    ;" d="M557.28,163.88c0,0-46.33,25.15-52.95,75.45"/>
<g style="opacity:0.5;">
	
		<linearGradient id="SVGID_5_" gradientUnits="userSpaceOnUse" x1="637.0803" y1="143.2048" x2="637.0803" y2="216.684" gradientTransform="matrix(1 0 0 -1 -180.4 643.54)">
		<stop  offset="0" style="stop-color:#808080;stop-opacity:0.25"/>
		<stop  offset="0.54" style="stop-color:#808080;stop-opacity:0.12"/>
		<stop  offset="1" style="stop-color:#808080;stop-opacity:0.1"/>
	</linearGradient>
	<path style="fill:url(#SVGID_5_);" d="M516.41,435.43c-6.37-6.39-15.66-8.93-26.16-7.16c-9.82,1.66-19.65,7-27.67,15
		c-2.323,2.336-4.276,5.014-5.79,7.94c-1.474-3.025-3.411-5.801-5.74-8.23l0,0c-7.88-8.15-17.62-13.64-27.45-15.44
		c-10.46-2-19.79,0.43-26.28,6.71s-9.15,15.53-7.53,26.05c1.52,9.84,6.7,19.75,14.59,27.88c16.58,17.11,49.67,10.43,51.07,10.13
		l0.41-0.09l1.27,0.29c1.4,0.32,34.37,7.57,51.24-9.25c8-8,13.37-17.81,15.07-27.63C525.29,451.12,522.78,441.83,516.41,435.43z
		 M449.89,488.43c-8,1.08-27.93,2.54-37.82-7.67c-6.36-6.57-10.52-14.41-11.71-22.1c-1.08-7,0.48-13,4.42-16.78
		c1.538-1.476,3.376-2.602,5.39-3.3c3.722-1.203,7.696-1.403,11.52-0.58c7.64,1.43,15.36,5.83,21.72,12.4
		c9.89,10.14,7.81,30.06,6.48,38.02V488.43z M513,459.82c-1.32,7.66-5.61,15.44-12.09,21.89c-10.07,10-30,8.23-37.95,7
		c-1.19-8-2.93-27.89,7.14-37.93c6.48-6.45,14.27-10.72,21.93-12c3.839-0.757,7.809-0.488,11.51,0.78
		c2.005,0.734,3.826,1.894,5.34,3.4c3.86,3.87,5.32,9.85,4.12,16.85V459.82z"/>
</g>
<path style="fill:#6C63FF;" d="M458.7,496.13l-3.15,0.66c-1.34,0.28-33,6.67-48.87-9.7c-7.54-7.78-12.5-17.26-14-26.68
	c-1.56-10.07,1-18.92,7.2-24.93s15.13-8.29,25.14-6.42c9.37,1.75,18.69,7,26.23,14.79l0,0c15.86,16.37,8.48,47.82,8.16,49.15
	L458.7,496.13z M412.17,439.64c-1.928,0.669-3.688,1.747-5.16,3.16c-3.76,3.65-5.26,9.35-4.23,16.06
	c1.14,7.35,5.12,14.86,11.21,21.15c9.47,9.77,28.54,8.37,36.19,7.34c1.27-7.61,3.27-26.63-6.2-36.4l0,0
	c-6.09-6.28-13.47-10.5-20.79-11.86C419.532,438.301,415.731,438.491,412.17,439.64z"/>
<path style="fill:#6C63FF;" d="M454.02,496.27l-0.7-3.14c-0.3-1.34-7.14-32.91,9-49l0,0c7.68-7.65,17.08-12.74,26.48-14.33
	c10-1.7,18.93,0.73,25,6.85c6.07,6.12,8.5,15,6.77,25c-1.62,9.39-6.74,18.78-14.42,26.43c-16.14,16.09-47.69,9.15-49,8.85
	L454.02,496.27z M501.52,440.54c-3.537-1.212-7.331-1.471-11-0.75c-7.34,1.24-14.79,5.33-21,11.5l0,0c-9.64,9.61-8,28.65-6.83,36.29
	c7.63,1.16,26.68,2.89,36.31-6.71c6.2-6.18,10.3-13.62,11.57-21c1.15-6.69-0.25-12.42-3.95-16.13
	C505.169,442.32,503.43,441.228,501.52,440.54z"/>
<g style="opacity:0.5;">
	
		<linearGradient id="SVGID_6_" gradientUnits="userSpaceOnUse" x1="454.925" y1="2.92" x2="454.925" y2="242.14" gradientTransform="matrix(1 0 0 -1 0 730)">
		<stop  offset="0" style="stop-color:#808080;stop-opacity:0.25"/>
		<stop  offset="0.54" style="stop-color:#808080;stop-opacity:0.12"/>
		<stop  offset="1" style="stop-color:#808080;stop-opacity:0.1"/>
	</linearGradient>
	<polygon style="fill:url(#SVGID_6_);" points="608.43,487.86 301.42,487.86 301.42,549.29 317.37,549.29 317.37,727.08 
		592.48,727.08 592.48,549.29 608.43,549.29 	"/>
</g>
<rect x="320.85" y="506.43" style="fill:#535461;" width="268.15" height="217.63"/>
<rect x="429.66" y="545.29" style="fill:#6C63FF;" width="50.52" height="178.76"/>
<rect x="320.85" y="494.77" style="opacity:0.1;enable-background:new    ;" width="268.15" height="54.41"/>
<rect x="305.31" y="490.88" style="fill:#535461;" width="299.24" height="54.41"/>
<rect x="429.66" y="490.88" style="fill:#6C63FF;" width="50.52" height="54.41"/>
</svg>
