<?xml version="1.0" encoding="utf-8"?>
<!-- Generator: Adobe Illustrator 22.0.1, SVG Export Plug-In . SVG Version: 6.00 Build 0)  -->
<svg version="1.1" id="logo" xmlns="http://www.w3.org/2000/svg" xmlns:xlink="http://www.w3.org/1999/xlink" x="0px" y="0px"
	 width="224.39px" height="70px" viewBox="0 0 224.39 70" enable-background="new 0 0 224.39 70" xml:space="preserve">
<g>
	<path fill="#4C4C4E" d="M0,16.746C0,7.653,6.618,0.451,17.016,0.451s17.016,7.202,17.016,16.295
		c0,9.229-6.618,16.385-17.016,16.385S0,25.974,0,16.746z M9.364,16.746c0,4.726,3.061,8.193,7.652,8.193s7.653-3.467,7.653-8.193
		c0-4.591-3.062-8.103-7.653-8.103S9.364,12.154,9.364,16.746z"/>
	<path fill="#4C4C4E" d="M51.722,16.701c-0.315-0.09-0.81-0.181-1.396-0.181c-2.926,0-4.546,1.846-4.546,4.952v11.074h-8.733V8.778
		h8.508v3.016c1.17-2.251,3.601-3.601,6.167-3.601V16.701z"/>
	<path fill="#4C4C4E" d="M79.452,32.546h-8.103v-1.531c-0.9,0.9-2.97,2.116-6.077,2.116c-6.932,0-11.794-5.176-11.794-12.469
		c0-7.337,4.321-12.469,11.208-12.469c3.062,0,5.177,1.35,6.032,2.071V0h8.733V32.546z M66.622,15.666
		c-2.791,0-4.412,2.071-4.412,4.996c0,3.016,1.666,4.952,4.412,4.952c2.881,0,4.366-2.251,4.366-4.952
		C70.988,17.511,69.233,15.666,66.622,15.666z"/>
	<path fill="#4C4C4E" d="M94.171,8.193c7.833,0,11.975,4.861,11.975,13.19c0,0.494-0.046,1.125-0.09,1.575H91.201
		c0.45,1.846,1.981,2.881,4.141,2.881c2.206,0,3.827-1.44,4.277-2.117l5.942,4.142c-0.54,1.17-3.871,5.266-10.353,5.266
		c-8.147,0-12.964-5.851-12.964-12.784C82.242,13.595,86.88,8.193,94.171,8.193z M97.278,17.646c-0.09-1.08-0.99-2.566-2.926-2.566
		c-2.071,0-2.836,1.666-2.927,2.566H97.278z"/>
	<path fill="#4C4C4E" d="M123.521,16.701c-0.315-0.09-0.81-0.181-1.395-0.181c-2.927,0-4.547,1.846-4.547,4.952v11.074h-8.733V8.778
		h8.508v3.016c1.17-2.251,3.602-3.601,6.167-3.601V16.701z"/>
	<path fill="#4C4C4E" d="M130.769,40.603l3.196-8.958l-8.822-22.868h9.363l3.421,12.289l3.646-12.289h9.094l-11.705,31.826H130.769z
		"/>
	<path fill="#4C4C4E" d="M162.424,5.379h1.215l-13.73,38.623h-1.215L162.424,5.379z"/>
	<g>
		<path fill="#97846E" d="M82.708,44.806h1.563v3.375h3.813v1.408H84.27v9.127c0,3.533,0.812,4.439,3.251,4.439
			c0.344,0,0.72-0.032,0.72-0.032v1.406c0,0-0.75,0.063-1.344,0.063c-2.564,0-4.189-1.594-4.189-4.877V49.589h-2v-1.408h2V44.806z"
			/>
		<path fill="#97846E" d="M103.681,53.871v10.534h-1.564V53.996c0-2.97-1.875-4.783-4.407-4.783c-2.845,0-4.876,2.126-4.876,5.283
			v9.908h-1.563V41.806h1.563v8.94c0.812-1.626,2.781-2.97,5.063-2.97C101.243,47.775,103.681,50.089,103.681,53.871z"/>
		<path fill="#97846E" d="M114.87,47.775c4.657,0,7.626,3.47,7.626,8.127v0.656h-13.815c0,4.313,2.751,6.814,6.626,6.814
			c3.001,0,4.658-1.469,5.595-2.781l1.032,0.718c-1.062,1.719-3.126,3.501-6.627,3.501c-4.782,0-8.252-3.407-8.252-8.47
			C107.055,51.026,110.744,47.775,114.87,47.775z M120.872,55.183c-0.188-4.063-2.97-5.97-6.033-5.97c-2.938,0-5.751,2-6.064,5.97
			H120.872z"/>
		<path fill="#97846E" d="M134.186,41.806h1.563v9.471c0.531-1,2.501-3.501,6.189-3.501c4.563,0,7.752,3.564,7.752,8.565
			c0,4.938-3.282,8.47-7.909,8.47c-3.907,0-5.657-2.782-6.032-3.407v3.001h-1.563V41.806z M141.844,63.342
			c3.469,0,6.22-2.751,6.22-7.002c0-4.158-2.625-7.096-6.158-7.096c-3.376,0-6.22,2.595-6.22,7.096
			C135.686,60.154,138.061,63.342,141.844,63.342z"/>
		<path fill="#97846E" d="M158.283,54.121c2.22,0,3.939,0.938,4.658,1.75v-2.469c0-2.72-1.782-4.189-4.439-4.189
			c-2.157,0-3.876,0.812-5.001,1.5l-0.656-1.219c0.875-0.564,3.001-1.72,5.751-1.72c4.031,0,5.908,2.344,5.908,5.721v10.909h-1.282
			l-0.281-1.532c-0.876,1-2.314,1.938-4.658,1.938c-3.687,0-6.22-2.376-6.22-5.377C152.063,56.371,154.689,54.121,158.283,54.121z
			 M158.377,63.373c2.751,0,4.657-1.688,4.657-3.939c0-2.313-1.843-3.875-4.688-3.875c-2.876,0-4.689,1.688-4.689,3.875
			C153.658,61.592,155.47,63.373,158.377,63.373z"/>
		<path fill="#97846E" d="M168.879,41.806h1.563v13.409l7.47-7.033h2.094l-7.846,7.283l8.252,8.94h-2.094l-7.876-8.722v8.722h-1.563
			V41.806z"/>
		<path fill="#97846E" d="M189.633,47.775c4.657,0,7.627,3.47,7.627,8.127v0.656h-13.817c0,4.313,2.751,6.814,6.627,6.814
			c3.001,0,4.657-1.469,5.595-2.781l1.031,0.718c-1.062,1.719-3.125,3.501-6.626,3.501c-4.783,0-8.252-3.407-8.252-8.47
			C181.819,51.026,185.508,47.775,189.633,47.775z M195.635,55.183c-0.188-4.063-2.969-5.97-6.032-5.97c-2.938,0-5.751,2-6.065,5.97
			H195.635z"/>
		<path fill="#97846E" d="M207.292,49.307c-3.845,0-5.001,3.157-5.001,6.533v8.564h-1.563V48.181h1.563v2.908
			c0.5-1.626,2.376-3.314,5.001-3.314V49.307z"/>
		<path fill="#97846E" d="M213.825,70l2.375-5.627l-6.782-16.192h1.719l5.876,14.285l5.689-14.285h1.688L215.45,70H213.825z"/>
	</g>
</g>
</svg>
