<?xml version="1.0" encoding="utf-8"?>
<!-- Generator: Adobe Illustrator 22.0.1, SVG Export Plug-In . SVG Version: 6.00 Build 0)  -->
<svg version="1.1" id="Layer_1" xmlns="http://www.w3.org/2000/svg" xmlns:xlink="http://www.w3.org/1999/xlink" x="0px" y="0px"
	 width="80px" height="80px" viewBox="0 0 80 80" enable-background="new 0 0 80 80" xml:space="preserve">
<g>
	<g>
		<defs>
			<rect id="SVGID_1_" width="80" height="80"/>
		</defs>
		<clipPath id="SVGID_2_">
			<use xlink:href="#SVGID_1_"  overflow="visible"/>
		</clipPath>
		<path clip-path="url(#SVGID_2_)" fill="#EAEAEA" d="M80,40c0,22.092-17.909,40-40,40S0,62.091,0,40C0,17.909,17.909,0,40,0
			S80,17.909,80,40"/>
	</g>
	<g>
		<defs>
			<rect id="SVGID_3_" width="80" height="80"/>
		</defs>
		<clipPath id="SVGID_4_">
			<use xlink:href="#SVGID_3_"  overflow="visible"/>
		</clipPath>
		<path clip-path="url(#SVGID_4_)" fill="#4D4D4E" d="M20.672,12.408l0.835-0.543c0.703-0.458,1.504-0.292,1.914,0.339l0.004,0.006
			c0.41,0.63,0.243,1.436-0.461,1.894l-0.835,0.544L20.672,12.408z M22.73,13.745c0.47-0.306,0.571-0.823,0.286-1.261l-0.004-0.006
			c-0.285-0.438-0.802-0.561-1.273-0.256l-0.441,0.287l0.991,1.522L22.73,13.745z"/>
	</g>
	<g>
		<defs>
			<rect id="SVGID_5_" width="80" height="80"/>
		</defs>
		<clipPath id="SVGID_6_">
			<use xlink:href="#SVGID_5_"  overflow="visible"/>
		</clipPath>
		<path clip-path="url(#SVGID_6_)" fill="#4D4D4E" d="M23.533,10.522l0.434-0.239l0.212,0.384l-0.434,0.239L23.533,10.522z
			 M23.91,11.168l0.405-0.223l0.973,1.764l-0.405,0.223L23.91,11.168z"/>
	</g>
	<g>
		<defs>
			<rect id="SVGID_7_" width="80" height="80"/>
		</defs>
		<clipPath id="SVGID_8_">
			<use xlink:href="#SVGID_7_"  overflow="visible"/>
		</clipPath>
		<path clip-path="url(#SVGID_8_)" fill="#4D4D4E" d="M25.953,11.735l-0.461-0.955l-0.23,0.111l-0.172-0.357l0.23-0.111l-0.24-0.499
			l0.416-0.201l0.24,0.499l0.489-0.236l0.172,0.357l-0.488,0.236l0.43,0.89c0.078,0.161,0.192,0.187,0.333,0.119
			c0.093-0.045,0.165-0.105,0.228-0.187l0.164,0.341c-0.075,0.108-0.175,0.199-0.33,0.273
			C26.427,12.163,26.146,12.133,25.953,11.735"/>
	</g>
	<g>
		<defs>
			<rect id="SVGID_9_" width="80" height="80"/>
		</defs>
		<clipPath id="SVGID_10_">
			<use xlink:href="#SVGID_9_"  overflow="visible"/>
		</clipPath>
		<path clip-path="url(#SVGID_10_)" fill="#4D4D4E" d="M29.504,10.489l0.1,0.296l-0.437,0.148l-0.891-2.637l0.437-0.148l0.354,1.047
			c0.074-0.246,0.218-0.472,0.526-0.576c0.452-0.153,1.01,0.057,1.223,0.69l0.003,0.007c0.213,0.632-0.099,1.136-0.555,1.29
			C29.95,10.712,29.697,10.62,29.504,10.489 M30.374,9.466l-0.003-0.007c-0.124-0.368-0.455-0.526-0.752-0.426
			c-0.296,0.1-0.474,0.434-0.35,0.799l0.003,0.007c0.124,0.368,0.466,0.523,0.763,0.423C30.334,10.16,30.501,9.842,30.374,9.466"/>
	</g>
	<g>
		<defs>
			<rect id="SVGID_11_" width="80" height="80"/>
		</defs>
		<clipPath id="SVGID_12_">
			<use xlink:href="#SVGID_11_"  overflow="visible"/>
		</clipPath>
		<path clip-path="url(#SVGID_12_)" fill="#4D4D4E" d="M31.391,8.119l0.448-0.113l0.111,0.44c0.049-0.323,0.224-0.58,0.572-0.652
			l0.12,0.474l-0.026,0.006c-0.392,0.099-0.602,0.423-0.471,0.941l0.188,0.744l-0.448,0.113L31.391,8.119z"/>
	</g>
	<g>
		<defs>
			<rect id="SVGID_13_" width="80" height="80"/>
		</defs>
		<clipPath id="SVGID_14_">
			<use xlink:href="#SVGID_13_"  overflow="visible"/>
		</clipPath>
		<path clip-path="url(#SVGID_14_)" fill="#4D4D4E" d="M33.987,9.46l-0.104,0.158L33.47,9.691l0.241-0.388
			c-0.186-0.153-0.317-0.37-0.361-0.621l-0.002-0.008c-0.1-0.567,0.268-1.116,0.876-1.223c0.214-0.038,0.42-0.011,0.596,0.062
			l0.106-0.166l0.413-0.073c0,0-0.154,0.248-0.244,0.395c0.189,0.149,0.32,0.366,0.366,0.625l0.001,0.007
			c0.099,0.564-0.269,1.113-0.881,1.22C34.373,9.559,34.167,9.533,33.987,9.46 M34.607,7.876c-0.096-0.041-0.204-0.057-0.32-0.037
			c-0.372,0.066-0.557,0.4-0.495,0.75l0.001,0.007c0.022,0.124,0.077,0.238,0.154,0.325L34.607,7.876z M35.022,8.387L35.021,8.38
			c-0.022-0.128-0.081-0.241-0.155-0.329l-0.663,1.05c0.096,0.041,0.206,0.052,0.319,0.032C34.898,9.068,35.083,8.733,35.022,8.387"
			/>
	</g>
	<g>
		<defs>
			<rect id="SVGID_15_" width="80" height="80"/>
		</defs>
		<clipPath id="SVGID_16_">
			<use xlink:href="#SVGID_15_"  overflow="visible"/>
		</clipPath>
		<path clip-path="url(#SVGID_16_)" fill="#4D4D4E" d="M36.194,8.205l-0.001-0.007c-0.056-0.666,0.365-1.08,0.845-1.121
			c0.331-0.028,0.554,0.122,0.714,0.296l-0.091-1.08l0.46-0.039l0.233,2.777l-0.46,0.039l-0.028-0.334
			c-0.131,0.222-0.326,0.407-0.653,0.434C36.742,9.209,36.25,8.871,36.194,8.205 M37.819,8.069l-0.001-0.008
			c-0.032-0.388-0.328-0.62-0.636-0.594c-0.316,0.026-0.558,0.292-0.524,0.691l0.001,0.008c0.032,0.388,0.32,0.621,0.632,0.594
			C37.599,8.735,37.851,8.454,37.819,8.069"/>
	</g>
	<g>
		<defs>
			<rect id="SVGID_17_" width="80" height="80"/>
		</defs>
		<clipPath id="SVGID_18_">
			<use xlink:href="#SVGID_17_"  overflow="visible"/>
		</clipPath>
		<path clip-path="url(#SVGID_18_)" fill="#4D4D4E" d="M41.151,8.708L41.134,9.02l-0.461-0.024l0.146-2.782l0.461,0.024
			l-0.059,1.105c0.16-0.202,0.378-0.359,0.702-0.342c0.476,0.025,0.918,0.426,0.883,1.093l-0.001,0.008
			c-0.034,0.667-0.512,1.021-0.992,0.996C41.482,9.08,41.282,8.902,41.151,8.708 M42.338,8.078V8.07
			c0.02-0.388-0.229-0.657-0.541-0.674c-0.313-0.016-0.601,0.228-0.621,0.614v0.008c-0.02,0.389,0.24,0.659,0.553,0.675
			C42.045,8.709,42.317,8.474,42.338,8.078"/>
	</g>
	<g>
		<defs>
			<rect id="SVGID_19_" width="80" height="80"/>
		</defs>
		<clipPath id="SVGID_20_">
			<use xlink:href="#SVGID_19_"  overflow="visible"/>
		</clipPath>
		<path clip-path="url(#SVGID_20_)" fill="#4D4D4E" d="M44.738,9.36l0.034-0.246c-0.158,0.144-0.384,0.239-0.686,0.197
			c-0.378-0.052-0.68-0.314-0.625-0.715l0.001-0.007c0.062-0.443,0.435-0.606,0.9-0.541c0.242,0.033,0.392,0.089,0.54,0.16
			l0.005-0.038c0.039-0.276-0.114-0.452-0.432-0.495c-0.223-0.031-0.396-0.005-0.588,0.045l-0.074-0.384
			c0.234-0.068,0.458-0.106,0.783-0.061c0.59,0.083,0.834,0.433,0.76,0.965l-0.165,1.183L44.738,9.36z M44.865,8.527
			c-0.111-0.062-0.269-0.119-0.446-0.143c-0.287-0.04-0.474,0.054-0.501,0.246l-0.001,0.008c-0.027,0.189,0.129,0.318,0.344,0.348
			c0.302,0.042,0.552-0.096,0.587-0.345L44.865,8.527z"/>
	</g>
	<g>
		<defs>
			<rect id="SVGID_21_" width="80" height="80"/>
		</defs>
		<clipPath id="SVGID_22_">
			<use xlink:href="#SVGID_21_"  overflow="visible"/>
		</clipPath>
		<path clip-path="url(#SVGID_22_)" fill="#4D4D4E" d="M45.917,9.936l0.244-0.299c0.179,0.178,0.384,0.307,0.651,0.368
			c0.401,0.092,0.668-0.066,0.759-0.46l0.035-0.152c-0.212,0.174-0.451,0.276-0.774,0.202c-0.46-0.106-0.813-0.547-0.681-1.123
			l0.002-0.007c0.133-0.58,0.646-0.822,1.103-0.717c0.331,0.076,0.5,0.275,0.611,0.492l0.067-0.294l0.449,0.103L48.026,9.61
			c-0.076,0.331-0.218,0.557-0.419,0.683c-0.219,0.137-0.514,0.16-0.867,0.079C46.417,10.297,46.134,10.146,45.917,9.936
			 M47.738,8.836l0.002-0.007c0.075-0.324-0.139-0.603-0.451-0.675c-0.313-0.072-0.607,0.087-0.682,0.411l-0.002,0.007
			c-0.075,0.324,0.124,0.6,0.433,0.671C47.351,9.314,47.665,9.152,47.738,8.836"/>
	</g>
	<g>
		<defs>
			<rect id="SVGID_23_" width="80" height="80"/>
		</defs>
		<clipPath id="SVGID_24_">
			<use xlink:href="#SVGID_23_"  overflow="visible"/>
		</clipPath>
		<path clip-path="url(#SVGID_24_)" fill="#4D4D4E" d="M48.964,9.262l0.003-0.007c0.178-0.548,0.712-0.872,1.261-0.694
			c0.609,0.199,0.762,0.778,0.583,1.329c-0.013,0.04-0.029,0.079-0.047,0.121l-1.408-0.458c-0.054,0.327,0.111,0.573,0.394,0.665
			c0.214,0.07,0.392,0.039,0.594-0.06l0.183,0.313c-0.253,0.158-0.549,0.218-0.901,0.104C49.068,10.396,48.772,9.854,48.964,9.262
			 M50.429,9.582c0.063-0.293-0.032-0.568-0.322-0.663c-0.269-0.087-0.525,0.058-0.662,0.343L50.429,9.582z"/>
	</g>
	<g>
		<defs>
			<rect id="SVGID_25_" width="80" height="80"/>
		</defs>
		<clipPath id="SVGID_26_">
			<use xlink:href="#SVGID_25_"  overflow="visible"/>
		</clipPath>
		<path clip-path="url(#SVGID_26_)" fill="#4D4D4E" d="M51.171,10.784l0.31-0.21c0.137,0.235,0.325,0.402,0.515,0.481
			c0.183,0.076,0.321,0.042,0.372-0.081l0.003-0.007c0.06-0.144-0.118-0.275-0.308-0.433c-0.243-0.191-0.503-0.431-0.355-0.787
			L51.71,9.74c0.146-0.352,0.527-0.446,0.897-0.293c0.233,0.096,0.453,0.282,0.597,0.494l-0.295,0.233
			c-0.134-0.183-0.297-0.329-0.452-0.394c-0.165-0.068-0.293-0.03-0.338,0.079l-0.003,0.007c-0.056,0.133,0.122,0.273,0.311,0.434
			c0.236,0.197,0.492,0.447,0.353,0.782l-0.003,0.007c-0.162,0.391-0.546,0.459-0.933,0.299
			C51.58,11.28,51.327,11.064,51.171,10.784"/>
	</g>
	<g>
		<defs>
			<rect id="SVGID_27_" width="80" height="80"/>
		</defs>
		<clipPath id="SVGID_28_">
			<use xlink:href="#SVGID_27_"  overflow="visible"/>
		</clipPath>
		<path clip-path="url(#SVGID_28_)" fill="#4D4D4E" d="M55.634,13.226l0.122-0.216c-0.2,0.075-0.445,0.081-0.71-0.07
			c-0.332-0.188-0.516-0.543-0.317-0.895l0.004-0.006c0.22-0.388,0.627-0.403,1.035-0.171c0.213,0.12,0.331,0.227,0.443,0.348
			l0.019-0.033c0.137-0.242,0.06-0.461-0.219-0.62c-0.195-0.111-0.366-0.151-0.563-0.175l0.073-0.384
			c0.241,0.023,0.464,0.07,0.749,0.232c0.518,0.294,0.616,0.709,0.35,1.176l-0.589,1.038L55.634,13.226z M56.06,12.498
			c-0.08-0.098-0.206-0.209-0.362-0.297c-0.252-0.143-0.46-0.125-0.556,0.044l-0.004,0.006c-0.094,0.166,0.003,0.344,0.192,0.451
			c0.265,0.151,0.549,0.114,0.673-0.105L56.06,12.498z"/>
	</g>
	<g>
		<defs>
			<rect id="SVGID_29_" width="80" height="80"/>
		</defs>
		<clipPath id="SVGID_30_">
			<use xlink:href="#SVGID_29_"  overflow="visible"/>
		</clipPath>
		<path clip-path="url(#SVGID_30_)" fill="#4D4D4E" d="M57.74,12.625l-0.213-0.142l0.213-0.321l0.213,0.142l0.08-0.121
			c0.125-0.188,0.265-0.296,0.414-0.326c0.148-0.03,0.302,0.008,0.467,0.118c0.133,0.088,0.213,0.169,0.282,0.251l-0.216,0.325
			c-0.059-0.076-0.116-0.136-0.199-0.191c-0.146-0.097-0.275-0.068-0.391,0.107l-0.061,0.093l0.445,0.295l-0.212,0.318l-0.439-0.292
			l-0.896,1.349l-0.385-0.256L57.74,12.625z"/>
	</g>
	<g>
		<defs>
			<rect id="SVGID_31_" width="80" height="80"/>
		</defs>
		<clipPath id="SVGID_32_">
			<use xlink:href="#SVGID_31_"  overflow="visible"/>
		</clipPath>
		<path clip-path="url(#SVGID_32_)" fill="#4D4D4E" d="M56.186,21.944c0.777,0,1.504,0.219,2.12,0.598l0.013-0.013l0.002-0.002
			c0.508-0.507,1.208-0.822,1.98-0.822c0.714,0,1.367,0.268,1.863,0.709c0.565-0.3,1.21-0.47,1.895-0.47
			c1.119,0,2.133,0.455,2.867,1.188c0.734,0.734,1.187,1.748,1.187,2.868c0,1.117-0.454,2.131-1.187,2.866l-0.002,0.002
			c-0.547,0.546-1.248,0.937-2.03,1.101v3.665h-9.542v-3.665c-0.785-0.165-1.486-0.556-2.033-1.102
			c-0.734-0.734-1.188-1.748-1.188-2.867c0-1.118,0.454-2.132,1.188-2.866l0.002-0.002C54.055,22.399,55.068,21.944,56.186,21.944
			 M63.424,27.706c-0.276-0.055-0.879-0.225-0.879,0.246v2.803c0,0.18,0.147,0.328,0.328,0.328c0.18,0,0.328-0.147,0.328-0.328
			v-2.488c0.036,0.009,0.072,0.017,0.108,0.024c0.161,0.032,0.325,0.049,0.488,0.049c0.69,0,1.316-0.28,1.77-0.734l0.001-0.001
			c0.453-0.454,0.733-1.08,0.733-1.77c0-0.117-0.008-0.236-0.026-0.356c-0.017-0.118-0.042-0.235-0.076-0.35l-0.571,0.168
			c0.026,0.086,0.045,0.176,0.059,0.266c0.012,0.088,0.019,0.179,0.019,0.273c0,0.528-0.213,1.005-0.558,1.349l-0.001,0.001
			c-0.345,0.344-0.822,0.558-1.35,0.558C63.671,27.743,63.545,27.731,63.424,27.706 M60.127,37.425
			c0.04-0.105,0.17-0.318,0.564-0.318c0.522,0,1.02,0.609,1.053,0.656c0.033,0.047,0.447,0.507,0.788,0.367
			c0.34-0.14,0.257-0.25,0.349-0.242c0.091,0.008-0.078,0.376-0.401,0.572c-0.323,0.195-0.842,0.35-1.465,0.209
			c-0.431-0.098-0.739-0.338-0.887-0.476c-0.148,0.138-0.456,0.378-0.887,0.476c-0.622,0.141-1.228-0.063-1.551-0.258
			c-0.324-0.195-0.406-0.515-0.316-0.523c0.091-0.008,0.009,0.102,0.349,0.242c0.34,0.141,0.755-0.32,0.788-0.367
			c0.033-0.047,0.531-0.656,1.053-0.656C59.958,37.107,60.088,37.32,60.127,37.425 M55.478,38.187
			c0.271,2.287,1.782,3.453,4.049,3.626v0.004c0.203,0.013,0.401,0.019,0.595,0.018c0.194,0.001,0.392-0.006,0.596-0.018v-0.004
			c2.267-0.173,3.778-1.338,4.049-3.626c0.039-0.328-0.011-0.46,0.008-0.664c0.119-1.23-0.205-0.589-0.205-0.172
			c0,1.868-1.5,3.381-3.352,3.381l-0.027-0.001l-0.474-0.474v-0.064l-0.414-0.414c-0.049-0.049-0.117-0.068-0.181-0.059
			c-0.064-0.009-0.132,0.01-0.181,0.059l-0.414,0.414v0.064l-0.475,0.474l-0.027,0.001c-1.851,0-3.352-1.514-3.352-3.381
			c0-0.417-0.324-1.057-0.205,0.172C55.49,37.727,55.439,37.86,55.478,38.187 M56.186,32.798h7.872v-3.507l0.663-0.14
			c0.611-0.128,1.17-0.433,1.612-0.874l0.002-0.002c0.606-0.606,0.944-1.418,0.944-2.275c0-0.858-0.338-1.671-0.944-2.277
			c-0.606-0.606-1.419-0.943-2.277-0.943c-0.526,0-1.04,0.126-1.504,0.373l-0.513,0.272l-0.434-0.386
			c-0.362-0.322-0.823-0.497-1.307-0.497c-0.524,0-1.02,0.206-1.39,0.576l-0.475,0.485l-0.568-0.349
			c-0.508-0.312-1.087-0.474-1.683-0.474c-0.857,0-1.669,0.338-2.276,0.943l-0.001,0.002c-0.606,0.606-0.943,1.418-0.943,2.276
			c0,0.858,0.337,1.67,0.943,2.277c0.442,0.442,1.001,0.746,1.613,0.875l0.664,0.139C56.186,29.291,56.186,32.798,56.186,32.798z"/>
	</g>
	<g>
		<defs>
			<rect id="SVGID_33_" width="80" height="80"/>
		</defs>
		<clipPath id="SVGID_34_">
			<use xlink:href="#SVGID_33_"  overflow="visible"/>
		</clipPath>
		<path clip-path="url(#SVGID_34_)" fill="#4D4D4E" d="M11.887,40.418V29.068h5.985v1.238h-4.636v3.254h4.636v1.254h-4.636v4.349
			h4.636v1.254H11.887z M20.157,40.418V29.068h2.666c0.759,0,1.318,0.042,1.67,0.127c0.354,0.087,0.667,0.233,0.937,0.439
			c0.336,0.262,0.595,0.617,0.78,1.058c0.188,0.442,0.281,0.931,0.281,1.469c0,0.929-0.259,1.638-0.778,2.119
			c-0.521,0.484-1.281,0.725-2.283,0.725h-0.241l4.334,5.413h-1.715l-4.143-5.413h-0.19v5.413
			C21.475,40.418,20.157,40.418,20.157,40.418z M21.475,30.211v3.794h1.029c1.056,0,1.762-0.135,2.119-0.407
			c0.357-0.27,0.535-0.744,0.535-1.421c0-0.728-0.183-1.236-0.551-1.529c-0.367-0.291-1.068-0.436-2.103-0.436
			C22.504,30.211,21.475,30.211,21.475,30.211z M28.669,29.068h1.349v11.351h-1.349V29.068z M32.762,40.418V29.068h1.333v5.048
			l4.765-5.048h1.611l-4.865,5.109l5.347,6.242H39.21l-5.114-6.109v6.109H32.762z M46.274,34.119
			c0.738,0.315,1.296,0.733,1.669,1.254c0.376,0.521,0.563,1.14,0.563,1.852c0,1.043-0.333,1.884-0.997,2.522
			c-0.664,0.638-1.542,0.957-2.64,0.957c-0.894,0-1.643-0.227-2.249-0.685c-0.604-0.458-1.011-1.106-1.225-1.948l1.225-0.606
			c0.166,0.688,0.439,1.209,0.82,1.564c0.378,0.354,0.855,0.532,1.429,0.532c0.677,0,1.225-0.196,1.646-0.585
			c0.418-0.392,0.627-0.899,0.627-1.524c0-0.508-0.145-0.948-0.439-1.323c-0.291-0.376-0.73-0.691-1.32-0.95l-1.381-0.59
			c-0.754-0.315-1.318-0.72-1.685-1.217c-0.371-0.495-0.556-1.09-0.556-1.783c0-0.807,0.299-1.474,0.9-2.001
			c0.6-0.526,1.365-0.791,2.296-0.791c0.68,0,1.273,0.146,1.77,0.434c0.5,0.291,0.889,0.717,1.167,1.283l-1.116,0.712
			c-0.252-0.44-0.537-0.765-0.852-0.979c-0.315-0.214-0.672-0.323-1.069-0.323c-0.508,0-0.923,0.156-1.246,0.466
			s-0.484,0.704-0.484,1.185c0,0.402,0.124,0.752,0.373,1.045c0.246,0.296,0.632,0.556,1.153,0.783L46.274,34.119z"/>
	</g>
	<g>
		<defs>
			<rect id="SVGID_35_" width="80" height="80"/>
		</defs>
		<clipPath id="SVGID_36_">
			<use xlink:href="#SVGID_35_"  overflow="visible"/>
		</clipPath>
		<path clip-path="url(#SVGID_36_)" fill="#4D4D4E" d="M11.897,57.975V45.967H14.4c0.879,0,1.529,0.045,1.948,0.135
			c0.417,0.092,0.778,0.246,1.078,0.464c0.383,0.283,0.68,0.65,0.89,1.094c0.21,0.445,0.316,0.935,0.316,1.464
			c0,0.635-0.151,1.164-0.456,1.59c-0.302,0.428-0.745,0.725-1.324,0.896c0.708,0.109,1.271,0.428,1.682,0.954
			c0.412,0.529,0.619,1.195,0.619,1.998c0,0.482-0.087,0.941-0.263,1.378c-0.174,0.436-0.417,0.812-0.728,1.125
			c-0.339,0.333-0.758,0.569-1.254,0.706c-0.499,0.137-1.335,0.204-2.508,0.204H11.897z M13.291,52.349v4.383H14.4
			c0.758,0,1.307-0.031,1.643-0.089c0.336-0.062,0.605-0.165,0.809-0.314c0.243-0.174,0.436-0.417,0.576-0.73
			c0.143-0.311,0.213-0.655,0.213-1.033c0-0.44-0.084-0.82-0.255-1.142c-0.168-0.321-0.414-0.573-0.736-0.755
			c-0.19-0.115-0.411-0.196-0.663-0.247c-0.249-0.047-0.641-0.073-1.17-0.073H14.4C14.4,52.349,13.291,52.349,13.291,52.349z
			 M13.291,47.209v4.014H14.4c1.016,0,1.733-0.148,2.147-0.442c0.417-0.294,0.624-0.792,0.624-1.492
			c0-0.769-0.193-1.307-0.579-1.618c-0.384-0.308-1.117-0.462-2.192-0.462C14.4,47.209,13.291,47.209,13.291,47.209z M25.129,48.654
			l-1.909,4.417h3.82L25.129,48.654z M25.129,45.496l5.46,12.478h-1.548l-1.56-3.678h-4.688l-1.559,3.678H19.69L25.129,45.496z
			 M38.139,51.778h4.954v0.4c0,1.892-0.534,3.384-1.607,4.475c-1.072,1.094-2.536,1.641-4.389,1.641
			c-0.565,0-1.102-0.059-1.612-0.179c-0.512-0.12-0.985-0.296-1.416-0.526c-0.986-0.54-1.744-1.288-2.281-2.242
			c-0.535-0.954-0.803-2.038-0.803-3.253c0-0.999,0.159-1.903,0.479-2.709c0.321-0.806,0.803-1.517,1.45-2.127
			c0.54-0.516,1.17-0.905,1.886-1.165c0.717-0.263,1.509-0.395,2.38-0.395c1.153,0,2.152,0.21,3,0.627
			c0.848,0.417,1.551,1.047,2.108,1.89l-1.198,0.96c-0.431-0.728-0.968-1.274-1.615-1.637c-0.643-0.364-1.394-0.546-2.245-0.546
			c-1.394,0-2.527,0.47-3.395,1.411c-0.871,0.94-1.304,2.172-1.304,3.691c0,1.434,0.442,2.61,1.324,3.53
			C34.735,56.542,35.86,57,37.226,57c1.204,0,2.206-0.364,3.006-1.094c0.801-0.731,1.246-1.682,1.333-2.853h-3.426
			C38.139,53.054,38.139,51.778,38.139,51.778z M45.209,57.975V45.967h6.332v1.31h-4.904v3.443h4.904v1.326h-4.904v4.601h4.904
			v1.327H45.209z M53.959,57.975V45.967h2.822c0.803,0,1.394,0.045,1.766,0.135c0.375,0.092,0.706,0.246,0.991,0.464
			c0.356,0.278,0.63,0.652,0.826,1.12c0.199,0.467,0.296,0.985,0.296,1.553c0,0.982-0.274,1.733-0.823,2.242
			c-0.551,0.512-1.355,0.767-2.416,0.767h-0.255l4.585,5.727h-1.814l-4.383-5.727h-0.202v5.727
			C55.353,57.975,53.959,57.975,53.959,57.975z M55.353,47.175v4.014h1.089c1.117,0,1.864-0.143,2.242-0.431
			c0.378-0.285,0.565-0.787,0.565-1.503c0-0.77-0.193-1.307-0.582-1.618c-0.389-0.308-1.131-0.462-2.225-0.462H55.353z
			 M62.964,45.967h1.427v12.009h-1.427V45.967z"/>
	</g>
</g>
</svg>
