<?xml version="1.0" encoding="utf-8"?>
<!-- Generator: Adobe Illustrator 22.0.1, SVG Export Plug-In . SVG Version: 6.00 Build 0)  -->
<svg version="1.1" id="Layer_1" xmlns="http://www.w3.org/2000/svg" xmlns:xlink="http://www.w3.org/1999/xlink" x="0px" y="0px"
	 width="80px" height="80px" viewBox="0 0 80 80" enable-background="new 0 0 80 80" xml:space="preserve">
<g>
	<g>
		<defs>
			<rect id="SVGID_1_" width="80" height="80"/>
		</defs>
		<clipPath id="SVGID_2_">
			<use xlink:href="#SVGID_1_"  overflow="visible"/>
		</clipPath>
		<path clip-path="url(#SVGID_2_)" fill="#162D54" d="M80,40c0,22.092-17.909,40-40,40S0,62.091,0,40C0,17.909,17.909,0,40,0
			S80,17.909,80,40"/>
	</g>
	<g>
		<defs>
			<rect id="SVGID_3_" width="80" height="80"/>
		</defs>
		<clipPath id="SVGID_4_">
			<use xlink:href="#SVGID_3_"  overflow="visible"/>
		</clipPath>
		<rect x="7.617" y="42.6" clip-path="url(#SVGID_4_)" fill="#FFFFFF" width="63.664" height="5.019"/>
	</g>
	<g>
		<defs>
			<rect id="SVGID_5_" width="80" height="80"/>
		</defs>
		<clipPath id="SVGID_6_">
			<use xlink:href="#SVGID_5_"  overflow="visible"/>
		</clipPath>
		<path clip-path="url(#SVGID_6_)" fill="#FFFFFF" d="M10.146,28.697c0.956-0.915,2.076-1.372,3.362-1.372
			c1.055,0,1.969,0.285,2.744,0.858c0.749,0.564,1.281,1.365,1.594,2.401c-0.403,0.707-0.766,1.526-1.088,2.454l-0.915,2.669
			c-1.327,3.83-3.342,5.746-6.045,5.746c-0.57,0-1.122-0.071-1.655-0.211v0.26c0.583,0.153,1.184,0.23,1.804,0.23
			c2.274,0,3.997-0.943,5.167-2.83c0.297-0.464,0.548-0.957,0.754-1.479c0.19-0.522,0.384-1.169,0.581-1.941
			c0.066-0.214,0.116-0.396,0.148-0.546c0-0.007,0.02-0.087,0.062-0.241c0.041-0.154,0.078-0.309,0.111-0.466
			c0.206-0.8,0.359-1.354,0.457-1.661c0.124-0.364,0.23-0.636,0.321-0.815c0.116-0.243,0.256-0.5,0.42-0.771
			c0.016,0.043,0.037,0.114,0.062,0.214c0.025,0.1,0.037,0.16,0.037,0.182c0.083,0.465,0.128,1.172,0.136,2.122l0.013,0.965
			l-0.025,1.844c0,0.093,0.004,0.164,0.012,0.214v0.44c0.28-0.364,0.59-0.807,0.928-1.329c0.28-0.436,0.428-0.668,0.445-0.697
			c0.116-0.172,0.239-0.365,0.371-0.579c0.684-1.086,1.314-1.944,1.891-2.572c0.297-0.321,0.676-0.64,1.137-0.954
			c-0.338,0.443-0.602,0.825-0.791,1.147c-0.198,0.329-0.433,0.8-0.705,1.415c-0.98,2.208-1.471,4.07-1.471,5.584
			c0,0.929,0.255,1.691,0.766,2.284c0.511,0.593,1.166,0.89,1.966,0.89c0.766,0,1.335-0.272,1.706-0.815l-0.235-0.096
			c-0.347,0.4-0.754,0.6-1.224,0.6c-0.503,0-0.898-0.182-1.187-0.547c-0.288-0.372-0.432-0.886-0.432-1.543
			c0-0.508,0.053-1.065,0.16-1.672c0.107-0.665,0.26-1.357,0.457-2.08c0.247-0.929,0.509-1.781,0.785-2.557
			c0.276-0.775,0.562-1.452,0.859-2.031c0.371-0.693,0.745-1.193,1.125-1.501c0.354-0.285,0.898-0.504,1.632-0.654v-0.246
			c-1.706,0.3-3.23,1.107-4.574,2.422c-0.371,0.364-0.76,0.824-1.168,1.377c-0.408,0.554-0.835,1.195-1.279,1.924
			c0.008-0.157,0.012-0.425,0.012-0.804c0-0.972-0.049-1.801-0.148-2.487c-0.116-0.693-0.288-1.29-0.519-1.79
			c-0.363-0.843-0.965-1.49-1.805-1.94c-0.849-0.457-1.863-0.686-3.041-0.686c-0.882,0-1.644,0.133-2.287,0.397
			c-0.668,0.272-1.278,0.7-1.83,1.286l-0.235,0.279c-0.568,0.836-0.853,1.623-0.853,2.359c0,1.008,0.371,1.862,1.113,2.562
			c0.733,0.707,1.632,1.061,2.695,1.061c0.552,0,1.05-0.089,1.496-0.268c0.47-0.193,0.91-0.478,1.323-0.857
			c-0.001,0.002-0.001,0.003-0.002,0.005c0.144-0.133,0.286-0.293,0.372-0.404c0.001-0.003,0.386-0.532,0.557-0.898
			c0.134-0.288,0.263-0.601,0.371-0.943l-0.272-0.043c-0.132,0.456-0.357,0.922-0.676,1.399v0.001c0,0-0.002,0.002-0.003,0.003
			c-0.001,0.001-0.001,0.001-0.001,0.002v-0.001c-0.054,0.07-0.262,0.344-0.334,0.414v0.004c-0.437,0.465-0.878,0.8-1.322,1.007
			c-0.454,0.215-0.964,0.322-1.533,0.322c-0.643,0-1.228-0.154-1.756-0.461c-0.544-0.307-0.968-0.714-1.273-1.222
			c-0.313-0.522-0.469-1.079-0.469-1.672c0-0.843,0.317-1.644,0.951-2.401"/>
	</g>
	<g>
		<defs>
			<rect id="SVGID_7_" width="80" height="80"/>
		</defs>
		<clipPath id="SVGID_8_">
			<use xlink:href="#SVGID_7_"  overflow="visible"/>
		</clipPath>
		<path clip-path="url(#SVGID_8_)" fill="#FFFFFF" d="M26.531,37.034l0.271,0.092l-0.246,0.598c-0.377,0.913-0.73,1.573-1.058,1.979
			c-0.328,0.399-0.673,0.598-1.034,0.598c-0.304,0-0.566-0.127-0.788-0.38c-0.229-0.237-0.344-0.545-0.344-0.92
			c0-0.223,0.094-0.656,0.283-1.3l0.948-3.314c0.189,0.023,0.39,0.034,0.603,0.034c0.164,0,0.377-0.019,0.64-0.057l-1.243,4.2
			l-0.123,0.506c-0.074,0.261-0.111,0.445-0.111,0.552c0,0.091,0.032,0.169,0.098,0.23c0.066,0.069,0.135,0.103,0.21,0.103
			c0.303,0,0.656-0.368,1.058-1.104C25.891,38.499,26.17,37.893,26.531,37.034"/>
	</g>
	<g>
		<defs>
			<rect id="SVGID_9_" width="80" height="80"/>
		</defs>
		<clipPath id="SVGID_10_">
			<use xlink:href="#SVGID_9_"  overflow="visible"/>
		</clipPath>
		<path clip-path="url(#SVGID_10_)" fill="#FFFFFF" d="M30.531,37.034l0.271,0.092l-0.16,0.403
			c-0.246,0.583-0.447,1.009-0.603,1.277c-0.164,0.276-0.369,0.541-0.616,0.794c-0.476,0.468-0.964,0.702-1.464,0.702
			c-0.476,0-0.862-0.192-1.157-0.575c-0.304-0.376-0.455-0.863-0.455-1.462c0-0.59,0.143-1.208,0.431-1.852
			c0.287-0.629,0.656-1.143,1.107-1.542c0.435-0.398,0.874-0.598,1.317-0.598c0.32,0,0.578,0.115,0.775,0.345
			c0.197,0.23,0.295,0.537,0.295,0.921c0,0.338-0.065,0.656-0.197,0.955c-0.14,0.33-0.307,0.587-0.504,0.771
			c-0.214,0.2-0.431,0.299-0.652,0.299c-0.131,0-0.242-0.054-0.332-0.161c-0.09-0.107-0.135-0.234-0.135-0.379
			c0-0.238,0.082-0.445,0.246-0.621c0.156-0.169,0.373-0.269,0.652-0.299c0.238-0.038,0.398-0.099,0.48-0.184
			c0.082-0.084,0.123-0.234,0.123-0.448c0-0.253-0.062-0.464-0.184-0.633c-0.131-0.168-0.287-0.252-0.468-0.252
			c-0.271,0-0.516,0.222-0.738,0.667c-0.279,0.575-0.541,1.304-0.787,2.187c-0.247,0.874-0.37,1.503-0.37,1.887
			c0,0.192,0.057,0.349,0.172,0.472c0.107,0.123,0.267,0.184,0.48,0.184c0.303,0,0.607-0.119,0.91-0.356
			c0.312-0.246,0.579-0.568,0.8-0.967C30.006,38.257,30.26,37.716,30.531,37.034"/>
	</g>
	<g>
		<defs>
			<rect id="SVGID_11_" width="80" height="80"/>
		</defs>
		<clipPath id="SVGID_12_">
			<use xlink:href="#SVGID_11_"  overflow="visible"/>
		</clipPath>
		<path clip-path="url(#SVGID_12_)" fill="#FFFFFF" d="M35.59,37.034l0.283,0.092l-0.123,0.299
			c-0.337,0.782-0.615,1.396-0.837,1.841c-0.189,0.361-0.394,0.621-0.616,0.782c-0.213,0.169-0.471,0.253-0.775,0.253
			s-0.562-0.116-0.776-0.345c-0.213-0.222-0.32-0.491-0.32-0.805c0-0.422,0.197-1.12,0.591-2.094c0.394-1.005,0.59-1.653,0.59-1.945
			c0-0.107-0.024-0.195-0.074-0.264c-0.049-0.069-0.115-0.103-0.197-0.103c-0.165,0-0.345,0.111-0.541,0.333
			c-0.205,0.238-0.398,0.545-0.579,0.92c-0.197,0.376-0.357,0.779-0.48,1.208l-0.886,2.969l-0.246-0.012
			c-0.074-0.007-0.193-0.011-0.357-0.011c0.057,0-0.102,0.008-0.48,0.023l-0.172,0.024l3.188-10.782
			c0.287,0.046,0.492,0.069,0.615,0.069c0.164,0,0.365-0.027,0.603-0.08l-1.686,5.788c0.295-0.33,0.541-0.552,0.738-0.667
			c0.213-0.13,0.435-0.195,0.665-0.195c0.279,0,0.504,0.084,0.677,0.253c0.164,0.176,0.246,0.41,0.246,0.701
			c0,0.292-0.037,0.583-0.111,0.875c-0.09,0.314-0.263,0.817-0.517,1.507l-0.443,1.219c-0.098,0.307-0.148,0.549-0.148,0.725
			c0,0.245,0.107,0.368,0.32,0.368c0.246,0,0.5-0.203,0.763-0.609C34.753,38.994,35.114,38.215,35.59,37.034"/>
	</g>
	<g>
		<defs>
			<rect id="SVGID_13_" width="80" height="80"/>
		</defs>
		<clipPath id="SVGID_14_">
			<use xlink:href="#SVGID_13_"  overflow="visible"/>
		</clipPath>
		<path clip-path="url(#SVGID_14_)" fill="#FFFFFF" d="M41.14,37.034l0.271,0.092l-0.135,0.311c-0.328,0.767-0.611,1.354-0.849,1.76
			c-0.23,0.399-0.455,0.683-0.677,0.851c-0.205,0.169-0.435,0.253-0.689,0.253c-0.616,0-0.985-0.414-1.108-1.243
			c-0.23,0.437-0.443,0.748-0.64,0.932c-0.205,0.177-0.435,0.265-0.689,0.265c-0.377,0-0.677-0.169-0.898-0.506
			c-0.229-0.33-0.344-0.775-0.344-1.335c0-0.652,0.14-1.3,0.418-1.945c0.271-0.652,0.619-1.181,1.046-1.588
			c0.435-0.414,0.857-0.621,1.267-0.621c0.37,0,0.648,0.284,0.837,0.851l0.209-0.725c0.238,0.031,0.472,0.046,0.701,0.046
			c0.18,0,0.365-0.015,0.553-0.046l-0.123,0.449c-0.197,0.667-0.32,1.086-0.369,1.254c-0.041,0.153-0.082,0.295-0.123,0.425
			c-0.008,0.031-0.031,0.1-0.068,0.207c-0.037,0.108-0.06,0.18-0.067,0.218c-0.181,0.606-0.328,1.116-0.443,1.53
			c-0.123,0.422-0.198,0.667-0.222,0.736c-0.049,0.161-0.074,0.295-0.074,0.403c0,0.207,0.111,0.31,0.332,0.31
			c0.246,0,0.513-0.214,0.8-0.644C40.327,38.871,40.689,38.123,41.14,37.034 M38.691,35.492c0-0.261-0.054-0.479-0.16-0.656
			c-0.107-0.184-0.234-0.276-0.382-0.276c-0.107,0-0.21,0.077-0.308,0.23c-0.107,0.154-0.229,0.402-0.369,0.748
			c-0.262,0.621-0.513,1.327-0.751,2.117c-0.222,0.69-0.332,1.25-0.332,1.68c0,0.376,0.139,0.563,0.418,0.563
			c0.394-0.023,0.808-0.594,1.243-1.714c0.148-0.445,0.255-0.779,0.32-1.001c0.082-0.284,0.16-0.594,0.234-0.932
			C38.662,35.983,38.691,35.73,38.691,35.492"/>
	</g>
	<g>
		<defs>
			<rect id="SVGID_15_" width="80" height="80"/>
		</defs>
		<clipPath id="SVGID_16_">
			<use xlink:href="#SVGID_15_"  overflow="visible"/>
		</clipPath>
		<path clip-path="url(#SVGID_16_)" fill="#FFFFFF" d="M45.251,37.034l0.271,0.093c-0.304,0.721-0.574,1.273-0.812,1.657
			c-0.599,1.013-1.329,1.519-2.191,1.519c-0.476,0-0.87-0.172-1.181-0.518c-0.32-0.337-0.48-0.771-0.48-1.3
			c0-0.621,0.147-1.254,0.443-1.898c0.295-0.652,0.669-1.193,1.12-1.622c0.443-0.43,0.874-0.645,1.292-0.645
			c0.361,0,0.644,0.126,0.849,0.38c0.213,0.261,0.319,0.594,0.319,1.001c0,0.476-0.115,0.929-0.344,1.358
			c-0.238,0.445-0.546,0.787-0.923,1.024c-0.369,0.23-0.886,0.376-1.551,0.437c-0.049,0.276-0.074,0.491-0.074,0.644
			c0,0.568,0.213,0.852,0.64,0.852c0.878,0,1.715-0.909,2.511-2.728L45.251,37.034z M42.137,38.219c0.352,0,0.643-0.062,0.873-0.184
			c0.222-0.123,0.427-0.33,0.616-0.621c0.172-0.246,0.328-0.594,0.467-1.047c0.14-0.46,0.21-0.851,0.21-1.174
			c0-0.115-0.017-0.207-0.049-0.275c-0.033-0.085-0.082-0.154-0.147-0.207c-0.058-0.054-0.132-0.08-0.222-0.08
			c-0.271,0-0.571,0.384-0.899,1.151C42.601,36.631,42.318,37.445,42.137,38.219"/>
	</g>
	<g>
		<defs>
			<rect id="SVGID_17_" width="80" height="80"/>
		</defs>
		<clipPath id="SVGID_18_">
			<use xlink:href="#SVGID_17_"  overflow="visible"/>
		</clipPath>
		<path clip-path="url(#SVGID_18_)" fill="#FFFFFF" d="M47.983,37.034l0.283,0.092c-0.074,0.146-0.111,0.223-0.111,0.23
			l-0.381,0.886c-0.32,0.736-0.624,1.262-0.911,1.576c-0.295,0.322-0.62,0.483-0.972,0.483c-0.312,0-0.566-0.123-0.763-0.368
			c-0.197-0.245-0.295-0.56-0.295-0.943c0-0.361,0.103-0.875,0.308-1.542l2.363-8.043l0.185,0.011
			c0.147,0.015,0.274,0.023,0.381,0.023c0.14,0,0.353-0.016,0.64-0.046l-2.56,8.756l-0.05,0.207c-0.016,0.054-0.036,0.13-0.061,0.23
			c-0.017,0.054-0.033,0.113-0.049,0.178c-0.017,0.065-0.041,0.159-0.074,0.282c-0.074,0.261-0.111,0.453-0.111,0.575
			c0,0.223,0.095,0.333,0.283,0.333c0.279,0,0.583-0.287,0.911-0.863c0.189-0.315,0.484-0.925,0.886-1.83L47.983,37.034z"/>
	</g>
	<g>
		<defs>
			<rect id="SVGID_19_" width="80" height="80"/>
		</defs>
		<clipPath id="SVGID_20_">
			<use xlink:href="#SVGID_19_"  overflow="visible"/>
		</clipPath>
		<path clip-path="url(#SVGID_20_)" fill="#FFFFFF" d="M24.538,32.931c0-0.472,0.382-0.855,0.854-0.855
			c0.472,0,0.855,0.383,0.855,0.855c0,0.472-0.383,0.855-0.855,0.855C24.92,33.786,24.538,33.404,24.538,32.931"/>
	</g>
	<g>
		<defs>
			<rect id="SVGID_21_" width="80" height="80"/>
		</defs>
		<clipPath id="SVGID_22_">
			<use xlink:href="#SVGID_21_"  overflow="visible"/>
		</clipPath>
		<path clip-path="url(#SVGID_22_)" fill="#152C52" d="M70.682,28.701c-0.169-0.234-0.398-0.421-0.685-0.564
			c-0.288-0.132-0.61-0.198-0.967-0.198c-0.655,0-1.335,0.239-2.039,0.716c-0.705,0.478-1.394,1.153-2.069,2.027
			c-1.072,1.432-1.911,3.256-2.516,5.47l-2.292,0.595l0.134-0.686c0.307-1.615,0.63-2.946,0.967-3.992
			c0.337-1.046,0.684-1.818,1.042-2.316c0.348-0.488,0.744-0.874,1.191-1.159c0.436-0.284,0.898-0.426,1.384-0.426h0.239v-0.366
			c-0.05-0.01-0.134-0.015-0.254-0.015c-0.337,0-0.883,0.163-1.637,0.488c-0.665,0.285-1.132,0.457-1.4,0.518
			c-0.338,0.091-0.714,0.137-1.131,0.137c-0.893,0-1.811-0.284-2.754-0.853L56.6,27.299c-0.745-0.458-1.564-0.686-2.457-0.686
			c-0.773,0-1.438,0.128-1.994,0.381c-0.559,0.247-1.123,0.673-1.691,1.274c0.169-0.003,0.387,0.022,0.498,0.054
			c0.761-0.864,1.773-1.298,3.039-1.298c0.775,0,1.628,0.295,2.56,0.884c0.824,0.508,1.369,0.823,1.638,0.945
			c0.754,0.325,1.508,0.488,2.262,0.488c0.634,0,1.25-0.112,1.845-0.336c-0.765,0.671-1.369,1.356-1.816,2.058
			c-0.417,0.671-0.824,1.615-1.221,2.834c-0.109,0.386-0.337,1.107-0.684,2.164c-0.01,0.021-0.05,0.153-0.12,0.397
			c-0.009,0.051-0.064,0.223-0.163,0.518l-0.02,0.061l-0.342-0.009c-0.133,0.003-0.256-0.006-0.32-0.013
			c-1.002-0.108-1.33-0.45-1.391-0.452l-0.16,0.759c0.097,0.023,0.342,0.272,1.61,0.3c0.198,0.004,0.298,0.01,0.407,0l-0.199,0.619
			c-0.427,1.311-0.789,2.327-1.087,3.048c-0.328,0.803-0.675,1.479-1.042,2.027c-0.367,0.559-0.779,1.057-1.236,1.494
			C54,45.316,53.4,45.718,52.714,46.013c-0.694,0.294-1.38,0.441-2.054,0.441c-1.39,0-2.69-0.391-3.9-1.173
			c-0.018-0.012-0.034-0.024-0.051-0.036v0.434c0.659,0.391,1.337,0.69,2.038,0.891c0.73,0.208,1.486,0.312,2.27,0.312
			c1.34,0,2.591-0.28,3.752-0.838c1.181-0.559,2.133-1.32,2.858-2.285c0.566-0.752,1.012-1.544,1.34-2.377
			c0.317-0.853,0.63-2.037,0.938-3.551l0.148-0.716l2.234-0.534l-0.149,0.563c-0.724,2.743-1.087,4.846-1.087,6.31
			c0,0.802,0.134,1.549,0.403,2.24c0.268,0.701,0.625,1.25,1.071,1.646c0.436,0.396,0.914,0.594,1.428,0.594
			c0.526,0,1.002-0.234,1.429-0.701c0.437-0.478,0.735-1.112,0.894-1.905l-0.328-0.061c-0.437,1.513-1.121,2.271-2.054,2.271
			c-0.903,0-1.354-0.899-1.354-2.698c0-1.046,0.238-2.52,0.714-4.419c0.05-0.234,0.123-0.534,0.223-0.899
			c0.168-0.742,0.273-1.189,0.313-1.342c0.179-0.833,0.328-1.422,0.447-1.768H64.4c0.615,0,1.2,0.315,1.757,0.945l0.297-0.244
			c-0.337-0.407-0.669-0.696-0.997-0.869c-0.308-0.163-0.68-0.244-1.117-0.244l0.165-0.549c0.436-1.544,0.888-2.829,1.354-3.855
			c0.467-1.036,0.943-1.829,1.429-2.377c0.477-0.539,0.953-0.808,1.429-0.808c0.417,0,0.63,0.259,0.64,0.777l0.015,0.365
			c0.01,0.224,0.089,0.417,0.238,0.58c0.13,0.163,0.308,0.244,0.537,0.244c0.228,0,0.417-0.087,0.565-0.26
			c0.138-0.172,0.208-0.371,0.208-0.594C70.92,29.209,70.841,28.935,70.682,28.701"/>
	</g>
	<g>
		<defs>
			<rect id="SVGID_23_" width="80" height="80"/>
		</defs>
		<clipPath id="SVGID_24_">
			<use xlink:href="#SVGID_23_"  overflow="visible"/>
		</clipPath>
		<path clip-path="url(#SVGID_24_)" fill="#FFFFFF" d="M71.078,28.9c-0.17-0.234-0.4-0.421-0.688-0.564
			c-0.29-0.132-0.613-0.198-0.972-0.198c-0.658,0-1.34,0.239-2.048,0.716c-0.708,0.478-1.4,1.153-2.078,2.027
			c-1.076,1.433-1.918,3.257-2.526,5.471l-2.302,0.595l0.135-0.686c0.309-1.615,0.633-2.946,0.972-3.992
			c0.339-1.047,0.688-1.819,1.047-2.316c0.348-0.488,0.747-0.874,1.196-1.159c0.437-0.284,0.902-0.426,1.39-0.426h0.239V28
			c-0.05-0.01-0.135-0.015-0.255-0.015c-0.339,0-0.887,0.163-1.644,0.488c-0.668,0.285-1.136,0.457-1.405,0.518
			c-0.338,0.091-0.718,0.137-1.136,0.137c-0.897,0-1.819-0.284-2.765-0.853l-1.301-0.777c-0.747-0.457-1.569-0.686-2.465-0.686
			c-0.778,0-1.446,0.127-2.003,0.381c-0.562,0.247-1.128,0.673-1.699,1.274c0.169-0.003,0.389,0.022,0.501,0.054
			c0.764-0.864,1.781-1.298,3.051-1.298c0.778,0,1.634,0.295,2.571,0.884c0.827,0.509,1.375,0.823,1.644,0.945
			c0.757,0.326,1.514,0.488,2.272,0.488c0.637,0,1.255-0.112,1.852-0.336c-0.767,0.671-1.375,1.356-1.823,2.058
			c-0.419,0.67-0.827,1.615-1.226,2.834c-0.109,0.386-0.338,1.107-0.687,2.164c-0.01,0.021-0.05,0.153-0.12,0.396
			c-0.01,0.051-0.065,0.224-0.165,0.518l-0.02,0.06l-0.343-0.009c-0.134,0.003-0.257-0.006-0.322-0.013
			c-1.006-0.108-1.336-0.45-1.396-0.452l-0.161,0.758c0.098,0.023,0.343,0.273,1.617,0.301c0.199,0.004,0.298,0.01,0.408,0
			l-0.2,0.619c-0.428,1.311-0.792,2.327-1.091,3.048c-0.328,0.803-0.677,1.478-1.046,2.027c-0.369,0.559-0.782,1.057-1.24,1.493
			c-0.518,0.508-1.121,0.91-1.809,1.204c-0.697,0.295-1.385,0.442-2.062,0.442c-1.396,0-2.7-0.391-3.917-1.174
			c-0.017-0.011-0.033-0.024-0.051-0.036v0.433c0.662,0.392,1.344,0.691,2.047,0.891c0.733,0.209,1.493,0.313,2.28,0.313
			c1.345,0,2.601-0.28,3.767-0.838c1.186-0.559,2.142-1.321,2.87-2.285c0.568-0.752,1.016-1.544,1.345-2.377
			c0.319-0.853,0.633-2.037,0.942-3.551l0.149-0.716l2.242-0.533l-0.149,0.563c-0.728,2.743-1.091,4.847-1.091,6.31
			c0,0.802,0.135,1.549,0.404,2.24c0.269,0.701,0.627,1.25,1.076,1.646c0.438,0.396,0.917,0.595,1.435,0.595
			c0.528,0,1.006-0.234,1.435-0.702c0.438-0.477,0.737-1.112,0.897-1.904l-0.329-0.061c-0.439,1.514-1.126,2.271-2.063,2.271
			c-0.906,0-1.36-0.899-1.36-2.697c0-1.046,0.239-2.519,0.718-4.419c0.049-0.234,0.124-0.534,0.224-0.899
			c0.169-0.742,0.275-1.189,0.314-1.342c0.18-0.833,0.329-1.422,0.448-1.768h0.165c0.617,0,1.205,0.315,1.763,0.945l0.299-0.244
			c-0.339-0.406-0.673-0.696-1.002-0.869c-0.308-0.162-0.683-0.244-1.121-0.244l0.165-0.549c0.438-1.544,0.892-2.83,1.36-3.855
			c0.468-1.036,0.946-1.829,1.435-2.377c0.479-0.539,0.957-0.807,1.435-0.807c0.418,0,0.632,0.259,0.642,0.777l0.015,0.365
			c0.009,0.224,0.089,0.417,0.238,0.579c0.13,0.163,0.309,0.245,0.539,0.245c0.229,0,0.419-0.087,0.568-0.26
			c0.139-0.172,0.209-0.371,0.209-0.594C71.316,29.408,71.236,29.133,71.078,28.9"/>
	</g>
	<g>
		<defs>
			<rect id="SVGID_25_" width="80" height="80"/>
		</defs>
		<clipPath id="SVGID_26_">
			<use xlink:href="#SVGID_25_"  overflow="visible"/>
		</clipPath>
		<path clip-path="url(#SVGID_26_)" fill="#152C52" d="M64.321,48.23c-0.54,0-1.046-0.208-1.5-0.62
			c-0.458-0.405-0.83-0.971-1.103-1.683c-0.272-0.699-0.411-1.465-0.411-2.276c0-1.465,0.368-3.597,1.095-6.334l0.107-0.404
			l-2.019,0.481l-0.137,0.654c-0.308,1.511-0.627,2.711-0.945,3.565c-0.331,0.839-0.788,1.647-1.359,2.403
			c-0.734,0.973-1.712,1.752-2.906,2.315c-1.174,0.562-2.455,0.848-3.809,0.848c-0.792,0-1.568-0.106-2.306-0.316
			c-0.701-0.2-1.398-0.503-2.07-0.901l-0.048-0.029v-0.675l0.154,0.103l0.051,0.036c1.193,0.767,2.492,1.157,3.862,1.157
			c0.661,0,1.342-0.146,2.024-0.434c0.672-0.289,1.271-0.687,1.777-1.184c0.452-0.431,0.864-0.927,1.227-1.477
			c0.364-0.542,0.713-1.218,1.037-2.01c0.297-0.716,0.663-1.739,1.088-3.041l0.157-0.484c-0.047,0-0.098-0.002-0.161-0.003
			l-0.112-0.003c-1.078-0.024-1.437-0.204-1.591-0.282c-0.019-0.01-0.034-0.018-0.045-0.021l-0.089-0.025l0.015-0.092l0.178-0.839
			l0.083,0.003c0.039,0.002,0.07,0.02,0.126,0.055c0.151,0.094,0.504,0.314,1.278,0.397c0.028,0.003,0.126,0.013,0.254,0.013
			l0.055-0.001l0.275,0.008c0.096-0.285,0.149-0.453,0.158-0.496c0.101-0.355,0.119-0.402,0.128-0.422
			c0.341-1.035,0.572-1.762,0.681-2.146c0.4-1.225,0.816-2.186,1.237-2.86c0.382-0.598,0.885-1.192,1.497-1.768
			c-0.468,0.131-0.953,0.197-1.443,0.197c-0.767,0-1.545-0.167-2.311-0.496c-0.274-0.124-0.831-0.444-1.657-0.951
			c-0.917-0.577-1.764-0.87-2.519-0.87c-1.233,0-2.235,0.426-2.977,1.264l-0.041,0.047l-0.06-0.017
			c-0.087-0.025-0.279-0.05-0.446-0.05l-0.261,0.004l0.163-0.171c0.579-0.61,1.161-1.046,1.73-1.297
			c0.568-0.258,1.255-0.389,2.043-0.389c0.91,0,1.758,0.236,2.518,0.7l1.299,0.777c0.926,0.557,1.84,0.839,2.714,0.839
			c0.409,0,0.782-0.045,1.11-0.134c0.267-0.06,0.733-0.233,1.392-0.514c0.777-0.333,1.327-0.495,1.683-0.495
			c0.127,0,0.216,0.006,0.273,0.017l0.08,0.016v0.546h-0.339c-0.466,0-0.915,0.138-1.336,0.411
			c-0.436,0.277-0.829,0.657-1.169,1.133c-0.351,0.487-0.699,1.257-1.033,2.289c-0.337,1.04-0.663,2.38-0.968,3.98l-0.105,0.532
			l2.094-0.54c0.607-2.192,1.458-4.025,2.527-5.449c0.682-0.879,1.388-1.568,2.102-2.049c0.721-0.487,1.428-0.733,2.103-0.733
			c0.371,0,0.711,0.07,1.012,0.207c0.305,0.151,0.549,0.351,0.727,0.596c0.172,0.252,0.258,0.548,0.258,0.881
			c0,0.246-0.077,0.466-0.231,0.656c-0.17,0.198-0.387,0.296-0.645,0.296c-0.26,0-0.467-0.095-0.616-0.281
			c-0.16-0.174-0.25-0.39-0.26-0.637l-0.015-0.366c-0.011-0.611-0.316-0.683-0.544-0.683c-0.446,0-0.905,0.261-1.36,0.775
			c-0.48,0.538-0.957,1.33-1.419,2.352c-0.465,1.019-0.921,2.311-1.356,3.842l-0.127,0.424c0.397,0.016,0.745,0.1,1.035,0.253
			c0.338,0.178,0.686,0.479,1.031,0.893l0.064,0.077l-0.451,0.367l-0.063-0.071c-0.536-0.605-1.104-0.911-1.69-0.911h-0.093
			c-0.114,0.348-0.257,0.915-0.423,1.689c-0.041,0.155-0.143,0.593-0.314,1.342c-0.099,0.363-0.174,0.664-0.224,0.898
			C63.241,42.525,63,44.004,63,45.038c0,1.724,0.424,2.598,1.261,2.598c0.883,0,1.545-0.74,1.968-2.199l0.025-0.086l0.516,0.096
			l-0.02,0.098c-0.162,0.806-0.472,1.463-0.92,1.953C65.382,47.983,64.875,48.23,64.321,48.23"/>
	</g>
	<g>
		<defs>
			<rect id="SVGID_27_" width="80" height="80"/>
		</defs>
		<clipPath id="SVGID_28_">
			<use xlink:href="#SVGID_27_"  overflow="visible"/>
		</clipPath>
		<path clip-path="url(#SVGID_28_)" fill="#FFFFFF" d="M71.078,28.9c-0.17-0.234-0.4-0.421-0.688-0.564
			c-0.29-0.132-0.613-0.198-0.972-0.198c-0.658,0-1.34,0.239-2.048,0.716c-0.708,0.478-1.4,1.153-2.078,2.027
			c-1.076,1.433-1.918,3.257-2.526,5.471l-2.302,0.595l0.135-0.686c0.309-1.615,0.633-2.946,0.972-3.992
			c0.339-1.047,0.688-1.819,1.047-2.316c0.348-0.488,0.747-0.874,1.196-1.159c0.437-0.284,0.902-0.426,1.39-0.426h0.239V28
			c-0.05-0.01-0.135-0.015-0.255-0.015c-0.339,0-0.887,0.163-1.644,0.488c-0.668,0.285-1.136,0.457-1.405,0.518
			c-0.338,0.091-0.718,0.137-1.136,0.137c-0.897,0-1.819-0.284-2.765-0.853l-1.301-0.777c-0.747-0.457-1.569-0.686-2.465-0.686
			c-0.778,0-1.446,0.127-2.003,0.381c-0.562,0.247-1.128,0.673-1.699,1.274c0.169-0.003,0.389,0.022,0.501,0.054
			c0.764-0.864,1.781-1.298,3.051-1.298c0.778,0,1.634,0.295,2.571,0.884c0.827,0.509,1.375,0.823,1.644,0.945
			c0.757,0.326,1.514,0.488,2.272,0.488c0.637,0,1.255-0.112,1.852-0.336c-0.767,0.671-1.375,1.356-1.823,2.058
			c-0.419,0.67-0.827,1.615-1.226,2.834c-0.109,0.386-0.338,1.107-0.687,2.164c-0.01,0.021-0.05,0.153-0.12,0.396
			c-0.01,0.051-0.065,0.224-0.165,0.518l-0.02,0.06l-0.343-0.009c-0.134,0.003-0.257-0.006-0.322-0.013
			c-1.006-0.108-1.336-0.45-1.396-0.452l-0.161,0.758c0.098,0.023,0.343,0.273,1.617,0.301c0.199,0.004,0.298,0.01,0.408,0
			l-0.2,0.619c-0.428,1.311-0.792,2.327-1.091,3.048c-0.328,0.803-0.677,1.478-1.046,2.027c-0.369,0.559-0.782,1.057-1.24,1.493
			c-0.518,0.508-1.121,0.91-1.809,1.204c-0.697,0.295-1.385,0.442-2.062,0.442c-1.396,0-2.7-0.391-3.917-1.174
			c-0.017-0.011-0.033-0.024-0.051-0.036v0.433c0.662,0.392,1.344,0.691,2.047,0.891c0.733,0.209,1.493,0.313,2.28,0.313
			c1.345,0,2.601-0.28,3.767-0.838c1.186-0.559,2.142-1.321,2.87-2.285c0.568-0.752,1.016-1.544,1.345-2.377
			c0.319-0.853,0.633-2.037,0.942-3.551l0.149-0.716l2.242-0.533l-0.149,0.563c-0.728,2.743-1.091,4.847-1.091,6.31
			c0,0.802,0.135,1.549,0.404,2.24c0.269,0.701,0.627,1.25,1.076,1.646c0.438,0.396,0.917,0.595,1.435,0.595
			c0.528,0,1.006-0.234,1.435-0.702c0.438-0.477,0.737-1.112,0.897-1.904l-0.329-0.061c-0.439,1.514-1.126,2.271-2.063,2.271
			c-0.906,0-1.36-0.899-1.36-2.697c0-1.046,0.239-2.519,0.718-4.419c0.049-0.234,0.124-0.534,0.224-0.899
			c0.169-0.742,0.275-1.189,0.314-1.342c0.18-0.833,0.329-1.422,0.448-1.768h0.165c0.617,0,1.205,0.315,1.763,0.945l0.299-0.244
			c-0.339-0.406-0.673-0.696-1.002-0.869c-0.308-0.162-0.683-0.244-1.121-0.244l0.165-0.549c0.438-1.544,0.892-2.83,1.36-3.855
			c0.468-1.036,0.946-1.829,1.435-2.377c0.479-0.539,0.957-0.807,1.435-0.807c0.418,0,0.632,0.259,0.642,0.777l0.015,0.365
			c0.009,0.224,0.089,0.417,0.238,0.579c0.13,0.163,0.309,0.245,0.539,0.245c0.229,0,0.419-0.087,0.568-0.26
			c0.139-0.172,0.209-0.371,0.209-0.594C71.316,29.408,71.236,29.133,71.078,28.9"/>
	</g>
	<g>
		<defs>
			<rect id="SVGID_29_" width="80" height="80"/>
		</defs>
		<clipPath id="SVGID_30_">
			<use xlink:href="#SVGID_29_"  overflow="visible"/>
		</clipPath>
		<rect x="26.758" y="51.33" clip-path="url(#SVGID_30_)" fill="#FFFFFF" width="1.241" height="0.355"/>
	</g>
	<g>
		<defs>
			<rect id="SVGID_31_" width="80" height="80"/>
		</defs>
		<clipPath id="SVGID_32_">
			<use xlink:href="#SVGID_31_"  overflow="visible"/>
		</clipPath>
		<path clip-path="url(#SVGID_32_)" fill="#FFFFFF" d="M30.056,52.646c-0.276,0-0.494-0.087-0.654-0.263
			c-0.16-0.175-0.24-0.414-0.24-0.716v-0.218c0-0.287,0.078-0.518,0.235-0.691c0.157-0.172,0.371-0.259,0.643-0.259
			c0.272,0,0.486,0.088,0.641,0.265c0.156,0.177,0.234,0.411,0.234,0.705v0.197h-1.357v0.043c0,0.184,0.045,0.333,0.137,0.447
			c0.091,0.113,0.214,0.169,0.37,0.169c0.113,0,0.207-0.026,0.282-0.078c0.076-0.053,0.129-0.126,0.159-0.221h0.384
			c-0.037,0.181-0.126,0.33-0.269,0.446C30.477,52.588,30.289,52.646,30.056,52.646 M29.557,51.374h0.965v-0.006
			c0-0.157-0.045-0.288-0.134-0.394c-0.089-0.105-0.204-0.157-0.347-0.157c-0.144,0-0.261,0.052-0.351,0.157
			c-0.089,0.106-0.134,0.237-0.134,0.394V51.374z"/>
	</g>
	<g>
		<defs>
			<rect id="SVGID_33_" width="80" height="80"/>
		</defs>
		<clipPath id="SVGID_34_">
			<use xlink:href="#SVGID_33_"  overflow="visible"/>
		</clipPath>
		<path clip-path="url(#SVGID_34_)" fill="#FFFFFF" d="M31.399,52.611v-2.076h0.392v0.283h0.014
			c0.045-0.084,0.118-0.157,0.221-0.222c0.102-0.064,0.23-0.095,0.384-0.095c0.219,0,0.396,0.067,0.532,0.203
			c0.135,0.135,0.203,0.327,0.203,0.573v1.334h-0.396v-1.258c0-0.165-0.043-0.288-0.13-0.373c-0.087-0.085-0.202-0.127-0.345-0.127
			c-0.156,0-0.275,0.048-0.356,0.144s-0.122,0.217-0.122,0.366v1.249C31.795,52.611,31.399,52.611,31.399,52.611z"/>
	</g>
	<g>
		<defs>
			<rect id="SVGID_35_" width="80" height="80"/>
		</defs>
		<clipPath id="SVGID_36_">
			<use xlink:href="#SVGID_35_"  overflow="visible"/>
		</clipPath>
		<path clip-path="url(#SVGID_36_)" fill="#FFFFFF" d="M35.324,53.073c0.156,0,0.28-0.043,0.372-0.131
			c0.092-0.088,0.138-0.208,0.138-0.362V52.26h-0.014c-0.042,0.094-0.117,0.173-0.224,0.235c-0.107,0.063-0.229,0.094-0.367,0.094
			c-0.247,0-0.445-0.085-0.594-0.254c-0.149-0.169-0.223-0.407-0.223-0.713v-0.158c0-0.303,0.074-0.539,0.223-0.708
			c0.149-0.169,0.348-0.253,0.594-0.253c0.136,0,0.259,0.031,0.366,0.093c0.108,0.062,0.186,0.14,0.235,0.234h0.013v-0.295h0.387
			v2.058c0,0.105-0.017,0.202-0.05,0.291c-0.032,0.088-0.077,0.163-0.135,0.225c-0.057,0.061-0.124,0.112-0.202,0.155
			c-0.077,0.042-0.159,0.074-0.247,0.094c-0.088,0.019-0.179,0.03-0.275,0.03c-0.264,0-0.468-0.057-0.614-0.169
			c-0.145-0.113-0.229-0.261-0.251-0.445h0.398c0.019,0.085,0.071,0.157,0.155,0.214C35.093,53.044,35.198,53.073,35.324,53.073
			 M35.332,50.834c-0.163,0-0.29,0.057-0.381,0.17c-0.091,0.114-0.137,0.275-0.137,0.483v0.124c0,0.207,0.045,0.367,0.137,0.482
			c0.091,0.115,0.218,0.172,0.381,0.172c0.157,0,0.281-0.058,0.37-0.174c0.088-0.115,0.133-0.275,0.133-0.481v-0.124
			c0-0.201-0.045-0.36-0.136-0.478C35.608,50.892,35.486,50.834,35.332,50.834"/>
	</g>
	<g>
		<defs>
			<rect id="SVGID_37_" width="80" height="80"/>
		</defs>
		<clipPath id="SVGID_38_">
			<use xlink:href="#SVGID_37_"  overflow="visible"/>
		</clipPath>
		<path clip-path="url(#SVGID_38_)" fill="#FFFFFF" d="M37.641,50.499c0.286,0,0.509,0.091,0.669,0.273
			c0.159,0.182,0.239,0.418,0.239,0.708v0.175c0,0.297-0.08,0.537-0.238,0.718c-0.159,0.182-0.383,0.273-0.67,0.273
			c-0.288,0-0.513-0.09-0.674-0.273c-0.16-0.181-0.24-0.421-0.24-0.718v-0.173c0-0.291,0.08-0.527,0.241-0.709
			C37.129,50.59,37.353,50.499,37.641,50.499 M38.017,51.005c-0.088-0.12-0.214-0.179-0.378-0.179c-0.164,0-0.29,0.06-0.379,0.179
			c-0.089,0.12-0.133,0.281-0.133,0.484v0.159c0,0.202,0.044,0.364,0.133,0.484c0.089,0.121,0.215,0.181,0.379,0.181
			c0.166,0,0.292-0.06,0.379-0.18c0.087-0.12,0.131-0.282,0.131-0.486V51.49C38.149,51.287,38.105,51.125,38.017,51.005"/>
	</g>
	<g>
		<defs>
			<rect id="SVGID_39_" width="80" height="80"/>
		</defs>
		<clipPath id="SVGID_40_">
			<use xlink:href="#SVGID_39_"  overflow="visible"/>
		</clipPath>
		<path clip-path="url(#SVGID_40_)" fill="#FFFFFF" d="M39.776,50.503c0.135,0,0.256,0.03,0.361,0.089
			c0.105,0.06,0.183,0.138,0.235,0.235h0.014V49.78h0.398v2.831h-0.386v-0.316h-0.011c-0.056,0.108-0.138,0.192-0.244,0.253
			c-0.106,0.061-0.227,0.091-0.365,0.091c-0.26,0-0.461-0.088-0.604-0.264c-0.142-0.176-0.214-0.414-0.214-0.713V51.48
			c0-0.293,0.073-0.529,0.218-0.709C39.323,50.592,39.522,50.503,39.776,50.503 M39.862,50.838c-0.151,0-0.272,0.056-0.363,0.168
			c-0.091,0.112-0.137,0.275-0.137,0.488v0.158c0,0.211,0.047,0.373,0.138,0.485c0.091,0.112,0.214,0.169,0.366,0.169
			c0.163,0,0.29-0.057,0.383-0.171c0.093-0.113,0.14-0.274,0.14-0.481v-0.16c0-0.201-0.048-0.361-0.142-0.479
			C40.152,50.897,40.024,50.838,39.862,50.838"/>
	</g>
	<g>
		<defs>
			<rect id="SVGID_41_" width="80" height="80"/>
		</defs>
		<clipPath id="SVGID_42_">
			<use xlink:href="#SVGID_41_"  overflow="visible"/>
		</clipPath>
		<path clip-path="url(#SVGID_42_)" fill="#FFFFFF" d="M42.086,51.135c0-0.108,0.022-0.204,0.065-0.287
			c0.043-0.084,0.102-0.15,0.176-0.2c0.074-0.05,0.158-0.087,0.25-0.112c0.093-0.025,0.193-0.038,0.299-0.038
			c0.239,0,0.424,0.059,0.557,0.174c0.133,0.117,0.199,0.268,0.199,0.452H43.27c-0.007-0.089-0.042-0.165-0.106-0.227
			c-0.064-0.063-0.164-0.094-0.3-0.094c-0.118,0-0.214,0.026-0.286,0.077c-0.072,0.051-0.108,0.122-0.108,0.214
			c0,0.042,0.01,0.079,0.03,0.111c0.019,0.032,0.045,0.059,0.077,0.079c0.032,0.02,0.071,0.038,0.114,0.053
			c0.044,0.015,0.088,0.027,0.133,0.036c0.044,0.009,0.091,0.019,0.14,0.028c0.005,0,0.01,0.001,0.014,0.001
			c0.004,0.001,0.008,0.002,0.012,0.003c0.086,0.016,0.159,0.032,0.223,0.049c0.063,0.017,0.126,0.04,0.189,0.071
			c0.063,0.031,0.114,0.065,0.154,0.105c0.041,0.039,0.073,0.089,0.097,0.15c0.025,0.061,0.037,0.129,0.037,0.206
			c0,0.206-0.076,0.367-0.227,0.484c-0.152,0.116-0.357,0.174-0.616,0.174c-0.243,0-0.437-0.054-0.581-0.163
			c-0.145-0.108-0.217-0.255-0.217-0.441h0.388c0.013,0.091,0.058,0.163,0.134,0.216c0.076,0.053,0.178,0.08,0.304,0.08
			c0.139,0,0.245-0.028,0.318-0.085c0.073-0.057,0.109-0.129,0.109-0.216c0-0.036-0.005-0.067-0.015-0.095
			c-0.011-0.028-0.03-0.052-0.056-0.073c-0.027-0.021-0.051-0.038-0.074-0.051c-0.022-0.014-0.057-0.027-0.107-0.041
			c-0.049-0.013-0.086-0.023-0.114-0.029c-0.028-0.006-0.073-0.015-0.134-0.027c-0.009-0.002-0.016-0.003-0.019-0.004
			c-0.107-0.022-0.198-0.047-0.273-0.073c-0.076-0.027-0.148-0.062-0.216-0.106c-0.068-0.044-0.12-0.1-0.154-0.168
			C42.103,51.305,42.086,51.226,42.086,51.135"/>
	</g>
	<g>
		<defs>
			<rect id="SVGID_43_" width="80" height="80"/>
		</defs>
		<clipPath id="SVGID_44_">
			<use xlink:href="#SVGID_43_"  overflow="visible"/>
		</clipPath>
		<path clip-path="url(#SVGID_44_)" fill="#FFFFFF" d="M44.147,52.611v-2.076h0.392v0.268h0.02c0.037-0.081,0.101-0.152,0.194-0.211
			c0.093-0.06,0.205-0.09,0.338-0.09c0.156,0,0.284,0.03,0.384,0.09c0.1,0.06,0.169,0.143,0.209,0.251h0.018
			c0.041-0.096,0.117-0.177,0.227-0.243c0.111-0.066,0.247-0.098,0.407-0.098c0.217,0,0.386,0.062,0.509,0.187
			c0.122,0.125,0.183,0.294,0.183,0.508v1.414h-0.396V51.29c0-0.135-0.037-0.243-0.11-0.322c-0.073-0.079-0.176-0.119-0.31-0.119
			c-0.135,0-0.241,0.043-0.316,0.128c-0.076,0.085-0.113,0.199-0.113,0.341v1.294h-0.39v-1.294c0-0.153-0.037-0.269-0.112-0.349
			c-0.075-0.08-0.179-0.12-0.311-0.12c-0.123,0-0.225,0.041-0.306,0.122c-0.08,0.082-0.12,0.196-0.12,0.343v1.298L44.147,52.611
			L44.147,52.611z"/>
	</g>
	<g>
		<defs>
			<rect id="SVGID_45_" width="80" height="80"/>
		</defs>
		<clipPath id="SVGID_46_">
			<use xlink:href="#SVGID_45_"  overflow="visible"/>
		</clipPath>
		<path clip-path="url(#SVGID_46_)" fill="#FFFFFF" d="M48.744,52.355c-0.116,0.193-0.312,0.29-0.589,0.29
			c-0.202,0-0.366-0.058-0.49-0.172c-0.125-0.115-0.188-0.268-0.188-0.458c0-0.187,0.064-0.333,0.19-0.44
			c0.125-0.106,0.306-0.16,0.541-0.161h0.534V51.21c0-0.126-0.035-0.222-0.106-0.289c-0.07-0.067-0.17-0.101-0.3-0.101
			c-0.122,0-0.218,0.029-0.288,0.087c-0.071,0.058-0.11,0.136-0.119,0.235h-0.374c0.01-0.191,0.082-0.345,0.214-0.463
			c0.133-0.118,0.326-0.177,0.579-0.177c0.236,0,0.426,0.06,0.571,0.179c0.146,0.119,0.218,0.289,0.218,0.508v1.422h-0.38v-0.256
			H48.744z M48.271,52.331c0.135,0,0.248-0.038,0.337-0.114c0.089-0.076,0.134-0.174,0.134-0.293v-0.235h-0.479
			c-0.129,0-0.225,0.028-0.288,0.083c-0.064,0.055-0.096,0.129-0.096,0.222c0,0.108,0.038,0.191,0.114,0.249
			C48.069,52.302,48.162,52.331,48.271,52.331"/>
	</g>
	<g>
		<defs>
			<rect id="SVGID_47_" width="80" height="80"/>
		</defs>
		<clipPath id="SVGID_48_">
			<use xlink:href="#SVGID_47_"  overflow="visible"/>
		</clipPath>
		<path clip-path="url(#SVGID_48_)" fill="#FFFFFF" d="M50.524,53.073c0.156,0,0.281-0.043,0.373-0.131
			c0.092-0.088,0.138-0.208,0.138-0.362V52.26h-0.014c-0.042,0.094-0.117,0.173-0.224,0.235c-0.107,0.063-0.23,0.094-0.367,0.094
			c-0.247,0-0.445-0.085-0.594-0.254s-0.224-0.407-0.224-0.713v-0.158c0-0.303,0.075-0.539,0.224-0.708
			c0.149-0.169,0.347-0.253,0.594-0.253c0.136,0,0.259,0.031,0.366,0.093c0.108,0.062,0.186,0.14,0.234,0.234h0.014v-0.295h0.387
			v2.058c0,0.105-0.017,0.202-0.05,0.291c-0.032,0.088-0.077,0.163-0.135,0.225c-0.057,0.061-0.124,0.112-0.202,0.155
			c-0.077,0.042-0.159,0.074-0.247,0.094c-0.087,0.019-0.179,0.03-0.275,0.03c-0.263,0-0.468-0.057-0.613-0.169
			c-0.146-0.113-0.229-0.261-0.252-0.445h0.398c0.02,0.085,0.071,0.157,0.155,0.214C50.294,53.044,50.398,53.073,50.524,53.073
			 M50.532,50.834c-0.163,0-0.29,0.057-0.381,0.17c-0.091,0.114-0.137,0.275-0.137,0.483v0.124c0,0.207,0.045,0.367,0.137,0.482
			c0.091,0.115,0.218,0.172,0.381,0.172c0.158,0,0.281-0.058,0.369-0.174c0.089-0.115,0.133-0.275,0.133-0.481v-0.124
			c0-0.201-0.045-0.36-0.136-0.478C50.808,50.892,50.686,50.834,50.532,50.834"/>
	</g>
	<g>
		<defs>
			<rect id="SVGID_49_" width="80" height="80"/>
		</defs>
		<clipPath id="SVGID_50_">
			<use xlink:href="#SVGID_49_"  overflow="visible"/>
		</clipPath>
		<path clip-path="url(#SVGID_50_)" fill="#FFFFFF" d="M51.931,51.135c0-0.108,0.021-0.204,0.065-0.287
			c0.043-0.084,0.102-0.15,0.177-0.2c0.074-0.05,0.158-0.087,0.25-0.112c0.093-0.025,0.192-0.038,0.298-0.038
			c0.239,0,0.425,0.059,0.558,0.174c0.133,0.117,0.199,0.268,0.199,0.452h-0.362c-0.007-0.089-0.041-0.165-0.106-0.227
			c-0.064-0.063-0.164-0.094-0.301-0.094c-0.118,0-0.213,0.026-0.285,0.077c-0.072,0.051-0.109,0.122-0.109,0.214
			c0,0.042,0.01,0.079,0.03,0.111c0.02,0.032,0.046,0.059,0.078,0.079c0.032,0.02,0.07,0.038,0.114,0.053
			c0.044,0.015,0.089,0.027,0.133,0.036c0.044,0.009,0.091,0.019,0.14,0.028c0.005,0,0.009,0.001,0.014,0.001
			c0.004,0.001,0.008,0.002,0.011,0.003c0.086,0.016,0.16,0.032,0.223,0.049c0.063,0.017,0.126,0.04,0.19,0.071
			c0.063,0.031,0.114,0.065,0.154,0.105c0.04,0.039,0.072,0.089,0.097,0.15c0.025,0.061,0.037,0.129,0.037,0.206
			c0,0.206-0.076,0.367-0.227,0.484c-0.152,0.116-0.357,0.174-0.616,0.174c-0.243,0-0.437-0.054-0.581-0.163
			c-0.145-0.108-0.216-0.255-0.216-0.441h0.388c0.013,0.091,0.057,0.163,0.134,0.216c0.076,0.053,0.178,0.08,0.304,0.08
			c0.138,0,0.245-0.028,0.318-0.085c0.073-0.057,0.109-0.129,0.109-0.216c0-0.036-0.005-0.067-0.016-0.095
			c-0.011-0.028-0.029-0.052-0.056-0.073c-0.027-0.021-0.052-0.038-0.074-0.051c-0.022-0.014-0.058-0.027-0.107-0.041
			c-0.049-0.013-0.087-0.023-0.114-0.029c-0.028-0.006-0.072-0.015-0.134-0.027c-0.009-0.002-0.016-0.003-0.02-0.004
			c-0.106-0.022-0.197-0.047-0.272-0.073c-0.076-0.027-0.148-0.062-0.216-0.106c-0.068-0.044-0.12-0.1-0.155-0.168
			C51.948,51.305,51.931,51.226,51.931,51.135"/>
	</g>
	<g>
		<defs>
			<rect id="SVGID_51_" width="80" height="80"/>
		</defs>
		<clipPath id="SVGID_52_">
			<use xlink:href="#SVGID_51_"  overflow="visible"/>
		</clipPath>
		<path clip-path="url(#SVGID_52_)" fill="#FFFFFF" d="M54.82,50.499c0.286,0,0.51,0.091,0.669,0.273
			c0.159,0.182,0.239,0.418,0.239,0.708v0.175c0,0.297-0.08,0.537-0.239,0.718c-0.159,0.182-0.382,0.273-0.67,0.273
			c-0.288,0-0.513-0.09-0.674-0.273c-0.16-0.181-0.24-0.421-0.24-0.718v-0.173c0-0.291,0.08-0.527,0.241-0.709
			C54.309,50.59,54.533,50.499,54.82,50.499 M55.196,51.005c-0.088-0.12-0.214-0.179-0.378-0.179s-0.291,0.06-0.379,0.179
			c-0.089,0.12-0.133,0.281-0.133,0.484v0.159c0,0.202,0.044,0.364,0.133,0.484c0.088,0.121,0.215,0.181,0.379,0.181
			c0.166,0,0.292-0.06,0.379-0.18c0.087-0.12,0.131-0.282,0.131-0.486V51.49C55.329,51.287,55.285,51.125,55.196,51.005"/>
	</g>
	<g>
		<defs>
			<rect id="SVGID_53_" width="80" height="80"/>
		</defs>
		<clipPath id="SVGID_54_">
			<use xlink:href="#SVGID_53_"  overflow="visible"/>
		</clipPath>
		<path clip-path="url(#SVGID_54_)" fill="#FFFFFF" d="M57.222,52.643c-0.13,0-0.246-0.029-0.347-0.085
			c-0.101-0.057-0.18-0.133-0.238-0.231h-0.014v0.997h-0.398v-2.789h0.387v0.302h0.014c0.06-0.103,0.143-0.184,0.248-0.244
			c0.105-0.06,0.225-0.089,0.36-0.089c0.238,0,0.431,0.087,0.58,0.26c0.15,0.174,0.224,0.412,0.224,0.715v0.187
			c0,0.302-0.075,0.541-0.225,0.715C57.663,52.555,57.466,52.643,57.222,52.643 M57.147,52.308c0.15,0,0.269-0.058,0.357-0.175
			c0.088-0.116,0.132-0.281,0.132-0.493v-0.148c0-0.207-0.043-0.369-0.131-0.484c-0.087-0.116-0.21-0.174-0.366-0.174
			c-0.16,0-0.286,0.059-0.38,0.178c-0.094,0.119-0.14,0.279-0.14,0.478v0.15c0,0.204,0.048,0.367,0.142,0.487
			C56.855,52.248,56.984,52.308,57.147,52.308"/>
	</g>
	<g>
		<defs>
			<rect id="SVGID_55_" width="80" height="80"/>
		</defs>
		<clipPath id="SVGID_56_">
			<use xlink:href="#SVGID_55_"  overflow="visible"/>
		</clipPath>
		<rect x="58.543" y="49.78" clip-path="url(#SVGID_56_)" fill="#FFFFFF" width="0.396" height="2.831"/>
	</g>
	<g>
		<defs>
			<rect id="SVGID_57_" width="80" height="80"/>
		</defs>
		<clipPath id="SVGID_58_">
			<use xlink:href="#SVGID_57_"  overflow="visible"/>
		</clipPath>
		<path clip-path="url(#SVGID_58_)" fill="#FFFFFF" d="M60.337,52.646c-0.275,0-0.493-0.087-0.654-0.263
			c-0.16-0.175-0.24-0.414-0.24-0.716v-0.218c0-0.287,0.079-0.518,0.235-0.691c0.157-0.172,0.372-0.259,0.643-0.259
			s0.486,0.088,0.641,0.265c0.155,0.177,0.234,0.411,0.234,0.705v0.197h-1.357v0.043c0,0.184,0.045,0.333,0.137,0.447
			c0.091,0.113,0.214,0.169,0.37,0.169c0.113,0,0.207-0.026,0.282-0.078c0.076-0.053,0.129-0.126,0.158-0.221h0.385
			c-0.037,0.181-0.126,0.33-0.269,0.446C60.76,52.588,60.571,52.646,60.337,52.646 M59.839,51.374h0.965v-0.006
			c0-0.157-0.044-0.288-0.134-0.394c-0.089-0.105-0.205-0.157-0.347-0.157c-0.145,0-0.261,0.052-0.351,0.157
			c-0.089,0.106-0.134,0.237-0.134,0.394V51.374z"/>
	</g>
	<g>
		<defs>
			<rect id="SVGID_59_" width="80" height="80"/>
		</defs>
		<clipPath id="SVGID_60_">
			<use xlink:href="#SVGID_59_"  overflow="visible"/>
		</clipPath>
		<polygon clip-path="url(#SVGID_60_)" fill="#FFFFFF" points="62.113,52.611 61.399,50.535 61.821,50.535 62.325,52.168 
			62.339,52.168 62.883,50.535 63.287,50.535 62.55,52.611 		"/>
	</g>
	<g>
		<defs>
			<rect id="SVGID_61_" width="80" height="80"/>
		</defs>
		<clipPath id="SVGID_62_">
			<use xlink:href="#SVGID_61_"  overflow="visible"/>
		</clipPath>
		<path clip-path="url(#SVGID_62_)" fill="#FFFFFF" d="M64.381,52.646c-0.275,0-0.493-0.087-0.654-0.263
			c-0.16-0.175-0.24-0.414-0.24-0.716v-0.218c0-0.287,0.079-0.518,0.235-0.691c0.157-0.172,0.372-0.259,0.643-0.259
			s0.486,0.088,0.641,0.265c0.155,0.177,0.234,0.411,0.234,0.705v0.197h-1.357v0.043c0,0.184,0.045,0.333,0.137,0.447
			c0.091,0.113,0.214,0.169,0.369,0.169c0.113,0,0.206-0.026,0.282-0.078c0.076-0.053,0.129-0.126,0.158-0.221h0.385
			c-0.037,0.181-0.126,0.33-0.269,0.446C64.803,52.588,64.615,52.646,64.381,52.646 M63.883,51.374h0.965v-0.006
			c0-0.157-0.044-0.288-0.134-0.394c-0.089-0.105-0.205-0.157-0.347-0.157c-0.145,0-0.261,0.052-0.351,0.157
			c-0.089,0.106-0.134,0.237-0.134,0.394V51.374z"/>
	</g>
	<g>
		<defs>
			<rect id="SVGID_63_" width="80" height="80"/>
		</defs>
		<clipPath id="SVGID_64_">
			<use xlink:href="#SVGID_63_"  overflow="visible"/>
		</clipPath>
		<rect x="65.738" y="49.78" clip-path="url(#SVGID_64_)" fill="#FFFFFF" width="0.396" height="2.831"/>
	</g>
	<g>
		<defs>
			<rect id="SVGID_65_" width="80" height="80"/>
		</defs>
		<clipPath id="SVGID_66_">
			<use xlink:href="#SVGID_65_"  overflow="visible"/>
		</clipPath>
		<path clip-path="url(#SVGID_66_)" fill="#FFFFFF" d="M66.643,51.135c0-0.108,0.021-0.204,0.065-0.287
			c0.043-0.084,0.102-0.15,0.176-0.2c0.075-0.05,0.158-0.087,0.25-0.112c0.093-0.025,0.193-0.038,0.299-0.038
			c0.239,0,0.425,0.059,0.557,0.174c0.133,0.117,0.199,0.268,0.199,0.452h-0.362c-0.007-0.089-0.042-0.165-0.106-0.227
			c-0.064-0.063-0.164-0.094-0.301-0.094c-0.118,0-0.213,0.026-0.286,0.077c-0.072,0.051-0.108,0.122-0.108,0.214
			c0,0.042,0.01,0.079,0.03,0.111c0.02,0.032,0.046,0.059,0.077,0.079c0.032,0.02,0.071,0.038,0.114,0.053
			c0.044,0.015,0.088,0.027,0.133,0.036c0.044,0.009,0.091,0.019,0.14,0.028c0.005,0,0.009,0.001,0.014,0.001
			c0.004,0.001,0.008,0.002,0.011,0.003c0.086,0.016,0.16,0.032,0.223,0.049c0.063,0.017,0.126,0.04,0.189,0.071
			c0.063,0.031,0.114,0.065,0.155,0.105c0.04,0.039,0.072,0.089,0.097,0.15c0.024,0.061,0.036,0.129,0.036,0.206
			c0,0.206-0.075,0.367-0.227,0.484c-0.152,0.116-0.357,0.174-0.616,0.174c-0.243,0-0.436-0.054-0.581-0.163
			c-0.145-0.108-0.217-0.255-0.217-0.441h0.388c0.013,0.091,0.057,0.163,0.134,0.216c0.076,0.053,0.177,0.08,0.303,0.08
			c0.139,0,0.246-0.028,0.318-0.085c0.073-0.057,0.109-0.129,0.109-0.216c0-0.036-0.005-0.067-0.016-0.095
			c-0.011-0.028-0.029-0.052-0.056-0.073c-0.027-0.021-0.052-0.038-0.074-0.051c-0.022-0.014-0.057-0.027-0.106-0.041
			c-0.049-0.013-0.087-0.023-0.114-0.029c-0.028-0.006-0.073-0.015-0.134-0.027c-0.008-0.002-0.015-0.003-0.019-0.004
			c-0.106-0.022-0.198-0.047-0.272-0.073c-0.076-0.027-0.148-0.062-0.216-0.106c-0.068-0.044-0.12-0.1-0.155-0.168
			C66.66,51.305,66.643,51.226,66.643,51.135"/>
	</g>
	<g>
		<defs>
			<rect id="SVGID_67_" width="80" height="80"/>
		</defs>
		<clipPath id="SVGID_68_">
			<use xlink:href="#SVGID_67_"  overflow="visible"/>
		</clipPath>
		<path clip-path="url(#SVGID_68_)" fill="#FFFFFF" d="M69.512,52.646c-0.275,0-0.493-0.087-0.654-0.263
			c-0.16-0.175-0.24-0.414-0.24-0.716v-0.218c0-0.287,0.078-0.518,0.235-0.691c0.157-0.172,0.371-0.259,0.643-0.259
			c0.271,0,0.486,0.088,0.641,0.265c0.156,0.177,0.234,0.411,0.234,0.705v0.197h-1.357v0.043c0,0.184,0.046,0.333,0.137,0.447
			c0.091,0.113,0.214,0.169,0.37,0.169c0.113,0,0.207-0.026,0.283-0.078c0.075-0.053,0.128-0.126,0.158-0.221h0.385
			c-0.037,0.181-0.126,0.33-0.269,0.446C69.935,52.588,69.746,52.646,69.512,52.646 M69.014,51.374h0.965v-0.006
			c0-0.157-0.044-0.288-0.134-0.394c-0.089-0.105-0.205-0.157-0.347-0.157c-0.145,0-0.261,0.052-0.351,0.157
			c-0.089,0.106-0.134,0.237-0.134,0.394V51.374z"/>
	</g>
	<g>
		<defs>
			<rect id="SVGID_69_" width="80" height="80"/>
		</defs>
		<clipPath id="SVGID_70_">
			<use xlink:href="#SVGID_69_"  overflow="visible"/>
		</clipPath>
		<polygon clip-path="url(#SVGID_70_)" points="9.808,44.228 9.128,45.018 9.842,46.077 9.495,46.077 8.922,45.209 8.707,45.446 
			8.707,46.077 8.428,46.077 8.428,44.228 8.707,44.228 8.707,45.101 8.72,45.101 9.488,44.228 		"/>
	</g>
	<g>
		<defs>
			<rect id="SVGID_71_" width="80" height="80"/>
		</defs>
		<clipPath id="SVGID_72_">
			<use xlink:href="#SVGID_71_"  overflow="visible"/>
		</clipPath>
		<path clip-path="url(#SVGID_72_)" d="M10.56,44.625c0.197,0,0.35,0.063,0.46,0.188c0.11,0.125,0.165,0.287,0.165,0.487v0.12
			c0,0.204-0.055,0.369-0.164,0.494s-0.263,0.188-0.46,0.188c-0.199,0-0.353-0.063-0.463-0.188c-0.11-0.125-0.165-0.29-0.165-0.494
			v-0.119c0-0.2,0.055-0.362,0.166-0.488C10.208,44.688,10.362,44.625,10.56,44.625 M10.819,44.973
			c-0.061-0.082-0.147-0.123-0.26-0.123c-0.113,0-0.2,0.041-0.261,0.123c-0.061,0.082-0.091,0.193-0.091,0.333v0.11
			c0,0.138,0.03,0.25,0.091,0.333c0.061,0.084,0.148,0.125,0.261,0.125c0.114,0,0.201-0.041,0.261-0.124
			c0.06-0.083,0.09-0.194,0.09-0.333v-0.11C10.909,45.166,10.879,45.055,10.819,44.973"/>
	</g>
	<g>
		<defs>
			<rect id="SVGID_73_" width="80" height="80"/>
		</defs>
		<clipPath id="SVGID_74_">
			<use xlink:href="#SVGID_73_"  overflow="visible"/>
		</clipPath>
		<path clip-path="url(#SVGID_74_)" d="M11.523,46.077V44.65h0.27v0.195h0.009c0.03-0.058,0.081-0.109,0.152-0.152
			c0.071-0.044,0.158-0.066,0.264-0.066c0.151,0,0.272,0.046,0.365,0.139c0.093,0.093,0.14,0.225,0.14,0.394v0.917h-0.272v-0.865
			c0-0.113-0.03-0.198-0.089-0.257c-0.06-0.059-0.138-0.087-0.237-0.087c-0.108,0-0.189,0.033-0.245,0.099
			c-0.056,0.066-0.084,0.15-0.084,0.251v0.859H11.523z"/>
	</g>
	<g>
		<defs>
			<rect id="SVGID_75_" width="80" height="80"/>
		</defs>
		<clipPath id="SVGID_76_">
			<use xlink:href="#SVGID_75_"  overflow="visible"/>
		</clipPath>
		<path clip-path="url(#SVGID_76_)" d="M13.604,44.628c0.093,0,0.176,0.021,0.248,0.062c0.073,0.041,0.126,0.095,0.161,0.161h0.01
			V44.13h0.273v1.947H14.03V45.86h-0.008c-0.039,0.075-0.095,0.132-0.167,0.175c-0.073,0.042-0.157,0.063-0.251,0.063
			c-0.179,0-0.317-0.061-0.415-0.182c-0.098-0.121-0.146-0.284-0.146-0.49V45.3c0-0.202,0.05-0.364,0.15-0.487
			C13.292,44.689,13.429,44.628,13.604,44.628 M13.663,44.858c-0.104,0-0.187,0.038-0.25,0.116
			c-0.062,0.077-0.094,0.189-0.094,0.334v0.109c0,0.146,0.031,0.257,0.095,0.334s0.147,0.116,0.252,0.116
			c0.112,0,0.2-0.04,0.263-0.118c0.064-0.078,0.096-0.188,0.096-0.331v-0.11c0-0.137-0.032-0.247-0.098-0.329
			C13.862,44.898,13.774,44.858,13.663,44.858"/>
	</g>
	<g>
		<defs>
			<rect id="SVGID_77_" width="80" height="80"/>
		</defs>
		<clipPath id="SVGID_78_">
			<use xlink:href="#SVGID_77_"  overflow="visible"/>
		</clipPath>
		<path clip-path="url(#SVGID_78_)" d="M14.728,44.416c-0.033-0.03-0.049-0.069-0.049-0.115s0.016-0.084,0.049-0.115
			c0.032-0.031,0.072-0.046,0.118-0.046s0.085,0.015,0.118,0.046c0.033,0.031,0.049,0.069,0.049,0.115s-0.016,0.085-0.049,0.115
			c-0.032,0.031-0.072,0.047-0.118,0.047C14.799,44.463,14.76,44.447,14.728,44.416 M14.708,44.649h0.273v1.427h-0.273V44.649z"/>
	</g>
	<g>
		<defs>
			<rect id="SVGID_79_" width="80" height="80"/>
		</defs>
		<clipPath id="SVGID_80_">
			<use xlink:href="#SVGID_79_"  overflow="visible"/>
		</clipPath>
		<path clip-path="url(#SVGID_80_)" d="M15.482,44.649v-0.352h0.27v0.352h0.28v0.222h-0.28v0.791c0,0.081,0.016,0.135,0.049,0.164
			c0.032,0.029,0.091,0.042,0.176,0.042c0.018,0,0.04-0.001,0.065-0.003v0.213c-0.036,0.006-0.08,0.009-0.133,0.009
			c-0.086,0-0.156-0.008-0.212-0.024c-0.056-0.016-0.099-0.041-0.132-0.076c-0.032-0.036-0.054-0.078-0.067-0.127
			c-0.013-0.049-0.019-0.111-0.019-0.185v-0.804h-0.195v-0.222C15.284,44.649,15.482,44.649,15.482,44.649z"/>
	</g>
	<g>
		<defs>
			<rect id="SVGID_81_" width="80" height="80"/>
		</defs>
		<clipPath id="SVGID_82_">
			<use xlink:href="#SVGID_81_"  overflow="visible"/>
		</clipPath>
		<path clip-path="url(#SVGID_82_)" d="M16.922,44.625c0.197,0,0.35,0.063,0.459,0.188c0.11,0.125,0.165,0.287,0.165,0.487v0.12
			c0,0.204-0.055,0.369-0.164,0.494s-0.263,0.188-0.46,0.188c-0.199,0-0.353-0.063-0.463-0.188c-0.11-0.125-0.166-0.29-0.166-0.494
			v-0.119c0-0.2,0.055-0.362,0.166-0.488C16.57,44.688,16.724,44.625,16.922,44.625 M17.181,44.973
			c-0.061-0.082-0.147-0.123-0.26-0.123c-0.113,0-0.2,0.041-0.261,0.123c-0.061,0.082-0.091,0.193-0.091,0.333v0.11
			c0,0.138,0.03,0.25,0.091,0.333c0.061,0.084,0.148,0.125,0.261,0.125c0.114,0,0.201-0.041,0.261-0.124
			c0.06-0.083,0.09-0.194,0.09-0.333v-0.11C17.271,45.166,17.241,45.055,17.181,44.973"/>
	</g>
	<g>
		<defs>
			<rect id="SVGID_83_" width="80" height="80"/>
		</defs>
		<clipPath id="SVGID_84_">
			<use xlink:href="#SVGID_83_"  overflow="visible"/>
		</clipPath>
		<path clip-path="url(#SVGID_84_)" d="M17.885,46.077V44.65h0.274v0.181h0.009c0.024-0.053,0.064-0.1,0.122-0.141
			c0.059-0.041,0.133-0.062,0.223-0.062c0.032,0,0.064,0.002,0.096,0.007v0.245c-0.026-0.006-0.066-0.008-0.122-0.008
			c-0.217,0-0.326,0.115-0.326,0.344v0.861C18.161,46.077,17.885,46.077,17.885,46.077z"/>
	</g>
	<g>
		<defs>
			<rect id="SVGID_85_" width="80" height="80"/>
		</defs>
		<clipPath id="SVGID_86_">
			<use xlink:href="#SVGID_85_"  overflow="visible"/>
		</clipPath>
		<path clip-path="url(#SVGID_86_)" d="M18.934,44.416c-0.032-0.03-0.049-0.069-0.049-0.115s0.016-0.084,0.049-0.115
			c0.032-0.031,0.072-0.046,0.118-0.046c0.045,0,0.085,0.015,0.118,0.046s0.049,0.069,0.049,0.115s-0.016,0.085-0.049,0.115
			c-0.032,0.031-0.072,0.047-0.118,0.047C19.006,44.463,18.967,44.447,18.934,44.416 M18.916,44.649h0.273v1.427h-0.273V44.649z"/>
	</g>
	<g>
		<defs>
			<rect id="SVGID_87_" width="80" height="80"/>
		</defs>
		<clipPath id="SVGID_88_">
			<use xlink:href="#SVGID_87_"  overflow="visible"/>
		</clipPath>
		<path clip-path="url(#SVGID_88_)" d="M20.155,46.101c-0.19,0-0.34-0.06-0.45-0.181c-0.11-0.121-0.165-0.285-0.165-0.492v-0.151
			c0-0.198,0.054-0.356,0.162-0.475c0.108-0.119,0.255-0.178,0.442-0.178s0.333,0.061,0.441,0.182
			c0.107,0.122,0.16,0.283,0.16,0.484v0.135h-0.933v0.03c0,0.128,0.031,0.23,0.094,0.307c0.063,0.078,0.147,0.117,0.254,0.117
			c0.077,0,0.142-0.018,0.194-0.054c0.052-0.036,0.088-0.087,0.109-0.152h0.264c-0.025,0.125-0.087,0.227-0.185,0.307
			C20.444,46.062,20.315,46.101,20.155,46.101 M19.812,45.226h0.664v-0.004c0-0.108-0.031-0.199-0.092-0.27
			c-0.062-0.073-0.141-0.109-0.238-0.109c-0.1,0-0.18,0.036-0.241,0.109c-0.061,0.072-0.092,0.162-0.092,0.27V45.226z"/>
	</g>
	<g>
		<defs>
			<rect id="SVGID_89_" width="80" height="80"/>
		</defs>
		<clipPath id="SVGID_90_">
			<use xlink:href="#SVGID_89_"  overflow="visible"/>
		</clipPath>
		<path clip-path="url(#SVGID_90_)" d="M21.174,44.649v-0.352h0.27v0.352h0.28v0.222h-0.28v0.791c0,0.081,0.016,0.135,0.049,0.164
			c0.032,0.029,0.091,0.042,0.176,0.042c0.018,0,0.04-0.001,0.065-0.003v0.213c-0.036,0.006-0.08,0.009-0.133,0.009
			c-0.086,0-0.156-0.008-0.212-0.024s-0.099-0.041-0.132-0.076c-0.032-0.036-0.054-0.078-0.067-0.127
			c-0.013-0.049-0.019-0.111-0.019-0.185v-0.804h-0.195v-0.222C20.977,44.649,21.174,44.649,21.174,44.649z"/>
	</g>
	<g>
		<defs>
			<rect id="SVGID_91_" width="80" height="80"/>
		</defs>
		<clipPath id="SVGID_92_">
			<use xlink:href="#SVGID_91_"  overflow="visible"/>
		</clipPath>
		<path clip-path="url(#SVGID_92_)" d="M23.993,44.801h-0.275c-0.015-0.12-0.061-0.211-0.14-0.273
			c-0.079-0.063-0.175-0.094-0.288-0.094c-0.139,0-0.252,0.049-0.341,0.147c-0.088,0.098-0.132,0.246-0.132,0.444v0.246
			c0,0.188,0.04,0.336,0.12,0.442c0.079,0.107,0.196,0.16,0.351,0.16c0.129,0,0.235-0.036,0.317-0.108
			c0.083-0.072,0.123-0.164,0.123-0.275v-0.158h-0.445v-0.228h0.715v0.377c0,0.055-0.007,0.11-0.022,0.166
			c-0.014,0.056-0.039,0.112-0.075,0.169c-0.036,0.057-0.079,0.108-0.132,0.152c-0.052,0.044-0.12,0.079-0.203,0.107
			c-0.083,0.027-0.176,0.041-0.278,0.041c-0.246,0-0.432-0.075-0.559-0.226c-0.127-0.151-0.19-0.357-0.19-0.618v-0.248
			c0-0.259,0.068-0.463,0.204-0.611c0.136-0.148,0.32-0.222,0.553-0.222c0.107,0,0.205,0.017,0.293,0.05
			c0.088,0.033,0.16,0.079,0.216,0.136c0.056,0.057,0.101,0.122,0.133,0.194C23.971,44.643,23.988,44.72,23.993,44.801"/>
	</g>
	<g>
		<defs>
			<rect id="SVGID_93_" width="80" height="80"/>
		</defs>
		<clipPath id="SVGID_94_">
			<use xlink:href="#SVGID_93_"  overflow="visible"/>
		</clipPath>
		<path clip-path="url(#SVGID_94_)" d="M24.896,46.101c-0.19,0-0.339-0.06-0.449-0.181c-0.11-0.121-0.165-0.285-0.165-0.492v-0.151
			c0-0.198,0.054-0.356,0.162-0.475c0.108-0.119,0.255-0.178,0.442-0.178c0.187,0,0.333,0.061,0.441,0.182
			c0.107,0.122,0.161,0.283,0.161,0.484v0.135h-0.933v0.03c0,0.128,0.031,0.23,0.094,0.307c0.063,0.078,0.147,0.117,0.254,0.117
			c0.077,0,0.142-0.018,0.194-0.054c0.052-0.036,0.088-0.087,0.109-0.152h0.264c-0.026,0.125-0.087,0.227-0.185,0.307
			C25.186,46.062,25.057,46.101,24.896,46.101 M24.554,45.226h0.664v-0.004c0-0.108-0.031-0.199-0.093-0.27
			c-0.061-0.073-0.141-0.109-0.238-0.109c-0.099,0-0.18,0.036-0.241,0.109c-0.062,0.072-0.092,0.162-0.092,0.27
			C24.554,45.222,24.554,45.226,24.554,45.226z"/>
	</g>
	<g>
		<defs>
			<rect id="SVGID_95_" width="80" height="80"/>
		</defs>
		<clipPath id="SVGID_96_">
			<use xlink:href="#SVGID_95_"  overflow="visible"/>
		</clipPath>
		<path clip-path="url(#SVGID_96_)" d="M25.82,46.077V44.65h0.27v0.195h0.009c0.03-0.058,0.081-0.109,0.152-0.152
			c0.071-0.044,0.158-0.066,0.264-0.066c0.151,0,0.272,0.046,0.365,0.139c0.093,0.093,0.14,0.225,0.14,0.394v0.917h-0.272v-0.865
			c0-0.113-0.03-0.198-0.089-0.257c-0.06-0.059-0.138-0.087-0.237-0.087c-0.108,0-0.189,0.033-0.245,0.099
			c-0.056,0.066-0.084,0.15-0.084,0.251v0.859H25.82z"/>
	</g>
	<g>
		<defs>
			<rect id="SVGID_97_" width="80" height="80"/>
		</defs>
		<clipPath id="SVGID_98_">
			<use xlink:href="#SVGID_97_"  overflow="visible"/>
		</clipPath>
		<path clip-path="url(#SVGID_98_)" d="M27.492,44.649v-0.352h0.27v0.352h0.28v0.222h-0.28v0.791c0,0.081,0.016,0.135,0.049,0.164
			c0.032,0.029,0.091,0.042,0.176,0.042c0.018,0,0.039-0.001,0.065-0.003v0.213c-0.036,0.006-0.08,0.009-0.133,0.009
			c-0.086,0-0.156-0.008-0.212-0.024c-0.056-0.016-0.099-0.041-0.132-0.076c-0.032-0.036-0.054-0.078-0.067-0.127
			c-0.013-0.049-0.019-0.111-0.019-0.185v-0.804h-0.195v-0.222C27.295,44.649,27.492,44.649,27.492,44.649z"/>
	</g>
	<g>
		<defs>
			<rect id="SVGID_99_" width="80" height="80"/>
		</defs>
		<clipPath id="SVGID_100_">
			<use xlink:href="#SVGID_99_"  overflow="visible"/>
		</clipPath>
		<path clip-path="url(#SVGID_100_)" d="M28.931,44.625c0.197,0,0.35,0.063,0.46,0.188c0.11,0.125,0.165,0.287,0.165,0.487v0.12
			c0,0.204-0.055,0.369-0.164,0.494c-0.109,0.125-0.263,0.188-0.46,0.188c-0.199,0-0.353-0.063-0.463-0.188s-0.165-0.29-0.165-0.494
			v-0.119c0-0.2,0.055-0.362,0.166-0.488C28.58,44.688,28.734,44.625,28.931,44.625 M29.19,44.973
			c-0.061-0.082-0.147-0.123-0.26-0.123s-0.2,0.041-0.261,0.123c-0.061,0.082-0.091,0.193-0.091,0.333v0.11
			c0,0.138,0.03,0.25,0.091,0.333c0.061,0.084,0.148,0.125,0.261,0.125c0.114,0,0.201-0.041,0.261-0.124
			c0.06-0.083,0.09-0.194,0.09-0.333v-0.11C29.281,45.166,29.251,45.055,29.19,44.973"/>
	</g>
	<g>
		<defs>
			<rect id="SVGID_101_" width="80" height="80"/>
		</defs>
		<clipPath id="SVGID_102_">
			<use xlink:href="#SVGID_101_"  overflow="visible"/>
		</clipPath>
		<path clip-path="url(#SVGID_102_)" d="M29.986,46.077v-1.206h-0.197V44.65h0.197v-0.143c0-0.139,0.036-0.24,0.108-0.305
			c0.072-0.064,0.185-0.096,0.339-0.096c0.048,0,0.088,0.003,0.121,0.008v0.211c-0.027-0.003-0.053-0.005-0.077-0.005
			c-0.078,0-0.134,0.015-0.169,0.046c-0.034,0.031-0.052,0.085-0.052,0.163v0.121h0.279v0.222h-0.276v1.206
			C30.258,46.077,29.986,46.077,29.986,46.077z"/>
	</g>
	<g>
		<defs>
			<rect id="SVGID_103_" width="80" height="80"/>
		</defs>
		<clipPath id="SVGID_104_">
			<use xlink:href="#SVGID_103_"  overflow="visible"/>
		</clipPath>
		<path clip-path="url(#SVGID_104_)" d="M30.967,44.649v-0.352h0.27v0.352h0.28v0.222h-0.28v0.791c0,0.081,0.016,0.135,0.049,0.164
			c0.032,0.029,0.091,0.042,0.176,0.042c0.018,0,0.039-0.001,0.065-0.003v0.213c-0.036,0.006-0.08,0.009-0.133,0.009
			c-0.086,0-0.156-0.008-0.212-0.024c-0.056-0.016-0.099-0.041-0.132-0.076c-0.032-0.036-0.054-0.078-0.067-0.127
			c-0.013-0.049-0.019-0.111-0.019-0.185v-0.804H30.77v-0.222C30.77,44.649,30.967,44.649,30.967,44.649z"/>
	</g>
	<g>
		<defs>
			<rect id="SVGID_105_" width="80" height="80"/>
		</defs>
		<clipPath id="SVGID_106_">
			<use xlink:href="#SVGID_105_"  overflow="visible"/>
		</clipPath>
		<path clip-path="url(#SVGID_106_)" d="M32.394,46.101c-0.19,0-0.34-0.06-0.45-0.181c-0.11-0.121-0.165-0.285-0.165-0.492v-0.151
			c0-0.198,0.054-0.356,0.162-0.475c0.108-0.119,0.255-0.178,0.442-0.178s0.333,0.061,0.441,0.182
			c0.107,0.122,0.161,0.283,0.161,0.484v0.135h-0.933v0.03c0,0.128,0.031,0.23,0.094,0.307c0.063,0.078,0.147,0.117,0.254,0.117
			c0.077,0,0.142-0.018,0.194-0.054c0.052-0.036,0.088-0.087,0.109-0.152h0.264c-0.026,0.125-0.087,0.227-0.185,0.307
			C32.683,46.062,32.554,46.101,32.394,46.101 M32.051,45.226h0.664v-0.004c0-0.108-0.031-0.199-0.092-0.27
			c-0.062-0.073-0.141-0.109-0.239-0.109c-0.099,0-0.18,0.036-0.241,0.109c-0.061,0.072-0.092,0.162-0.092,0.27
			C32.051,45.222,32.051,45.226,32.051,45.226z"/>
	</g>
	<g>
		<defs>
			<rect id="SVGID_107_" width="80" height="80"/>
		</defs>
		<clipPath id="SVGID_108_">
			<use xlink:href="#SVGID_107_"  overflow="visible"/>
		</clipPath>
		<polygon clip-path="url(#SVGID_108_)" points="33.929,46.486 33.686,46.486 34.35,44.13 34.592,44.13 		"/>
	</g>
	<g>
		<defs>
			<rect id="SVGID_109_" width="80" height="80"/>
		</defs>
		<clipPath id="SVGID_110_">
			<use xlink:href="#SVGID_109_"  overflow="visible"/>
		</clipPath>
		<polygon clip-path="url(#SVGID_110_)" points="36.81,46.077 36.531,46.077 36.531,45.244 35.651,45.244 35.651,46.077 
			35.372,46.077 35.372,44.228 35.651,44.228 35.651,45.002 36.531,45.002 36.531,44.228 36.81,44.228 		"/>
	</g>
	<g>
		<defs>
			<rect id="SVGID_111_" width="80" height="80"/>
		</defs>
		<clipPath id="SVGID_112_">
			<use xlink:href="#SVGID_111_"  overflow="visible"/>
		</clipPath>
		<path clip-path="url(#SVGID_112_)" d="M37.778,46.101c-0.19,0-0.34-0.06-0.45-0.181s-0.165-0.285-0.165-0.492v-0.151
			c0-0.198,0.054-0.356,0.162-0.475c0.108-0.119,0.255-0.178,0.442-0.178c0.187,0,0.333,0.061,0.441,0.182
			c0.107,0.122,0.16,0.283,0.16,0.484v0.135h-0.933v0.03c0,0.128,0.031,0.23,0.094,0.307c0.063,0.078,0.147,0.117,0.254,0.117
			c0.077,0,0.142-0.018,0.194-0.054c0.052-0.036,0.088-0.087,0.109-0.152h0.264c-0.025,0.125-0.087,0.227-0.185,0.307
			C38.068,46.062,37.938,46.101,37.778,46.101 M37.435,45.226h0.664v-0.004c0-0.108-0.031-0.199-0.092-0.27
			c-0.062-0.073-0.141-0.109-0.238-0.109c-0.1,0-0.18,0.036-0.241,0.109c-0.061,0.072-0.092,0.162-0.092,0.27
			C37.435,45.222,37.435,45.226,37.435,45.226z"/>
	</g>
	<g>
		<defs>
			<rect id="SVGID_113_" width="80" height="80"/>
		</defs>
		<clipPath id="SVGID_114_">
			<use xlink:href="#SVGID_113_"  overflow="visible"/>
		</clipPath>
		<path clip-path="url(#SVGID_114_)" d="M38.701,46.077V44.65h0.273v0.181h0.01c0.023-0.053,0.064-0.1,0.122-0.141
			c0.058-0.041,0.132-0.062,0.223-0.062c0.033,0,0.065,0.002,0.096,0.007v0.245c-0.025-0.006-0.066-0.008-0.122-0.008
			c-0.217,0-0.327,0.115-0.327,0.344v0.861C38.977,46.077,38.701,46.077,38.701,46.077z"/>
	</g>
	<g>
		<defs>
			<rect id="SVGID_115_" width="80" height="80"/>
		</defs>
		<clipPath id="SVGID_116_">
			<use xlink:href="#SVGID_115_"  overflow="visible"/>
		</clipPath>
		<rect x="39.728" y="44.13" clip-path="url(#SVGID_116_)" width="0.272" height="1.947"/>
	</g>
	<g>
		<defs>
			<rect id="SVGID_117_" width="80" height="80"/>
		</defs>
		<clipPath id="SVGID_118_">
			<use xlink:href="#SVGID_117_"  overflow="visible"/>
		</clipPath>
		<path clip-path="url(#SVGID_118_)" d="M40.961,46.101c-0.189,0-0.339-0.06-0.449-0.181c-0.11-0.121-0.165-0.285-0.165-0.492
			v-0.151c0-0.198,0.054-0.356,0.162-0.475c0.108-0.119,0.255-0.178,0.442-0.178c0.187,0,0.333,0.061,0.441,0.182
			c0.107,0.122,0.16,0.283,0.16,0.484v0.135h-0.933v0.03c0,0.128,0.031,0.23,0.094,0.307c0.063,0.078,0.147,0.117,0.254,0.117
			c0.077,0,0.142-0.018,0.194-0.054c0.052-0.036,0.088-0.087,0.109-0.152h0.264c-0.026,0.125-0.087,0.227-0.185,0.307
			C41.252,46.062,41.122,46.101,40.961,46.101 M40.619,45.226h0.664v-0.004c0-0.108-0.031-0.199-0.092-0.27
			c-0.062-0.073-0.141-0.109-0.238-0.109c-0.1,0-0.18,0.036-0.241,0.109c-0.062,0.072-0.093,0.162-0.093,0.27
			C40.619,45.222,40.619,45.226,40.619,45.226z"/>
	</g>
	<g>
		<defs>
			<rect id="SVGID_119_" width="80" height="80"/>
		</defs>
		<clipPath id="SVGID_120_">
			<use xlink:href="#SVGID_119_"  overflow="visible"/>
		</clipPath>
		<polygon clip-path="url(#SVGID_120_)" points="42.182,46.077 41.692,44.65 41.982,44.65 42.328,45.772 42.338,45.772 
			42.712,44.65 42.989,44.65 42.483,46.077 		"/>
	</g>
	<g>
		<defs>
			<rect id="SVGID_121_" width="80" height="80"/>
		</defs>
		<clipPath id="SVGID_122_">
			<use xlink:href="#SVGID_121_"  overflow="visible"/>
		</clipPath>
		<path clip-path="url(#SVGID_122_)" fill="#FFFFFF" d="M20.672,12.408l0.835-0.543c0.703-0.458,1.504-0.292,1.914,0.339
			l0.004,0.006c0.41,0.63,0.243,1.436-0.461,1.894l-0.835,0.544L20.672,12.408z M22.73,13.745c0.47-0.306,0.571-0.823,0.286-1.261
			l-0.004-0.006c-0.285-0.438-0.802-0.561-1.273-0.256l-0.441,0.287l0.991,1.522L22.73,13.745z"/>
	</g>
	<g>
		<defs>
			<rect id="SVGID_123_" width="80" height="80"/>
		</defs>
		<clipPath id="SVGID_124_">
			<use xlink:href="#SVGID_123_"  overflow="visible"/>
		</clipPath>
		<path clip-path="url(#SVGID_124_)" fill="#FFFFFF" d="M23.533,10.522l0.434-0.239l0.212,0.384l-0.434,0.239L23.533,10.522z
			 M23.91,11.168l0.405-0.223l0.973,1.764l-0.405,0.223L23.91,11.168z"/>
	</g>
	<g>
		<defs>
			<rect id="SVGID_125_" width="80" height="80"/>
		</defs>
		<clipPath id="SVGID_126_">
			<use xlink:href="#SVGID_125_"  overflow="visible"/>
		</clipPath>
		<path clip-path="url(#SVGID_126_)" fill="#FFFFFF" d="M25.953,11.735l-0.461-0.955l-0.23,0.111l-0.172-0.357l0.23-0.111
			l-0.24-0.499l0.416-0.201l0.24,0.499l0.489-0.236l0.172,0.357l-0.488,0.236l0.43,0.89c0.078,0.161,0.192,0.187,0.333,0.119
			c0.093-0.045,0.165-0.105,0.228-0.187l0.164,0.341c-0.075,0.108-0.175,0.199-0.33,0.273
			C26.427,12.163,26.146,12.133,25.953,11.735"/>
	</g>
	<g>
		<defs>
			<rect id="SVGID_127_" width="80" height="80"/>
		</defs>
		<clipPath id="SVGID_128_">
			<use xlink:href="#SVGID_127_"  overflow="visible"/>
		</clipPath>
		<path clip-path="url(#SVGID_128_)" fill="#FFFFFF" d="M29.504,10.489l0.1,0.296l-0.437,0.148l-0.891-2.637l0.437-0.148
			l0.354,1.047c0.074-0.246,0.218-0.472,0.526-0.576c0.452-0.153,1.01,0.057,1.223,0.69l0.003,0.007
			c0.213,0.632-0.099,1.136-0.555,1.29C29.95,10.712,29.697,10.62,29.504,10.489 M30.374,9.466l-0.003-0.007
			c-0.124-0.368-0.455-0.526-0.752-0.426c-0.296,0.1-0.474,0.434-0.35,0.799l0.003,0.007c0.124,0.368,0.466,0.523,0.763,0.423
			C30.334,10.16,30.501,9.842,30.374,9.466"/>
	</g>
	<g>
		<defs>
			<rect id="SVGID_129_" width="80" height="80"/>
		</defs>
		<clipPath id="SVGID_130_">
			<use xlink:href="#SVGID_129_"  overflow="visible"/>
		</clipPath>
		<path clip-path="url(#SVGID_130_)" fill="#FFFFFF" d="M31.391,8.119l0.448-0.113l0.111,0.44c0.049-0.323,0.224-0.58,0.572-0.652
			l0.12,0.474l-0.026,0.006c-0.392,0.099-0.602,0.423-0.471,0.941l0.188,0.744l-0.448,0.113L31.391,8.119z"/>
	</g>
	<g>
		<defs>
			<rect id="SVGID_131_" width="80" height="80"/>
		</defs>
		<clipPath id="SVGID_132_">
			<use xlink:href="#SVGID_131_"  overflow="visible"/>
		</clipPath>
		<path clip-path="url(#SVGID_132_)" fill="#FFFFFF" d="M33.987,9.46l-0.104,0.158L33.47,9.691l0.241-0.388
			c-0.186-0.153-0.317-0.37-0.361-0.621l-0.002-0.008c-0.1-0.567,0.268-1.116,0.876-1.223c0.214-0.038,0.42-0.011,0.596,0.062
			l0.106-0.166l0.413-0.073c0,0-0.154,0.248-0.244,0.395c0.189,0.149,0.32,0.366,0.366,0.625l0.001,0.007
			c0.099,0.564-0.269,1.113-0.881,1.22C34.373,9.559,34.167,9.533,33.987,9.46 M34.607,7.876c-0.096-0.041-0.204-0.057-0.32-0.037
			c-0.372,0.066-0.557,0.4-0.495,0.75l0.001,0.007c0.022,0.124,0.077,0.238,0.154,0.325L34.607,7.876z M35.022,8.387L35.021,8.38
			c-0.022-0.128-0.081-0.241-0.155-0.329l-0.663,1.05c0.096,0.041,0.206,0.052,0.319,0.032C34.898,9.068,35.083,8.733,35.022,8.387"
			/>
	</g>
	<g>
		<defs>
			<rect id="SVGID_133_" width="80" height="80"/>
		</defs>
		<clipPath id="SVGID_134_">
			<use xlink:href="#SVGID_133_"  overflow="visible"/>
		</clipPath>
		<path clip-path="url(#SVGID_134_)" fill="#FFFFFF" d="M36.194,8.205l-0.001-0.007c-0.056-0.666,0.365-1.08,0.845-1.121
			c0.331-0.028,0.554,0.122,0.714,0.296l-0.091-1.08l0.46-0.039l0.233,2.777l-0.46,0.039l-0.028-0.334
			c-0.131,0.222-0.326,0.407-0.653,0.434C36.742,9.209,36.25,8.871,36.194,8.205 M37.819,8.069l-0.001-0.008
			c-0.032-0.388-0.328-0.62-0.636-0.594c-0.316,0.026-0.558,0.292-0.524,0.691l0.001,0.008c0.032,0.388,0.32,0.621,0.632,0.594
			C37.599,8.735,37.851,8.454,37.819,8.069"/>
	</g>
	<g>
		<defs>
			<rect id="SVGID_135_" width="80" height="80"/>
		</defs>
		<clipPath id="SVGID_136_">
			<use xlink:href="#SVGID_135_"  overflow="visible"/>
		</clipPath>
		<path clip-path="url(#SVGID_136_)" fill="#FFFFFF" d="M41.151,8.708L41.134,9.02l-0.461-0.024l0.146-2.782l0.461,0.024
			l-0.059,1.105c0.16-0.202,0.378-0.359,0.702-0.342c0.476,0.025,0.918,0.426,0.883,1.093l-0.001,0.008
			c-0.034,0.667-0.512,1.021-0.992,0.996C41.482,9.08,41.282,8.902,41.151,8.708 M42.338,8.078V8.07
			c0.02-0.388-0.229-0.657-0.541-0.674c-0.313-0.016-0.601,0.228-0.621,0.614v0.008c-0.02,0.389,0.24,0.659,0.553,0.675
			C42.045,8.709,42.317,8.474,42.338,8.078"/>
	</g>
	<g>
		<defs>
			<rect id="SVGID_137_" width="80" height="80"/>
		</defs>
		<clipPath id="SVGID_138_">
			<use xlink:href="#SVGID_137_"  overflow="visible"/>
		</clipPath>
		<path clip-path="url(#SVGID_138_)" fill="#FFFFFF" d="M44.738,9.36l0.034-0.246c-0.158,0.144-0.384,0.239-0.686,0.197
			c-0.378-0.052-0.68-0.314-0.625-0.715l0.001-0.007c0.062-0.443,0.435-0.606,0.9-0.541c0.242,0.033,0.392,0.089,0.54,0.16
			l0.005-0.038c0.039-0.276-0.114-0.452-0.432-0.495c-0.223-0.031-0.396-0.005-0.588,0.045l-0.074-0.384
			c0.234-0.068,0.458-0.106,0.783-0.061c0.59,0.083,0.834,0.433,0.76,0.965l-0.165,1.183L44.738,9.36z M44.865,8.527
			c-0.111-0.062-0.269-0.119-0.446-0.143c-0.287-0.04-0.474,0.054-0.501,0.246l-0.001,0.008c-0.027,0.189,0.129,0.318,0.344,0.348
			c0.302,0.042,0.552-0.096,0.587-0.345L44.865,8.527z"/>
	</g>
	<g>
		<defs>
			<rect id="SVGID_139_" width="80" height="80"/>
		</defs>
		<clipPath id="SVGID_140_">
			<use xlink:href="#SVGID_139_"  overflow="visible"/>
		</clipPath>
		<path clip-path="url(#SVGID_140_)" fill="#FFFFFF" d="M45.917,9.936l0.244-0.299c0.179,0.178,0.384,0.307,0.651,0.368
			c0.401,0.092,0.668-0.066,0.759-0.46l0.035-0.152c-0.212,0.174-0.451,0.276-0.774,0.202c-0.46-0.106-0.813-0.547-0.681-1.123
			l0.002-0.007c0.133-0.58,0.646-0.822,1.103-0.717c0.331,0.076,0.5,0.275,0.611,0.492l0.067-0.294l0.449,0.103L48.026,9.61
			c-0.076,0.331-0.218,0.557-0.419,0.683c-0.219,0.137-0.514,0.16-0.867,0.079C46.417,10.297,46.134,10.146,45.917,9.936
			 M47.738,8.836l0.002-0.007c0.075-0.324-0.139-0.603-0.451-0.675c-0.313-0.072-0.607,0.087-0.682,0.411l-0.002,0.007
			c-0.075,0.324,0.124,0.6,0.433,0.671C47.351,9.314,47.665,9.152,47.738,8.836"/>
	</g>
	<g>
		<defs>
			<rect id="SVGID_141_" width="80" height="80"/>
		</defs>
		<clipPath id="SVGID_142_">
			<use xlink:href="#SVGID_141_"  overflow="visible"/>
		</clipPath>
		<path clip-path="url(#SVGID_142_)" fill="#FFFFFF" d="M48.964,9.262l0.003-0.007c0.178-0.548,0.712-0.872,1.261-0.694
			c0.609,0.199,0.762,0.778,0.583,1.329c-0.013,0.04-0.029,0.079-0.047,0.121l-1.408-0.458c-0.054,0.327,0.111,0.573,0.394,0.665
			c0.214,0.07,0.392,0.039,0.594-0.06l0.183,0.313c-0.253,0.158-0.549,0.218-0.901,0.104C49.068,10.396,48.772,9.854,48.964,9.262
			 M50.429,9.582c0.063-0.293-0.032-0.568-0.322-0.663c-0.269-0.087-0.525,0.058-0.662,0.343L50.429,9.582z"/>
	</g>
	<g>
		<defs>
			<rect id="SVGID_143_" width="80" height="80"/>
		</defs>
		<clipPath id="SVGID_144_">
			<use xlink:href="#SVGID_143_"  overflow="visible"/>
		</clipPath>
		<path clip-path="url(#SVGID_144_)" fill="#FFFFFF" d="M51.171,10.784l0.31-0.21c0.137,0.235,0.325,0.402,0.515,0.481
			c0.183,0.076,0.321,0.042,0.372-0.081l0.003-0.007c0.06-0.144-0.118-0.275-0.308-0.433c-0.243-0.191-0.503-0.431-0.355-0.787
			L51.71,9.74c0.146-0.352,0.527-0.446,0.897-0.293c0.233,0.096,0.453,0.282,0.597,0.494l-0.295,0.233
			c-0.134-0.183-0.297-0.329-0.452-0.394c-0.165-0.068-0.293-0.03-0.338,0.079l-0.003,0.007c-0.056,0.133,0.122,0.273,0.311,0.434
			c0.236,0.197,0.492,0.447,0.353,0.782l-0.003,0.007c-0.162,0.391-0.546,0.459-0.933,0.299
			C51.58,11.28,51.327,11.064,51.171,10.784"/>
	</g>
	<g>
		<defs>
			<rect id="SVGID_145_" width="80" height="80"/>
		</defs>
		<clipPath id="SVGID_146_">
			<use xlink:href="#SVGID_145_"  overflow="visible"/>
		</clipPath>
		<path clip-path="url(#SVGID_146_)" fill="#FFFFFF" d="M55.634,13.226l0.122-0.216c-0.2,0.075-0.445,0.081-0.71-0.07
			c-0.332-0.188-0.516-0.543-0.317-0.895l0.004-0.006c0.22-0.388,0.627-0.403,1.035-0.171c0.213,0.12,0.331,0.227,0.443,0.348
			l0.019-0.033c0.137-0.242,0.06-0.461-0.219-0.62c-0.195-0.111-0.366-0.151-0.563-0.175l0.073-0.384
			c0.241,0.023,0.464,0.07,0.749,0.232c0.518,0.294,0.616,0.709,0.35,1.176l-0.589,1.038L55.634,13.226z M56.06,12.498
			c-0.08-0.098-0.206-0.209-0.362-0.297c-0.252-0.143-0.46-0.125-0.556,0.044l-0.004,0.006c-0.094,0.166,0.003,0.344,0.192,0.451
			c0.265,0.151,0.549,0.114,0.673-0.105L56.06,12.498z"/>
	</g>
	<g>
		<defs>
			<rect id="SVGID_147_" width="80" height="80"/>
		</defs>
		<clipPath id="SVGID_148_">
			<use xlink:href="#SVGID_147_"  overflow="visible"/>
		</clipPath>
		<path clip-path="url(#SVGID_148_)" fill="#FFFFFF" d="M57.74,12.625l-0.213-0.142l0.213-0.321l0.213,0.142l0.08-0.121
			c0.125-0.188,0.265-0.296,0.414-0.326c0.148-0.03,0.302,0.008,0.467,0.118c0.133,0.088,0.213,0.169,0.282,0.251l-0.216,0.325
			c-0.059-0.076-0.116-0.136-0.199-0.191c-0.146-0.097-0.275-0.068-0.391,0.107l-0.061,0.093l0.445,0.295l-0.212,0.318l-0.439-0.292
			l-0.896,1.349l-0.385-0.256L57.74,12.625z"/>
	</g>
</g>
</svg>
