<?xml version="1.0" encoding="utf-8"?>
<!-- Generator: Adobe Illustrator 25.0.1, SVG Export Plug-In . SVG Version: 6.00 Build 0)  -->
<svg version="1.1" id="Layer_1" xmlns="http://www.w3.org/2000/svg" xmlns:xlink="http://www.w3.org/1999/xlink" x="0px" y="0px"
	 viewBox="0 0 600 307.981" enable-background="new 0 0 600 307.981" xml:space="preserve">
<g>
	<path d="M8.683,148.607c-1.583-0.792-2.375-1.713-2.375-2.77c0-0.792,0.526-2.109,1.583-3.958c1.054-1.713,1.515-3.033,1.385-3.958
		l-0.594-17.413L7.298,66.487L6.902,42.544c-0.133-14.643-0.463-23.81-0.99-27.506c-0.265-1.45-0.791-3.097-1.583-4.946
		C3.406,7.588,2.945,5.806,2.945,4.749C2.945,1.583,7.957,0,17.984,0h0.989c6.728,0,12.531,2.31,17.413,6.925
		c3.825,3.562,7.254,9.171,10.29,16.82c2.109,6.069,3.691,12.862,4.749,20.382c0.525,3.958,0.99,10.027,1.385,18.204v6.135
		c0,8.181-1.088,17.051-3.265,26.615c-2.176,9.566-5.244,18.501-9.201,26.812c-2.374,5.278-5.441,10.027-9.201,14.248
		c-3.76,4.224-7.355,7.554-10.784,9.993c-3.432,2.443-5.739,3.661-6.925,3.661C11.849,149.794,10.266,149.399,8.683,148.607z
		 M16.4,139.702c4.879-2.505,9.232-6.165,13.06-10.982c3.825-4.814,6.858-10.123,9.103-15.929c1.978-4.88,3.627-10.454,4.947-16.722
		c1.317-6.263,2.241-12.101,2.77-17.512c0.396-4.749,0.594-9.3,0.594-13.654c0-38.519-10.621-57.781-31.859-57.781
		c-2.77,0-4.155,0.726-4.155,2.177c0,4.619,0.263,10.091,0.792,16.424c0.525,6.465,0.792,11.941,0.792,16.424
		c0,7.257,0.525,19.856,1.583,37.795c0.922,15.568,1.385,28.099,1.385,37.597v22.163H16.4z"/>
	<path d="M79.92,147.815v-2.572c0.13-0.659,0.198-1.45,0.198-2.374l-0.792-0.792c1.054-2.771,1.583-5.472,1.583-8.113
		c0-3.033-0.197-7.386-0.593-13.06l-0.396-13.06c0-6.595,0.198-16.489,0.594-29.682c0.525-11.74,0.791-21.699,0.791-29.88
		l-0.396-11.873c-0.266-3.562-0.395-7.519-0.395-11.873c0-1.978,0.46-3.394,1.385-4.254c0.921-0.856,2.375-1.286,4.353-1.286
		c1.317,0,2.375,0.395,3.166,1.187c0.263,0.133,2.177,0.396,5.739,0.792c3.296,0.396,6.135,0.99,8.509,1.781
		c2.505,0.791,3.76,1.78,3.76,2.968c0,1.32-1.255,2.64-3.76,3.958c-7.519-2.505-12.862-3.76-16.028-3.76l-0.99,1.187
		c0.13,1.187,0.198,4.025,0.198,8.509c0,5.674-0.133,10.753-0.396,15.236c-0.133,4.62-0.198,9.764-0.198,15.434
		c0,3.695,0.921,5.541,2.771,5.541l3.166-0.198c1.054-0.13,2.176-0.198,3.364-0.198c5.145,0,7.717,1.187,7.717,3.562
		c0,1.454-0.331,2.672-0.99,3.661c-0.661,0.989-1.651,1.484-2.968,1.484c-1.978,0-3.497-0.525-4.551-1.583l-6.332-0.99h-0.99
		l-0.99,0.99v0.593c0.263,2.245,0.396,7.455,0.396,15.633c0,5.145-0.068,9.829-0.198,14.049l-0.198,14.05
		c0,5.145,0.198,10.423,0.594,15.83c0.13,3.036,0.792,5.046,1.979,6.036c1.187,0.99,3.364,1.484,6.53,1.484l3.562-0.198
		c1.187-0.13,2.505-0.198,3.958-0.198c3.825,0,5.739,0.859,5.739,2.572c0,2.375-2.904,3.562-8.707,3.562H83.877
		C81.502,151.971,80.182,150.586,79.92,147.815z"/>
	<path d="M178.957,149.003c-0.463-0.792-0.89-1.978-1.286-3.562c-0.134-1.055-0.396-1.979-0.792-2.77l0.198-0.594
		c-1.057-6.2-3.299-13.783-6.728-22.756l-3.562-10.29c-0.266-0.262-1.518-3.626-3.76-10.091l-1.583-4.749
		c-11.873-36.672-19.327-56.525-22.36-59.562c-1.058,3.562-1.583,8.181-1.583,13.852c0,3.036,0.065,5.674,0.198,7.915l0.198,7.717
		l-0.198,4.749c-0.133,1.453-0.198,3.036-0.198,4.749c0,2.903,0.13,5.411,0.396,7.519l0.396,6.332h-0.594
		c0,22.033,0.461,34.169,1.385,36.41v17.809c0.525,1.057,0.792,2.443,0.792,4.155c0,1.057-0.365,1.978-1.089,2.77
		c-0.727,0.792-1.617,1.187-2.672,1.187c-2.77,0-4.155-3.562-4.155-10.686l0.396-6.332c0.263-1.979,0.396-4.155,0.396-6.53
		c0-6.332-0.198-15.83-0.594-28.494s-0.594-22.163-0.594-28.494c0-3.825,0.198-9.696,0.594-17.611
		c0.396-7.782,0.594-13.585,0.594-17.413v-2.572c0-6.462,1.188-10.686,3.562-12.664l0.594,0.593l1.979-0.396
		c0.525,0.134,1.119,0.529,1.78,1.187c0.526,0.529,0.792,1.122,0.792,1.781l0.396,1.187c0,0.266,0.065,0.594,0.198,0.99
		c2.109,9.369,6.858,22.493,14.248,39.378c7.519,17.809,12.2,29.617,14.049,35.421c1.318,4.619,2.375,8.707,3.167,12.268
		c2.505,11.214,5.472,19.856,8.905,25.922l0.395-0.594c3.033-29.286,4.551-65.232,4.551-107.844l-0.198-2.374
		c-0.133-0.659-0.197-1.515-0.197-2.573c0-2.77,0.921-4.155,2.77-4.155c1.187,0,2.208,0.594,3.067,1.781
		c0.857,1.187,1.286,2.508,1.286,3.958v13.258l-0.99,1.583c0,12.534-0.727,33.113-2.176,61.738
		c-1.454,28.628-2.838,44.195-4.155,46.699l-3.365,0.792v0.198l-0.198-0.198l-1.978,0.594
		C180.175,150.19,179.418,149.794,178.957,149.003z"/>
	<path d="M0,296.386c0.173-0.521,0.261-1.957,0.261-4.304c0-7.999,0.13-19.867,0.391-35.607c0.261-15.651,0.392-26.955,0.392-33.913
		l0.261-4.695l0.391-3.913c0-0.607,0.304-0.912,0.913-0.912c0.434,0,1.043,0.13,1.826,0.391l0.391,0.13
		c0,1.915-0.045,3.653-0.13,5.218v5.086v14.218c0.085,4.172,0.13,8.913,0.13,14.216c-0.088,0.436-0.13,1.392-0.13,2.869l-0.13,2.74
		c-0.088,1.739-0.13,3.521-0.13,5.347c0,2.002,0.043,3.828,0.13,5.479l0.13,5.608l-0.391,1.044l0.13-0.13
		c0,0.261-0.045,0.436-0.13,0.521v0.521c0,0.697,0.13,1.305,0.391,1.826l-0.391,12.522v0.782c0,1.48,0.043,2.348,0.13,2.608
		c0,0.436,0.216,0.653,0.652,0.653l6.783,0.261c1.999,0,3.369,0.023,4.108,0.064c0.738,0.045,1.195,0.066,1.37,0.066h0.391
		c0.434,0,0.868,0.24,1.304,0.718c0.434,0.478,0.652,0.978,0.652,1.5c0,1.043-0.697,1.607-2.087,1.696
		c-1.48-0.089-5.087-0.13-10.826-0.13l0.261,0.13c-0.87,0-1.695,0.042-2.478,0.13c-0.697,0.172-1.48,0.261-2.348,0.261
		C0.998,299.387,0.261,298.386,0,296.386z"/>
	<path d="M35.868,296.386c-0.436,0-0.783,0.045-1.043,0.13h-1.043c-1.914,0-3.13-0.433-3.652-1.303c0-0.608,0.346-1.13,1.043-1.566
		l0.652-0.652h3.783l0.521-0.521l0.261-1.175l0.131-1.566c0-5.302-0.131-10.042-0.392-14.216l-0.261-4.826l-0.261-9.522
		c0-3.39,0.13-8.478,0.391-15.26l0.261-15.13c0-6.607-0.218-11.651-0.652-15.13c-0.783-0.261-2.087-0.391-3.913-0.391l-1.434,0.13
		c-0.522,0.088-1.089,0.13-1.696,0.13c-1.653,0-2.478-0.737-2.478-2.217c0-0.346,0.391-0.695,1.174-1.043
		c0.783-0.348,1.434-0.523,1.957-0.523c3.303,0,6.607,0.175,9.913,0.523c1.999,0.087,3.999,0.478,5.999,1.173
		c1.566,0.521,2.348,1.262,2.348,2.217c0,0.175-0.131,0.521-0.392,1.044l-3,0.261c-0.609-0.521-1.871-0.784-3.782-0.784
		l-0.652,0.393c0.261,0.782,0.392,3.086,0.392,6.913c0,5.738-0.045,10.913-0.13,15.521l-0.261,15.521
		c0,3.913,0.174,8.654,0.522,14.218c0.261,6.348,0.391,11.132,0.391,14.347v1.696c-0.088,0.61-0.13,1.392-0.13,2.348
		c0,2.002,0.13,3.218,0.391,3.653l-0.13,0.261c0,0.871,0.956,1.305,2.87,1.305c0.783,0,1.434-0.043,1.957-0.132h1.957
		c2.521,0,3.782,0.61,3.782,1.826c0,0.784-0.261,1.414-0.783,1.892c-0.521,0.478-1.218,0.718-2.087,0.718
		c-0.782,0-1.48-0.087-2.086-0.262c-0.698-0.085-1.435-0.13-2.218-0.13c-0.521,0-1.304,0.219-2.348,0.653
		c-1.043,0.521-1.825,0.782-2.348,0.782C37.388,297.691,36.215,297.257,35.868,296.386z"/>
	<path d="M63.389,296.386c0.173-0.521,0.261-1.957,0.261-4.304c0-7.999,0.13-19.867,0.391-35.607
		c0.261-15.651,0.392-26.955,0.392-33.913l0.261-4.695l0.391-3.913c0-0.607,0.304-0.912,0.913-0.912c0.434,0,1.043,0.13,1.826,0.391
		l0.391,0.13c0,1.915-0.045,3.653-0.13,5.218v5.086v14.218c0.085,4.172,0.13,8.913,0.13,14.216c-0.088,0.436-0.13,1.392-0.13,2.869
		l-0.13,2.74c-0.088,1.739-0.13,3.521-0.13,5.347c0,2.002,0.043,3.828,0.13,5.479l0.13,5.608l-0.391,1.044l0.13-0.13
		c0,0.261-0.045,0.436-0.13,0.521v0.521c0,0.697,0.13,1.305,0.391,1.826l-0.391,12.522v0.782c0,1.48,0.043,2.348,0.13,2.608
		c0,0.436,0.216,0.653,0.652,0.653l6.783,0.261c1.999,0,3.369,0.023,4.108,0.064c0.738,0.045,1.195,0.066,1.37,0.066h0.391
		c0.434,0,0.868,0.24,1.304,0.718c0.434,0.478,0.652,0.978,0.652,1.5c0,1.043-0.697,1.607-2.087,1.696
		c-1.48-0.089-5.087-0.13-10.826-0.13l0.261,0.13c-0.87,0-1.695,0.042-2.478,0.13c-0.697,0.172-1.48,0.261-2.348,0.261
		C64.387,299.387,63.649,298.386,63.389,296.386z"/>
	<path d="M95.865,296.386c0.173-0.521,0.261-1.957,0.261-4.304c0-7.999,0.13-19.867,0.391-35.607
		c0.261-15.651,0.392-26.955,0.392-33.913l0.261-4.695l0.391-3.913c0-0.607,0.304-0.912,0.913-0.912c0.434,0,1.043,0.13,1.826,0.391
		l0.391,0.13c0,1.915-0.045,3.653-0.13,5.218v5.086v14.218c0.085,4.172,0.13,8.913,0.13,14.216c-0.088,0.436-0.13,1.392-0.13,2.869
		l-0.13,2.74c-0.088,1.739-0.13,3.521-0.13,5.347c0,2.002,0.043,3.828,0.13,5.479l0.13,5.608l-0.391,1.044l0.13-0.13
		c0,0.261-0.045,0.436-0.13,0.521v0.521c0,0.697,0.13,1.305,0.391,1.826l-0.391,12.522v0.782c0,1.48,0.043,2.348,0.13,2.608
		c0,0.436,0.216,0.653,0.652,0.653l6.783,0.261c1.999,0,3.369,0.023,4.108,0.064c0.738,0.045,1.195,0.066,1.37,0.066h0.391
		c0.434,0,0.868,0.24,1.304,0.718c0.434,0.478,0.652,0.978,0.652,1.5c0,1.043-0.697,1.607-2.087,1.696
		c-1.48-0.089-5.087-0.13-10.826-0.13l0.261,0.13c-0.87,0-1.695,0.042-2.478,0.13c-0.697,0.172-1.48,0.261-2.348,0.261
		C96.864,299.387,96.126,298.386,95.865,296.386z"/>
	<path d="M128.082,296.648v-1.696c0.085-0.434,0.13-0.956,0.13-1.566l-0.522-0.521c0.695-1.826,1.043-3.608,1.043-5.349
		c0-1.998-0.13-4.869-0.391-8.609l-0.261-8.609c0-4.346,0.13-10.868,0.391-19.565c0.347-7.738,0.521-14.301,0.521-19.695
		l-0.261-7.825c-0.175-2.348-0.261-4.958-0.261-7.827c0-1.305,0.303-2.238,0.913-2.805c0.607-0.565,1.565-0.848,2.869-0.848
		c0.868,0,1.566,0.262,2.087,0.784c0.174,0.087,1.435,0.261,3.783,0.521c2.172,0.261,4.044,0.652,5.608,1.175
		c1.651,0.521,2.478,1.173,2.478,1.955c0,0.871-0.827,1.741-2.478,2.61c-4.957-1.651-8.478-2.48-10.565-2.48l-0.652,0.784
		c0.085,0.782,0.13,2.653,0.13,5.608c0,3.741-0.088,7.09-0.261,10.044c-0.088,3.044-0.131,6.436-0.131,10.174
		c0,2.435,0.607,3.651,1.826,3.651l2.087-0.13c0.695-0.085,1.434-0.13,2.217-0.13c3.391,0,5.087,0.784,5.087,2.348
		c0,0.959-0.218,1.762-0.652,2.414c-0.436,0.652-1.089,0.978-1.957,0.978c-1.304,0-2.305-0.346-2.999-1.044l-4.174-0.652h-0.652
		l-0.652,0.652v0.393c0.173,1.479,0.261,4.913,0.261,10.303c0,3.392-0.045,6.48-0.13,9.262l-0.13,9.26
		c0,3.392,0.13,6.871,0.391,10.435c0.085,2.002,0.521,3.326,1.304,3.978c0.783,0.652,2.217,0.978,4.304,0.978l2.348-0.13
		c0.783-0.085,1.651-0.13,2.609-0.13c2.521,0,3.782,0.566,3.782,1.696c0,1.564-1.914,2.348-5.739,2.348H130.69
		C129.124,299.387,128.255,298.473,128.082,296.648z"/>
	<path d="M200.492,297.493c1.317-12.002,1.978-28.03,1.978-48.084c0-8.837,0.396-22.163,1.188-39.973
		c0.921-16.488,1.385-29.747,1.385-39.773c0-1.188,0.559-2.109,1.681-2.77c1.119-0.659,2.406-0.99,3.859-0.99
		c4.616,0,9.696,0.529,15.237,1.583c5.54,1.058,8.311,2.443,8.311,4.155c0,2.245-2.31,3.365-6.926,3.365
		c-2.903-1.317-6.598-1.979-11.081-1.979l-2.374,0.198c-0.396,0.133-0.693,0.331-0.891,0.594c-0.198,0.265-0.365,0.661-0.495,1.188
		c-0.266,1.057-0.529,1.78-0.792,2.176c0,5.936-0.265,12.931-0.792,20.974c-0.661,7.786-0.99,14.712-0.99,20.778v6.925
		c0,0.529,1.055,0.727,3.167,0.594c6.728,0,10.091,1.057,10.091,3.167c0,1.057-0.495,1.949-1.484,2.671
		c-0.99,0.727-2.078,1.089-3.266,1.089c-0.791,0-1.913-0.198-3.364-0.594c-1.32-0.396-2.443-0.594-3.364-0.594
		c-2.374,0-3.562,3.234-3.562,9.696v22.36c0,3.167,0.198,7.851,0.594,14.049c0.396,6.333,0.594,11.082,0.594,14.248
		c0,5.275-1.583,7.915-4.749,7.915L200.492,297.493z"/>
	<path d="M289.336,298.779c-0.529-0.463-0.925-1.681-1.186-3.661c-1.188-9.627-1.915-15.632-2.179-18.007l-0.988-7.915
		c-2.903-0.658-6.203-0.99-9.894-0.99l-7.124-0.396c-3.166-0.394-5.476-0.592-6.925-0.592c-0.792,0-1.255,0.33-1.385,0.988
		c0,0.396-0.068,0.594-0.198,0.594l-0.395,3.958c-0.134,2.375-0.86,7.123-2.177,14.247c-0.661,3.562-1.453,6.333-2.374,8.311
		c-1.058,2.245-2.048,3.365-2.969,3.365c-0.792,0-1.651-0.365-2.572-1.088c-0.924-0.724-1.385-1.485-1.385-2.277l0.198-0.594
		l0.198-0.594c2.375-9.365,4.353-18.665,5.937-27.9l2.374-12.269l2.375-15.038l2.176-13.061c0.659-3.561,1.846-9.3,3.562-17.215
		c1.846-8.969,2.969-15.103,3.364-18.403c0.13-0.396,0.396-2.835,0.792-7.321c0.526-5.012,0.99-8.706,1.385-11.081
		c0.396-3.428,0.792-5.407,1.188-5.936h1.385c0.396,0.133,0.857,0.198,1.385,0.198c1.583,0,2.77-0.396,3.562-1.188
		c0.921,0,1.747,0.297,2.474,0.891c0.724,0.594,1.088,1.286,1.088,2.077c0,6.333,0.46,13.589,1.385,21.766
		c0.526,4.224,0.922,7.717,1.188,10.488c1.45,17.018,5.144,48.945,11.082,95.774v0.594c0,1.318-0.529,2.307-1.583,2.969
		C291.117,299.472,289.862,299.241,289.336,298.779z M283.994,263.854c-1.321-18.997-3.828-47.027-7.52-84.098l-10.685,52.834
		c-3.036,15.17-4.551,24.735-4.551,28.691c0,0.661,2.505,1.255,7.519,1.781c5.012,0.529,9.43,0.792,13.258,0.792H283.994z"/>
	<path d="M390.252,295.316v-13.059c0-18.997-0.396-33.837-1.188-44.523l-0.594-7.321c-0.529-3.295-0.792-6.2-0.792-8.707
		c0-4.483,0.13-8.573,0.396-12.269l0.396-12.268c0-4.089-0.266-7.189-0.792-9.3c-2.641,1.849-10.62,29.617-23.943,83.307
		l-0.198,2.969c-0.396,3.299-0.925,5.936-1.583,7.915c-0.396,1.453-0.959,2.573-1.681,3.363c-0.727,0.792-1.553,1.188-2.475,1.188
		c-2.111,0-3.628-0.525-4.55-1.583c-0.925-1.054-1.385-2.702-1.385-4.946c0-3.562-1.681-12.794-5.046-27.703
		c-3.363-14.905-6.993-29.218-10.882-42.94c-3.894-13.719-6.565-21.303-8.015-22.756c-0.134,4.618-0.661,15.502-1.583,32.65
		c-1.849,30.344-2.771,54.219-2.771,71.633l0.198,7.915c-0.528,1.712-1.913,2.573-4.155,2.573c-0.396,0-1.057-0.365-1.979-1.089
		c-0.924-0.726-1.385-1.286-1.385-1.681c0-11.873,1.056-32.716,3.167-62.53c1.979-27.703,2.969-48.48,2.969-62.332
		c0-0.659-0.134-1.317-0.396-1.979c-0.396-0.791-0.594-1.385-0.594-1.78c0-1.979,1.712-2.968,5.144-2.968
		c2.241,0,3.562,0.989,3.958,2.968c0.525,2.641,0.792,4.619,0.792,5.936l0.198,2.375c0.658,3.432,2.571,8.707,5.738,15.83
		c2.504,5.674,4.419,10.622,5.738,14.84c0.792,3.167,1.516,5.74,2.177,7.717c2.108,7.653,3.493,13.326,4.155,17.018l2.573,5.146
		c0.396,1.979,1.188,5.213,2.375,9.696c1.187,5.014,2.044,9.103,2.573,12.268c0.525,3.167,0.79,6.203,0.79,9.103
		c1.451-2.241,5.572-15.73,12.369-40.467c6.792-24.735,10.784-40.531,11.972-47.392c0.129-0.262,0.228-0.624,0.296-1.088
		c0.064-0.46,0.164-1.088,0.298-1.879c0.262-1.714,0.856-4.286,1.78-7.717c1.056-2.638,2.637-3.958,4.75-3.958
		c0.92,0,1.979,0.396,3.165,1.188c1.188,0.792,1.781,1.583,1.781,2.375c0,55.009,0.856,84.098,2.573,87.265v10.288
		c-0.134,3.036-0.198,6.531-0.198,10.488c0,8.444,0.46,14.776,1.385,18.997c0.129,0.13,0.228,0.328,0.296,0.594
		c0.066,0.262,0.164,0.594,0.298,0.99c0.129,0.525,0.198,1.118,0.198,1.781c0,1.45-0.43,2.9-1.287,4.353
		c-0.859,1.45-1.879,2.177-3.067,2.177C391.568,307.981,390.252,303.757,390.252,295.316z M387.679,186.681h-0.198l-0.396,0.198
		l0.594,0.198V186.681z"/>
	<path d="M433.586,295.712c-0.661,0-1.187,0.069-1.583,0.198h-1.583c-2.903,0-4.748-0.658-5.54-1.979
		c0-0.92,0.525-1.712,1.583-2.373l0.988-0.99h5.74l0.792-0.792l0.396-1.781l0.198-2.375c0-8.044-0.198-15.236-0.594-21.568
		l-0.396-7.321l-0.396-14.446c0-5.144,0.198-12.861,0.594-23.151l0.396-22.953c0-10.025-0.331-17.677-0.99-22.954
		c-1.188-0.396-3.167-0.594-5.938-0.594l-2.175,0.198c-0.792,0.133-1.651,0.198-2.573,0.198c-2.507,0-3.76-1.119-3.76-3.364
		c0-0.525,0.594-1.055,1.781-1.583c1.188-0.525,2.177-0.791,2.969-0.791c5.012,0,10.023,0.266,15.038,0.791
		c3.033,0.134,6.066,0.727,9.103,1.781c2.375,0.792,3.562,1.914,3.562,3.364c0,0.266-0.198,0.792-0.594,1.583l-4.552,0.396
		c-0.924-0.792-2.838-1.188-5.738-1.188l-0.99,0.594c0.396,1.188,0.594,4.683,0.594,10.487c0,8.707-0.068,16.557-0.198,23.547
		l-0.396,23.549c0,5.936,0.262,13.127,0.792,21.568c0.396,9.632,0.594,16.887,0.594,21.768v2.571
		c-0.134,0.925-0.198,2.113-0.198,3.562c0,3.036,0.198,4.882,0.594,5.54l-0.198,0.396c0,1.321,1.45,1.979,4.353,1.979
		c1.188,0,2.177-0.064,2.969-0.198h2.969c3.825,0,5.738,0.925,5.738,2.771c0,1.188-0.396,2.145-1.188,2.869
		c-0.792,0.726-1.849,1.088-3.167,1.088c-1.186,0-2.245-0.13-3.165-0.396c-1.057-0.129-2.177-0.198-3.365-0.198
		c-0.792,0-1.979,0.331-3.561,0.99c-1.583,0.792-2.771,1.188-3.562,1.188C435.892,297.691,434.111,297.033,433.586,295.712z"/>
	<path d="M475.337,295.712c0.264-0.792,0.396-2.967,0.396-6.53c0-12.136,0.198-30.143,0.594-54.021
		c0.396-23.745,0.594-40.893,0.594-51.449l0.396-7.123l0.594-5.936c0-0.922,0.46-1.385,1.385-1.385c0.658,0,1.583,0.198,2.771,0.594
		l0.592,0.198c0,2.903-0.068,5.541-0.198,7.915v7.717v21.57c0.13,6.332,0.198,13.523,0.198,21.568
		c-0.132,0.661-0.198,2.111-0.198,4.354l-0.196,4.155c-0.134,2.64-0.198,5.342-0.198,8.113c0,3.036,0.064,5.807,0.198,8.311
		l0.196,8.509l-0.592,1.583l0.198-0.198c0,0.396-0.069,0.661-0.198,0.792v0.792c0,1.057,0.198,1.979,0.592,2.769l-0.592,18.997
		v1.188c0,2.245,0.064,3.562,0.198,3.958c0,0.661,0.327,0.99,0.988,0.99l10.29,0.394c3.033,0,5.11,0.035,6.234,0.1
		c1.12,0.068,1.812,0.098,2.077,0.098h0.594c0.658,0,1.318,0.365,1.979,1.089c0.658,0.726,0.99,1.484,0.99,2.275
		c0,1.583-1.057,2.439-3.167,2.573c-2.245-0.134-7.717-0.198-16.424-0.198l0.396,0.198c-1.319,0-2.573,0.064-3.759,0.198
		c-1.059,0.262-2.246,0.396-3.562,0.396C476.853,300.264,475.733,298.745,475.337,295.712z"/>
	<path d="M529.753,295.712c-0.661,0-1.188,0.069-1.583,0.198h-1.583c-2.903,0-4.748-0.658-5.54-1.979
		c0-0.92,0.525-1.712,1.583-2.373l0.988-0.99h5.74l0.792-0.792l0.396-1.781l0.198-2.375c0-8.044-0.198-15.236-0.594-21.568
		l-0.396-7.321l-0.396-14.446c0-5.144,0.198-12.861,0.594-23.151l0.396-22.953c0-10.025-0.331-17.677-0.99-22.954
		c-1.188-0.396-3.167-0.594-5.937-0.594l-2.175,0.198c-0.792,0.133-1.651,0.198-2.573,0.198c-2.507,0-3.76-1.119-3.76-3.364
		c0-0.525,0.594-1.055,1.781-1.583c1.188-0.525,2.177-0.791,2.969-0.791c5.012,0,10.023,0.266,15.038,0.791
		c3.033,0.134,6.066,0.727,9.103,1.781c2.375,0.792,3.562,1.914,3.562,3.364c0,0.266-0.198,0.792-0.594,1.583l-4.552,0.396
		c-0.924-0.792-2.838-1.188-5.738-1.188l-0.99,0.594c0.396,1.188,0.594,4.683,0.594,10.487c0,8.707-0.068,16.557-0.198,23.547
		l-0.396,23.549c0,5.936,0.262,13.127,0.792,21.568c0.396,9.632,0.594,16.887,0.594,21.768v2.571
		c-0.134,0.925-0.198,2.113-0.198,3.562c0,3.036,0.198,4.882,0.594,5.54l-0.198,0.396c0,1.321,1.45,1.979,4.353,1.979
		c1.188,0,2.177-0.064,2.969-0.198h2.969c3.825,0,5.738,0.925,5.738,2.771c0,1.188-0.396,2.145-1.188,2.869
		c-0.792,0.726-1.849,1.088-3.167,1.088c-1.186,0-2.245-0.13-3.165-0.396c-1.057-0.129-2.177-0.198-3.365-0.198
		c-0.792,0-1.979,0.331-3.561,0.99c-1.583,0.792-2.771,1.188-3.562,1.188C532.058,297.691,530.277,297.033,529.753,295.712z"/>
	<path d="M571.109,296.108v-2.573c0.13-0.658,0.198-1.45,0.198-2.373l-0.792-0.792c1.056-2.771,1.583-5.472,1.583-8.113
		c0-3.033-0.198-7.387-0.594-13.061l-0.396-13.059c0-6.596,0.198-16.49,0.594-29.683c0.526-11.74,0.792-21.698,0.792-29.879
		l-0.396-11.873c-0.266-3.562-0.396-7.519-0.396-11.873c0-1.978,0.462-3.394,1.385-4.254c0.922-0.856,2.375-1.286,4.354-1.286
		c1.316,0,2.373,0.395,3.165,1.187c0.264,0.133,2.177,0.396,5.74,0.792c3.295,0.396,6.134,0.99,8.509,1.781
		c2.504,0.791,3.759,1.78,3.759,2.968c0,1.32-1.255,2.64-3.759,3.958c-7.521-2.505-12.863-3.76-16.03-3.76l-0.988,1.188
		c0.129,1.187,0.198,4.025,0.198,8.508c0,5.674-0.134,10.753-0.396,15.238c-0.134,4.618-0.198,9.764-0.198,15.434
		c0,3.694,0.92,5.54,2.769,5.54l3.167-0.198c1.054-0.13,2.177-0.198,3.365-0.198c5.144,0,7.717,1.188,7.717,3.562
		c0,1.453-0.331,2.671-0.99,3.661c-0.661,0.99-1.651,1.484-2.969,1.484c-1.979,0-3.497-0.526-4.55-1.583l-6.333-0.99h-0.99
		l-0.988,0.99v0.594c0.262,2.245,0.396,7.455,0.396,15.632c0,5.146-0.069,9.83-0.198,14.05l-0.198,14.049
		c0,5.144,0.198,10.424,0.594,15.83c0.129,3.036,0.79,5.046,1.978,6.036c1.188,0.99,3.365,1.484,6.531,1.484l3.561-0.198
		c1.188-0.129,2.505-0.198,3.958-0.198c3.825,0,5.738,0.861,5.738,2.573c0,2.375-2.903,3.562-8.707,3.562h-16.226
		C572.692,300.264,571.373,298.878,571.109,296.108z"/>
</g>
</svg>
