<?xml version="1.0" encoding="utf-8"?>
<!-- Generator: Adobe Illustrator 25.2.1, SVG Export Plug-In . SVG Version: 6.00 Build 0)  -->
<svg version="1.1" xmlns="http://www.w3.org/2000/svg" xmlns:xlink="http://www.w3.org/1999/xlink" x="0px" y="0px" width="400px"
	 height="400px" viewBox="0 0 400 400" style="enable-background:new 0 0 400 400;" xml:space="preserve">
<g id="Layer_1">
	<circle style="fill:#38524F;" cx="200" cy="200" r="200"/>
</g>
<g id="Layer_1_copy">
	<g>
		<path style="fill:#FFFFFF;" d="M122.599,81.984c0.972,2.166,1.357,4.082,1.156,5.749c-0.249,1.983-1.358,3.812-3.329,5.486
			c-1.054,0.896-2.221,1.612-3.501,2.148c-1.281,0.537-2.979,1.114-5.097,1.733c-2.318,0.709-4.17,1.338-5.558,1.888l-1.029,0.461
			c-0.694,1.18-1.5,2.16-2.416,2.938c-1.054,0.896-1.775,1.115-2.164,0.658c-0.408-0.48,0.007-1.246,1.244-2.297
			c0.802-0.681,1.739-1.32,2.811-1.916c0.558-0.829,1.134-1.869,1.728-3.121c0.362-0.78,0.644-1.354,0.845-1.722
			c-2.104,1.472-4.308,2.303-6.614,2.49c-2.306,0.188-4.617-0.279-6.933-1.402c-2.315-1.123-4.493-2.885-6.533-5.285
			c-2.136-2.515-3.566-5.138-4.29-7.87c-0.723-2.731-0.71-5.34,0.038-7.827c0.749-2.486,2.176-4.625,4.285-6.416
			c2.176-1.85,4.502-2.979,6.976-3.388c2.473-0.409,4.954-0.066,7.442,1.028c2.489,1.095,4.831,2.933,7.025,5.516
			c2.021,2.378,3.41,4.849,4.168,7.413c0.758,2.564,0.864,5.034,0.316,7.408c-0.547,2.375-1.706,4.47-3.475,6.289l0.029,0.034
			c-0.491,0.536-0.885,1.037-1.178,1.503c-0.295,0.466-0.657,1.119-1.088,1.958c-0.515,1.066-0.979,1.914-1.392,2.541
			c2.97-1.659,5.47-3.093,7.499-4.305c2.028-1.212,3.627-2.314,4.795-3.307c1.626-1.382,2.716-2.712,3.269-3.988
			c0.552-1.277,0.645-2.665,0.279-4.165L122.599,81.984z M96.877,92.147c2.21,1.232,4.306,1.853,6.287,1.862
			c1.981,0.01,3.682-0.589,5.103-1.796c1.466-1.246,2.323-2.85,2.57-4.812c0.247-1.961-0.103-4.115-1.05-6.46
			c-0.947-2.344-2.42-4.694-4.421-7.049c-2.021-2.377-4.136-4.182-6.347-5.414c-2.21-1.231-4.306-1.852-6.287-1.862
			c-1.981-0.009-3.682,0.589-5.103,1.796c-1.466,1.247-2.323,2.851-2.57,4.812c-0.247,1.962,0.103,4.115,1.05,6.46
			c0.947,2.345,2.421,4.695,4.422,7.049C92.552,89.111,94.667,90.916,96.877,92.147z"/>
		<path style="fill:#FFFFFF;" d="M135.349,68.615c0.681,1.201,1.398,1.949,2.154,2.245c0.755,0.296,1.682,0.133,2.781-0.49
			l0.466,0.822c-0.855,0.381-1.689,0.802-2.5,1.261c-1.648,0.934-2.905,1.887-3.77,2.861l-2.618-4.62
			c0.29,1.975,0.073,3.666-0.649,5.075c-0.723,1.409-1.764,2.5-3.124,3.27c-1.779,1.008-3.42,1.283-4.924,0.825
			c-0.767-0.255-1.478-0.731-2.132-1.43c-0.654-0.697-1.344-1.686-2.069-2.965l-5.569-9.827c-0.68-1.2-1.398-1.949-2.153-2.245
			c-0.756-0.296-1.683-0.133-2.781,0.49l-0.466-0.822c0.855-0.381,1.688-0.802,2.5-1.261c1.648-0.934,2.904-1.887,3.77-2.861
			l8.72,15.386c0.562,0.993,1.076,1.762,1.541,2.308c0.465,0.547,1.024,0.893,1.678,1.04c0.653,0.147,1.425-0.031,2.314-0.536
			c0.994-0.563,1.719-1.388,2.175-2.474c0.456-1.085,0.606-2.3,0.45-3.643c-0.156-1.342-0.604-2.666-1.343-3.972l-4.593-8.104
			c-0.68-1.2-1.398-1.949-2.153-2.245c-0.756-0.296-1.683-0.133-2.781,0.49l-0.466-0.822c0.855-0.381,1.688-0.802,2.5-1.261
			c1.648-0.934,2.904-1.887,3.77-2.861L135.349,68.615z"/>
		<path style="fill:#FFFFFF;" d="M135.087,37.614c0.745,0.31,1.266,0.826,1.562,1.547c0.296,0.722,0.289,1.455-0.023,2.199
			c-0.312,0.745-0.829,1.266-1.552,1.562c-0.724,0.297-1.458,0.291-2.202-0.019c-0.745-0.31-1.266-0.826-1.562-1.547
			c-0.296-0.721-0.289-1.454,0.023-2.199c0.312-0.744,0.829-1.265,1.552-1.562C133.607,37.298,134.342,37.305,135.087,37.614z
			 M146.55,64.673c0.468,1.138,1.025,1.825,1.675,2.061s1.559,0.113,2.727-0.367l0.359,0.874c-2.604,0.941-4.31,1.577-5.116,1.908
			c-0.807,0.332-2.466,1.079-4.979,2.241l-0.359-0.874c1.168-0.48,1.9-1.032,2.196-1.657c0.296-0.625,0.21-1.505-0.257-2.643
			l-5.354-13.028c-0.524-1.276-1.144-2.108-1.855-2.497c-0.713-0.388-1.652-0.343-2.82,0.138l-0.359-0.874
			c0.924-0.283,1.803-0.596,2.638-0.938c1.752-0.72,3.118-1.508,4.099-2.366L146.55,64.673z"/>
		<path style="fill:#FFFFFF;" d="M161.459,40.824c1.614,0.507,2.611,1.424,2.989,2.75c0.214,0.75,0.166,1.403-0.145,1.96
			c-0.311,0.557-0.798,0.93-1.463,1.119c-0.666,0.19-1.285,0.156-1.858-0.102c-0.574-0.257-0.955-0.718-1.145-1.381
			c-0.173-0.606-0.145-1.167,0.083-1.685c0.228-0.517,0.581-0.922,1.06-1.215c-0.438-0.437-1.074-0.723-1.91-0.859
			c-0.836-0.136-1.674-0.084-2.512,0.155c-1.07,0.305-1.971,0.929-2.703,1.871c-0.732,0.942-1.177,2.286-1.336,4.031
			c-0.158,1.746,0.128,3.902,0.861,6.47c1.021,3.577,2.341,6.016,3.963,7.316c1.621,1.3,3.357,1.686,5.208,1.158
			c1.243-0.354,2.319-1.051,3.226-2.09c0.907-1.038,1.505-2.425,1.792-4.161l0.911,0.068c-0.023,1.785-0.538,3.46-1.544,5.026
			c-1.007,1.566-2.581,2.655-4.72,3.265c-1.793,0.511-3.552,0.514-5.274,0.007c-1.724-0.506-3.254-1.513-4.59-3.019
			c-1.337-1.506-2.334-3.413-2.992-5.721c-0.667-2.337-0.833-4.536-0.498-6.597c0.334-2.061,1.122-3.821,2.362-5.283
			c1.24-1.46,2.843-2.472,4.81-3.033C157.97,40.322,159.779,40.306,161.459,40.824z"/>
		<path style="fill:#FFFFFF;" d="M191.738,57.021c0.494,0.299,1.059,0.452,1.697,0.46l0.121,0.937
			c-1.804,0.113-3.02,0.21-3.646,0.291c-0.805,0.104-2.452,0.379-4.941,0.822l-0.122-0.937c0.417-0.054,0.742-0.179,0.975-0.376
			c0.232-0.196,0.333-0.413,0.302-0.652c-0.031-0.238-0.149-0.449-0.355-0.634l-6.116-6.831c-0.604-0.678-1.152-1.113-1.647-1.307
			c-0.495-0.192-1.148-0.267-1.961-0.222l1.006,7.765c0.158,1.22,0.483,2.032,0.976,2.437c0.492,0.406,1.29,0.536,2.393,0.393
			l0.122,0.938c-2.52,0.206-4.183,0.36-4.988,0.465c-0.865,0.112-2.662,0.406-5.389,0.88l-0.122-0.938
			c1.252-0.162,2.102-0.506,2.549-1.034c0.447-0.526,0.592-1.4,0.434-2.62l-3.303-25.481c-0.177-1.368-0.56-2.333-1.148-2.892
			c-0.588-0.559-1.508-0.757-2.76-0.595l-0.122-0.937c0.965-0.035,1.896-0.11,2.791-0.226c1.878-0.244,3.402-0.652,4.571-1.228
			l2.869,22.135c0.849-0.231,1.546-0.525,2.091-0.884c0.545-0.358,1.051-0.84,1.518-1.445l2.865-3.865
			c0.827-1.105,1.198-1.985,1.113-2.64c-0.065-0.505-0.421-0.845-1.064-1.019c-0.644-0.173-1.458-0.197-2.442-0.069l-0.116-0.893
			c2.102-0.151,3.795-0.311,5.077-0.477c1.401-0.182,2.691-0.409,3.868-0.683l0.116,0.893c-1.446,0.309-2.697,1.182-3.753,2.619
			l-4.716,6.419l9.524,9.974C190.666,56.237,191.244,56.722,191.738,57.021z"/>
		<path style="fill:#FFFFFF;" d="M210.443,38.181c1.842,2.059,2.725,5.143,2.65,9.252c-0.074,4.11-1.07,7.152-2.984,9.127
			c-1.916,1.976-4.406,2.936-7.473,2.88c-3.067-0.056-5.522-1.105-7.364-3.149c-1.842-2.043-2.726-5.12-2.651-9.229
			s1.069-7.16,2.985-9.15c1.916-1.991,4.407-2.958,7.474-2.902C206.146,35.065,208.6,36.122,210.443,38.181z M198.729,38.598
			c-1.086,1.826-1.664,4.673-1.734,8.542c-0.07,3.87,0.404,6.729,1.423,8.578c1.019,1.849,2.43,2.79,4.234,2.822
			c1.805,0.033,3.248-0.856,4.334-2.667c1.086-1.81,1.664-4.65,1.734-8.52c0.07-3.87-0.404-6.736-1.424-8.6s-2.43-2.812-4.232-2.845
			C201.26,35.876,199.815,36.773,198.729,38.598z"/>
		<path style="fill:#FFFFFF;" d="M234.482,39.419c0.648,0.803,0.893,1.693,0.736,2.67c-0.123,0.771-0.461,1.393-1.008,1.866
			c-0.549,0.475-1.209,0.649-1.98,0.525c-0.652-0.105-1.176-0.401-1.57-0.891c-0.395-0.488-0.533-1.088-0.418-1.799
			c0.156-0.977,0.789-1.696,1.898-2.156c-0.16-0.329-0.447-0.528-0.863-0.595c-1.158-0.186-2.285,0.097-3.379,0.847
			c-1.096,0.751-2.016,1.735-2.76,2.952c-0.742,1.218-1.207,2.404-1.393,3.559l-1.514,9.419c-0.219,1.363,0.021,2.374,0.723,3.033
			s1.838,1.116,3.412,1.369l-0.15,0.933l-1.062-0.216c-3.014-0.575-4.936-0.93-5.768-1.063c-0.771-0.124-2.533-0.346-5.283-0.667
			l0.15-0.933c1.248,0.2,2.16,0.112,2.738-0.267c0.578-0.377,0.965-1.173,1.16-2.389l2.234-13.906
			c0.219-1.362,0.127-2.396-0.277-3.099c-0.406-0.703-1.23-1.155-2.479-1.355l0.15-0.933c0.936,0.241,1.85,0.434,2.74,0.577
			c1.869,0.301,3.445,0.342,4.73,0.122l-0.893,5.554c0.771-1.395,1.838-2.576,3.195-3.543c1.359-0.967,2.75-1.336,4.176-1.107
			C232.918,38.119,233.836,38.616,234.482,39.419z"/>
		<path style="fill:#FFFFFF;" d="M251.779,66.155c0.301,0.753,1.055,1.317,2.262,1.691l-0.281,0.903
			c-0.863-0.363-1.74-0.682-2.631-0.958c-1.809-0.562-3.363-0.825-4.666-0.79l1.188-3.825c-0.916,1.129-1.996,1.87-3.24,2.222
			c-1.242,0.352-2.611,0.296-4.104-0.167c-2.756-0.856-4.611-2.515-5.562-4.978c-0.951-2.463-0.82-5.595,0.393-9.397
			c0.773-2.492,1.871-4.484,3.295-5.974c1.424-1.49,3.012-2.45,4.768-2.878c1.754-0.429,3.521-0.367,5.303,0.186
			c1.09,0.338,2.023,0.857,2.799,1.553c0.775,0.696,1.303,1.559,1.582,2.588l2.588-8.337c0.41-1.317,0.463-2.354,0.162-3.107
			c-0.301-0.753-1.055-1.317-2.26-1.691l0.279-0.902c0.893,0.371,1.77,0.69,2.631,0.958c1.809,0.562,3.363,0.825,4.666,0.79
			l-9.008,29.008C251.531,64.366,251.479,65.401,251.779,66.155z M245.371,63.977c1.158-0.583,2.152-1.609,2.986-3.078l3.979-12.807
			c-0.092-2.446-1.357-4.049-3.797-4.807c-1.781-0.553-3.5-0.089-5.154,1.392c-1.658,1.48-3.014,3.973-4.07,7.477
			c-1.096,3.429-1.412,6.167-0.943,8.211c0.465,2.046,1.66,3.367,3.586,3.965C243.076,64.677,244.215,64.56,245.371,63.977z"/>
		<path style="fill:#FFFFFF;" d="M273.455,72.623c-1.213,1.242-2.75,2.065-4.609,2.471c-1.857,0.406-3.732,0.144-5.621-0.786
			c-1.914-0.943-3.357-2.197-4.33-3.762s-1.441-3.318-1.408-5.257c0.033-1.94,0.559-3.946,1.58-6.019
			c1.152-2.342,2.529-4.188,4.135-5.539c1.602-1.351,3.32-2.152,5.154-2.403c1.832-0.251,3.666,0.075,5.5,0.978
			c2.428,1.195,3.936,2.849,4.521,4.959c0.586,2.111,0.145,4.66-1.326,7.648l-12.666-6.235c-0.453,0.714-0.916,1.555-1.393,2.524
			c-0.875,1.776-1.348,3.467-1.416,5.071c-0.07,1.604,0.199,2.999,0.805,4.184c0.607,1.185,1.438,2.036,2.488,2.554
			c1.295,0.638,2.594,0.893,3.896,0.765c1.303-0.127,2.65-0.752,4.039-1.874L273.455,72.623z M269.125,53.236
			c-1.527,0.787-2.996,2.338-4.402,4.654l8.82,4.342c1.088-2.073,1.645-3.971,1.674-5.696c0.027-1.725-0.605-2.906-1.9-3.544
			C272.047,52.369,270.65,52.45,269.125,53.236z"/>
		<path style="fill:#FFFFFF;" d="M298.812,68.692c0.25,1.001,0.098,1.912-0.457,2.732c-0.436,0.647-1.002,1.07-1.699,1.269
			s-1.369,0.08-2.018-0.357c-0.547-0.37-0.898-0.859-1.049-1.469c-0.152-0.609-0.025-1.211,0.377-1.808
			c0.555-0.821,1.432-1.207,2.631-1.157c-0.008-0.366-0.186-0.667-0.533-0.903c-0.973-0.656-2.113-0.874-3.422-0.653
			c-1.311,0.22-2.559,0.726-3.746,1.517c-1.186,0.792-2.107,1.672-2.762,2.642l-5.336,7.908c-0.773,1.144-0.979,2.162-0.621,3.056
			c0.357,0.893,1.197,1.786,2.52,2.677l-0.529,0.783l-0.871-0.643c-2.492-1.791-4.088-2.921-4.785-3.392
			c-0.648-0.438-2.152-1.38-4.512-2.828l0.529-0.783c1.045,0.707,1.91,1.01,2.596,0.911c0.684-0.1,1.369-0.659,2.057-1.679
			l7.879-11.675c0.771-1.144,1.123-2.12,1.051-2.928c-0.07-0.809-0.629-1.565-1.676-2.272l0.527-0.783
			c0.748,0.613,1.496,1.171,2.244,1.676c1.568,1.06,2.982,1.76,4.24,2.102l-3.146,4.663c1.287-0.94,2.75-1.564,4.389-1.869
			c1.639-0.306,3.057-0.054,4.254,0.753C297.939,66.854,298.562,67.691,298.812,68.692z"/>
		<path style="fill:#FFFFFF;" d="M318.002,84.759l-0.6,0.671c-0.49-0.356-1.068-0.51-1.734-0.463
			c-0.668,0.047-1.518,0.333-2.551,0.859l-18.408,9.502l-3.752,1.898c-1.404,0.715-2.586,1.068-3.545,1.057
			c-0.615,0.013-1.219-0.124-1.811-0.411c-0.59-0.286-1.121-0.64-1.592-1.061c-0.674-0.601-1.062-1.271-1.168-2.009
			c-0.107-0.739,0.119-1.421,0.68-2.047c0.479-0.537,1.021-0.828,1.625-0.872c0.604-0.044,1.186,0.185,1.746,0.686
			c0.492,0.44,0.777,0.945,0.854,1.516c0.074,0.57-0.107,1.101-0.547,1.593c-0.6,0.671-1.352,0.904-2.258,0.699
			c0.025,0.062,0.082,0.133,0.172,0.214c1.232,1.101,2.967,1.081,5.197-0.063l3.906-2.002l7.014-20.104
			c0.297-1.101,0.365-1.945,0.205-2.532c-0.162-0.587-0.434-1.05-0.814-1.391l0.629-0.705c0.846,0.996,1.883,2.044,3.117,3.146
			c1.121,1.001,2.639,2.236,4.553,3.705l-0.629,0.705c-0.809-0.721-1.457-1.18-1.947-1.376s-0.965-0.037-1.424,0.478
			c-0.42,0.47-0.775,1.138-1.064,2.005l-4.898,13.606l12.398-6.363c0.846-0.451,1.428-0.855,1.748-1.213
			c0.459-0.514,0.598-1.075,0.414-1.682c-0.184-0.606-0.684-1.334-1.498-2.183l0.6-0.671c1.129,1.129,2.041,2.003,2.736,2.625
			C316.342,83.457,317.223,84.185,318.002,84.759z"/>
	</g>
</g>
<g id="Layer_3">
	<g>
		<g>
			<g>
				<path style="fill:#FFFFFF;" d="M114.868,223.107h17.725c1.172,9.814,9.741,16.553,20.874,16.553
					c12.598,0,21.24-8.789,21.24-21.24c0-12.671-8.716-21.606-21.094-21.606c-8.643,0-16.113,3.955-19.995,10.546h-17.139
					l5.493-60.205h64.746v15.454h-49.805l-2.71,30.908h0.439c4.395-6.812,13.037-11.06,23.511-11.06
					c20.215,0,34.79,14.868,34.79,35.449c0,21.973-16.187,37.061-39.624,37.061C131.494,254.968,115.674,241.857,114.868,223.107z"
					/>
			</g>
			<g>
				<path style="fill:#FFFFFF;" d="M204.224,199.89c0-33.765,15.601-54.858,41.382-54.858c25.708,0,41.235,20.947,41.235,54.785
					c0,33.837-15.381,55.151-41.235,55.151C219.678,254.968,204.224,233.801,204.224,199.89z M267.725,199.89
					c0-24.683-8.276-39.404-22.119-39.404c-13.916,0-22.339,14.868-22.339,39.331c0,24.902,8.276,39.697,22.339,39.697
					C259.595,239.514,267.725,224.792,267.725,199.89z"/>
			</g>
		</g>
	</g>
	<g>
		<path style="fill:#FFFFFF;" d="M102.229,321.53c-0.69,1.021-1.381,1.755-2.07,2.205c-0.69,0.45-1.605,0.675-2.745,0.675
			c-1.23,0-2.243-0.36-3.037-1.08c-0.796-0.72-1.389-1.979-1.778-3.78l-0.989-4.5c-0.36-1.559-0.698-2.76-1.013-3.6
			c-0.315-0.84-0.788-1.515-1.418-2.025c-0.63-0.51-1.515-0.765-2.654-0.765h-4.275v10.351c0,1.14,0.09,1.965,0.271,2.475
			c0.18,0.511,0.517,0.854,1.012,1.035c0.495,0.18,1.283,0.3,2.363,0.359v0.9c-1.381-0.09-3.285-0.135-5.716-0.135
			c-2.58,0-4.5,0.045-5.76,0.135v-0.9c1.08-0.06,1.867-0.18,2.362-0.359c0.495-0.181,0.833-0.524,1.013-1.035
			c0.18-0.51,0.271-1.335,0.271-2.475v-22.32c0-1.14-0.091-1.965-0.271-2.476c-0.18-0.51-0.518-0.854-1.013-1.034
			c-0.495-0.181-1.282-0.3-2.362-0.36v-0.9c1.26,0.091,3.09,0.136,5.49,0.136l4.86-0.045c0.569-0.03,1.215-0.046,1.935-0.046
			c3.479,0,6.157,0.729,8.032,2.183c1.875,1.456,2.812,3.338,2.812,5.647c0,1.17-0.277,2.348-0.832,3.533
			c-0.556,1.186-1.485,2.25-2.79,3.194c-1.306,0.945-3.008,1.583-5.107,1.913l0.54,0.09c1.979,0.33,3.42,0.93,4.319,1.8
			c0.9,0.87,1.56,2.25,1.98,4.14l1.125,4.591c0.3,1.38,0.614,2.34,0.945,2.88c0.329,0.54,0.779,0.81,1.35,0.81
			c0.51,0,0.938-0.135,1.282-0.405c0.345-0.27,0.743-0.704,1.192-1.305L102.229,321.53z M83.486,293.136
			c-0.465,0.21-0.787,0.585-0.967,1.125c-0.181,0.539-0.271,1.35-0.271,2.43v11.07h3.015c2.971,0,5.01-0.66,6.12-1.98
			c1.109-1.319,1.665-3.15,1.665-5.49c0-2.459-0.585-4.319-1.755-5.58c-1.17-1.26-3.075-1.89-5.715-1.89
			C84.648,292.82,83.951,292.926,83.486,293.136z"/>
		<path style="fill:#FFFFFF;" d="M123.424,318.92c0,1.381,0.255,2.386,0.765,3.016s1.396,0.944,2.655,0.944v0.945
			c-0.931-0.09-1.86-0.135-2.79-0.135c-1.89,0-3.45,0.209-4.68,0.63v-5.31c-0.721,1.86-1.74,3.225-3.061,4.095
			c-1.32,0.869-2.76,1.305-4.319,1.305c-2.041,0-3.601-0.57-4.681-1.71c-0.54-0.6-0.922-1.364-1.147-2.295
			c-0.225-0.93-0.337-2.13-0.337-3.6v-11.295c0-1.38-0.256-2.386-0.766-3.016s-1.395-0.945-2.654-0.945v-0.944
			c0.929,0.09,1.859,0.135,2.789,0.135c1.891,0,3.45-0.21,4.681-0.63v17.685c0,1.141,0.067,2.063,0.202,2.768
			c0.135,0.705,0.45,1.283,0.945,1.732c0.495,0.45,1.252,0.676,2.272,0.676c1.14,0,2.175-0.36,3.104-1.08
			c0.93-0.721,1.657-1.702,2.183-2.948c0.524-1.244,0.788-2.616,0.788-4.117v-9.314c0-1.38-0.256-2.386-0.766-3.016
			s-1.395-0.945-2.654-0.945v-0.944c0.929,0.09,1.859,0.135,2.79,0.135c1.89,0,3.449-0.21,4.68-0.63V318.92z"/>
		<path style="fill:#FFFFFF;" d="M149.028,301.686c0.57,0.601,0.975,1.35,1.216,2.25c0.239,0.899,0.359,2.114,0.359,3.645v12.016
			c0,1.23,0.255,2.077,0.766,2.542c0.51,0.466,1.395,0.697,2.654,0.697v0.945c-2.76-0.119-4.561-0.18-5.399-0.18
			c-0.841,0-2.521,0.061-5.04,0.18v-0.945c1.109,0,1.882-0.231,2.317-0.697c0.435-0.465,0.652-1.312,0.652-2.542V306.59
			c0-1.68-0.24-2.962-0.72-3.847c-0.48-0.885-1.456-1.328-2.925-1.328c-1.23,0-2.325,0.36-3.285,1.08
			c-0.961,0.72-1.703,1.703-2.228,2.947c-0.525,1.246-0.788,2.633-0.788,4.163v9.99c0,1.23,0.218,2.077,0.653,2.542
			c0.434,0.466,1.207,0.697,2.317,0.697v0.945c-2.521-0.119-4.201-0.18-5.04-0.18c-0.841,0-2.641,0.061-5.4,0.18v-0.945
			c1.26,0,2.145-0.231,2.655-0.697c0.51-0.465,0.765-1.312,0.765-2.542v-14.085c0-1.38-0.255-2.386-0.765-3.016
			c-0.511-0.63-1.396-0.945-2.655-0.945v-0.944c0.96,0.09,1.89,0.135,2.79,0.135c1.89,0,3.449-0.21,4.68-0.63v5.31
			c0.75-1.919,1.793-3.308,3.128-4.162c1.334-0.855,2.842-1.282,4.522-1.282C146.358,299.976,147.949,300.546,149.028,301.686z"/>
		<path style="fill:#FFFFFF;" d="M177.243,321.891c0.51,0.63,1.395,0.944,2.655,0.944v0.945c-0.931-0.09-1.861-0.135-2.79-0.135
			c-1.891,0-3.45,0.209-4.681,0.63v-4.005c-0.54,1.35-1.35,2.378-2.43,3.082c-1.08,0.705-2.4,1.058-3.96,1.058
			c-2.88,0-5.138-1.035-6.772-3.104c-1.636-2.07-2.438-5.101-2.407-9.091c0-2.609,0.457-4.837,1.372-6.682
			c0.915-1.846,2.145-3.232,3.69-4.163c1.544-0.93,3.247-1.395,5.107-1.395c1.14,0,2.183,0.218,3.127,0.652
			c0.945,0.436,1.702,1.103,2.272,2.002V293.9c0-1.38-0.255-2.385-0.765-3.015c-0.511-0.631-1.396-0.945-2.655-0.945v-0.945
			c0.96,0.09,1.891,0.135,2.79,0.135c1.891,0,3.449-0.209,4.68-0.63v30.375C176.478,320.256,176.732,321.261,177.243,321.891z
			 M170.493,321.71c0.93-0.899,1.575-2.175,1.935-3.824v-13.41c-0.81-2.311-2.49-3.465-5.04-3.465c-1.86,0-3.36,0.952-4.5,2.857
			c-1.141,1.905-1.695,4.688-1.665,8.347c-0.03,3.601,0.479,6.309,1.53,8.123c1.05,1.815,2.58,2.723,4.59,2.723
			C168.513,323.061,169.562,322.61,170.493,321.71z"/>
		<path style="fill:#FFFFFF;" d="M193.083,300.471c0.839,0.33,1.514,0.72,2.024,1.17c0.33,0.24,0.6,0.359,0.811,0.359
			c0.54,0,0.869-0.659,0.989-1.979h1.035c-0.12,1.47-0.18,4.021-0.18,7.649h-1.035c-0.33-1.979-0.968-3.614-1.912-4.904
			c-0.945-1.29-2.348-1.936-4.208-1.936c-1.08,0-1.965,0.309-2.655,0.923c-0.69,0.615-1.034,1.462-1.034,2.542
			c0,1.051,0.359,1.929,1.079,2.633c0.721,0.705,1.875,1.553,3.466,2.543c0.27,0.15,0.675,0.404,1.215,0.765
			c1.379,0.9,2.489,1.695,3.33,2.385c0.839,0.69,1.522,1.485,2.047,2.385c0.524,0.9,0.788,1.936,0.788,3.105
			c0,1.979-0.743,3.525-2.228,4.635c-1.485,1.109-3.308,1.665-5.468,1.665c-1.35,0-2.535-0.21-3.555-0.63
			c-0.66-0.33-1.275-0.734-1.846-1.215c-0.12-0.12-0.255-0.18-0.404-0.18c-0.211,0-0.398,0.15-0.562,0.449
			c-0.165,0.301-0.293,0.721-0.383,1.261h-1.035c0.12-1.71,0.181-4.71,0.181-9h1.034c0.33,2.819,0.93,4.927,1.801,6.322
			c0.869,1.395,2.354,2.093,4.455,2.093c1.049,0,1.979-0.345,2.789-1.035c0.811-0.69,1.216-1.771,1.216-3.24
			c0-1.17-0.398-2.16-1.192-2.97c-0.796-0.811-2.093-1.785-3.893-2.926c-1.471-0.929-2.604-1.694-3.397-2.295
			c-0.796-0.6-1.463-1.334-2.003-2.205c-0.54-0.869-0.81-1.89-0.81-3.06c0-1.89,0.63-3.33,1.89-4.32
			c1.26-0.989,2.85-1.484,4.77-1.484C191.282,299.976,192.242,300.141,193.083,300.471z"/>
		<path style="fill:#FFFFFF;" d="M209.507,300.65h6.66v0.899h-6.66v17.415c0,1.351,0.248,2.325,0.743,2.926s1.207,0.899,2.138,0.899
			c0.929,0,1.725-0.375,2.385-1.125c0.659-0.749,1.215-1.979,1.665-3.689l0.899,0.225c-0.75,4.14-2.699,6.21-5.85,6.21
			c-1.021,0-1.86-0.12-2.521-0.36s-1.245-0.614-1.755-1.125c-0.66-0.659-1.117-1.469-1.372-2.43c-0.255-0.96-0.383-2.25-0.383-3.87
			V301.55h-4.319v-0.899h4.319v-6.885c1.68-0.061,3.03-0.271,4.05-0.63V300.65z"/>
		<path style="fill:#FFFFFF;" d="M239.116,300.605v0.899c-0.601,0.061-1.133,0.331-1.598,0.811c-0.465,0.48-0.907,1.26-1.327,2.34
			l-7.38,19.35l-1.53,3.915c-0.57,1.47-1.215,2.521-1.935,3.15c-0.45,0.42-0.99,0.72-1.62,0.9c-0.63,0.18-1.26,0.27-1.89,0.27
			c-0.9,0-1.636-0.24-2.205-0.72c-0.57-0.48-0.855-1.141-0.855-1.98c0-0.72,0.21-1.298,0.63-1.732
			c0.42-0.436,1.005-0.652,1.755-0.652c0.66,0,1.208,0.188,1.643,0.562s0.652,0.893,0.652,1.553c0,0.899-0.404,1.575-1.215,2.024
			c0.06,0.03,0.15,0.045,0.271,0.045c1.649,0,2.925-1.17,3.825-3.51l1.574-4.095l-8.145-19.665c-0.511-1.02-1.021-1.694-1.53-2.025
			c-0.511-0.329-1.021-0.495-1.53-0.495v-0.944c1.29,0.18,2.76,0.27,4.41,0.27c1.5,0,3.45-0.09,5.851-0.27v0.944
			c-1.08,0-1.868,0.091-2.363,0.271c-0.494,0.18-0.742,0.615-0.742,1.305c0,0.63,0.18,1.366,0.54,2.205l5.4,13.41l4.995-13.005
			c0.329-0.9,0.494-1.59,0.494-2.07c0-0.689-0.27-1.199-0.81-1.529s-1.395-0.54-2.565-0.631v-0.899
			c1.59,0.09,2.851,0.135,3.78,0.135C237.017,300.74,238.156,300.695,239.116,300.605z"/>
		<path style="fill:#FFFFFF;" d="M261.257,322.16c0.45,0.36,0.99,0.585,1.62,0.675v0.945c-1.801-0.119-3.016-0.18-3.646-0.18
			c-0.81,0-2.475,0.061-4.995,0.18v-0.945c0.42,0,0.758-0.082,1.013-0.247s0.383-0.367,0.383-0.607s-0.09-0.465-0.271-0.675
			l-5.175-7.561c-0.511-0.749-0.998-1.252-1.462-1.508c-0.466-0.254-1.103-0.411-1.913-0.472v7.83c0,1.23,0.218,2.077,0.652,2.542
			c0.435,0.466,1.208,0.697,2.317,0.697v0.945c-2.52-0.119-4.185-0.18-4.994-0.18c-0.871,0-2.686,0.061-5.445,0.18v-0.945
			c1.26,0,2.145-0.231,2.655-0.697c0.51-0.465,0.765-1.312,0.765-2.542V293.9c0-1.38-0.255-2.385-0.765-3.015
			c-0.511-0.631-1.396-0.945-2.655-0.945v-0.945c0.96,0.09,1.89,0.135,2.79,0.135c1.89,0,3.449-0.209,4.68-0.63v22.32
			c0.87-0.119,1.598-0.322,2.183-0.607s1.147-0.697,1.688-1.237l3.33-3.465c0.96-0.99,1.439-1.815,1.439-2.476
			c0-0.51-0.308-0.893-0.922-1.147c-0.615-0.255-1.418-0.383-2.407-0.383v-0.899c2.099,0.12,3.794,0.18,5.085,0.18
			c1.409,0,2.715-0.06,3.915-0.18v0.899c-1.471,0.121-2.82,0.826-4.051,2.115l-5.489,5.76l8.145,11.115
			C260.296,321.245,260.807,321.8,261.257,322.16z"/>
		<path style="fill:#FFFFFF;" d="M284.656,322.16c0.45,0.36,0.99,0.585,1.62,0.675v0.945c-1.8-0.119-3.015-0.18-3.645-0.18
			c-0.811,0-2.476,0.061-4.995,0.18v-0.945c0.42,0,0.757-0.082,1.013-0.247c0.254-0.165,0.382-0.367,0.382-0.607
			s-0.09-0.465-0.27-0.675l-5.175-7.561c-0.511-0.749-0.998-1.252-1.463-1.508c-0.466-0.254-1.103-0.411-1.912-0.472v7.83
			c0,1.23,0.217,2.077,0.652,2.542c0.435,0.466,1.207,0.697,2.317,0.697v0.945c-2.521-0.119-4.186-0.18-4.995-0.18
			c-0.87,0-2.686,0.061-5.445,0.18v-0.945c1.261,0,2.145-0.231,2.655-0.697c0.51-0.465,0.765-1.312,0.765-2.542V293.9
			c0-1.38-0.255-2.385-0.765-3.015c-0.511-0.631-1.395-0.945-2.655-0.945v-0.945c0.96,0.09,1.891,0.135,2.79,0.135
			c1.891,0,3.45-0.209,4.681-0.63v22.32c0.869-0.119,1.597-0.322,2.183-0.607c0.585-0.285,1.147-0.697,1.688-1.237l3.329-3.465
			c0.96-0.99,1.44-1.815,1.44-2.476c0-0.51-0.308-0.893-0.923-1.147s-1.417-0.383-2.407-0.383v-0.899
			c2.1,0.12,3.795,0.18,5.085,0.18c1.41,0,2.715-0.06,3.915-0.18v0.899c-1.47,0.121-2.82,0.826-4.05,2.115l-5.49,5.76l8.146,11.115
			C283.696,321.245,284.207,321.8,284.656,322.16z"/>
		<path style="fill:#FFFFFF;" d="M306.165,318.38c-0.539,1.65-1.553,3.068-3.037,4.253s-3.277,1.777-5.377,1.777
			c-2.131,0-3.977-0.488-5.535-1.462c-1.561-0.975-2.753-2.341-3.577-4.096c-0.826-1.755-1.238-3.787-1.238-6.098
			c0-2.609,0.42-4.874,1.261-6.795c0.839-1.919,2.024-3.397,3.555-4.433c1.529-1.034,3.314-1.552,5.355-1.552
			c2.699,0,4.775,0.817,6.232,2.452c1.455,1.636,2.182,4.117,2.182,7.447H291.9c-0.09,0.841-0.135,1.8-0.135,2.88
			c0,1.98,0.322,3.706,0.968,5.176c0.645,1.47,1.5,2.603,2.564,3.397s2.184,1.192,3.354,1.192c1.439,0,2.715-0.345,3.824-1.035
			c1.109-0.689,2.039-1.845,2.789-3.465L306.165,318.38z M293.745,302.9c-1.02,1.38-1.649,3.42-1.89,6.12h9.81
			c0.061-2.34-0.277-4.29-1.012-5.851c-0.736-1.56-1.822-2.34-3.264-2.34C295.979,300.83,294.765,301.521,293.745,302.9z"/>
		<path style="fill:#FFFFFF;" d="M326.348,301.011c0.766,0.69,1.147,1.529,1.147,2.52c0,0.78-0.232,1.447-0.697,2.003
			c-0.465,0.555-1.088,0.832-1.867,0.832c-0.66,0-1.223-0.21-1.688-0.63c-0.466-0.42-0.697-0.99-0.697-1.71
			c0-0.99,0.51-1.8,1.529-2.43c-0.21-0.3-0.524-0.45-0.944-0.45c-1.17,0-2.235,0.457-3.195,1.372c-0.96,0.916-1.71,2.033-2.25,3.353
			c-0.54,1.32-0.81,2.565-0.81,3.735v9.54c0,1.38,0.396,2.34,1.192,2.88c0.794,0.54,1.986,0.81,3.577,0.81v0.945l-1.08-0.045
			c-3.06-0.09-5.011-0.135-5.85-0.135c-0.78,0-2.551,0.061-5.311,0.18v-0.945c1.261,0,2.145-0.231,2.655-0.697
			c0.51-0.465,0.765-1.312,0.765-2.542v-14.085c0-1.38-0.255-2.386-0.765-3.016c-0.511-0.63-1.395-0.945-2.655-0.945v-0.944
			c0.96,0.09,1.891,0.135,2.79,0.135c1.891,0,3.45-0.21,4.681-0.63v5.625c0.54-1.5,1.401-2.835,2.587-4.005
			c1.185-1.17,2.498-1.755,3.938-1.755C324.601,299.976,325.583,300.32,326.348,301.011z"/>
	</g>
</g>
</svg>
