<?xml version="1.0" encoding="utf-8"?>
<!-- Generator: Adobe Illustrator 25.2.1, SVG Export Plug-In . SVG Version: 6.00 Build 0)  -->
<svg version="1.1" xmlns="http://www.w3.org/2000/svg" xmlns:xlink="http://www.w3.org/1999/xlink" x="0px" y="0px" width="400px"
	 height="400px" viewBox="0 0 400 400" style="enable-background:new 0 0 400 400;" xml:space="preserve">
<g id="Layer_1">
	<circle style="fill:#97846E;" cx="200" cy="200" r="200"/>
</g>
<g id="Layer_1_copy">
	<g>
		<path style="fill:#FFFFFF;" d="M122.599,81.984c0.972,2.166,1.357,4.082,1.156,5.749c-0.249,1.983-1.358,3.812-3.329,5.486
			c-1.054,0.896-2.221,1.612-3.501,2.148c-1.281,0.537-2.979,1.114-5.097,1.733c-2.318,0.709-4.17,1.338-5.558,1.888l-1.029,0.461
			c-0.694,1.18-1.5,2.16-2.416,2.938c-1.054,0.896-1.775,1.115-2.164,0.658c-0.408-0.48,0.007-1.246,1.244-2.297
			c0.802-0.681,1.739-1.32,2.811-1.916c0.558-0.829,1.134-1.869,1.728-3.121c0.362-0.78,0.644-1.354,0.845-1.722
			c-2.104,1.472-4.308,2.303-6.614,2.49c-2.306,0.188-4.617-0.279-6.933-1.402c-2.315-1.123-4.493-2.885-6.533-5.285
			c-2.136-2.515-3.566-5.138-4.29-7.87c-0.723-2.731-0.71-5.34,0.038-7.827c0.749-2.486,2.176-4.625,4.285-6.416
			c2.176-1.85,4.502-2.979,6.976-3.388c2.473-0.409,4.954-0.066,7.442,1.028c2.489,1.095,4.831,2.933,7.025,5.516
			c2.021,2.378,3.41,4.849,4.168,7.413c0.758,2.564,0.864,5.034,0.316,7.408c-0.547,2.375-1.706,4.47-3.475,6.289l0.029,0.034
			c-0.491,0.536-0.885,1.037-1.178,1.503c-0.295,0.466-0.657,1.119-1.088,1.958c-0.515,1.066-0.979,1.914-1.392,2.541
			c2.97-1.659,5.47-3.093,7.499-4.305c2.028-1.212,3.627-2.314,4.795-3.307c1.626-1.382,2.716-2.712,3.269-3.988
			c0.552-1.277,0.645-2.665,0.279-4.165L122.599,81.984z M96.877,92.147c2.21,1.232,4.306,1.853,6.287,1.862
			c1.981,0.01,3.682-0.589,5.103-1.796c1.466-1.246,2.323-2.85,2.57-4.812c0.247-1.961-0.103-4.115-1.05-6.46
			c-0.947-2.344-2.42-4.694-4.421-7.049c-2.021-2.377-4.136-4.182-6.347-5.414c-2.21-1.231-4.306-1.852-6.287-1.862
			c-1.981-0.009-3.682,0.589-5.103,1.796c-1.466,1.247-2.323,2.851-2.57,4.812c-0.247,1.962,0.103,4.115,1.05,6.46
			c0.947,2.345,2.421,4.695,4.422,7.049C92.552,89.111,94.667,90.916,96.877,92.147z"/>
		<path style="fill:#FFFFFF;" d="M135.349,68.615c0.681,1.201,1.398,1.949,2.154,2.245c0.755,0.296,1.682,0.133,2.781-0.49
			l0.466,0.822c-0.855,0.381-1.689,0.802-2.5,1.261c-1.648,0.934-2.905,1.887-3.77,2.861l-2.618-4.62
			c0.29,1.975,0.073,3.666-0.649,5.075c-0.723,1.409-1.764,2.5-3.124,3.27c-1.779,1.008-3.42,1.283-4.924,0.825
			c-0.767-0.255-1.478-0.731-2.132-1.43c-0.654-0.697-1.344-1.686-2.069-2.965l-5.569-9.827c-0.68-1.2-1.398-1.949-2.153-2.245
			c-0.756-0.296-1.683-0.133-2.781,0.49l-0.466-0.822c0.855-0.381,1.688-0.802,2.5-1.261c1.648-0.934,2.904-1.887,3.77-2.861
			l8.72,15.386c0.562,0.993,1.076,1.762,1.541,2.308c0.465,0.547,1.024,0.893,1.678,1.04c0.653,0.147,1.425-0.031,2.314-0.536
			c0.994-0.563,1.719-1.388,2.175-2.474c0.456-1.085,0.606-2.3,0.45-3.643c-0.156-1.342-0.604-2.666-1.343-3.972l-4.593-8.104
			c-0.68-1.2-1.398-1.949-2.153-2.245c-0.756-0.296-1.683-0.133-2.781,0.49l-0.466-0.822c0.855-0.381,1.688-0.802,2.5-1.261
			c1.648-0.934,2.904-1.887,3.77-2.861L135.349,68.615z"/>
		<path style="fill:#FFFFFF;" d="M135.087,37.614c0.745,0.31,1.266,0.826,1.562,1.547c0.296,0.722,0.289,1.455-0.023,2.199
			c-0.312,0.745-0.829,1.266-1.552,1.562c-0.724,0.297-1.458,0.291-2.202-0.019c-0.745-0.31-1.266-0.826-1.562-1.547
			c-0.296-0.721-0.289-1.454,0.023-2.199c0.312-0.744,0.829-1.265,1.552-1.562C133.607,37.298,134.342,37.305,135.087,37.614z
			 M146.55,64.673c0.468,1.138,1.025,1.825,1.675,2.061s1.559,0.113,2.727-0.367l0.359,0.874c-2.604,0.941-4.31,1.577-5.116,1.908
			c-0.807,0.332-2.466,1.079-4.979,2.241l-0.359-0.874c1.168-0.48,1.9-1.032,2.196-1.657c0.296-0.625,0.21-1.505-0.257-2.643
			l-5.354-13.028c-0.524-1.276-1.144-2.108-1.855-2.497c-0.713-0.388-1.652-0.343-2.82,0.138l-0.359-0.874
			c0.924-0.283,1.803-0.596,2.638-0.938c1.752-0.72,3.118-1.508,4.099-2.366L146.55,64.673z"/>
		<path style="fill:#FFFFFF;" d="M161.459,40.824c1.614,0.507,2.611,1.424,2.989,2.75c0.214,0.75,0.166,1.403-0.145,1.96
			c-0.311,0.557-0.798,0.93-1.463,1.119c-0.666,0.19-1.285,0.156-1.858-0.102c-0.574-0.257-0.955-0.718-1.145-1.381
			c-0.173-0.606-0.145-1.167,0.083-1.685c0.228-0.517,0.581-0.922,1.06-1.215c-0.438-0.437-1.074-0.723-1.91-0.859
			c-0.836-0.136-1.674-0.084-2.512,0.155c-1.07,0.305-1.971,0.929-2.703,1.871c-0.732,0.942-1.177,2.286-1.336,4.031
			c-0.158,1.746,0.128,3.902,0.861,6.47c1.021,3.577,2.341,6.016,3.963,7.316c1.621,1.3,3.357,1.686,5.208,1.158
			c1.243-0.354,2.319-1.051,3.226-2.09c0.907-1.038,1.505-2.425,1.792-4.161l0.911,0.068c-0.023,1.785-0.538,3.46-1.544,5.026
			c-1.007,1.566-2.581,2.655-4.72,3.265c-1.793,0.511-3.552,0.514-5.274,0.007c-1.724-0.506-3.254-1.513-4.59-3.019
			c-1.337-1.506-2.334-3.413-2.992-5.721c-0.667-2.337-0.833-4.536-0.498-6.597c0.334-2.061,1.122-3.821,2.362-5.283
			c1.24-1.46,2.843-2.472,4.81-3.033C157.97,40.322,159.779,40.306,161.459,40.824z"/>
		<path style="fill:#FFFFFF;" d="M191.738,57.021c0.494,0.299,1.059,0.452,1.697,0.46l0.121,0.937
			c-1.804,0.113-3.02,0.21-3.646,0.291c-0.805,0.104-2.452,0.379-4.941,0.822l-0.122-0.937c0.417-0.054,0.742-0.179,0.975-0.376
			c0.232-0.196,0.333-0.413,0.302-0.652c-0.031-0.238-0.149-0.449-0.355-0.634l-6.116-6.831c-0.604-0.678-1.152-1.113-1.647-1.307
			c-0.495-0.192-1.148-0.267-1.961-0.222l1.006,7.765c0.158,1.22,0.483,2.032,0.976,2.437c0.492,0.406,1.29,0.536,2.393,0.393
			l0.122,0.938c-2.52,0.206-4.183,0.36-4.988,0.465c-0.865,0.112-2.662,0.406-5.389,0.88l-0.122-0.938
			c1.252-0.162,2.102-0.506,2.549-1.034c0.447-0.526,0.592-1.4,0.434-2.62l-3.303-25.481c-0.177-1.368-0.56-2.333-1.148-2.892
			c-0.588-0.559-1.508-0.757-2.76-0.595l-0.122-0.937c0.965-0.035,1.896-0.11,2.791-0.226c1.878-0.244,3.402-0.652,4.571-1.228
			l2.869,22.135c0.849-0.231,1.546-0.525,2.091-0.884c0.545-0.358,1.051-0.84,1.518-1.445l2.865-3.865
			c0.827-1.105,1.198-1.985,1.113-2.64c-0.065-0.505-0.421-0.845-1.064-1.019c-0.644-0.173-1.458-0.197-2.442-0.069l-0.116-0.893
			c2.102-0.151,3.795-0.311,5.077-0.477c1.401-0.182,2.691-0.409,3.868-0.683l0.116,0.893c-1.446,0.309-2.697,1.182-3.753,2.619
			l-4.716,6.419l9.524,9.974C190.666,56.237,191.244,56.722,191.738,57.021z"/>
		<path style="fill:#FFFFFF;" d="M210.443,38.181c1.842,2.059,2.725,5.143,2.65,9.252c-0.074,4.11-1.07,7.152-2.984,9.127
			c-1.916,1.976-4.406,2.936-7.473,2.88c-3.067-0.056-5.522-1.105-7.364-3.149c-1.842-2.043-2.726-5.12-2.651-9.229
			s1.069-7.16,2.985-9.15c1.916-1.991,4.407-2.958,7.474-2.902C206.146,35.065,208.6,36.122,210.443,38.181z M198.729,38.598
			c-1.086,1.826-1.664,4.673-1.734,8.542c-0.07,3.87,0.404,6.729,1.423,8.578c1.019,1.849,2.43,2.79,4.234,2.822
			c1.805,0.033,3.248-0.856,4.334-2.667c1.086-1.81,1.664-4.65,1.734-8.52c0.07-3.87-0.404-6.736-1.424-8.6s-2.43-2.812-4.232-2.845
			C201.26,35.876,199.815,36.773,198.729,38.598z"/>
		<path style="fill:#FFFFFF;" d="M234.482,39.419c0.648,0.803,0.893,1.693,0.736,2.67c-0.123,0.771-0.461,1.393-1.008,1.866
			c-0.549,0.475-1.209,0.649-1.98,0.525c-0.652-0.105-1.176-0.401-1.57-0.891c-0.395-0.488-0.533-1.088-0.418-1.799
			c0.156-0.977,0.789-1.696,1.898-2.156c-0.16-0.329-0.447-0.528-0.863-0.595c-1.158-0.186-2.285,0.097-3.379,0.847
			c-1.096,0.751-2.016,1.735-2.76,2.952c-0.742,1.218-1.207,2.404-1.393,3.559l-1.514,9.419c-0.219,1.363,0.021,2.374,0.723,3.033
			s1.838,1.116,3.412,1.369l-0.15,0.933l-1.062-0.216c-3.014-0.575-4.936-0.93-5.768-1.063c-0.771-0.124-2.533-0.346-5.283-0.667
			l0.15-0.933c1.248,0.2,2.16,0.112,2.738-0.267c0.578-0.377,0.965-1.173,1.16-2.389l2.234-13.906
			c0.219-1.362,0.127-2.396-0.277-3.099c-0.406-0.703-1.23-1.155-2.479-1.355l0.15-0.933c0.936,0.241,1.85,0.434,2.74,0.577
			c1.869,0.301,3.445,0.342,4.73,0.122l-0.893,5.554c0.771-1.395,1.838-2.576,3.195-3.543c1.359-0.967,2.75-1.336,4.176-1.107
			C232.918,38.119,233.836,38.616,234.482,39.419z"/>
		<path style="fill:#FFFFFF;" d="M251.779,66.155c0.301,0.753,1.055,1.317,2.262,1.691l-0.281,0.903
			c-0.863-0.363-1.74-0.682-2.631-0.958c-1.809-0.562-3.363-0.825-4.666-0.79l1.188-3.825c-0.916,1.129-1.996,1.87-3.24,2.222
			c-1.242,0.352-2.611,0.296-4.104-0.167c-2.756-0.856-4.611-2.515-5.562-4.978c-0.951-2.463-0.82-5.595,0.393-9.397
			c0.773-2.492,1.871-4.484,3.295-5.974c1.424-1.49,3.012-2.45,4.768-2.878c1.754-0.429,3.521-0.367,5.303,0.186
			c1.09,0.338,2.023,0.857,2.799,1.553c0.775,0.696,1.303,1.559,1.582,2.588l2.588-8.337c0.41-1.317,0.463-2.354,0.162-3.107
			c-0.301-0.753-1.055-1.317-2.26-1.691l0.279-0.902c0.893,0.371,1.77,0.69,2.631,0.958c1.809,0.562,3.363,0.825,4.666,0.79
			l-9.008,29.008C251.531,64.366,251.479,65.401,251.779,66.155z M245.371,63.977c1.158-0.583,2.152-1.609,2.986-3.078l3.979-12.807
			c-0.092-2.446-1.357-4.049-3.797-4.807c-1.781-0.553-3.5-0.089-5.154,1.392c-1.658,1.48-3.014,3.973-4.07,7.477
			c-1.096,3.429-1.412,6.167-0.943,8.211c0.465,2.046,1.66,3.367,3.586,3.965C243.076,64.677,244.215,64.56,245.371,63.977z"/>
		<path style="fill:#FFFFFF;" d="M273.455,72.623c-1.213,1.242-2.75,2.065-4.609,2.471c-1.857,0.406-3.732,0.144-5.621-0.786
			c-1.914-0.943-3.357-2.197-4.33-3.762s-1.441-3.318-1.408-5.257c0.033-1.94,0.559-3.946,1.58-6.019
			c1.152-2.342,2.529-4.188,4.135-5.539c1.602-1.351,3.32-2.152,5.154-2.403c1.832-0.251,3.666,0.075,5.5,0.978
			c2.428,1.195,3.936,2.849,4.521,4.959c0.586,2.111,0.145,4.66-1.326,7.648l-12.666-6.235c-0.453,0.714-0.916,1.555-1.393,2.524
			c-0.875,1.776-1.348,3.467-1.416,5.071c-0.07,1.604,0.199,2.999,0.805,4.184c0.607,1.185,1.438,2.036,2.488,2.554
			c1.295,0.638,2.594,0.893,3.896,0.765c1.303-0.127,2.65-0.752,4.039-1.874L273.455,72.623z M269.125,53.236
			c-1.527,0.787-2.996,2.338-4.402,4.654l8.82,4.342c1.088-2.073,1.645-3.971,1.674-5.696c0.027-1.725-0.605-2.906-1.9-3.544
			C272.047,52.369,270.65,52.45,269.125,53.236z"/>
		<path style="fill:#FFFFFF;" d="M298.812,68.692c0.25,1.001,0.098,1.912-0.457,2.732c-0.436,0.647-1.002,1.07-1.699,1.269
			s-1.369,0.08-2.018-0.357c-0.547-0.37-0.898-0.859-1.049-1.469c-0.152-0.609-0.025-1.211,0.377-1.808
			c0.555-0.821,1.432-1.207,2.631-1.157c-0.008-0.366-0.186-0.667-0.533-0.903c-0.973-0.656-2.113-0.874-3.422-0.653
			c-1.311,0.22-2.559,0.726-3.746,1.517c-1.186,0.792-2.107,1.672-2.762,2.642l-5.336,7.908c-0.773,1.144-0.979,2.162-0.621,3.056
			c0.357,0.893,1.197,1.786,2.52,2.677l-0.529,0.783l-0.871-0.643c-2.492-1.791-4.088-2.921-4.785-3.392
			c-0.648-0.438-2.152-1.38-4.512-2.828l0.529-0.783c1.045,0.707,1.91,1.01,2.596,0.911c0.684-0.1,1.369-0.659,2.057-1.679
			l7.879-11.675c0.771-1.144,1.123-2.12,1.051-2.928c-0.07-0.809-0.629-1.565-1.676-2.272l0.527-0.783
			c0.748,0.613,1.496,1.171,2.244,1.676c1.568,1.06,2.982,1.76,4.24,2.102l-3.146,4.663c1.287-0.94,2.75-1.564,4.389-1.869
			c1.639-0.306,3.057-0.054,4.254,0.753C297.939,66.854,298.562,67.691,298.812,68.692z"/>
		<path style="fill:#FFFFFF;" d="M318.002,84.759l-0.6,0.671c-0.49-0.356-1.068-0.51-1.734-0.463
			c-0.668,0.047-1.518,0.333-2.551,0.859l-18.408,9.502l-3.752,1.898c-1.404,0.715-2.586,1.068-3.545,1.057
			c-0.615,0.013-1.219-0.124-1.811-0.411c-0.59-0.286-1.121-0.64-1.592-1.061c-0.674-0.601-1.062-1.271-1.168-2.009
			c-0.107-0.739,0.119-1.421,0.68-2.047c0.479-0.537,1.021-0.828,1.625-0.872c0.604-0.044,1.186,0.185,1.746,0.686
			c0.492,0.44,0.777,0.945,0.854,1.516c0.074,0.57-0.107,1.101-0.547,1.593c-0.6,0.671-1.352,0.904-2.258,0.699
			c0.025,0.062,0.082,0.133,0.172,0.214c1.232,1.101,2.967,1.081,5.197-0.063l3.906-2.002l7.014-20.104
			c0.297-1.101,0.365-1.945,0.205-2.532c-0.162-0.587-0.434-1.05-0.814-1.391l0.629-0.705c0.846,0.996,1.883,2.044,3.117,3.146
			c1.121,1.001,2.639,2.236,4.553,3.705l-0.629,0.705c-0.809-0.721-1.457-1.18-1.947-1.376s-0.965-0.037-1.424,0.478
			c-0.42,0.47-0.775,1.138-1.064,2.005l-4.898,13.606l12.398-6.363c0.846-0.451,1.428-0.855,1.748-1.213
			c0.459-0.514,0.598-1.075,0.414-1.682c-0.184-0.606-0.684-1.334-1.498-2.183l0.6-0.671c1.129,1.129,2.041,2.003,2.736,2.625
			C316.342,83.457,317.223,84.185,318.002,84.759z"/>
	</g>
</g>
<g id="Layer_3">
	<g>
		<g>
			<g>
				<path style="fill:#FFFFFF;" d="M162.476,223.107H180.2c1.172,9.814,9.741,16.553,20.874,16.553
					c12.598,0,21.24-8.789,21.24-21.24c0-12.671-8.716-21.606-21.094-21.606c-8.643,0-16.113,3.955-19.995,10.546h-17.139
					l5.493-60.205h64.746v15.454h-49.805l-2.71,30.908h0.439c4.395-6.812,13.037-11.06,23.511-11.06
					c20.215,0,34.79,14.868,34.79,35.449c0,21.973-16.187,37.061-39.624,37.061C179.102,254.968,163.281,241.857,162.476,223.107z"
					/>
			</g>
		</g>
	</g>
	<g>
		<g>
			<g>
				<path style="fill:#FFFFFF;" d="M143.446,151.827h-5.493v-10.84h-10.132v-5.42h10.132v-10.669h5.493v10.669h10.156v5.42h-10.156
					V151.827z"/>
			</g>
		</g>
	</g>
	<g>
		<path style="fill:#FFFFFF;" d="M120.858,291.92v0.9c-1.681,0.391-2.865,1.695-3.556,3.915l-8.505,27.27h-0.359h-0.36l-7.83-23.175
			l-7.155,23.175h-0.359h-0.36l-9.54-28.305c-0.63-1.859-1.665-2.819-3.104-2.88v-0.9c1.229,0.091,2.835,0.136,4.814,0.136
			c2.16,0,3.78-0.045,4.86-0.136v0.9c-0.811,0.061-1.38,0.21-1.71,0.45c-0.331,0.24-0.495,0.615-0.495,1.125
			c0,0.48,0.164,1.215,0.495,2.205l6.57,20.069l5.489-17.415l-1.215-3.555c-0.601-1.859-1.485-2.819-2.655-2.88v-0.9
			c1.08,0.091,2.535,0.136,4.365,0.136c2.58,0,4.5-0.045,5.76-0.136v0.9c-1.14,0.061-1.935,0.188-2.385,0.383
			s-0.675,0.607-0.675,1.237c0,0.54,0.149,1.26,0.45,2.16l6.479,20.024l5.535-17.415c0.479-1.469,0.72-2.685,0.72-3.645
			c0-0.99-0.3-1.688-0.899-2.093c-0.601-0.405-1.575-0.622-2.925-0.652v-0.9c1.71,0.091,3.435,0.136,5.175,0.136
			C118.833,292.056,119.958,292.011,120.858,291.92z"/>
		<path style="fill:#FFFFFF;" d="M128.464,319.596c0,1.23,0.254,2.077,0.765,2.542c0.51,0.466,1.396,0.697,2.655,0.697v0.945
			c-2.761-0.119-4.575-0.18-5.445-0.18s-2.685,0.061-5.444,0.18v-0.945c1.26,0,2.145-0.231,2.654-0.697
			c0.51-0.465,0.766-1.312,0.766-2.542v-14.085c0-1.38-0.256-2.386-0.766-3.016s-1.395-0.945-2.654-0.945v-0.944
			c0.959,0.09,1.89,0.135,2.79,0.135c1.89,0,3.449-0.21,4.68-0.63V319.596z M128.148,290.21c0.569,0.57,0.855,1.245,0.855,2.025
			s-0.286,1.455-0.855,2.025c-0.57,0.569-1.245,0.854-2.024,0.854c-0.781,0-1.456-0.285-2.025-0.854
			c-0.57-0.57-0.854-1.245-0.854-2.025s0.284-1.455,0.854-2.025c0.569-0.569,1.244-0.854,2.025-0.854
			C126.903,289.355,127.578,289.641,128.148,290.21z"/>
		<path style="fill:#FFFFFF;" d="M153.709,318.38c-0.54,1.65-1.553,3.068-3.038,4.253c-1.484,1.185-3.277,1.777-5.377,1.777
			c-2.131,0-3.976-0.488-5.535-1.462c-1.561-0.975-2.753-2.341-3.577-4.096c-0.826-1.755-1.238-3.787-1.238-6.098
			c0-2.609,0.42-4.874,1.261-6.795c0.839-1.919,2.024-3.397,3.555-4.433c1.53-1.034,3.314-1.552,5.355-1.552
			c2.699,0,4.776,0.817,6.232,2.452c1.454,1.636,2.182,4.117,2.182,7.447h-14.085c-0.09,0.841-0.135,1.8-0.135,2.88
			c0,1.98,0.322,3.706,0.968,5.176c0.645,1.47,1.5,2.603,2.564,3.397c1.065,0.795,2.183,1.192,3.353,1.192
			c1.44,0,2.715-0.345,3.825-1.035c1.109-0.689,2.04-1.845,2.79-3.465L153.709,318.38z M141.289,302.9
			c-1.021,1.38-1.65,3.42-1.891,6.12h9.811c0.06-2.34-0.278-4.29-1.013-5.851c-0.735-1.56-1.822-2.34-3.263-2.34
			C143.523,300.83,142.309,301.521,141.289,302.9z"/>
		<path style="fill:#FFFFFF;" d="M176.839,301.686c0.569,0.601,0.975,1.35,1.215,2.25c0.24,0.899,0.36,2.114,0.36,3.645v12.016
			c0,1.23,0.254,2.077,0.765,2.542c0.51,0.466,1.396,0.697,2.655,0.697v0.945c-2.761-0.119-4.561-0.18-5.4-0.18
			s-2.52,0.061-5.04,0.18v-0.945c1.109,0,1.883-0.231,2.317-0.697c0.435-0.465,0.653-1.312,0.653-2.542V306.59
			c0-1.68-0.241-2.962-0.721-3.847c-0.48-0.885-1.455-1.328-2.925-1.328c-1.23,0-2.325,0.36-3.285,1.08s-1.703,1.703-2.228,2.947
			c-0.525,1.246-0.787,2.633-0.787,4.163v9.99c0,1.23,0.217,2.077,0.652,2.542c0.435,0.466,1.207,0.697,2.317,0.697v0.945
			c-2.52-0.119-4.2-0.18-5.04-0.18s-2.64,0.061-5.399,0.18v-0.945c1.26,0,2.145-0.231,2.654-0.697
			c0.51-0.465,0.766-1.312,0.766-2.542v-14.085c0-1.38-0.256-2.386-0.766-3.016s-1.395-0.945-2.654-0.945v-0.944
			c0.959,0.09,1.89,0.135,2.79,0.135c1.89,0,3.449-0.21,4.68-0.63v5.31c0.749-1.919,1.792-3.308,3.127-4.162
			c1.335-0.855,2.843-1.282,4.522-1.282C174.168,299.976,175.759,300.546,176.839,301.686z"/>
		<path style="fill:#FFFFFF;" d="M203.343,318.38c-0.54,1.65-1.552,3.068-3.037,4.253s-3.278,1.777-5.378,1.777
			c-2.13,0-3.976-0.488-5.535-1.462c-1.56-0.975-2.752-2.341-3.577-4.096s-1.237-3.787-1.237-6.098c0-2.609,0.42-4.874,1.26-6.795
			c0.84-1.919,2.025-3.397,3.555-4.433c1.53-1.034,3.315-1.552,5.355-1.552c2.7,0,4.777,0.817,6.232,2.452
			c1.455,1.636,2.183,4.117,2.183,7.447h-14.085c-0.09,0.841-0.135,1.8-0.135,2.88c0,1.98,0.321,3.706,0.967,5.176
			s1.5,2.603,2.565,3.397c1.064,0.795,2.183,1.192,3.353,1.192c1.439,0,2.715-0.345,3.825-1.035c1.109-0.689,2.039-1.845,2.79-3.465
			L203.343,318.38z M190.923,302.9c-1.021,1.38-1.65,3.42-1.89,6.12h9.81c0.06-2.34-0.277-4.29-1.013-5.851
			c-0.735-1.56-1.822-2.34-3.262-2.34C193.157,300.83,191.942,301.521,190.923,302.9z"/>
		<path style="fill:#FFFFFF;" d="M223.525,301.011c0.765,0.69,1.147,1.529,1.147,2.52c0,0.78-0.233,1.447-0.698,2.003
			c-0.465,0.555-1.087,0.832-1.867,0.832c-0.66,0-1.223-0.21-1.688-0.63s-0.697-0.99-0.697-1.71c0-0.99,0.51-1.8,1.53-2.43
			c-0.211-0.3-0.525-0.45-0.945-0.45c-1.17,0-2.235,0.457-3.195,1.372c-0.96,0.916-1.71,2.033-2.25,3.353
			c-0.54,1.32-0.81,2.565-0.81,3.735v9.54c0,1.38,0.397,2.34,1.192,2.88s1.987,0.81,3.577,0.81v0.945l-1.08-0.045
			c-3.06-0.09-5.01-0.135-5.85-0.135c-0.78,0-2.55,0.061-5.31,0.18v-0.945c1.26,0,2.145-0.231,2.654-0.697
			c0.51-0.465,0.766-1.312,0.766-2.542v-14.085c0-1.38-0.256-2.386-0.766-3.016s-1.395-0.945-2.654-0.945v-0.944
			c0.959,0.09,1.89,0.135,2.79,0.135c1.89,0,3.449-0.21,4.68-0.63v5.625c0.54-1.5,1.402-2.835,2.587-4.005
			c1.186-1.17,2.498-1.755,3.938-1.755C221.777,299.976,222.76,300.32,223.525,301.011z"/>
		<path style="fill:#FFFFFF;" d="M245.261,303.125c1.575,2.101,2.362,5.13,2.362,9.09c0,2.61-0.45,4.831-1.35,6.66
			c-0.9,1.83-2.108,3.211-3.623,4.141c-1.515,0.929-3.202,1.395-5.062,1.395c-1.11,0-2.183-0.225-3.218-0.675
			c-1.034-0.45-1.942-1.095-2.722-1.936l-3.195,2.7l-0.765-0.314c0.209-0.75,0.314-1.62,0.314-2.61v-27.63
			c0-1.38-0.255-2.385-0.765-3.015c-0.511-0.631-1.396-0.945-2.655-0.945v-0.945c0.96,0.09,1.89,0.135,2.79,0.135
			c1.89,0,3.449-0.209,4.68-0.63v16.245c0.66-1.529,1.612-2.715,2.857-3.555s2.633-1.26,4.163-1.26
			C241.623,299.976,243.686,301.025,245.261,303.125z M241.751,320.652c1.004-1.814,1.507-4.627,1.507-8.438
			c0-3.659-0.45-6.39-1.35-8.189c-0.9-1.8-2.28-2.7-4.14-2.7c-1.261,0-2.416,0.488-3.466,1.463s-1.8,2.348-2.25,4.117v14.265
			c0.69,0.721,1.485,1.269,2.386,1.643c0.899,0.376,1.829,0.562,2.79,0.562C239.237,323.375,240.745,322.468,241.751,320.652z"/>
		<path style="fill:#FFFFFF;" d="M267.985,301.011c0.765,0.69,1.147,1.529,1.147,2.52c0,0.78-0.233,1.447-0.698,2.003
			c-0.465,0.555-1.087,0.832-1.867,0.832c-0.66,0-1.223-0.21-1.688-0.63s-0.697-0.99-0.697-1.71c0-0.99,0.51-1.8,1.53-2.43
			c-0.211-0.3-0.525-0.45-0.945-0.45c-1.17,0-2.235,0.457-3.195,1.372c-0.96,0.916-1.71,2.033-2.25,3.353
			c-0.54,1.32-0.81,2.565-0.81,3.735v9.54c0,1.38,0.397,2.34,1.192,2.88s1.987,0.81,3.577,0.81v0.945l-1.08-0.045
			c-3.06-0.09-5.01-0.135-5.85-0.135c-0.78,0-2.55,0.061-5.31,0.18v-0.945c1.26,0,2.145-0.231,2.654-0.697
			c0.51-0.465,0.766-1.312,0.766-2.542v-14.085c0-1.38-0.256-2.386-0.766-3.016s-1.395-0.945-2.654-0.945v-0.944
			c0.959,0.09,1.89,0.135,2.79,0.135c1.89,0,3.449-0.21,4.68-0.63v5.625c0.54-1.5,1.402-2.835,2.587-4.005
			c1.186-1.17,2.498-1.755,3.938-1.755C266.237,299.976,267.22,300.32,267.985,301.011z"/>
		<path style="fill:#FFFFFF;" d="M288.303,302.721c2.069,2.13,3.104,5.295,3.104,9.494c0,4.111-0.938,7.171-2.812,9.181
			s-4.342,3.015-7.402,3.015c-2.49,0-4.59-0.659-6.3-1.979l-3.15,4.635l-0.944-0.63l3.239-4.771c-2.04-2.1-3.06-5.249-3.06-9.45
			c0-4.109,0.938-7.177,2.812-9.202s4.343-3.037,7.402-3.037c2.55,0,4.65,0.675,6.3,2.024l3.195-4.635l0.855,0.585L288.303,302.721z
			 M276.918,303.643c-1.051,1.845-1.575,4.703-1.575,8.572c0,2.79,0.284,5.085,0.854,6.886l9.495-14.985
			c-0.99-2.16-2.49-3.24-4.5-3.24C279.393,300.875,277.968,301.798,276.918,303.643z M285.468,320.766
			c1.05-1.83,1.575-4.681,1.575-8.551c0-2.79-0.286-5.085-0.855-6.885l-9.45,15.075c0.99,2.07,2.476,3.105,4.455,3.105
			C282.992,323.511,284.417,322.596,285.468,320.766z"/>
		<path style="fill:#FFFFFF;" d="M316.066,321.891c0.51,0.63,1.396,0.944,2.655,0.944v0.945c-0.931-0.09-1.86-0.135-2.79-0.135
			c-1.891,0-3.45,0.209-4.68,0.63v-4.005c-0.54,1.35-1.351,2.378-2.431,3.082c-1.08,0.705-2.4,1.058-3.96,1.058
			c-2.88,0-5.138-1.035-6.772-3.104c-1.636-2.07-2.438-5.101-2.407-9.091c0-2.609,0.457-4.837,1.372-6.682
			c0.915-1.846,2.145-3.232,3.69-4.163c1.545-0.93,3.247-1.395,5.107-1.395c1.14,0,2.183,0.218,3.127,0.652
			c0.945,0.436,1.703,1.103,2.273,2.002V293.9c0-1.38-0.256-2.385-0.766-3.015c-0.511-0.631-1.395-0.945-2.655-0.945v-0.945
			c0.96,0.09,1.891,0.135,2.79,0.135c1.891,0,3.45-0.209,4.681-0.63v30.375C315.302,320.256,315.556,321.261,316.066,321.891z
			 M309.316,321.71c0.93-0.899,1.575-2.175,1.936-3.824v-13.41c-0.811-2.311-2.491-3.465-5.04-3.465c-1.861,0-3.36,0.952-4.5,2.857
			c-1.141,1.905-1.695,4.688-1.665,8.347c-0.03,3.601,0.479,6.309,1.529,8.123c1.05,1.815,2.58,2.723,4.59,2.723
			C307.337,323.061,308.387,322.61,309.316,321.71z"/>
	</g>
</g>
</svg>
