<?xml version="1.0" encoding="utf-8"?>
<!-- Generator: Adobe Illustrator 25.1.0, SVG Export Plug-In . SVG Version: 6.00 Build 0)  -->
<svg version="1.1" id="_x33_" xmlns="http://www.w3.org/2000/svg" xmlns:xlink="http://www.w3.org/1999/xlink" x="0px" y="0px"
	 width="1200px" height="1000px" viewBox="0 0 1200 1000" style="enable-background:new 0 0 1200 1000;" xml:space="preserve">
<g style="opacity:0.25;">
	<path style="fill:#DDDDDD;" d="M628.76,194.348c-0.038-1.031-1.609-1.031-1.603,0c0.195,28.133-1.327,56.676-5.526,84.507
		c-1.76,11.693-4.338,23.223-7.506,34.609c-23.041,25.6-46.956,24.236-39.381,85.507c11.323-13.749,33.974-15.365,42.059-36.394
		c4.52-12.247,0.446-29.158,2.659-46.736c1.062-4.212,2.018-8.462,2.879-12.724c0.05-0.132,0.076-0.264,0.126-0.39
		c-0.025,0.025-0.038,0.057-0.063,0.088c1.314-6.488,2.446-13.02,3.426-19.558C630.212,253.664,629.691,224.135,628.76,194.348z"/>
	<path style="fill:#DDDDDD;" d="M584.495,317.726c-2.263-13.221-14.837-26.178-21.589-43.178
		c0.352-11.561,1.119-23.129,1.723-34.684c0.597-11.436,0.629-22.419-1.031-33.76c-1.974-13.422-5.338-26.643-4.218-40.305
		c0.151-1.848-2.666-1.798-2.861,0c-1.157,10.757-0.22,21.3,1.283,31.968c2.018,14.296,2.521,27.7,1.609,42.096
		c-0.855,13.504-2.641,27.907-3.118,42.203c-8.079,29.485-25.097,41.707,9.939,88.204
		C569.168,352.706,587.984,339.988,584.495,317.726z"/>
	<path style="fill:#DDDDDD;" d="M526.072,336.964c-3.841-15.013-8.317-29.95-10.172-45.19c-3.653-30.151,3.841-60.504,2.144-90.737
		c-0.113-2.005-3.213-2.031-3.131,0c1.132,30.353-6.186,60.372-3.841,90.737c1.075,13.913,4.608,27.712,7.745,41.267
		c2.037,8.795,4.005,17.628,6.255,26.379c-0.176,11.668-1.182,22.431,1.955,30.937c8.085,21.029,30.736,22.651,42.065,36.401
		C577.051,362.262,550.131,367.166,526.072,336.964z"/>
	<path style="fill:#DDDDDD;" d="M521.363,518.992c7.771,22.042,0.025,44.58,5.664,59.857c8.085,21.036,30.736,22.651,42.065,36.394
		C577.579,546.497,546.434,556.606,521.363,518.992z"/>
	<path style="fill:#DDDDDD;" d="M622.467,491.204c-7.783,22.042-0.031,44.58-5.664,59.857
		c-8.085,21.036-30.736,22.651-42.065,36.401C566.244,518.709,597.389,528.818,622.467,491.204z"/>
	<path style="fill:#DDDDDD;" d="M521.363,456.162c7.771,22.042,0.025,44.58,5.664,59.863c8.085,21.029,30.736,22.651,42.065,36.394
		C577.579,483.666,546.434,493.782,521.363,456.162z"/>
	<path style="fill:#DDDDDD;" d="M622.467,428.374c-7.783,22.035-0.031,44.573-5.664,59.857
		c-8.085,21.029-30.736,22.651-42.059,36.401C566.244,455.879,597.389,465.988,622.467,428.374z"/>
	<path style="fill:#DDDDDD;" d="M521.363,393.338c7.771,22.042,0.025,44.573,5.664,59.857c8.085,21.036,30.736,22.651,42.065,36.401
		C577.579,420.842,546.434,430.952,521.363,393.338z"/>
	<path style="fill:#DDDDDD;" d="M622.467,365.544c-7.783,22.042-0.031,44.573-5.664,59.857
		c-8.085,21.036-30.736,22.651-42.059,36.401C566.244,393.049,597.389,403.158,622.467,365.544z"/>
	<path style="fill:#EAEAEA;" d="M547.943,389.685c-1.503-0.635-0.968-3.037,0.698-2.527c4.112,1.264,7.305,4.212,9.657,7.739
		c-0.861-2.798-1.861-5.583-3.477-8.035c-1.471-2.244-3.646-3.998-4.91-6.331c-0.522-0.968,0.132-2.194,1.264-2.194
		c6.651-0.025,11.216,9.814,13.083,15.704c0.321-21.979-12.133-19.885-22.375-35.25c3.546,10.046,0.006,20.313,2.578,27.278
		c2.1,5.444,6.331,8.035,10.549,10.405C553.262,393.577,551.036,390.986,547.943,389.685z"/>
	<path style="fill:#EAEAEA;" d="M594.453,364.412c1.509-0.635,0.968-3.03-0.692-2.527c-4.112,1.264-7.318,4.218-9.663,7.739
		c0.874-2.798,1.873-5.583,3.477-8.041c1.471-2.244,3.653-3.992,4.916-6.325c0.528-0.968-0.126-2.194-1.264-2.194
		c-6.651-0.025-11.216,9.807-13.083,15.704c-0.321-21.979,12.134-19.885,22.375-35.25c-3.546,10.046-0.013,20.306-2.584,27.272
		c-2.094,5.444-6.331,8.035-10.549,10.405C589.141,368.31,591.354,365.72,594.453,364.412z"/>
	<path style="fill:#EAEAEA;" d="M567.929,334.914c0.868-1.383-0.956-3.043-2.024-1.666c-2.634,3.401-3.546,7.651-3.433,11.895
		c-0.905-2.791-1.691-5.646-1.785-8.575c-0.094-2.684,0.679-5.369,0.371-7.997c-0.132-1.094-1.364-1.723-2.301-1.069
		c-5.444,3.81-3.514,14.472-1.647,20.376c-12.926-17.785-1.534-23.242-2.018-41.7c2.886,10.247,11.687,16.603,13.605,23.777
		c1.427,5.664-0.547,10.216-2.634,14.579C565.842,341.157,566.156,337.75,567.929,334.914z"/>
	<path style="fill:#EAEAEA;" d="M594.453,427.148c1.509-0.635,0.968-3.043-0.692-2.534c-4.112,1.264-7.318,4.212-9.663,7.739
		c0.874-2.798,1.873-5.583,3.477-8.035c1.471-2.244,3.653-3.992,4.916-6.318c0.528-0.974-0.126-2.2-1.264-2.207
		c-6.651-0.025-11.216,9.814-13.083,15.704c-0.321-21.979,12.134-19.885,22.375-35.244c-3.546,10.046-0.013,20.313-2.584,27.272
		c-2.094,5.444-6.331,8.041-10.549,10.405C589.141,431.046,591.354,428.443,594.453,427.148z"/>
	<path style="fill:#EAEAEA;" d="M594.459,489.872c1.503-0.635,0.968-3.037-0.704-2.527c-4.105,1.264-7.305,4.212-9.656,7.739
		c0.861-2.791,1.861-5.576,3.477-8.035c1.471-2.244,3.646-3.998,4.916-6.331c0.516-0.968-0.132-2.194-1.27-2.194
		c-6.645-0.025-11.209,9.807-13.077,15.704c-0.321-21.979,12.14-19.879,22.381-35.244c-3.546,10.04-0.019,20.313-2.584,27.278
		c-2.087,5.444-6.331,8.035-10.549,10.398C589.147,493.769,591.366,491.173,594.459,489.872z"/>
	<path style="fill:#EAEAEA;" d="M594.459,552.608c1.503-0.635,0.968-3.037-0.704-2.527c-4.105,1.264-7.305,4.212-9.65,7.739
		c0.868-2.798,1.861-5.583,3.47-8.041c1.471-2.238,3.646-3.992,4.916-6.325c0.516-0.968-0.132-2.194-1.27-2.2
		c-6.645-0.019-11.209,9.814-13.077,15.704c-0.321-21.979,12.14-19.879,22.381-35.25c-3.546,10.046-0.019,20.313-2.584,27.278
		c-2.094,5.444-6.331,8.035-10.549,10.405C589.147,556.499,591.366,553.909,594.459,552.608z"/>
	<path style="fill:#EAEAEA;" d="M547.943,452.717c-1.503-0.635-0.968-3.037,0.698-2.527c4.112,1.264,7.305,4.212,9.657,7.739
		c-0.861-2.798-1.861-5.583-3.477-8.041c-1.471-2.251-3.646-3.998-4.91-6.331c-0.522-0.968,0.132-2.194,1.264-2.194
		c6.651-0.025,11.216,9.807,13.083,15.704c0.321-21.979-12.133-19.885-22.381-35.244c3.546,10.04,0.013,20.306,2.584,27.272
		c2.1,5.444,6.331,8.035,10.549,10.405C553.262,456.608,551.036,454.018,547.943,452.717z"/>
	<path style="fill:#EAEAEA;" d="M547.943,515.748c-1.503-0.629-0.968-3.037,0.698-2.527c4.112,1.264,7.305,4.212,9.657,7.739
		c-0.861-2.798-1.861-5.576-3.477-8.041c-1.471-2.244-3.646-3.992-4.91-6.324c-0.522-0.968,0.132-2.194,1.264-2.194
		c6.651-0.025,11.216,9.807,13.083,15.698c0.321-21.979-12.133-19.879-22.381-35.244c3.546,10.046,0.013,20.313,2.584,27.272
		c2.1,5.444,6.331,8.034,10.549,10.411C553.262,519.64,551.036,517.049,547.943,515.748z"/>
	<path style="fill:#EAEAEA;" d="M547.943,578.779c-1.503-0.635-0.968-3.043,0.698-2.534c4.112,1.264,7.305,4.206,9.657,7.739
		c-0.861-2.798-1.861-5.576-3.477-8.041c-1.471-2.244-3.646-3.986-4.91-6.324c-0.522-0.968,0.132-2.194,1.264-2.194
		c6.651-0.025,11.216,9.807,13.083,15.698c0.321-21.972-12.133-19.879-22.381-35.244c3.546,10.046,0.013,20.313,2.584,27.272
		c2.1,5.444,6.331,8.041,10.549,10.411C553.262,582.677,551.036,580.075,547.943,578.779z"/>
	<path style="fill:#DDDDDD;" d="M177.324,766.868c-0.585,0.528-0.044,1.163,0.56,0.648c16.226-14.145,34.502-25.757,53.463-33.647
		c7.965-3.326,16.094-5.828,24.236-7.626c21.928,4.552,24.317,15.157,62.227,1.371c-10.159-3.772-14.227-15.334-29.875-15.12
		c-9.122,0.321-19.885,6.419-31.937,10.468c-3.024,0.71-6.042,1.547-9.047,2.458c-0.094,0.019-0.182,0.044-0.289,0.069
		c0.019,0,0.044,0,0.069,0c-4.577,1.408-9.122,3.043-13.617,4.879C212.762,738.672,194.279,751.597,177.324,766.868z"/>
	<path style="fill:#DDDDDD;" d="M264.647,739.42c-7.789,4.721-12.794,14.529-20.753,23.11c-6.733,3.59-13.46,7.293-20.03,11.392
		c-6.494,4.049-12.467,8.481-17.88,14.013c-6.419,6.57-11.876,13.856-18.93,20.017c-0.956,0.842,0.132,1.867,1.062,1.075
		c5.639-4.734,10.524-9.889,15.484-15.139c6.658-7.016,13.674-12.699,21.822-17.691c7.651-4.684,16.195-8.802,24.475-12.995
		c19.533-5.029,28.089,0.101,50.848-26.574C289.518,738.389,277.982,731.725,264.647,739.42z"/>
	<path style="fill:#DDDDDD;" d="M287.764,763.448c-7.739,5.13-14.925,10.914-22.557,15.912
		c-14.969,9.814-32.49,16.553-46.447,29.334c-0.912,0.842,0.126,2.112,1.062,1.276c14.089-12.504,31.302-19.143,46.547-28.328
		c7.035-4.237,13.68-9.267,20.583-13.762c4.47-2.905,9.091-5.652,13.724-8.393c6.695-2.056,13.007-3.194,17.565-6.004
		c11.279-6.985,10.122-18.854,17.974-26.247C293.963,730.92,300.545,745.952,287.764,763.448z"/>
	<path style="fill:#DDDDDD;" d="M394.262,749.887c13.41-3.313,26.185,2.835,35.59,1.779c13.19-1.503,17.238-12.718,27.555-16.025
		C414.883,720.132,417.31,739.269,394.262,749.887z"/>
	<path style="fill:#DDDDDD;" d="M377.86,695.764c15.598,4.049,31.805,1.408,42.266,5.922c14.139,6.482,12.875,18.666,20.426,26.411
		C395.501,724.338,404.409,710.375,377.86,695.764z"/>
	<path style="fill:#DDDDDD;" d="M357.277,750.227c12.781-5.237,26.298-1.025,35.414-3.445c12.768-3.42,15.113-15.113,24.783-19.91
		C373.34,717.812,378.489,736.339,357.277,750.227z"/>
	<path style="fill:#DDDDDD;" d="M333.073,699.09c16.056,1.716,31.692-3.257,42.681-0.314c14.906,4.332,15.44,16.572,24.016,23.123
		C354.8,724.791,361.508,709.652,333.073,699.09z"/>
	<path style="fill:#DDDDDD;" d="M320.663,755.992c11.926-7.066,25.939-4.879,34.596-8.607c12.14-5.25,12.737-17.157,21.576-23.318
		C331.891,721.553,339.655,739.131,320.663,755.992z"/>
	<path style="fill:#DDDDDD;" d="M289.084,708.998c16.226-0.698,31.019-7.928,42.348-6.626c15.422,2.112,17.741,14.139,27.184,19.37
		C314.514,731.178,318.896,715.222,289.084,708.998z"/>
	<path style="fill:#EAEAEA;" d="M315.212,742.802c-0.195,0.868-1.723,0.949-1.628,0.019c0.239-2.307,1.653-4.401,3.558-6.117
		c-1.635,0.849-3.238,1.779-4.539,2.992c-1.188,1.1-1.974,2.49-3.219,3.514c-0.516,0.427-1.352,0.289-1.503-0.289
		c-0.974-3.401,4.501-7.362,8.009-9.172c-13.825,3.238-10.838,9.411-18.326,17.37c5.388-3.716,12.064-3.621,15.899-5.979
		c3.011-1.899,4.074-4.445,5.048-6.959C316.935,739.489,315.615,741.017,315.212,742.802z"/>
	<path style="fill:#EAEAEA;" d="M292.68,723.433c-0.648-0.641-2.144,0.126-1.547,0.861c1.484,1.817,3.892,2.842,6.519,3.37
		c-1.943,0.088-3.892,0.138-5.734-0.182c-1.685-0.289-3.175-1.012-4.897-1.15c-0.717-0.057-1.402,0.541-1.213,1.106
		c1.138,3.326,8.16,3.552,12.19,3.414c-13.913,4.514-14.604-2.087-26.555-3.439c7.173-0.792,13.271-4.853,18.301-5.011
		c3.923-0.069,6.274,1.591,8.431,3.282C296.044,725.35,294.019,724.74,292.68,723.433z"/>
	<path style="fill:#EAEAEA;" d="M278.592,743.186c-1.012-0.101-1.672,1.201-0.629,1.396c2.584,0.49,5.325-0.025,7.884-1.012
		c-1.54,1.062-3.118,2.094-4.872,2.816c-1.609,0.66-3.37,0.918-4.897,1.71c-0.635,0.327-0.761,1.094-0.182,1.389
		c3.357,1.723,9.304-1.653,12.561-3.822c-8.286,10.298-13.561,5.903-24.374,11.102c5.306-4.156,7.312-10.053,11.323-12.768
		c3.175-2.081,6.375-2.163,9.418-2.087C282.797,742.771,280.672,743.399,278.592,743.186z"/>
	<path style="fill:#EAEAEA;" d="M334.444,713.902c-0.553-0.723-2.131-0.189-1.647,0.629c1.188,2.024,3.414,3.389,5.916,4.3
		c-1.917-0.201-3.841-0.446-5.602-1.031c-1.609-0.534-2.974-1.477-4.652-1.873c-0.692-0.163-1.452,0.327-1.352,0.918
		c0.635,3.451,7.5,4.728,11.486,5.187c-14.328,2.395-14.045-4.231-25.575-7.356c7.154,0.295,13.724-2.81,18.691-2.226
		c3.873,0.516,5.935,2.502,7.814,4.495C337.474,716.297,335.569,715.392,334.444,713.902z"/>
	<path style="fill:#EAEAEA;" d="M376.967,710.614c-0.434-0.792-2.068-0.497-1.71,0.383c0.88,2.169,2.867,3.854,5.206,5.117
		c-1.861-0.478-3.716-1-5.375-1.842c-1.515-0.761-2.716-1.899-4.319-2.527c-0.66-0.258-1.484,0.113-1.471,0.71
		c0.126,3.508,6.714,5.765,10.574,6.802c-14.491,0.289-13.234-6.243-24.148-11.015c6.997,1.339,13.944-0.767,18.754,0.541
		c3.747,1.069,5.495,3.338,7.054,5.589C379.608,713.424,377.86,712.255,376.967,710.614z"/>
	<path style="fill:#EAEAEA;" d="M419.51,713.569c-0.308-0.855-1.974-0.798-1.754,0.119c0.56,2.276,2.282,4.231,4.42,5.828
		c-1.779-0.748-3.546-1.54-5.067-2.603c-1.396-0.981-2.414-2.276-3.904-3.131c-0.61-0.358-1.484-0.113-1.559,0.49
		c-0.396,3.483,5.803,6.683,9.474,8.28c-14.403-1.842-12.19-8.104-22.293-14.428c6.727,2.345,13.913,1.27,18.49,3.269
		c3.552,1.609,4.954,4.112,6.167,6.563C421.717,716.737,420.151,715.316,419.51,713.569z"/>
	<path style="fill:#EAEAEA;" d="M353.964,736.365c-0.321,0.836-1.829,0.692-1.603-0.214c0.572-2.244,2.263-4.112,4.407-5.52
		c-1.735,0.597-3.445,1.276-4.91,2.282c-1.339,0.918-2.307,2.175-3.684,3.005c-0.572,0.346-1.377,0.088-1.446-0.509
		c-0.453-3.514,5.514-6.614,9.235-7.884c-14.089,1.15-12.046,7.708-20.564,14.46c5.834-2.873,12.391-1.785,16.509-3.558
		c3.238-1.433,4.659-3.791,5.985-6.136C356.146,733.347,354.63,734.661,353.964,736.365z"/>
	<path style="fill:#EAEAEA;" d="M393.156,735.698c-0.44,0.773-1.911,0.415-1.553-0.453c0.899-2.138,2.842-3.734,5.161-4.822
		c-1.798,0.339-3.59,0.761-5.193,1.534c-1.452,0.71-2.596,1.817-4.08,2.433c-0.61,0.258-1.371-0.113-1.345-0.717
		c0.057-3.546,6.419-5.74,10.285-6.45c-14.101-0.918-13.039,5.859-22.444,11.291c6.174-1.987,12.486,0.044,16.817-1.094
		c3.42-0.943,5.174-3.068,6.834-5.193C395.752,733.026,394.055,734.101,393.156,735.698z"/>
	<path style="fill:#EAEAEA;" d="M432.065,740.79c-0.547,0.698-1.955,0.126-1.471-0.673c1.201-1.987,3.37-3.269,5.834-4.005
		c-1.842,0.069-3.684,0.22-5.382,0.754c-1.547,0.49-2.848,1.408-4.407,1.804c-0.648,0.163-1.345-0.314-1.232-0.905
		c0.585-3.495,7.211-4.728,11.159-4.853c-13.856-2.999-13.806,3.86-23.934,7.852c6.419-1.056,12.379,1.88,16.849,1.389
		c3.527-0.421,5.589-2.27,7.544-4.124C435.039,738.54,433.19,739.351,432.065,740.79z"/>
	<path style="fill:#DDDDDD;" d="M922.706,803.633c0.484,0.402,1.031-0.226,0.553-0.641c-13.158-11.209-26.788-21.608-40.368-31.629
		c-5.708-4.218-11.304-8.519-16.905-12.869c-9.424-16.698-4.52-30.504-44.221-36.438c7.318,7.877,5.381,19.64,16.119,27.335
		c6.211,4.438,16.421,5.771,25.638,11.115c2.081,1.534,4.181,3.049,6.268,4.564c0.063,0.057,0.126,0.101,0.182,0.163
		c-0.006-0.019-0.025-0.038-0.038-0.057c3.194,2.301,6.387,4.596,9.581,6.89C893.9,782.434,908.535,792.091,922.706,803.633z"/>
	<path style="fill:#DDDDDD;" d="M869.884,743.041c8.211,2.282,18.728-0.088,30.579,2.458c6.733,4.017,13.202,8.519,19.533,13.24
		c6.274,4.671,12.297,9.172,18.961,13.447c7.877,5.048,16.069,9.99,22.595,17.301c0.874,0.987,1.905-0.082,1.063-1.069
		c-5.055-5.884-10.964-10.631-17.207-14.875c-8.38-5.683-15.918-11.084-23.84-17.094c-7.431-5.633-15.384-11.612-23.884-16.497
		c-15.359-12.674-21.262-25.971-56.632-17.622C851.847,727.211,856.173,739.206,869.884,743.041z"/>
	<path style="fill:#DDDDDD;" d="M869.501,709.438c10.725,1.905,21.633,4.137,32.05,8.349c20.746,8.431,37.589,24.229,55.569,38.073
		c1.201,0.924,2.276-0.321,1.069-1.276c-17.974-14.214-34.753-29.869-55.468-39.072c-9.437-4.187-19.47-6.626-29.196-8.644
		c-6.318-1.314-12.649-2.452-18.955-3.219c-7.871-2.622-15.157-5.136-21.4-4.929c-15.478,0.849-18.785,12.649-28.58,17.094
		C844.913,727.752,844.706,714.769,869.501,709.438z"/>
	<path style="fill:#DDDDDD;" d="M743.079,687.937c-15.201,5.042-31.465,3.445-41.562,8.632
		c-13.617,7.374-11.561,19.451-18.552,27.662C727.476,717.58,717.681,704.233,743.079,687.937z"/>
	<path style="fill:#DDDDDD;" d="M762.757,740.922c-13.051-4.174-26.078,1.113-35.307-0.56c-12.926-2.376-16.232-13.837-26.21-17.842
		C744.242,709.916,740.653,728.814,762.757,740.922z"/>
	<path style="fill:#DDDDDD;" d="M787.659,688.352c-15.78,2.772-31.597-1.188-42.304,2.458
		c-14.497,5.294-14.227,17.534-22.299,24.625C767.831,715.423,760.173,700.743,787.659,688.352z"/>
	<path style="fill:#DDDDDD;" d="M799.359,743.638c-12.328-6.035-25.983-2.71-34.841-5.715
		c-12.417-4.237-13.982-16.063-23.236-21.488C785.534,710.274,779.266,728.424,799.359,743.638z"/>
	<path style="fill:#DDDDDD;" d="M831.805,695.299c-16.082,0.415-31.176-5.815-42.304-3.778
		c-15.126,3.118-16.654,15.271-25.669,21.099C808.085,719.158,802.71,703.51,831.805,695.299z"/>
	<path style="fill:#DDDDDD;" d="M835.319,751.736c-11.385-7.821-25.43-6.532-33.773-10.807
		c-11.675-6.01-11.492-17.936-19.854-24.651C826.423,716.662,817.584,733.693,835.319,751.736z"/>
	<path style="fill:#EAEAEA;" d="M830.994,709.608c0.61-0.673,2.131-0.006,1.578,0.767c-1.371,1.905-3.69,3.074-6.262,3.76
		c1.924-0.025,3.854-0.107,5.671-0.534c1.653-0.39,3.081-1.213,4.791-1.452c0.704-0.101,1.415,0.446,1.264,1.031
		c-0.937,3.382-7.884,4.042-11.888,4.156c14.045,3.64,14.353-2.98,26.115-5.08c-7.148-0.333-13.422-4.011-18.42-3.86
		c-3.892,0.176-6.123,1.974-8.173,3.797C827.769,711.72,829.743,710.991,830.994,709.608z"/>
	<path style="fill:#EAEAEA;" d="M840.336,737.741c0.138,0.88,1.647,1.056,1.616,0.113c-0.101-2.313-1.383-4.489-3.187-6.318
		c1.591,0.943,3.118,1.961,4.35,3.25c1.119,1.169,1.817,2.609,2.986,3.703c0.49,0.459,1.333,0.371,1.528-0.195
		c1.169-3.338-4.049-7.62-7.444-9.631c13.598,4.055,10.241,10.046,17.232,18.433c-5.149-4.036-11.813-4.332-15.491-6.915
		c-2.886-2.075-3.797-4.677-4.614-7.242C838.821,734.334,840.041,735.931,840.336,737.741z"/>
	<path style="fill:#EAEAEA;" d="M862.855,730.675c0.685,0.748,2.062,0.258,1.421-0.604c-1.597-2.119-4.086-3.583-6.765-4.482
		c1.911,0.182,3.841,0.446,5.702,1.107c1.697,0.597,3.225,1.628,4.923,2.144c0.704,0.207,1.345-0.233,1.125-0.861
		c-1.282-3.665-8.449-5.325-12.523-5.677c13.693-2.314,15.114,4.765,26.537,9.688c-7.004-1.565-12.756,1.094-17.509,0.27
		c-3.747-0.679-6.167-2.71-8.525-4.728C859.385,728.154,861.447,729.109,862.855,730.675z"/>
	<path style="fill:#EAEAEA;" d="M802.314,729.066c0.264,0.842,1.785,0.792,1.609-0.126c-0.434-2.276-2.005-4.237-4.049-5.778
		c1.691,0.698,3.351,1.484,4.74,2.571c1.276,0.987,2.169,2.307,3.483,3.219c0.541,0.371,1.358,0.17,1.465-0.421
		c0.673-3.47-5.092-6.934-8.714-8.412c13.963,1.987,11.524,8.399,19.602,15.648c-5.633-3.219-12.222-2.521-16.214-4.526
		c-3.137-1.616-4.407-4.055-5.589-6.482C800.327,725.922,801.76,727.318,802.314,729.066z"/>
	<path style="fill:#EAEAEA;" d="M763.593,726.073c0.384,0.798,1.873,0.528,1.572-0.352c-0.761-2.188-2.603-3.904-4.841-5.124
		c1.773,0.446,3.527,0.974,5.061,1.848c1.402,0.798,2.477,1.961,3.904,2.678c0.597,0.289,1.371-0.031,1.389-0.635
		c0.151-3.533-6.035-6.111-9.826-7.054c14.057-0.069,12.592,6.639,21.614,12.618c-6.016-2.351-12.423-0.704-16.647-2.1
		c-3.338-1.15-4.954-3.376-6.469-5.595C761.173,723.257,762.795,724.432,763.593,726.073z"/>
	<path style="fill:#EAEAEA;" d="M724.86,728.77c0.497,0.729,1.936,0.245,1.496-0.591c-1.075-2.049-3.143-3.47-5.545-4.357
		c1.823,0.176,3.64,0.446,5.287,1.088c1.503,0.585,2.741,1.591,4.256,2.075c0.635,0.207,1.352-0.226,1.283-0.83
		c-0.371-3.514-6.871-5.161-10.776-5.539c13.919-2.125,13.454,4.721,23.255,9.323c-6.299-1.452-12.391,1.119-16.792,0.352
		c-3.477-0.648-5.4-2.615-7.236-4.596C722.05,726.331,723.823,727.255,724.86,728.77z"/>
	<path style="fill:#EAEAEA;" d="M788.822,702.598c0.497-0.748,2.1-0.321,1.666,0.528c-1.062,2.094-3.187,3.59-5.62,4.646
		c1.892-0.314,3.778-0.679,5.501-1.371c1.572-0.629,2.867-1.653,4.508-2.144c0.679-0.207,1.458,0.233,1.389,0.83
		c-0.421,3.483-7.167,5.161-11.09,5.872c14.359,1.528,13.686-5.073,24.946-8.89c-7.073,0.729-13.787-1.974-18.678-1.081
		c-3.81,0.742-5.74,2.854-7.487,4.96C785.955,705.176,787.791,704.157,788.822,702.598z"/>
	<path style="fill:#EAEAEA;" d="M746.179,701.875c0.384-0.824,2.031-0.622,1.729,0.277c-0.742,2.219-2.622,4.011-4.879,5.426
		c1.829-0.585,3.64-1.22,5.243-2.156c1.458-0.855,2.584-2.056,4.137-2.779c0.635-0.302,1.477,0.019,1.496,0.622
		c0.101,3.508-6.312,6.155-10.097,7.431c14.422-0.591,12.775-7.029,23.33-12.454c-6.865,1.76-13.9,0.069-18.603,1.672
		c-3.653,1.295-5.256,3.665-6.677,6.01C743.727,704.836,745.393,703.56,746.179,701.875z"/>
	<path style="fill:#EAEAEA;" d="M703.837,707.42c0.258-0.861,1.917-0.912,1.754,0.019c-0.409,2.307-2.005,4.363-4.036,6.086
		c1.723-0.855,3.433-1.741,4.885-2.911c1.32-1.062,2.257-2.414,3.684-3.363c0.597-0.396,1.477-0.201,1.584,0.39
		c0.61,3.451-5.356,7.022-8.921,8.839c14.221-2.716,11.637-8.833,21.3-15.755c-6.551,2.754-13.762,2.112-18.2,4.388
		c-3.439,1.817-4.677,4.401-5.74,6.928C701.832,710.714,703.303,709.206,703.837,707.42z"/>
	<path style="fill:#DDDDDD;" d="M238.595,393.451c-0.861-0.358-1.364,0.742-0.516,1.119c23.192,10.43,45.529,23.406,65.288,38.764
		c8.305,6.444,16,13.504,23.117,20.998c9.028,27.536-2.075,40.663,42.203,67.577c-3.697-13.994,5.928-28.674-5.312-44.731
		c-6.714-9.216-20.765-15.271-32.899-25.141c-2.697-2.722-5.488-5.363-8.349-7.947c-0.082-0.094-0.163-0.176-0.245-0.264
		c0.019,0.025,0.038,0.05,0.044,0.075c-4.363-3.923-8.89-7.708-13.542-11.341C287.311,416.121,263.384,404.006,238.595,393.451z"/>
	<path style="fill:#DDDDDD;" d="M317.218,475.443c-10.461-4.728-24.933-2.383-39.802-5.036
		c-8.242-5.099-16.446-10.304-24.845-15.252c-8.305-4.879-16.603-9.059-25.795-12.001c-10.895-3.495-22.086-5.652-32.371-10.87
		c-1.396-0.704-2.175,1.308-0.842,2.024c8.003,4.3,16.371,7.186,24.977,9.895c11.53,3.634,21.822,8.292,32.163,14.51
		c9.707,5.84,19.533,12.882,29.554,19.25c18.043,18.313,18.401,33.446,65.364,34.395
		C335.261,501.867,334.708,483.723,317.218,475.443z"/>
	<path style="fill:#DDDDDD;" d="M305.53,521.576c-11.587-4.357-23.418-7.915-34.471-12.976
		c-21.777-9.958-40.336-26.449-62.956-35.59c-1.496-0.604-2.508,1.547-1.018,2.182c22.431,9.531,40.757,25.732,62.051,36.583
		c9.795,4.985,20.42,8.6,30.686,12.655c6.658,2.622,13.284,5.425,19.954,8.135c7.475,5.583,13.806,11.385,20.64,13.686
		c17.006,5.558,29.07-6.903,43.492-6.104C345.999,500.917,335.588,520.551,305.53,521.576z"/>
	<path style="fill:#DDDDDD;" d="M412.897,618.5c16.415,8.745,23.62,26.348,34.571,33.043c15.34,9.216,29.894-0.233,43.781,3.772
		C461.066,605.63,446.845,627.773,412.897,618.5z"/>
	<path style="fill:#DDDDDD;" d="M452.44,547.754c9.531,17.905,27.247,28.517,32.855,41.625c7.356,18.125-5.3,30.309-4.822,44.756
		C438.597,593.811,461.638,585.381,452.44,547.754z"/>
	<path style="fill:#DDDDDD;" d="M377.508,583.451c17.025,7.494,25.518,24.506,36.929,30.346c15.975,8.022,29.768-2.496,43.907,0.446
		C424.59,567.017,412.054,590.146,377.508,583.451z"/>
	<path style="fill:#DDDDDD;" d="M411.639,509.939c10.851,17.15,29.309,26.405,35.872,39.047c8.688,17.515-3.018,30.604-1.471,44.976
		C401.304,556.92,423.634,546.767,411.639,509.939z"/>
	<path style="fill:#DDDDDD;" d="M339.574,551.124c17.553,6.211,27.304,22.544,39.123,27.524c16.528,6.802,29.491-4.721,43.813-2.848
		C385.316,531.239,374.534,555.229,339.574,551.124z"/>
	<path style="fill:#DDDDDD;" d="M368.059,475.236c12.14,16.314,31.258,24.173,38.752,36.294c9.983,16.823-0.717,30.749,1.911,44.963
		C361.326,522.896,382.827,511.096,368.059,475.236z"/>
	<path style="fill:#EAEAEA;" d="M349.871,533.25c-1.119,0.591-2.42-0.937-1.301-1.691c2.754-1.855,6.186-2.301,9.587-1.892
		c-2.225-0.918-4.514-1.735-6.878-1.999c-2.156-0.239-4.319,0.201-6.425-0.195c-0.874-0.164-1.377-1.163-0.849-1.861
		c3.062-4.093,11.681-1.917,16.421,0.025c-14.296-11.461-18.804-2.754-33.515-3.829c8.242,2.603,13.297,9.833,18.974,11.744
		c4.489,1.452,8.167,0.22,11.712-1.094C354.907,532.012,352.172,532.037,349.871,533.25z"/>
	<path style="fill:#EAEAEA;" d="M354.517,491.971c0.245-1.264-1.672-2.15-2.068-0.861c-0.981,3.194-0.396,6.67,0.937,9.902
		c-1.521-1.955-2.98-3.98-3.948-6.224c-0.893-2.043-1.119-4.275-2.188-6.243c-0.44-0.811-1.591-1.012-2.1-0.308
		c-2.961,4.143,1.785,11.876,4.923,16.006c-15.176-10.794-8.179-17.446-14.699-31.522c5.671,7.135,14.472,10.065,18.2,15.233
		c2.867,4.074,2.716,8.028,2.402,11.838C354.8,497.246,354.014,494.549,354.517,491.971z"/>
	<path style="fill:#EAEAEA;" d="M322.279,494.096c-0.591-1.207-2.527-0.824-2.037,0.497c1.226,3.275,3.741,5.859,6.689,7.814
		c-2.307-0.761-4.596-1.622-6.658-2.942c-1.88-1.207-3.401-2.949-5.35-3.967c-0.811-0.428-1.773,0.075-1.723,0.968
		c0.314,5.224,8.399,8.946,13.221,10.612c-17.704-0.245-16.427-9.921-29.586-17.905c8.343,2.666,16.484-0.05,22.318,2.094
		c4.558,1.754,6.865,5.18,8.946,8.581C325.68,498.378,323.486,496.567,322.279,494.096z"/>
	<path style="fill:#EAEAEA;" d="M396.815,525.555c0.34-1.232-1.503-2.263-1.993-1.006c-1.22,3.106-0.905,6.607,0.182,9.939
		c-1.364-2.062-2.666-4.187-3.458-6.494c-0.723-2.1-0.792-4.344-1.71-6.375c-0.377-0.842-1.503-1.138-2.062-0.471
		c-3.269,3.917,0.874,11.964,3.684,16.314c-14.284-11.876-6.815-17.987-12.247-32.484c5.105,7.519,13.649,11.096,16.968,16.509
		c2.54,4.275,2.094,8.198,1.49,11.964C396.695,530.83,396.123,528.089,396.815,525.555z"/>
	<path style="fill:#EAEAEA;" d="M436.428,562.157c0.421-1.201-1.327-2.37-1.924-1.144c-1.452,3.005-1.389,6.519-0.56,9.914
		c-1.201-2.15-2.339-4.376-2.961-6.721c-0.566-2.156-0.465-4.388-1.22-6.488c-0.314-0.868-1.421-1.238-2.031-0.61
		c-3.546,3.653-0.019,11.983,2.446,16.534c-13.353-12.901-5.444-18.439-9.757-33.295c4.514,7.871,12.768,12.077,15.673,17.722
		c2.213,4.445,1.471,8.324,0.591,12.039C435.919,567.407,435.548,564.634,436.428,562.157z"/>
	<path style="fill:#EAEAEA;" d="M473.193,601.619c0.522-1.169-1.15-2.464-1.829-1.295c-1.672,2.892-1.88,6.4-1.295,9.851
		c-1.037-2.244-2.012-4.539-2.452-6.934c-0.402-2.188-0.138-4.413-0.736-6.557c-0.245-0.893-1.32-1.345-1.98-0.767
		c-3.804,3.376-0.905,11.951,1.207,16.673c-12.36-13.869-4.049-18.791-7.249-33.936c3.923,8.192,11.832,13.001,14.309,18.842
		c1.873,4.615,0.842,8.424-0.308,12.064C472.288,606.812,472.131,604.021,473.193,601.619z"/>
	<path style="fill:#EAEAEA;" d="M389.246,566.52c-1.157,0.503-2.332-1.125-1.169-1.785c2.879-1.647,6.331-1.829,9.701-1.182
		c-2.156-1.081-4.363-2.068-6.695-2.502c-2.131-0.402-4.313-0.126-6.387-0.666c-0.855-0.226-1.276-1.27-0.704-1.924
		c3.37-3.847,11.781-1.031,16.358,1.251c-13.378-12.486-18.521-4.143-33.094-6.299c8.009,3.2,12.498,10.776,18.005,13.114
		c4.363,1.779,8.116,0.824,11.75-0.226C394.357,565.653,391.635,565.47,389.246,566.52z"/>
	<path style="fill:#EAEAEA;" d="M425.973,602.613c-1.195,0.415-2.244-1.289-1.031-1.873c3.005-1.427,6.444-1.358,9.757-0.446
		c-2.068-1.245-4.2-2.389-6.494-3.005c-2.094-0.56-4.294-0.446-6.318-1.144c-0.836-0.289-1.182-1.358-0.553-1.968
		c3.64-3.59,11.813-0.151,16.22,2.477c-12.404-13.454-18.156-5.52-32.522-8.764c7.739,3.791,11.643,11.681,16.956,14.416
		c4.218,2.1,8.035,1.44,11.737,0.66C431.135,602.135,428.438,601.751,425.973,602.613z"/>
	<path style="fill:#EAEAEA;" d="M459.903,641.383c-1.22,0.321-2.137-1.459-0.886-1.943c3.099-1.195,6.538-0.868,9.77,0.295
		c-1.961-1.389-4.005-2.697-6.243-3.483c-2.056-0.717-4.256-0.767-6.224-1.622c-0.817-0.352-1.075-1.446-0.409-2.005
		c3.904-3.307,11.807,0.748,15.994,3.697c-11.36-14.359-17.697-6.884-31.773-11.203c7.437,4.363,10.738,12.53,15.83,15.66
		c4.055,2.414,7.915,2.037,11.668,1.547C465.09,641.302,462.424,640.711,459.903,641.383z"/>
	<path style="fill:#DDDDDD;" d="M945.942,476.575c0.729-0.365,0.233-1.471-0.509-1.119c-20.35,9.468-40.908,18.879-61.648,27.316
		c-8.714,3.546-17.572,6.689-26.555,9.581c-26.524-3.307-37.331-19.703-74.36,16.308c14.403-0.295,26.046,12.567,43.197,7.601
		c9.877-2.949,19.087-13.227,31.799-19.439c3.263-1.144,6.501-2.345,9.732-3.577c0.107-0.025,0.208-0.063,0.321-0.088
		c-0.031,0-0.057,0-0.094,0c4.91-1.88,9.782-3.835,14.611-5.84C904.26,498.252,924.655,487.105,945.942,476.575z"/>
	<path style="fill:#DDDDDD;" d="M841.933,495.152c8.198-7.4,12.24-21.331,22.174-33.106c8.651-4.709,17.553-8.952,26.48-13.121
		c8.833-4.124,17.207-8.273,25.417-13.598c9.713-6.281,19.087-13.29,30.321-17.037c1.521-0.509,0.654-2.49-0.842-2.031
		c-8.946,2.76-17.031,7.098-24.889,12.002c-10.524,6.582-20.633,11.995-31.868,17.106c-10.537,4.797-21.991,9.606-32.716,15.535
		c-24.355,7.582-41.964,2.798-58.096,47.861C811.266,501.71,828.096,507.443,841.933,495.152z"/>
	<path style="fill:#DDDDDD;" d="M803.338,467c9.235-9.902,18.533-20.017,29.429-28.309c21.652-16.459,48.415-24.286,72.355-36.904
		c1.591-0.836,0.616-3.005-1.025-2.175c-24.305,12.316-50.816,20.155-73.26,35.904c-10.248,7.205-19.168,16.176-27.775,24.921
		c-5.589,5.677-11.115,11.411-16.346,17.339c-8.387,5.916-16.415,11.071-20.822,17.578c-10.631,16.352-0.522,30.711-3.703,44.781
		C807.689,510.53,792.324,497.762,803.338,467z"/>
	<path style="fill:#DDDDDD;" d="M679.595,568.507c-8.871,18.156-26.191,29.303-31.321,42.549
		c-6.721,18.313,6.337,30.057,6.356,44.498C695.029,614.017,671.737,606.322,679.595,568.507z"/>
	<path style="fill:#DDDDDD;" d="M751.51,605.813c-16.641,8.148-24.368,25.436-35.489,31.717c-15.585,8.638-29.806-1.301-43.781,2.2
		C703.869,591.29,717.373,613.86,751.51,605.813z"/>
	<path style="fill:#DDDDDD;" d="M718.957,529.522c-10.21,17.44-28.297,27.247-34.408,40.066
		c-8.053,17.735,4.086,30.434,3.043,44.806C730.927,576.064,708.282,566.633,718.957,529.522z"/>
	<path style="fill:#DDDDDD;" d="M787.879,572.103c-17.207,6.878-26.21,23.55-37.771,28.976c-16.176,7.437-29.605-3.546-43.8-1.107
		C741.445,554.079,753.232,577.566,787.879,572.103z"/>
	<path style="fill:#DDDDDD;" d="M761.154,493.562c-11.505,16.641-30.284,25.072-37.337,37.394
		c-9.361,17.094,1.798,30.654-0.321,44.907C769.566,540.902,747.713,529.793,761.154,493.562z"/>
	<path style="fill:#DDDDDD;" d="M826.725,541.172c-17.71,5.589-27.939,21.545-39.89,26.096c-16.691,6.211-29.259-5.74-43.605-4.376
		C781.724,519.746,791.727,544.051,826.725,541.172z"/>
	<path style="fill:#DDDDDD;" d="M672.912,730.455c13.85-7.286,4.74-16.528,18.414-28.731c-11.429,6.387-17.723,6.595-25.248,11.75
		c-9.763,7.104-7.469,16.295-11.649,23.55c-18.879,7.607-37.117,17.446-54.362,29.504c14.793-31.233,31.843-61.208,50.986-89.713
		c8.952,3.829,16.446,4.948,28.41-2.961c8.833-5.922,10.273-18.307,23.349-26.449c-22.299,1.283-32.283-11.172-53.507,22.475
		c8.456-18.282-9.386-22.016-6.5-45.523c-5.796,15.497-12.297,20.168-15.748,31.157c-4.269,14.667,6.029,23.538,7.475,34.709
		c-18.647,27.014-35.47,55.481-50.294,85.243l-2.766-137.046c12.391-2.414,21.35-6.507,27.788-23.261
		c4.64-12.567-3.678-25.807,2.722-43.951c-21.752,18.879-41.021,14.202-37.557,61.604c-5.036-23.582-26.574-14.774-42.191-38.199
		c6.4,18.137,3.087,26.933,7.726,39.519c6.4,16.641,23.877,18.521,33.496,28.693l-2.609,102.418
		c-17.528-35.036-37.746-68.344-60.454-99.608c6.582-7.117,10.304-14.007,5.576-28.762c-3.766-11.021-15.818-16.27-22.092-31.604
		c-2.659,23.531-16.333,28.9,9.348,59.599c-14.761-13.806-23.783,1.785-44.775-5.935c12.85,8.569,15,15.887,23.802,22.111
		c11.775,8.255,23.72,2.087,34.647,5.18c20.539,32.93,38.387,67.633,53.318,103.801l-0.006,0.383
		c-28.926-25.732-61.699-44.435-96.176-56.217c0.673-6.689-0.277-12.272-10.587-18.992c-7.89-4.891-17.917-2.992-29.718-8.695
		c10.681,14.284,5.187,22.318,35.546,29.969c-15.585-2.244-13.649,10.266-29.567,14.579c11.561-0.578,16.251,2.791,24.368,2.961
		c10.832,0.277,15.365-7.789,23.594-9.902c29.975,13.535,57.895,32.584,82.275,56.996l-0.07,33.871h14.956
		c0,0-0.904-44.578,9.023-54.913c23.406-19.495,49.414-34.496,76.881-44.894c3.684,5.696,7.701,9.147,18.408,9.455
		c7.902,0.226,14.623-6.104,26.052-4.835C701.913,731.065,701.838,719.384,672.912,730.455z"/>
	<path style="fill:#EAEAEA;" d="M776.261,507.644c-0.277-1.245,1.603-2.188,2.037-0.912c1.088,3.162,0.616,6.639-0.616,9.914
		c1.452-1.999,2.842-4.061,3.741-6.325c0.811-2.068,0.981-4.306,1.98-6.293c0.415-0.824,1.553-1.062,2.081-0.377
		c3.081,4.061-1.408,11.907-4.395,16.119c14.78-11.203,7.594-17.647,13.661-31.88c-5.432,7.28-14.12,10.461-17.672,15.717
		c-2.729,4.156-2.446,8.091-2.018,11.882C776.16,512.919,776.852,510.209,776.261,507.644z"/>
	<path style="fill:#EAEAEA;" d="M814.717,523.305c1.1,0.622,2.433-0.874,1.345-1.653c-2.691-1.943-6.098-2.49-9.518-2.194
		c2.257-0.849,4.558-1.591,6.922-1.785c2.163-0.176,4.306,0.339,6.425,0.013c0.88-0.138,1.402-1.125,0.899-1.829
		c-2.936-4.187-11.605-2.282-16.402-0.478c14.623-11.008,18.86-2.175,33.578-2.785c-8.305,2.345-13.567,9.405-19.282,11.14
		c-4.526,1.308-8.16-0.038-11.668-1.465C809.719,521.915,812.454,522.016,814.717,523.305z"/>
	<path style="fill:#EAEAEA;" d="M822.941,492.543c1.339-0.113,1.71-2.049,0.289-2.081c-3.514-0.069-6.89,1.402-9.782,3.533
		c1.54-1.924,3.187-3.797,5.206-5.262c1.842-1.345,4.055-2.131,5.784-3.577c0.717-0.597,0.629-1.691-0.226-1.968
		c-5.036-1.691-11.756,4.696-15.019,8.776c6.827-16.836,15.736-12.284,28.756-21.061c-6.237,6.582-7.022,15.208-11.209,19.778
		c-3.338,3.565-7.337,4.483-11.279,5.287C817.679,494.197,820.187,492.757,822.941,492.543z"/>
	<path style="fill:#EAEAEA;" d="M774.62,555.141c1.15,0.547,2.37-1.044,1.226-1.748c-2.835-1.735-6.268-2.024-9.644-1.477
		c2.182-1.012,4.413-1.924,6.758-2.295c2.131-0.327,4.306,0.019,6.394-0.465c0.868-0.195,1.314-1.22,0.761-1.899
		c-3.244-3.948-11.731-1.408-16.371,0.736c13.724-12.045,18.615-3.558,33.226-5.249c-8.097,2.942-12.787,10.367-18.351,12.517
		c-4.42,1.635-8.141,0.566-11.731-0.591C769.547,554.123,772.269,554.028,774.62,555.141z"/>
	<path style="fill:#EAEAEA;" d="M737.082,589.844c1.176,0.453,2.27-1.22,1.088-1.829c-2.955-1.528-6.4-1.559-9.732-0.761
		c2.1-1.169,4.269-2.251,6.57-2.791c2.106-0.497,4.3-0.302,6.343-0.937c0.842-0.258,1.22-1.32,0.616-1.943
		c-3.533-3.697-11.8-0.534-16.264,1.949c12.768-13.033,18.282-4.929,32.717-7.701c-7.84,3.533-11.97,11.291-17.352,13.837
		c-4.275,1.968-8.066,1.182-11.737,0.283C731.939,589.203,734.649,588.901,737.082,589.844z"/>
	<path style="fill:#EAEAEA;" d="M702.234,627.244c1.213,0.365,2.182-1.383,0.949-1.911c-3.055-1.295-6.501-1.075-9.757-0.025
		c1.999-1.326,4.08-2.565,6.343-3.282c2.062-0.648,4.256-0.622,6.255-1.408c0.824-0.333,1.107-1.408,0.465-1.987
		c-3.797-3.426-11.807,0.352-16.082,3.162c11.775-13.95,17.873-6.287,32.063-10.134c-7.557,4.112-11.09,12.152-16.27,15.107
		c-4.124,2.282-7.959,1.779-11.687,1.163C697.06,626.993,699.744,626.496,702.234,627.244z"/>
	<path style="fill:#EAEAEA;" d="M734.951,542.555c-0.383-1.22,1.433-2.301,1.961-1.056c1.314,3.068,1.113,6.563,0.132,9.914
		c1.295-2.1,2.521-4.256,3.244-6.582c0.654-2.125,0.654-4.363,1.496-6.419c0.352-0.849,1.471-1.182,2.056-0.528
		c3.376,3.81-0.497,11.97-3.162,16.396c13.875-12.272,6.218-18.156,11.178-32.786c-4.847,7.657-13.259,11.48-16.402,16.974
		c-2.395,4.344-1.823,8.248-1.1,11.989C735.24,547.811,735.724,545.063,734.951,542.555z"/>
	<path style="fill:#EAEAEA;" d="M696.4,580.433c-0.465-1.188,1.251-2.402,1.88-1.207c1.534,2.961,1.597,6.469,0.874,9.889
		c1.132-2.194,2.194-4.438,2.741-6.809c0.497-2.156,0.321-4.394,1.012-6.507c0.289-0.874,1.377-1.283,1.993-0.673
		c3.665,3.546,0.415,11.964-1.911,16.572c12.919-13.271,4.847-18.559,8.682-33.515c-4.256,7.997-12.36,12.435-15.076,18.15
		c-2.068,4.508-1.201,8.355-0.201,12.039C697.085,585.657,697.362,582.878,696.4,580.433z"/>
	<path style="fill:#EAEAEA;" d="M660.798,621.121c-0.56-1.15,1.062-2.49,1.779-1.339c1.754,2.829,2.081,6.325,1.609,9.795
		c0.968-2.276,1.861-4.583,2.232-6.997c0.333-2.2-0.013-4.413,0.522-6.57c0.214-0.893,1.27-1.383,1.936-0.824
		c3.917,3.257,1.308,11.907-0.666,16.685c11.888-14.221,3.445-18.886,6.148-34.1c-3.646,8.292-11.392,13.334-13.68,19.244
		c-1.723,4.659-0.566,8.431,0.704,12.033C661.866,626.283,661.936,623.491,660.798,621.121z"/>
</g>
</svg>
