<?xml version="1.0" encoding="utf-8"?>
<!-- Generator: Adobe Illustrator 25.0.1, SVG Export Plug-In . SVG Version: 6.00 Build 0)  -->
<svg version="1.1" xmlns="http://www.w3.org/2000/svg" xmlns:xlink="http://www.w3.org/1999/xlink" x="0px" y="0px" width="2000px"
	 height="1333px" viewBox="0 0 2000 1333" style="enable-background:new 0 0 2000 1333;" xml:space="preserve">
<g id="Layer_2">
	<rect style="fill:#E3F0FF;" width="2000" height="1333"/>
</g>
<g id="pack_x5F_lille_x5F_familie">
	<g id="text">
		<path style="fill:#CCB4DB;" d="M271.707,653.037c-3.958-1.98-5.938-4.282-5.938-6.925c0-1.98,1.315-5.273,3.958-9.895
			c2.635-4.282,3.788-7.583,3.462-9.895l-1.485-43.533l-3.46-135.053l-0.99-59.858c-0.333-36.608-1.158-59.525-2.475-68.765
			c-0.663-3.625-1.978-7.742-3.958-12.365c-2.307-6.26-3.46-10.715-3.46-13.358c0-7.915,12.53-11.873,37.598-11.873h2.473
			c16.82,0,31.328,5.775,43.533,17.313c9.563,8.905,18.135,22.928,25.725,42.05c5.272,15.173,9.228,32.155,11.873,50.955
			c1.312,9.895,2.475,25.068,3.462,45.51v15.338c0,20.453-2.72,42.628-8.163,66.538c-5.44,23.915-13.11,46.253-23.003,67.03
			c-5.935,13.195-13.603,25.068-23.003,35.62c-9.4,10.56-18.388,18.885-26.96,24.983c-8.58,6.107-14.348,9.153-17.313,9.153
			C279.622,656.004,275.665,655.017,271.707,653.037z M291,630.774c12.198-6.263,23.08-15.413,32.65-27.455
			c9.563-12.035,17.145-25.308,22.758-39.823c4.945-12.2,9.068-26.135,12.368-41.805c3.293-15.658,5.603-30.253,6.925-43.78
			c0.99-11.873,1.485-23.25,1.485-34.135c0-96.298-26.553-144.453-79.648-144.453c-6.925,0-10.388,1.815-10.388,5.443
			c0,11.548,0.658,25.228,1.98,41.06c1.312,16.163,1.98,29.853,1.98,41.06c0,18.143,1.312,49.64,3.958,94.488
			c2.305,38.92,3.462,70.248,3.462,93.993v55.408H291z"/>
		<path style="fill:#CCB4DB;" d="M449.8,651.057v-6.43c0.325-1.648,0.495-3.625,0.495-5.935l-1.98-1.98
			c2.635-6.927,3.957-13.68,3.957-20.283c0-7.583-0.492-18.465-1.482-32.65l-0.99-32.65c0-16.488,0.495-41.223,1.485-74.205
			c1.312-29.35,1.978-54.248,1.978-74.7l-0.99-29.683c-0.665-8.905-0.987-18.798-0.987-29.683c0-4.945,1.15-8.485,3.462-10.635
			c2.302-2.14,5.938-3.215,10.883-3.215c3.293,0,5.938,0.988,7.915,2.967c0.658,0.333,5.443,0.99,14.348,1.98
			c8.24,0.99,15.338,2.475,21.273,4.453c6.263,1.978,9.4,4.45,9.4,7.42c0,3.3-3.138,6.6-9.4,9.895
			c-18.798-6.263-32.155-9.4-40.07-9.4l-2.475,2.967c0.325,2.968,0.495,10.063,0.495,21.273c0,14.185-0.333,26.883-0.99,38.09
			c-0.332,11.55-0.495,24.41-0.495,38.585c0,9.238,2.303,13.853,6.928,13.853l7.915-0.495c2.635-0.325,5.44-0.495,8.41-0.495
			c12.863,0,19.293,2.967,19.293,8.905c0,3.635-0.828,6.68-2.475,9.153c-1.652,2.473-4.128,3.71-7.42,3.71
			c-4.945,0-8.743-1.313-11.378-3.958l-15.83-2.475h-2.475l-2.475,2.475v1.483c0.658,5.613,0.99,18.638,0.99,39.083
			c0,12.862-0.17,24.573-0.495,35.123l-0.495,35.125c0,12.863,0.495,26.058,1.485,39.575c0.325,7.59,1.98,12.615,4.948,15.09
			s8.41,3.71,16.325,3.71l8.905-0.495c2.967-0.325,6.263-0.495,9.895-0.495c9.562,0,14.348,2.147,14.348,6.43
			c0,5.938-7.26,8.905-21.768,8.905h-40.568C453.755,661.447,450.455,657.984,449.8,651.057z"/>
		<path style="fill:#CCB4DB;" d="M697.393,654.027c-1.157-1.98-2.225-4.945-3.215-8.905c-0.335-2.637-0.99-4.948-1.98-6.925
			l0.495-1.485c-2.643-15.5-8.247-34.458-16.82-56.89l-8.905-25.725c-0.665-0.655-3.795-9.065-9.4-25.228l-3.957-11.872
			c-29.683-91.68-48.318-141.313-55.9-148.905c-2.645,8.905-3.958,20.453-3.958,34.63c0,7.59,0.163,14.185,0.495,19.788
			l0.495,19.293l-0.495,11.873c-0.332,3.633-0.495,7.59-0.495,11.873c0,7.258,0.325,13.528,0.99,18.798l0.99,15.83h-1.485
			c0,55.083,1.153,85.423,3.463,91.025v44.523c1.312,2.643,1.98,6.107,1.98,10.388c0,2.643-0.912,4.945-2.722,6.925
			c-1.818,1.98-4.043,2.967-6.68,2.967c-6.925,0-10.388-8.905-10.388-26.715l0.99-15.83c0.658-4.948,0.99-10.388,0.99-16.325
			c0-15.83-0.495-39.575-1.485-71.235s-1.485-55.408-1.485-71.235c0-9.562,0.495-24.24,1.485-44.028
			c0.99-19.455,1.485-33.963,1.485-43.533v-6.43c0-16.155,2.97-26.715,8.905-31.66l1.485,1.482l4.948-0.99
			c1.312,0.335,2.798,1.323,4.45,2.967c1.315,1.323,1.98,2.805,1.98,4.453l0.99,2.967c0,0.665,0.162,1.485,0.495,2.475
			c5.272,23.423,17.145,56.233,35.62,98.445c18.798,44.523,30.5,74.043,35.123,88.553c3.295,11.548,5.938,21.768,7.918,30.67
			c6.263,28.035,13.68,49.64,22.263,64.805l0.987-1.485c7.583-73.215,11.378-163.08,11.378-269.611l-0.495-5.935
			c-0.333-1.648-0.493-3.788-0.493-6.433c0-6.925,2.303-10.388,6.925-10.388c2.967,0,5.52,1.485,7.667,4.453
			c2.143,2.967,3.215,6.27,3.215,9.895v33.145l-2.475,3.958c0,31.335-1.818,82.783-5.44,154.345
			c-3.635,71.57-7.095,110.488-10.388,116.748l-8.413,1.98v0.495l-0.495-0.495l-4.945,1.485
			C700.438,656.994,698.545,656.004,697.393,654.027z"/>
		<path style="fill:#CCB4DB;" d="M249.999,1022.485c0.432-1.302,0.652-4.893,0.652-10.76c0-19.998,0.325-49.668,0.978-89.018
			c0.652-39.128,0.98-67.388,0.98-84.783l0.653-11.738l0.977-9.782c0-1.518,0.76-2.28,2.283-2.28c1.085,0,2.607,0.325,4.565,0.978
			l0.978,0.325c0,4.787-0.113,9.133-0.325,13.045v12.715v35.545c0.212,10.43,0.325,22.282,0.325,35.54
			c-0.22,1.09-0.325,3.48-0.325,7.173l-0.325,6.85c-0.22,4.348-0.325,8.803-0.325,13.367c0,5.005,0.107,9.57,0.325,13.698
			l0.325,14.02l-0.978,2.61l0.325-0.325c0,0.652-0.113,1.09-0.325,1.303v1.302c0,1.742,0.325,3.262,0.978,4.565l-0.978,31.305v1.955
			c0,3.7,0.108,5.87,0.325,6.52c0,1.09,0.54,1.633,1.63,1.633l16.958,0.652c4.997,0,8.423,0.058,10.27,0.16
			c1.845,0.113,2.988,0.165,3.425,0.165h0.978c1.085,0,2.17,0.6,3.26,1.795c1.085,1.195,1.63,2.445,1.63,3.75
			c0,2.608-1.742,4.017-5.217,4.24c-3.7-0.222-12.718-0.325-27.065-0.325l0.652,0.325c-2.175,0-4.238,0.105-6.195,0.325
			c-1.743,0.43-3.7,0.652-5.87,0.652C252.494,1029.987,250.652,1027.485,249.999,1022.485z"/>
		<path style="fill:#CCB4DB;" d="M339.67,1022.485c-1.09,0-1.958,0.113-2.608,0.325h-2.608c-4.785,0-7.825-1.083-9.13-3.258
			c0-1.52,0.865-2.825,2.608-3.915l1.63-1.63h9.458l1.302-1.302l0.652-2.938l0.328-3.915c0-13.255-0.328-25.105-0.98-35.54
			l-0.652-12.065l-0.652-23.805c0-8.475,0.325-21.195,0.977-38.15l0.653-37.825c0-16.518-0.545-29.128-1.63-37.825
			c-1.958-0.652-5.218-0.977-9.783-0.977l-3.585,0.325c-1.305,0.22-2.723,0.325-4.24,0.325c-4.133,0-6.195-1.843-6.195-5.543
			c0-0.865,0.978-1.737,2.935-2.607c1.958-0.87,3.585-1.307,4.893-1.307c8.258,0,16.518,0.438,24.783,1.307
			c4.997,0.218,9.997,1.195,14.998,2.932c3.915,1.302,5.87,3.155,5.87,5.543c0,0.438-0.328,1.302-0.98,2.61l-7.5,0.653
			c-1.522-1.302-4.677-1.96-9.455-1.96l-1.63,0.983c0.652,1.955,0.98,7.715,0.98,17.283c0,14.345-0.112,27.283-0.325,38.803
			l-0.653,38.803c0,9.783,0.435,21.635,1.305,35.545c0.652,15.87,0.977,27.83,0.977,35.868v4.24c-0.22,1.525-0.325,3.48-0.325,5.87
			c0,5.005,0.325,8.045,0.977,9.133l-0.325,0.652c0,2.178,2.39,3.263,7.175,3.263c1.958,0,3.585-0.107,4.893-0.33h4.893
			c6.303,0,9.455,1.525,9.455,4.565c0,1.96-0.652,3.535-1.957,4.73c-1.303,1.195-3.045,1.795-5.218,1.795
			c-1.955,0-3.7-0.217-5.215-0.655c-1.745-0.212-3.587-0.325-5.545-0.325c-1.302,0-3.26,0.547-5.87,1.633
			c-2.608,1.302-4.562,1.955-5.87,1.955C343.47,1025.747,340.537,1024.662,339.67,1022.485z"/>
		<path style="fill:#CCB4DB;" d="M408.472,1022.485c0.432-1.302,0.652-4.893,0.652-10.76c0-19.998,0.325-49.668,0.978-89.018
			c0.652-39.128,0.98-67.388,0.98-84.783l0.653-11.738l0.977-9.782c0-1.518,0.76-2.28,2.283-2.28c1.085,0,2.607,0.325,4.565,0.978
			l0.978,0.325c0,4.787-0.112,9.133-0.325,13.045v12.715v35.545c0.212,10.43,0.325,22.282,0.325,35.54
			c-0.22,1.09-0.325,3.48-0.325,7.173l-0.325,6.85c-0.22,4.348-0.325,8.803-0.325,13.367c0,5.005,0.107,9.57,0.325,13.698
			l0.325,14.02l-0.978,2.61l0.325-0.325c0,0.652-0.112,1.09-0.325,1.303v1.302c0,1.742,0.325,3.262,0.978,4.565l-0.978,31.305v1.955
			c0,3.7,0.108,5.87,0.325,6.52c0,1.09,0.54,1.633,1.63,1.633l16.958,0.652c4.997,0,8.423,0.058,10.27,0.16
			c1.845,0.113,2.987,0.165,3.425,0.165h0.978c1.085,0,2.17,0.6,3.26,1.795c1.085,1.195,1.63,2.445,1.63,3.75
			c0,2.608-1.742,4.017-5.217,4.24c-3.7-0.222-12.718-0.325-27.065-0.325l0.652,0.325c-2.175,0-4.238,0.105-6.195,0.325
			c-1.742,0.43-3.7,0.652-5.87,0.652C410.967,1029.987,409.122,1027.485,408.472,1022.485z"/>
		<path style="fill:#CCB4DB;" d="M489.662,1022.485c0.432-1.302,0.652-4.893,0.652-10.76c0-19.998,0.325-49.668,0.978-89.018
			c0.652-39.128,0.98-67.388,0.98-84.783l0.652-11.738l0.978-9.782c0-1.518,0.76-2.28,2.283-2.28c1.085,0,2.608,0.325,4.565,0.978
			l0.978,0.325c0,4.787-0.113,9.133-0.325,13.045v12.715v35.545c0.212,10.43,0.325,22.282,0.325,35.54
			c-0.22,1.09-0.325,3.48-0.325,7.173l-0.325,6.85c-0.22,4.348-0.325,8.803-0.325,13.367c0,5.005,0.108,9.57,0.325,13.698
			l0.325,14.02l-0.978,2.61l0.325-0.325c0,0.652-0.112,1.09-0.325,1.303v1.302c0,1.742,0.325,3.262,0.978,4.565l-0.978,31.305v1.955
			c0,3.7,0.108,5.87,0.325,6.52c0,1.09,0.54,1.633,1.63,1.633l16.957,0.652c4.998,0,8.423,0.058,10.27,0.16
			c1.845,0.113,2.988,0.165,3.425,0.165h0.977c1.085,0,2.17,0.6,3.26,1.795c1.085,1.195,1.63,2.445,1.63,3.75
			c0,2.608-1.742,4.017-5.217,4.24c-3.7-0.222-12.718-0.325-27.065-0.325l0.652,0.325c-2.175,0-4.237,0.105-6.195,0.325
			c-1.742,0.43-3.7,0.652-5.87,0.652C492.16,1029.987,490.315,1027.485,489.662,1022.485z"/>
		<path style="fill:#CCB4DB;" d="M570.205,1023.14v-4.24c0.213-1.085,0.325-2.39,0.325-3.915l-1.305-1.302
			c1.738-4.565,2.607-9.02,2.607-13.372c0-4.995-0.325-12.173-0.977-21.523l-0.653-21.523c0-10.865,0.325-27.17,0.978-48.913
			c0.867-19.345,1.302-35.753,1.302-49.238l-0.653-19.563c-0.438-5.87-0.653-12.395-0.653-19.568c0-3.263,0.758-5.595,2.283-7.013
			c1.517-1.412,3.912-2.12,7.172-2.12c2.17,0,3.915,0.655,5.218,1.96c0.435,0.218,3.588,0.653,9.458,1.302
			c5.43,0.653,10.11,1.63,14.02,2.938c4.128,1.302,6.195,2.932,6.195,4.888c0,2.177-2.067,4.352-6.195,6.525
			c-12.393-4.128-21.195-6.2-26.413-6.2l-1.63,1.96c0.213,1.955,0.325,6.633,0.325,14.02c0,9.353-0.22,17.725-0.653,25.11
			c-0.22,7.61-0.328,16.09-0.328,25.435c0,6.088,1.518,9.128,4.565,9.128l5.218-0.325c1.737-0.213,3.585-0.325,5.542-0.325
			c8.478,0,12.718,1.96,12.718,5.87c0,2.398-0.545,4.405-1.63,6.035c-1.09,1.63-2.722,2.445-4.893,2.445
			c-3.26,0-5.762-0.865-7.497-2.61l-10.435-1.63h-1.63l-1.63,1.63v0.982c0.432,3.698,0.653,12.283,0.653,25.758
			c0,8.48-0.113,16.2-0.325,23.155l-0.325,23.15c0,8.48,0.325,17.178,0.977,26.088c0.213,5.005,1.302,8.315,3.26,9.945
			s5.542,2.445,10.76,2.445l5.87-0.325c1.958-0.212,4.128-0.325,6.522-0.325c6.303,0,9.455,1.415,9.455,4.24
			c0,3.91-4.785,5.87-14.347,5.87h-26.733C572.81,1029.987,570.638,1027.702,570.205,1023.14z"/>
		<path style="fill:#CCB4DB;" d="M751.23,1025.252c3.293-30.005,4.945-70.075,4.945-120.21c0-22.093,0.99-55.408,2.97-99.933
			c2.302-41.22,3.462-74.368,3.462-99.433c0-2.97,1.398-5.272,4.203-6.925c2.798-1.648,6.015-2.475,9.648-2.475
			c11.54,0,24.24,1.323,38.093,3.957c13.85,2.645,20.778,6.108,20.778,10.388c0,5.613-5.775,8.413-17.315,8.413
			c-7.258-3.292-16.495-4.948-27.703-4.948l-5.935,0.495c-0.99,0.333-1.732,0.828-2.227,1.485c-0.495,0.663-0.913,1.653-1.237,2.97
			c-0.665,2.643-1.323,4.45-1.98,5.44c0,14.84-0.663,32.328-1.98,52.435c-1.652,19.465-2.475,36.78-2.475,51.945v17.312
			c0,1.323,2.638,1.818,7.918,1.485c16.82,0,25.228,2.643,25.228,7.918c0,2.643-1.237,4.872-3.71,6.678
			c-2.475,1.818-5.195,2.722-8.165,2.722c-1.977,0-4.782-0.495-8.41-1.485c-3.3-0.99-6.108-1.485-8.41-1.485
			c-5.935,0-8.905,8.085-8.905,24.24v55.9c0,7.917,0.495,19.628,1.485,35.123c0.99,15.833,1.485,27.705,1.485,35.62
			c0,13.188-3.957,19.788-11.872,19.788L751.23,1025.252z"/>
		<path style="fill:#CCB4DB;" d="M973.341,1028.467c-1.322-1.157-2.312-4.202-2.965-9.152c-2.97-24.068-4.788-39.08-5.448-45.018
			l-2.47-19.788c-7.258-1.645-15.508-2.475-24.735-2.475l-17.81-0.99c-7.915-0.985-13.69-1.48-17.312-1.48
			c-1.98,0-3.138,0.825-3.463,2.47c0,0.99-0.17,1.485-0.495,1.485l-0.987,9.895c-0.335,5.938-2.15,17.807-5.443,35.618
			c-1.653,8.905-3.633,15.833-5.935,20.778c-2.645,5.612-5.12,8.413-7.422,8.413c-1.98,0-4.128-0.912-6.43-2.72
			c-2.31-1.81-3.462-3.712-3.462-5.693l0.495-1.485l0.495-1.485c5.938-23.413,10.883-46.663,14.842-69.75l5.935-30.673l5.938-37.595
			l5.44-32.653c1.648-8.903,4.615-23.25,8.905-43.038c4.615-22.422,7.422-37.758,8.41-46.008c0.325-0.99,0.99-7.088,1.98-18.302
			c1.315-12.53,2.475-21.765,3.463-27.703c0.99-8.57,1.98-13.518,2.97-14.84h3.463c0.99,0.333,2.142,0.495,3.463,0.495
			c3.958,0,6.925-0.99,8.905-2.97c2.302,0,4.368,0.742,6.185,2.228c1.81,1.485,2.72,3.215,2.72,5.193
			c0,15.833,1.15,33.973,3.463,54.415c1.315,10.56,2.305,19.293,2.97,26.22c3.625,42.545,12.86,122.363,27.705,239.435v1.485
			c0,3.295-1.322,5.768-3.958,7.422C977.793,1030.2,974.656,1029.622,973.341,1028.467z M959.986,941.155
			c-3.302-47.493-9.57-117.568-18.8-210.245l-26.713,132.085c-7.59,37.925-11.378,61.838-11.378,71.728
			c0,1.653,6.263,3.138,18.798,4.453c12.53,1.322,23.575,1.98,33.145,1.98H959.986z"/>
		<path style="fill:#CCB4DB;" d="M1225.631,1019.81v-32.648c0-47.493-0.99-84.593-2.97-111.308l-1.485-18.303
			c-1.323-8.237-1.98-15.5-1.98-21.768c0-11.208,0.325-21.433,0.99-30.673l0.99-30.67c0-10.223-0.665-17.972-1.98-23.25
			c-6.603,4.622-26.55,74.043-59.858,208.268l-0.495,7.423c-0.99,8.247-2.312,14.84-3.958,19.788
			c-0.99,3.633-2.397,6.432-4.203,8.408c-1.817,1.98-3.882,2.97-6.188,2.97c-5.277,0-9.07-1.312-11.375-3.958
			c-2.312-2.635-3.463-6.755-3.463-12.365c0-8.905-4.203-31.985-12.615-69.258c-8.407-37.263-17.483-73.045-27.205-107.35
			c-9.735-34.298-16.413-53.258-20.038-56.89c-0.335,11.545-1.653,38.755-3.958,81.625c-4.623,75.86-6.927,135.548-6.927,179.083
			l0.495,19.788c-1.32,4.28-4.782,6.432-10.388,6.432c-0.99,0-2.642-0.912-4.948-2.723c-2.31-1.815-3.463-3.215-3.463-4.203
			c0-29.682,2.64-81.79,7.917-156.325c4.948-69.258,7.422-121.2,7.422-155.83c0-1.648-0.335-3.293-0.99-4.948
			c-0.99-1.977-1.485-3.462-1.485-4.45c0-4.948,4.28-7.42,12.86-7.42c5.603,0,8.905,2.472,9.895,7.42
			c1.312,6.602,1.98,11.547,1.98,14.84l0.495,5.938c1.645,8.58,6.427,21.768,14.345,39.575c6.26,14.185,11.047,26.555,14.345,37.1
			c1.98,7.918,3.79,14.35,5.443,19.293c5.27,19.133,8.733,33.315,10.388,42.545l6.432,12.865c0.99,4.948,2.97,13.033,5.938,24.24
			c2.968,12.535,5.11,22.758,6.432,30.67c1.312,7.918,1.975,15.508,1.975,22.758c3.628-5.603,13.93-39.325,30.923-101.168
			c16.98-61.838,26.96-101.328,29.93-118.48c0.323-0.655,0.57-1.56,0.74-2.72c0.16-1.15,0.41-2.72,0.745-4.698
			c0.655-4.285,2.14-10.715,4.45-19.293c2.64-6.595,6.593-9.895,11.875-9.895c2.3,0,4.948,0.99,7.912,2.97
			c2.97,1.98,4.453,3.958,4.453,5.938c0,137.523,2.14,210.245,6.432,218.163v25.72c-0.335,7.59-0.495,16.328-0.495,26.22
			c0,21.11,1.15,36.94,3.463,47.493c0.323,0.325,0.57,0.82,0.74,1.485c0.165,0.655,0.41,1.485,0.745,2.475
			c0.323,1.312,0.495,2.795,0.495,4.453c0,3.625-1.075,7.25-3.217,10.882c-2.148,3.625-4.698,5.443-7.667,5.443
			C1228.921,1051.472,1225.631,1040.912,1225.631,1019.81z M1219.199,748.222h-0.495l-0.99,0.495l1.485,0.495V748.222z"/>
		<path style="fill:#CCB4DB;" d="M1333.966,1020.8c-1.652,0-2.968,0.172-3.958,0.495h-3.958c-7.258,0-11.87-1.645-13.85-4.948
			c0-2.3,1.312-4.28,3.958-5.932l2.47-2.475h14.35l1.98-1.98l0.99-4.453l0.495-5.938c0-20.11-0.495-38.09-1.485-53.92l-0.99-18.303
			l-0.99-36.115c0-12.86,0.495-32.153,1.485-57.878l0.99-57.383c0-25.062-0.827-44.193-2.475-57.385
			c-2.97-0.99-7.917-1.485-14.845-1.485l-5.438,0.495c-1.98,0.333-4.127,0.495-6.432,0.495c-6.267,0-9.4-2.797-9.4-8.41
			c0-1.312,1.485-2.638,4.453-3.958c2.97-1.312,5.443-1.977,7.422-1.977c12.53,0,25.058,0.665,37.595,1.977
			c7.583,0.335,15.165,1.818,22.758,4.453c5.938,1.98,8.905,4.785,8.905,8.41c0,0.665-0.495,1.98-1.485,3.957l-11.38,0.99
			c-2.31-1.98-7.095-2.97-14.345-2.97l-2.475,1.485c0.99,2.97,1.485,11.708,1.485,26.218c0,21.768-0.17,41.393-0.495,58.868
			l-0.99,58.873c0,14.84,0.655,32.818,1.98,53.92c0.99,24.08,1.485,42.218,1.485,54.42v6.428c-0.335,2.312-0.495,5.283-0.495,8.905
			c0,7.59,0.495,12.205,1.485,13.85l-0.495,0.99c0,3.303,3.625,4.948,10.883,4.948c2.97,0,5.443-0.16,7.422-0.495h7.422
			c9.562,0,14.345,2.312,14.345,6.927c0,2.97-0.99,5.362-2.97,7.172c-1.98,1.815-4.622,2.72-7.917,2.72
			c-2.965,0-5.612-0.325-7.912-0.99c-2.643-0.322-5.443-0.495-8.412-0.495c-1.98,0-4.948,0.828-8.903,2.475
			c-3.958,1.98-6.927,2.97-8.905,2.97C1339.731,1025.747,1335.279,1024.102,1333.966,1020.8z"/>
		<path style="fill:#CCB4DB;" d="M1438.344,1020.8c0.66-1.98,0.99-7.418,0.99-16.325c0-30.34,0.495-75.358,1.485-135.053
			c0.99-59.363,1.485-102.233,1.485-128.623l0.99-17.808l1.485-14.84c0-2.305,1.15-3.462,3.463-3.462
			c1.645,0,3.958,0.495,6.927,1.485l1.48,0.495c0,7.258-0.17,13.853-0.495,19.787v19.293v53.925
			c0.325,15.83,0.495,33.808,0.495,53.92c-0.33,1.652-0.495,5.277-0.495,10.885l-0.49,10.388c-0.335,6.6-0.495,13.355-0.495,20.283
			c0,7.59,0.16,14.518,0.495,20.778l0.49,21.273l-1.48,3.958l0.495-0.495c0,0.99-0.172,1.653-0.495,1.98v1.98
			c0,2.643,0.495,4.948,1.48,6.923l-1.48,47.493v2.97c0,5.612,0.16,8.905,0.495,9.895c0,1.653,0.818,2.475,2.47,2.475l25.725,0.985
			c7.583,0,12.775,0.088,15.585,0.25c2.8,0.17,4.53,0.245,5.193,0.245h1.485c1.645,0,3.295,0.912,4.948,2.722
			c1.645,1.815,2.475,3.71,2.475,5.688c0,3.958-2.643,6.098-7.917,6.432c-5.613-0.335-19.293-0.495-41.06-0.495l0.99,0.495
			c-3.297,0-6.432,0.16-9.397,0.495c-2.647,0.655-5.615,0.99-8.905,0.99C1442.134,1032.18,1439.334,1028.382,1438.344,1020.8z"/>
		<path style="fill:#CCB4DB;" d="M1574.384,1020.8c-1.653,0-2.97,0.172-3.958,0.495h-3.958c-7.258,0-11.87-1.645-13.85-4.948
			c0-2.3,1.312-4.28,3.958-5.932l2.47-2.475h14.35l1.98-1.98l0.99-4.453l0.495-5.938c0-20.11-0.495-38.09-1.485-53.92l-0.99-18.303
			l-0.99-36.115c0-12.86,0.495-32.153,1.485-57.878l0.99-57.383c0-25.062-0.828-44.193-2.475-57.385
			c-2.97-0.99-7.917-1.485-14.843-1.485l-5.438,0.495c-1.98,0.333-4.128,0.495-6.432,0.495c-6.268,0-9.4-2.797-9.4-8.41
			c0-1.312,1.485-2.638,4.453-3.958c2.97-1.312,5.443-1.977,7.422-1.977c12.53,0,25.057,0.665,37.595,1.977
			c7.583,0.335,15.165,1.818,22.758,4.453c5.938,1.98,8.905,4.785,8.905,8.41c0,0.665-0.495,1.98-1.485,3.957l-11.38,0.99
			c-2.31-1.98-7.095-2.97-14.345-2.97l-2.475,1.485c0.99,2.97,1.485,11.708,1.485,26.218c0,21.768-0.17,41.393-0.495,58.868
			l-0.99,58.873c0,14.84,0.655,32.818,1.98,53.92c0.99,24.08,1.485,42.218,1.485,54.42v6.428c-0.335,2.312-0.495,5.283-0.495,8.905
			c0,7.59,0.495,12.205,1.485,13.85l-0.495,0.99c0,3.303,3.625,4.948,10.883,4.948c2.97,0,5.443-0.16,7.423-0.495h7.422
			c9.562,0,14.345,2.312,14.345,6.927c0,2.97-0.99,5.362-2.97,7.172c-1.98,1.815-4.623,2.72-7.918,2.72
			c-2.965,0-5.612-0.325-7.912-0.99c-2.643-0.322-5.443-0.495-8.413-0.495c-1.98,0-4.948,0.828-8.902,2.475
			c-3.958,1.98-6.928,2.97-8.905,2.97C1580.147,1025.747,1575.694,1024.102,1574.384,1020.8z"/>
		<path style="fill:#CCB4DB;" d="M1677.774,1021.79v-6.432c0.325-1.645,0.495-3.625,0.495-5.932l-1.98-1.98
			c2.64-6.927,3.958-13.68,3.958-20.283c0-7.583-0.495-18.468-1.485-32.653l-0.99-32.648c0-16.49,0.495-41.225,1.485-74.208
			c1.315-29.35,1.98-54.245,1.98-74.698l-0.99-29.683c-0.665-8.905-0.99-18.797-0.99-29.683c0-4.945,1.155-8.485,3.463-10.635
			c2.305-2.14,5.938-3.215,10.885-3.215c3.29,0,5.932,0.987,7.912,2.967c0.66,0.333,5.443,0.99,14.35,1.98
			c8.237,0.99,15.335,2.475,21.272,4.453c6.26,1.978,9.397,4.45,9.397,7.42c0,3.3-3.138,6.6-9.397,9.895
			c-18.802-6.263-32.157-9.4-40.075-9.4l-2.47,2.97c0.323,2.968,0.495,10.062,0.495,21.27c0,14.185-0.335,26.883-0.99,38.095
			c-0.335,11.545-0.495,24.41-0.495,38.585c0,9.235,2.3,13.85,6.922,13.85l7.917-0.495c2.635-0.325,5.443-0.495,8.413-0.495
			c12.86,0,19.292,2.97,19.292,8.905c0,3.633-0.828,6.678-2.475,9.153c-1.653,2.475-4.128,3.71-7.423,3.71
			c-4.948,0-8.742-1.315-11.375-3.958l-15.833-2.475h-2.475l-2.47,2.475v1.485c0.655,5.612,0.99,18.638,0.99,39.08
			c0,12.865-0.172,24.575-0.495,35.125l-0.495,35.123c0,12.86,0.495,26.06,1.485,39.575c0.323,7.59,1.975,12.615,4.945,15.09
			c2.97,2.475,8.412,3.71,16.328,3.71l8.902-0.495c2.97-0.323,6.262-0.495,9.895-0.495c9.562,0,14.345,2.152,14.345,6.432
			c0,5.937-7.258,8.905-21.767,8.905h-40.565C1681.732,1032.18,1678.434,1028.715,1677.774,1021.79z"/>
	</g>
	<g id="secondary">
		<path style="fill:#CCB4DB;" d="M1409.947,497.859c-4.663-4.578-7.078-10.863-7.243-18.853c-0.335-4.495,0.665-7.823,2.997-9.988
			c3.328,1,5.078,2.665,5.245,4.995c-0.167,1.168-0.21,2.372-0.125,3.62c0.082,1.247,0.04,2.457-0.125,3.62
			c-0.167,4.665,1.537,8.615,5.12,11.863c3.578,3.248,8.195,4.87,13.86,4.87c3.495,0,6.573-1,9.237-2.997
			c2.663-1.998,4.66-4.908,5.993-8.74c2.162-7.155,3.495-13.815,3.995-19.975c0.5-7.99,0.75-16.895,0.75-26.72
			c-0.335-6.158-1.085-11.235-2.247-15.233c-1.335-5.16-3.208-8.652-5.618-10.488c-2.415-1.83-6.035-2.747-10.86-2.747
			c-2.168,0-3.71-0.288-4.62-0.875c-0.92-0.583-1.71-1.872-2.373-3.87v-0.75c0-1.663,1.16-2.748,3.495-3.248
			c1-0.162,2.498-0.25,4.495-0.25c4.158,0.338,7.403-1.247,9.735-4.745c3.328-5.158,5.078-9.902,5.245-14.233
			c0-4.995,0.25-9.988,0.75-14.983c0.332-6.325,0.5-11.15,0.5-14.483c0-4.828-0.75-10.653-2.247-17.48
			c-0.835-4.658-2.583-8.28-5.245-10.863c-2.665-2.577-6.078-3.87-10.235-3.87c-2.498,0-5.083,0.5-7.743,1.497
			c-2.665,1-5.082,2.415-7.242,4.245c-1.998,1.497-3.58,3.207-4.745,5.12c-1.165,1.915-2.333,4.288-3.495,7.118
			c-0.167,0.335-0.5,1.085-1,2.247c-0.5,1.168-1.042,1.915-1.622,2.247c-0.585,0.335-1.21,0.335-1.873,0
			c-1.665-1.163-2.665-2.497-2.997-3.995c0.5-1.497,1.205-3.66,2.122-6.493c0.915-2.83,1.955-5.245,3.123-7.242
			c1.162-1.998,2.747-3.578,4.745-4.745c6.825-4.658,13.485-6.992,19.978-6.992c4.657,0,9.65,1.497,14.98,4.495
			c2.663,1.497,5.035,5.617,7.118,12.36c2.08,6.743,3.122,13.86,3.122,21.35c0,7.16-0.585,15.73-1.748,25.72l-0.75,8.74
			c-0.5,4.83-1.373,8.365-2.623,10.613c-1.248,2.247-3.538,4.708-6.868,7.368c4.16,2.497,7.2,5.785,9.115,9.865
			c1.913,4.08,3.285,9.2,4.12,15.358c0.5,3.495,0.75,8.158,0.75,13.983c0,5.83-0.085,10.405-0.25,13.735
			c-0.167,3.333-0.25,5.58-0.25,6.742c0.165,8.49-1.833,17.315-5.993,26.468c-1.833,4.163-4.745,7.453-8.74,9.865
			c-3.995,2.41-8.407,3.62-13.233,3.62C1420.766,504.726,1414.601,502.436,1409.947,497.859z"/>
		<path style="fill:#CCB4DB;" d="M1268.254,340.711c-1.328-1.122-1.995-2.303-1.995-3.53c0-6.34,1.743-11.458,5.218-15.348
			c3.483-3.885,7.778-5.833,12.893-5.833c5.118,0,9.415,2.048,12.893,6.138c1.64,3.07,4.198,5.833,7.672,8.288
			c3.483,2.455,6.753,3.682,9.82,3.682c5.323,0,7.983-3.682,7.983-11.05l-0.615-3.07l-1.225-2.763
			c0.613-1.228,1.64-1.842,3.068-1.842c2.255,0,3.99,1.025,5.218,3.07c1.228,2.05,1.843,4.503,1.843,7.367
			c0,4.298-1.635,8.085-4.912,11.358c-3.27,3.275-7.057,4.913-11.358,4.913c-3.27,0-6.75-1.023-10.435-3.07
			c-3.682-2.043-6.65-4.193-8.902-6.445c-1.635-1.43-4.298-4.298-7.98-8.595l-2.15-0.92c-3.068,0-5.727,0.82-7.98,2.455
			c-2.247,1.64-3.378,3.583-3.378,5.833l1.535,6.445l-3.378,4.605C1270.864,342.399,1269.586,341.839,1268.254,340.711z
			 M1310.151,404.709c-1.023-13.092-3.885-28.44-8.595-46.04c-0.815,1.228-4.297,11.048-10.435,29.465
			c-1.637,5.323-2.457,8.8-2.457,10.438l-5.218,7.06l-5.833-3.99c0.208-3.07,2.05-8.902,5.525-17.495
			c3.483-8.595,7.268-16.468,11.358-23.635c4.098-7.16,7.06-10.743,8.903-10.743c3.07,0,4.605,2.148,4.605,6.445
			c0,6.753,1.843,15.04,5.525,24.863l3.375,11.05l-0.307,1.842l2.458,4.605l-0.31,1.535c0.208,0.82,0.462,1.487,0.77,1.995
			c0.307,0.513,0.46,0.975,0.46,1.383c0,1.842-1.843,3.07-5.525,3.682L1310.151,404.709z"/>
		<path style="fill:#CCB4DB;" d="M1310.151,404.709c-1.023-13.092-3.885-28.44-8.595-46.04c-0.815,1.228-4.297,11.048-10.435,29.465
			c-1.637,5.323-2.457,8.8-2.457,10.438l-5.218,7.06l-5.833-3.99c0.208-3.07,2.05-8.902,5.525-17.495
			c3.483-8.595,7.268-16.468,11.358-23.635c4.098-7.16,7.06-10.743,8.903-10.743c3.07,0,4.605,2.148,4.605,6.445
			c0,6.753,1.843,15.04,5.525,24.863l3.375,11.05l-0.307,1.842l2.458,4.605l-0.31,1.535c0.208,0.82,0.462,1.487,0.77,1.995
			c0.307,0.513,0.46,0.975,0.46,1.383c0,1.842-1.843,3.07-5.525,3.682L1310.151,404.709z M1331.329,372.174v-1.535
			c0-1.43,0.615-2.763,1.843-3.99c1.227-1.228,2.968-2.555,5.218-3.99c0.412-0.203,1.28-0.815,2.607-1.842
			c1.33-1.023,2.305-1.943,2.917-2.763c0.613-0.815,0.92-1.635,0.92-2.455c0-3.885-3.27-5.832-9.822-5.832
			c-3.885,0-6.75,0.46-8.593,1.38c-1.842,0.923-2.765,2.61-2.765,5.065c0,0.615,0.208,1.947,0.612,3.99
			c-1.225,0.413-2.247,0.615-3.067,0.615c-2.863,0-4.3-1.738-4.3-5.218c0-3.27,1.488-6.085,4.453-8.44
			c2.968-2.35,7.52-3.53,13.658-3.53c6.345,0,10.843,1.027,13.505,3.07c2.66,2.047,3.992,5.015,3.992,8.9
			c0,1.842-0.615,3.43-1.843,4.758c-1.23,1.333-3.277,3.023-6.14,5.065c-2.045,1.435-3.575,2.61-4.603,3.53
			c-1.022,0.92-1.535,1.895-1.535,2.915v2.147c-1.228,1.228-2.455,1.842-3.682,1.842
			C1332.664,375.856,1331.536,374.629,1331.329,372.174z"/>
		<path style="fill:#CCB4DB;" d="M1266.931,358.931c-5.74-6.623-8.818-10.405-9.22-11.348c-1.265-0.258-2.785-0.9-4.56-1.927
			c-6.022-3.475-8.008-6.988-5.965-10.533c1.843-3.188,3.5-4.828,4.97-4.925l1.595,0.92c5.315,3.07,8.207,6.038,8.677,8.905
			c-0.102,0.182,0.758,1.15,2.575,2.905c1.47,1.552,4.245,4.93,8.333,10.125c3.233,4.23,5.895,8.013,7.985,11.342
			c2.245,3.895,2.955,6.55,2.135,7.965c-0.307,0.538-0.94,0.82-1.908,0.855c-0.965,0.035-1.805-0.152-2.515-0.565
			C1276.709,370.129,1272.681,365.559,1266.931,358.931z M1310.151,404.709c-1.023-13.092-3.885-28.44-8.595-46.04
			c-0.815,1.228-4.297,11.048-10.435,29.465c-1.637,5.323-2.457,8.8-2.457,10.438l-5.218,7.06l-5.833-3.99
			c0.208-3.07,2.05-8.902,5.525-17.495c3.483-8.595,7.268-16.468,11.358-23.635c4.098-7.16,7.06-10.743,8.903-10.743
			c3.07,0,4.605,2.148,4.605,6.445c0,6.753,1.843,15.04,5.525,24.863l3.375,11.05l-0.307,1.842l2.458,4.605l-0.31,1.535
			c0.208,0.82,0.462,1.487,0.77,1.995c0.307,0.513,0.46,0.975,0.46,1.383c0,1.842-1.843,3.07-5.525,3.682L1310.151,404.709z"/>
	</g>
</g>
</svg>
