<?xml version="1.0" encoding="utf-8"?>
<!-- Generator: Adobe Illustrator 25.0.1, SVG Export Plug-In . SVG Version: 6.00 Build 0)  -->
<svg version="1.1" xmlns="http://www.w3.org/2000/svg" xmlns:xlink="http://www.w3.org/1999/xlink" x="0px" y="0px" width="2000px"
	 height="1333px" viewBox="0 0 2000 1333" style="enable-background:new 0 0 2000 1333;" xml:space="preserve">
<g id="Layer_2">
	<rect style="fill:#F4955C;" width="2000" height="1333"/>
</g>
<g id="Layer_3">
	<g>
		<g id="text_1_">
			<path style="fill:#313131;" d="M406.423,442.199c6.891,1.722,13.092,2.411,18.604,2.411c11.024,0,15.502-5.167,15.502-13.092
				v-160.54h87.506v173.976c0,53.055-35.14,69.246-81.304,69.246c-12.403,0-31.35-1.722-48.92-6.201L406.423,442.199z"/>
			<path style="fill:#313131;" d="M548.701,417.395V270.978h87.506v148.484c0,16.536,9.302,25.149,23.427,25.149
				c14.469,0,24.116-8.613,24.116-25.149V270.978h87.506v146.416c0,58.222-39.275,99.219-111.622,99.219
				C587.63,516.613,548.701,475.616,548.701,417.395z"/>
			<path style="fill:#313131;" d="M792.609,343.325c0-46.509,36.519-76.825,90.605-76.825c55.122,0,85.784,36.173,92.328,56.845
				l-61.323,35.14c-5.169-10.679-15.502-22.048-26.526-22.048c-4.48,0-7.236,2.756-7.236,6.201
				c0,22.737,94.395,28.251,94.395,96.117c0,47.543-36.519,77.859-94.05,77.859c-57.533,0-86.472-37.896-95.431-62.7l62.357-33.763
				c8.957,15.159,21.358,25.495,32.038,25.495c4.478,0,6.891-2.411,6.891-5.857C886.659,417.74,792.609,414.638,792.609,343.325z"/>
			<path style="fill:#313131;" d="M1032.726,338.847H985.53v-67.869h182.242v67.869h-47.543v173.288h-87.506V338.847H1032.726z"/>
			<path style="fill:#313131;" d="M446.387,613.792h-47.198v-67.869h182.244v67.869h-47.543V787.08h-87.504V613.792z"/>
			<path style="fill:#313131;" d="M596.591,545.924h87.506v86.816h50.987v-86.816h87.506v241.155h-87.506v-86.472h-50.987v86.472
				h-87.506V545.924z"/>
			<path style="fill:#313131;" d="M843.251,545.924h150.551v67.869h-63.388v19.981h56.499v63.734h-56.499v21.705h63.388v67.867
				H843.251V545.924z"/>
			<path style="fill:#313131;" d="M403.322,1031.705c0-70.279,96.463-97.84,96.463-136.426c0-6.891-4.478-10.681-10.336-10.681
				c-9.302,0-13.437,10.338-15.848,20.671l-73.724-15.159c7.58-35.828,32.384-73.724,92.673-73.724
				c53.398,0,93.018,26.87,93.018,76.825c0,62.011-79.238,86.127-79.238,103.699h81.304v65.111H403.322V1031.705z"/>
			<path style="fill:#313131;" d="M663.072,941.098c0-69.589,50.987-124.711,133.325-124.711s133.325,55.122,133.325,124.711
				c0,70.625-50.987,125.402-133.325,125.402S663.072,1011.725,663.072,941.098z M754.368,941.098c0,31.352,14.814,53.4,42.031,53.4
				c26.872,0,42.031-22.048,42.031-53.4c0-30.316-15.159-52.71-42.031-52.71C769.182,888.391,754.368,910.782,754.368,941.098z"/>
			<path style="fill:#313131;" d="M942.809,820.867h149.515v67.867h-62.355v27.905h56.499v64.422h-56.499v80.96h-87.161V820.867z"/>
			<path style="fill:#313131;" d="M1175.346,967.281V820.865h87.506v148.484c0,16.536,9.302,25.147,23.427,25.147
				c14.469,0,24.116-8.611,24.116-25.147V820.865h87.506v146.416c0,58.224-39.275,99.219-111.622,99.219
				C1214.276,1066.5,1175.346,1025.505,1175.346,967.281z"/>
			<path style="fill:#313131;" d="M1419.255,893.214c0-46.507,36.519-76.825,90.605-76.825c55.122,0,85.784,36.171,92.328,56.843
				l-61.321,35.14c-5.169-10.679-15.504-22.048-26.528-22.048c-4.48,0-7.236,2.756-7.236,6.201
				c0,22.737,94.397,28.251,94.397,96.119c0,47.541-36.521,77.857-94.052,77.857c-57.531,0-86.47-37.894-95.431-62.698
				l62.357-33.765c8.956,15.159,21.36,25.497,32.04,25.497c4.478,0,6.891-2.413,6.891-5.857
				C1513.307,967.627,1419.255,964.525,1419.255,893.214z"/>
		</g>
		<g id="secondary_1_">
			<path id="_x3C_Path_x3E_" style="fill:#313131;" d="M1333.8,683.343c-15.191,12.317-33.582,18.565-49.667,29.961
				c-5.406-16.966-16.988-25.035-29.772-36.432c-17.108-15.255-33.674-57.088,0.638-63.489c9.147-1.704,18.325,3.043,25.426,9.053
				c6.66,5.636,12.263,12.517,16.43,20.183c4.045-18.722,21.745-33.582,40.885-34.325c3.386-0.13,6.865,0.153,9.958,1.54
				c2.864,1.283,5.259,3.455,7.216,5.909c8.156,10.233,8.593,25.182,3.487,37.229C1353.281,665.043,1344.266,674.983,1333.8,683.343
				z"/>
			<path style="fill:#313131;" d="M1429.568,481.528c-12.658-19.308-22.606-42.95-24.832-66.054
				c-2.698-27.986,18.072-68.549,51.563-54.111c19.916,8.587,34.929,29.503,39.002,50.425
				c-3.455-17.745,27.472-45.142,42.147-50.544c19.86-7.313,38.747,0.839,45.692,21.183
				c18.899,55.373-21.841,115.962-60.329,152.488c-26.366,25.023-44.644,2.278-63.987-17.668
				C1448.096,506.185,1438.031,494.435,1429.568,481.528z"/>
		</g>
	</g>
</g>
</svg>
